%TF.GenerationSoftware,KiCad,Pcbnew,7.0.8*%
%TF.CreationDate,2024-08-01T15:22:42+02:00*%
%TF.ProjectId,20240606_Pflanzensensor,32303234-3036-4303-965f-50666c616e7a,rev?*%
%TF.SameCoordinates,Original*%
%TF.FileFunction,AssemblyDrawing,Top*%
%FSLAX46Y46*%
G04 Gerber Fmt 4.6, Leading zero omitted, Abs format (unit mm)*
G04 Created by KiCad (PCBNEW 7.0.8) date 2024-08-01 15:22:42*
%MOMM*%
%LPD*%
G01*
G04 APERTURE LIST*
%ADD10C,0.150000*%
%ADD11C,0.060000*%
%ADD12C,0.080000*%
%ADD13C,0.100000*%
G04 APERTURE END LIST*
D10*
X82216904Y-119674819D02*
X81740714Y-119674819D01*
X81740714Y-119674819D02*
X81693095Y-120151009D01*
X81693095Y-120151009D02*
X81740714Y-120103390D01*
X81740714Y-120103390D02*
X81835952Y-120055771D01*
X81835952Y-120055771D02*
X82074047Y-120055771D01*
X82074047Y-120055771D02*
X82169285Y-120103390D01*
X82169285Y-120103390D02*
X82216904Y-120151009D01*
X82216904Y-120151009D02*
X82264523Y-120246247D01*
X82264523Y-120246247D02*
X82264523Y-120484342D01*
X82264523Y-120484342D02*
X82216904Y-120579580D01*
X82216904Y-120579580D02*
X82169285Y-120627200D01*
X82169285Y-120627200D02*
X82074047Y-120674819D01*
X82074047Y-120674819D02*
X81835952Y-120674819D01*
X81835952Y-120674819D02*
X81740714Y-120627200D01*
X81740714Y-120627200D02*
X81693095Y-120579580D01*
X82693095Y-120674819D02*
X82693095Y-119674819D01*
X83264523Y-120674819D02*
X82835952Y-120103390D01*
X83264523Y-119674819D02*
X82693095Y-120246247D01*
X84216904Y-120674819D02*
X83645476Y-120674819D01*
X83931190Y-120674819D02*
X83931190Y-119674819D01*
X83931190Y-119674819D02*
X83835952Y-119817676D01*
X83835952Y-119817676D02*
X83740714Y-119912914D01*
X83740714Y-119912914D02*
X83645476Y-119960533D01*
D11*
X82693333Y-119276927D02*
X82560000Y-119086451D01*
X82464762Y-119276927D02*
X82464762Y-118876927D01*
X82464762Y-118876927D02*
X82617143Y-118876927D01*
X82617143Y-118876927D02*
X82655238Y-118895975D01*
X82655238Y-118895975D02*
X82674285Y-118915022D01*
X82674285Y-118915022D02*
X82693333Y-118953118D01*
X82693333Y-118953118D02*
X82693333Y-119010260D01*
X82693333Y-119010260D02*
X82674285Y-119048356D01*
X82674285Y-119048356D02*
X82655238Y-119067403D01*
X82655238Y-119067403D02*
X82617143Y-119086451D01*
X82617143Y-119086451D02*
X82464762Y-119086451D01*
X83055238Y-118876927D02*
X82864762Y-118876927D01*
X82864762Y-118876927D02*
X82845714Y-119067403D01*
X82845714Y-119067403D02*
X82864762Y-119048356D01*
X82864762Y-119048356D02*
X82902857Y-119029308D01*
X82902857Y-119029308D02*
X82998095Y-119029308D01*
X82998095Y-119029308D02*
X83036190Y-119048356D01*
X83036190Y-119048356D02*
X83055238Y-119067403D01*
X83055238Y-119067403D02*
X83074285Y-119105499D01*
X83074285Y-119105499D02*
X83074285Y-119200737D01*
X83074285Y-119200737D02*
X83055238Y-119238832D01*
X83055238Y-119238832D02*
X83036190Y-119257880D01*
X83036190Y-119257880D02*
X82998095Y-119276927D01*
X82998095Y-119276927D02*
X82902857Y-119276927D01*
X82902857Y-119276927D02*
X82864762Y-119257880D01*
X82864762Y-119257880D02*
X82845714Y-119238832D01*
D10*
X60253824Y-49420984D02*
X59777633Y-49754317D01*
X60253824Y-49992412D02*
X59253824Y-49992412D01*
X59253824Y-49992412D02*
X59253824Y-49611460D01*
X59253824Y-49611460D02*
X59301443Y-49516222D01*
X59301443Y-49516222D02*
X59349062Y-49468603D01*
X59349062Y-49468603D02*
X59444300Y-49420984D01*
X59444300Y-49420984D02*
X59587157Y-49420984D01*
X59587157Y-49420984D02*
X59682395Y-49468603D01*
X59682395Y-49468603D02*
X59730014Y-49516222D01*
X59730014Y-49516222D02*
X59777633Y-49611460D01*
X59777633Y-49611460D02*
X59777633Y-49992412D01*
X59777633Y-48801936D02*
X60253824Y-48801936D01*
X59253824Y-49135269D02*
X59777633Y-48801936D01*
X59777633Y-48801936D02*
X59253824Y-48468603D01*
X60253824Y-47611460D02*
X60253824Y-48182888D01*
X60253824Y-47897174D02*
X59253824Y-47897174D01*
X59253824Y-47897174D02*
X59396681Y-47992412D01*
X59396681Y-47992412D02*
X59491919Y-48087650D01*
X59491919Y-48087650D02*
X59539538Y-48182888D01*
X90616908Y-138428260D02*
X90664527Y-138380641D01*
X90664527Y-138380641D02*
X90759765Y-138333022D01*
X90759765Y-138333022D02*
X90950241Y-138428260D01*
X90950241Y-138428260D02*
X91045479Y-138380641D01*
X91045479Y-138380641D02*
X91093098Y-138333022D01*
X90497861Y-135888260D02*
X91259766Y-135888260D01*
X65252338Y-34285565D02*
X64919005Y-33809374D01*
X64680910Y-34285565D02*
X64680910Y-33285565D01*
X64680910Y-33285565D02*
X65061862Y-33285565D01*
X65061862Y-33285565D02*
X65157100Y-33333184D01*
X65157100Y-33333184D02*
X65204719Y-33380803D01*
X65204719Y-33380803D02*
X65252338Y-33476041D01*
X65252338Y-33476041D02*
X65252338Y-33618898D01*
X65252338Y-33618898D02*
X65204719Y-33714136D01*
X65204719Y-33714136D02*
X65157100Y-33761755D01*
X65157100Y-33761755D02*
X65061862Y-33809374D01*
X65061862Y-33809374D02*
X64680910Y-33809374D01*
X66204719Y-34285565D02*
X65633291Y-34285565D01*
X65919005Y-34285565D02*
X65919005Y-33285565D01*
X65919005Y-33285565D02*
X65823767Y-33428422D01*
X65823767Y-33428422D02*
X65728529Y-33523660D01*
X65728529Y-33523660D02*
X65633291Y-33571279D01*
X65027338Y-35545565D02*
X64455910Y-35545565D01*
X64741624Y-35545565D02*
X64741624Y-34545565D01*
X64741624Y-34545565D02*
X64646386Y-34688422D01*
X64646386Y-34688422D02*
X64551148Y-34783660D01*
X64551148Y-34783660D02*
X64455910Y-34831279D01*
X65455910Y-35545565D02*
X65455910Y-34545565D01*
X66027338Y-35545565D02*
X65598767Y-34974136D01*
X66027338Y-34545565D02*
X65455910Y-35116993D01*
X66408291Y-35545565D02*
X66646386Y-35545565D01*
X66646386Y-35545565D02*
X66646386Y-35355088D01*
X66646386Y-35355088D02*
X66551148Y-35307469D01*
X66551148Y-35307469D02*
X66455910Y-35212231D01*
X66455910Y-35212231D02*
X66408291Y-35069374D01*
X66408291Y-35069374D02*
X66408291Y-34831279D01*
X66408291Y-34831279D02*
X66455910Y-34688422D01*
X66455910Y-34688422D02*
X66551148Y-34593184D01*
X66551148Y-34593184D02*
X66694005Y-34545565D01*
X66694005Y-34545565D02*
X66884481Y-34545565D01*
X66884481Y-34545565D02*
X67027338Y-34593184D01*
X67027338Y-34593184D02*
X67122576Y-34688422D01*
X67122576Y-34688422D02*
X67170195Y-34831279D01*
X67170195Y-34831279D02*
X67170195Y-35069374D01*
X67170195Y-35069374D02*
X67122576Y-35212231D01*
X67122576Y-35212231D02*
X67027338Y-35307469D01*
X67027338Y-35307469D02*
X66932100Y-35355088D01*
X66932100Y-35355088D02*
X66932100Y-35545565D01*
X66932100Y-35545565D02*
X67170195Y-35545565D01*
D11*
X65352338Y-32532673D02*
X65219005Y-32342197D01*
X65123767Y-32532673D02*
X65123767Y-32132673D01*
X65123767Y-32132673D02*
X65276148Y-32132673D01*
X65276148Y-32132673D02*
X65314243Y-32151721D01*
X65314243Y-32151721D02*
X65333290Y-32170768D01*
X65333290Y-32170768D02*
X65352338Y-32208864D01*
X65352338Y-32208864D02*
X65352338Y-32266006D01*
X65352338Y-32266006D02*
X65333290Y-32304102D01*
X65333290Y-32304102D02*
X65314243Y-32323149D01*
X65314243Y-32323149D02*
X65276148Y-32342197D01*
X65276148Y-32342197D02*
X65123767Y-32342197D01*
X65733290Y-32532673D02*
X65504719Y-32532673D01*
X65619005Y-32532673D02*
X65619005Y-32132673D01*
X65619005Y-32132673D02*
X65580909Y-32189816D01*
X65580909Y-32189816D02*
X65542814Y-32227911D01*
X65542814Y-32227911D02*
X65504719Y-32246959D01*
D10*
X60253824Y-43467412D02*
X59777633Y-43800745D01*
X60253824Y-44038840D02*
X59253824Y-44038840D01*
X59253824Y-44038840D02*
X59253824Y-43657888D01*
X59253824Y-43657888D02*
X59301443Y-43562650D01*
X59301443Y-43562650D02*
X59349062Y-43515031D01*
X59349062Y-43515031D02*
X59444300Y-43467412D01*
X59444300Y-43467412D02*
X59587157Y-43467412D01*
X59587157Y-43467412D02*
X59682395Y-43515031D01*
X59682395Y-43515031D02*
X59730014Y-43562650D01*
X59730014Y-43562650D02*
X59777633Y-43657888D01*
X59777633Y-43657888D02*
X59777633Y-44038840D01*
X60253824Y-42467412D02*
X59777633Y-42800745D01*
X60253824Y-43038840D02*
X59253824Y-43038840D01*
X59253824Y-43038840D02*
X59253824Y-42657888D01*
X59253824Y-42657888D02*
X59301443Y-42562650D01*
X59301443Y-42562650D02*
X59349062Y-42515031D01*
X59349062Y-42515031D02*
X59444300Y-42467412D01*
X59444300Y-42467412D02*
X59587157Y-42467412D01*
X59587157Y-42467412D02*
X59682395Y-42515031D01*
X59682395Y-42515031D02*
X59730014Y-42562650D01*
X59730014Y-42562650D02*
X59777633Y-42657888D01*
X59777633Y-42657888D02*
X59777633Y-43038840D01*
X60253824Y-41515031D02*
X60253824Y-42086459D01*
X60253824Y-41800745D02*
X59253824Y-41800745D01*
X59253824Y-41800745D02*
X59396681Y-41895983D01*
X59396681Y-41895983D02*
X59491919Y-41991221D01*
X59491919Y-41991221D02*
X59539538Y-42086459D01*
X83158325Y-147557638D02*
X84357684Y-147480288D01*
X83491658Y-146980288D02*
X84024350Y-148057638D01*
X83920230Y-146237980D02*
X83682135Y-146650373D01*
X83682135Y-146650373D02*
X84070718Y-146929708D01*
X84070718Y-146929708D02*
X84053288Y-146864659D01*
X84053288Y-146864659D02*
X84059668Y-146758371D01*
X84059668Y-146758371D02*
X84178716Y-146552175D01*
X84178716Y-146552175D02*
X84267574Y-146493505D01*
X84267574Y-146493505D02*
X84332623Y-146476076D01*
X84332623Y-146476076D02*
X84438911Y-146482455D01*
X84438911Y-146482455D02*
X84645108Y-146601503D01*
X84645108Y-146601503D02*
X84703777Y-146690361D01*
X84703777Y-146690361D02*
X84721206Y-146755410D01*
X84721206Y-146755410D02*
X84714827Y-146861698D01*
X84714827Y-146861698D02*
X84595779Y-147067895D01*
X84595779Y-147067895D02*
X84506921Y-147126564D01*
X84506921Y-147126564D02*
X84441872Y-147143994D01*
X52279957Y-45440565D02*
X51803767Y-45440565D01*
X51803767Y-45440565D02*
X51803767Y-44440565D01*
X52613291Y-44916755D02*
X52946624Y-44916755D01*
X53089481Y-45440565D02*
X52613291Y-45440565D01*
X52613291Y-45440565D02*
X52613291Y-44440565D01*
X52613291Y-44440565D02*
X53089481Y-44440565D01*
X53518053Y-45440565D02*
X53518053Y-44440565D01*
X53518053Y-44440565D02*
X53756148Y-44440565D01*
X53756148Y-44440565D02*
X53899005Y-44488184D01*
X53899005Y-44488184D02*
X53994243Y-44583422D01*
X53994243Y-44583422D02*
X54041862Y-44678660D01*
X54041862Y-44678660D02*
X54089481Y-44869136D01*
X54089481Y-44869136D02*
X54089481Y-45011993D01*
X54089481Y-45011993D02*
X54041862Y-45202469D01*
X54041862Y-45202469D02*
X53994243Y-45297707D01*
X53994243Y-45297707D02*
X53899005Y-45392946D01*
X53899005Y-45392946D02*
X53756148Y-45440565D01*
X53756148Y-45440565D02*
X53518053Y-45440565D01*
X55089481Y-45440565D02*
X54756148Y-44964374D01*
X54518053Y-45440565D02*
X54518053Y-44440565D01*
X54518053Y-44440565D02*
X54899005Y-44440565D01*
X54899005Y-44440565D02*
X54994243Y-44488184D01*
X54994243Y-44488184D02*
X55041862Y-44535803D01*
X55041862Y-44535803D02*
X55089481Y-44631041D01*
X55089481Y-44631041D02*
X55089481Y-44773898D01*
X55089481Y-44773898D02*
X55041862Y-44869136D01*
X55041862Y-44869136D02*
X54994243Y-44916755D01*
X54994243Y-44916755D02*
X54899005Y-44964374D01*
X54899005Y-44964374D02*
X54518053Y-44964374D01*
X56041862Y-45440565D02*
X55470434Y-45440565D01*
X55756148Y-45440565D02*
X55756148Y-44440565D01*
X55756148Y-44440565D02*
X55660910Y-44583422D01*
X55660910Y-44583422D02*
X55565672Y-44678660D01*
X55565672Y-44678660D02*
X55470434Y-44726279D01*
X81996904Y-115634819D02*
X81520714Y-115634819D01*
X81520714Y-115634819D02*
X81473095Y-116111009D01*
X81473095Y-116111009D02*
X81520714Y-116063390D01*
X81520714Y-116063390D02*
X81615952Y-116015771D01*
X81615952Y-116015771D02*
X81854047Y-116015771D01*
X81854047Y-116015771D02*
X81949285Y-116063390D01*
X81949285Y-116063390D02*
X81996904Y-116111009D01*
X81996904Y-116111009D02*
X82044523Y-116206247D01*
X82044523Y-116206247D02*
X82044523Y-116444342D01*
X82044523Y-116444342D02*
X81996904Y-116539580D01*
X81996904Y-116539580D02*
X81949285Y-116587200D01*
X81949285Y-116587200D02*
X81854047Y-116634819D01*
X81854047Y-116634819D02*
X81615952Y-116634819D01*
X81615952Y-116634819D02*
X81520714Y-116587200D01*
X81520714Y-116587200D02*
X81473095Y-116539580D01*
X82473095Y-116634819D02*
X82473095Y-115634819D01*
X83044523Y-116634819D02*
X82615952Y-116063390D01*
X83044523Y-115634819D02*
X82473095Y-116206247D01*
X83996904Y-116634819D02*
X83425476Y-116634819D01*
X83711190Y-116634819D02*
X83711190Y-115634819D01*
X83711190Y-115634819D02*
X83615952Y-115777676D01*
X83615952Y-115777676D02*
X83520714Y-115872914D01*
X83520714Y-115872914D02*
X83425476Y-115920533D01*
D11*
X82668333Y-117501927D02*
X82535000Y-117311451D01*
X82439762Y-117501927D02*
X82439762Y-117101927D01*
X82439762Y-117101927D02*
X82592143Y-117101927D01*
X82592143Y-117101927D02*
X82630238Y-117120975D01*
X82630238Y-117120975D02*
X82649285Y-117140022D01*
X82649285Y-117140022D02*
X82668333Y-117178118D01*
X82668333Y-117178118D02*
X82668333Y-117235260D01*
X82668333Y-117235260D02*
X82649285Y-117273356D01*
X82649285Y-117273356D02*
X82630238Y-117292403D01*
X82630238Y-117292403D02*
X82592143Y-117311451D01*
X82592143Y-117311451D02*
X82439762Y-117311451D01*
X83011190Y-117101927D02*
X82935000Y-117101927D01*
X82935000Y-117101927D02*
X82896904Y-117120975D01*
X82896904Y-117120975D02*
X82877857Y-117140022D01*
X82877857Y-117140022D02*
X82839762Y-117197165D01*
X82839762Y-117197165D02*
X82820714Y-117273356D01*
X82820714Y-117273356D02*
X82820714Y-117425737D01*
X82820714Y-117425737D02*
X82839762Y-117463832D01*
X82839762Y-117463832D02*
X82858809Y-117482880D01*
X82858809Y-117482880D02*
X82896904Y-117501927D01*
X82896904Y-117501927D02*
X82973095Y-117501927D01*
X82973095Y-117501927D02*
X83011190Y-117482880D01*
X83011190Y-117482880D02*
X83030238Y-117463832D01*
X83030238Y-117463832D02*
X83049285Y-117425737D01*
X83049285Y-117425737D02*
X83049285Y-117330499D01*
X83049285Y-117330499D02*
X83030238Y-117292403D01*
X83030238Y-117292403D02*
X83011190Y-117273356D01*
X83011190Y-117273356D02*
X82973095Y-117254308D01*
X82973095Y-117254308D02*
X82896904Y-117254308D01*
X82896904Y-117254308D02*
X82858809Y-117273356D01*
X82858809Y-117273356D02*
X82839762Y-117292403D01*
X82839762Y-117292403D02*
X82820714Y-117330499D01*
D10*
X40383766Y-104055326D02*
X40336147Y-104102946D01*
X40336147Y-104102946D02*
X40193290Y-104150565D01*
X40193290Y-104150565D02*
X40098052Y-104150565D01*
X40098052Y-104150565D02*
X39955195Y-104102946D01*
X39955195Y-104102946D02*
X39859957Y-104007707D01*
X39859957Y-104007707D02*
X39812338Y-103912469D01*
X39812338Y-103912469D02*
X39764719Y-103721993D01*
X39764719Y-103721993D02*
X39764719Y-103579136D01*
X39764719Y-103579136D02*
X39812338Y-103388660D01*
X39812338Y-103388660D02*
X39859957Y-103293422D01*
X39859957Y-103293422D02*
X39955195Y-103198184D01*
X39955195Y-103198184D02*
X40098052Y-103150565D01*
X40098052Y-103150565D02*
X40193290Y-103150565D01*
X40193290Y-103150565D02*
X40336147Y-103198184D01*
X40336147Y-103198184D02*
X40383766Y-103245803D01*
X40812338Y-104150565D02*
X40812338Y-103150565D01*
X40812338Y-103150565D02*
X41050433Y-103150565D01*
X41050433Y-103150565D02*
X41193290Y-103198184D01*
X41193290Y-103198184D02*
X41288528Y-103293422D01*
X41288528Y-103293422D02*
X41336147Y-103388660D01*
X41336147Y-103388660D02*
X41383766Y-103579136D01*
X41383766Y-103579136D02*
X41383766Y-103721993D01*
X41383766Y-103721993D02*
X41336147Y-103912469D01*
X41336147Y-103912469D02*
X41288528Y-104007707D01*
X41288528Y-104007707D02*
X41193290Y-104102946D01*
X41193290Y-104102946D02*
X41050433Y-104150565D01*
X41050433Y-104150565D02*
X40812338Y-104150565D01*
X42240909Y-103483898D02*
X42240909Y-104150565D01*
X42002814Y-103102946D02*
X41764719Y-103817231D01*
X41764719Y-103817231D02*
X42383766Y-103817231D01*
X42955195Y-103150565D02*
X43050433Y-103150565D01*
X43050433Y-103150565D02*
X43145671Y-103198184D01*
X43145671Y-103198184D02*
X43193290Y-103245803D01*
X43193290Y-103245803D02*
X43240909Y-103341041D01*
X43240909Y-103341041D02*
X43288528Y-103531517D01*
X43288528Y-103531517D02*
X43288528Y-103769612D01*
X43288528Y-103769612D02*
X43240909Y-103960088D01*
X43240909Y-103960088D02*
X43193290Y-104055326D01*
X43193290Y-104055326D02*
X43145671Y-104102946D01*
X43145671Y-104102946D02*
X43050433Y-104150565D01*
X43050433Y-104150565D02*
X42955195Y-104150565D01*
X42955195Y-104150565D02*
X42859957Y-104102946D01*
X42859957Y-104102946D02*
X42812338Y-104055326D01*
X42812338Y-104055326D02*
X42764719Y-103960088D01*
X42764719Y-103960088D02*
X42717100Y-103769612D01*
X42717100Y-103769612D02*
X42717100Y-103531517D01*
X42717100Y-103531517D02*
X42764719Y-103341041D01*
X42764719Y-103341041D02*
X42812338Y-103245803D01*
X42812338Y-103245803D02*
X42859957Y-103198184D01*
X42859957Y-103198184D02*
X42955195Y-103150565D01*
X44193290Y-103150565D02*
X43717100Y-103150565D01*
X43717100Y-103150565D02*
X43669481Y-103626755D01*
X43669481Y-103626755D02*
X43717100Y-103579136D01*
X43717100Y-103579136D02*
X43812338Y-103531517D01*
X43812338Y-103531517D02*
X44050433Y-103531517D01*
X44050433Y-103531517D02*
X44145671Y-103579136D01*
X44145671Y-103579136D02*
X44193290Y-103626755D01*
X44193290Y-103626755D02*
X44240909Y-103721993D01*
X44240909Y-103721993D02*
X44240909Y-103960088D01*
X44240909Y-103960088D02*
X44193290Y-104055326D01*
X44193290Y-104055326D02*
X44145671Y-104102946D01*
X44145671Y-104102946D02*
X44050433Y-104150565D01*
X44050433Y-104150565D02*
X43812338Y-104150565D01*
X43812338Y-104150565D02*
X43717100Y-104102946D01*
X43717100Y-104102946D02*
X43669481Y-104055326D01*
X45193290Y-104150565D02*
X44621862Y-104150565D01*
X44907576Y-104150565D02*
X44907576Y-103150565D01*
X44907576Y-103150565D02*
X44812338Y-103293422D01*
X44812338Y-103293422D02*
X44717100Y-103388660D01*
X44717100Y-103388660D02*
X44621862Y-103436279D01*
X45955195Y-103626755D02*
X46098052Y-103674374D01*
X46098052Y-103674374D02*
X46145671Y-103721993D01*
X46145671Y-103721993D02*
X46193290Y-103817231D01*
X46193290Y-103817231D02*
X46193290Y-103960088D01*
X46193290Y-103960088D02*
X46145671Y-104055326D01*
X46145671Y-104055326D02*
X46098052Y-104102946D01*
X46098052Y-104102946D02*
X46002814Y-104150565D01*
X46002814Y-104150565D02*
X45621862Y-104150565D01*
X45621862Y-104150565D02*
X45621862Y-103150565D01*
X45621862Y-103150565D02*
X45955195Y-103150565D01*
X45955195Y-103150565D02*
X46050433Y-103198184D01*
X46050433Y-103198184D02*
X46098052Y-103245803D01*
X46098052Y-103245803D02*
X46145671Y-103341041D01*
X46145671Y-103341041D02*
X46145671Y-103436279D01*
X46145671Y-103436279D02*
X46098052Y-103531517D01*
X46098052Y-103531517D02*
X46050433Y-103579136D01*
X46050433Y-103579136D02*
X45955195Y-103626755D01*
X45955195Y-103626755D02*
X45621862Y-103626755D01*
X42002815Y-115370565D02*
X42002815Y-114370565D01*
X43050433Y-115275326D02*
X43002814Y-115322946D01*
X43002814Y-115322946D02*
X42859957Y-115370565D01*
X42859957Y-115370565D02*
X42764719Y-115370565D01*
X42764719Y-115370565D02*
X42621862Y-115322946D01*
X42621862Y-115322946D02*
X42526624Y-115227707D01*
X42526624Y-115227707D02*
X42479005Y-115132469D01*
X42479005Y-115132469D02*
X42431386Y-114941993D01*
X42431386Y-114941993D02*
X42431386Y-114799136D01*
X42431386Y-114799136D02*
X42479005Y-114608660D01*
X42479005Y-114608660D02*
X42526624Y-114513422D01*
X42526624Y-114513422D02*
X42621862Y-114418184D01*
X42621862Y-114418184D02*
X42764719Y-114370565D01*
X42764719Y-114370565D02*
X42859957Y-114370565D01*
X42859957Y-114370565D02*
X43002814Y-114418184D01*
X43002814Y-114418184D02*
X43050433Y-114465803D01*
X44002814Y-115370565D02*
X43431386Y-115370565D01*
X43717100Y-115370565D02*
X43717100Y-114370565D01*
X43717100Y-114370565D02*
X43621862Y-114513422D01*
X43621862Y-114513422D02*
X43526624Y-114608660D01*
X43526624Y-114608660D02*
X43431386Y-114656279D01*
X67157100Y-58735565D02*
X66585672Y-58735565D01*
X66871386Y-58735565D02*
X66871386Y-57735565D01*
X66871386Y-57735565D02*
X66776148Y-57878422D01*
X66776148Y-57878422D02*
X66680910Y-57973660D01*
X66680910Y-57973660D02*
X66585672Y-58021279D01*
X67776148Y-57735565D02*
X67871386Y-57735565D01*
X67871386Y-57735565D02*
X67966624Y-57783184D01*
X67966624Y-57783184D02*
X68014243Y-57830803D01*
X68014243Y-57830803D02*
X68061862Y-57926041D01*
X68061862Y-57926041D02*
X68109481Y-58116517D01*
X68109481Y-58116517D02*
X68109481Y-58354612D01*
X68109481Y-58354612D02*
X68061862Y-58545088D01*
X68061862Y-58545088D02*
X68014243Y-58640326D01*
X68014243Y-58640326D02*
X67966624Y-58687946D01*
X67966624Y-58687946D02*
X67871386Y-58735565D01*
X67871386Y-58735565D02*
X67776148Y-58735565D01*
X67776148Y-58735565D02*
X67680910Y-58687946D01*
X67680910Y-58687946D02*
X67633291Y-58640326D01*
X67633291Y-58640326D02*
X67585672Y-58545088D01*
X67585672Y-58545088D02*
X67538053Y-58354612D01*
X67538053Y-58354612D02*
X67538053Y-58116517D01*
X67538053Y-58116517D02*
X67585672Y-57926041D01*
X67585672Y-57926041D02*
X67633291Y-57830803D01*
X67633291Y-57830803D02*
X67680910Y-57783184D01*
X67680910Y-57783184D02*
X67776148Y-57735565D01*
X68538053Y-58735565D02*
X68538053Y-57735565D01*
X69109481Y-58735565D02*
X68680910Y-58164136D01*
X69109481Y-57735565D02*
X68538053Y-58306993D01*
X69490434Y-58735565D02*
X69728529Y-58735565D01*
X69728529Y-58735565D02*
X69728529Y-58545088D01*
X69728529Y-58545088D02*
X69633291Y-58497469D01*
X69633291Y-58497469D02*
X69538053Y-58402231D01*
X69538053Y-58402231D02*
X69490434Y-58259374D01*
X69490434Y-58259374D02*
X69490434Y-58021279D01*
X69490434Y-58021279D02*
X69538053Y-57878422D01*
X69538053Y-57878422D02*
X69633291Y-57783184D01*
X69633291Y-57783184D02*
X69776148Y-57735565D01*
X69776148Y-57735565D02*
X69966624Y-57735565D01*
X69966624Y-57735565D02*
X70109481Y-57783184D01*
X70109481Y-57783184D02*
X70204719Y-57878422D01*
X70204719Y-57878422D02*
X70252338Y-58021279D01*
X70252338Y-58021279D02*
X70252338Y-58259374D01*
X70252338Y-58259374D02*
X70204719Y-58402231D01*
X70204719Y-58402231D02*
X70109481Y-58497469D01*
X70109481Y-58497469D02*
X70014243Y-58545088D01*
X70014243Y-58545088D02*
X70014243Y-58735565D01*
X70014243Y-58735565D02*
X70252338Y-58735565D01*
D11*
X71152338Y-58482673D02*
X71019005Y-58292197D01*
X70923767Y-58482673D02*
X70923767Y-58082673D01*
X70923767Y-58082673D02*
X71076148Y-58082673D01*
X71076148Y-58082673D02*
X71114243Y-58101721D01*
X71114243Y-58101721D02*
X71133290Y-58120768D01*
X71133290Y-58120768D02*
X71152338Y-58158864D01*
X71152338Y-58158864D02*
X71152338Y-58216006D01*
X71152338Y-58216006D02*
X71133290Y-58254102D01*
X71133290Y-58254102D02*
X71114243Y-58273149D01*
X71114243Y-58273149D02*
X71076148Y-58292197D01*
X71076148Y-58292197D02*
X70923767Y-58292197D01*
X71304719Y-58120768D02*
X71323767Y-58101721D01*
X71323767Y-58101721D02*
X71361862Y-58082673D01*
X71361862Y-58082673D02*
X71457100Y-58082673D01*
X71457100Y-58082673D02*
X71495195Y-58101721D01*
X71495195Y-58101721D02*
X71514243Y-58120768D01*
X71514243Y-58120768D02*
X71533290Y-58158864D01*
X71533290Y-58158864D02*
X71533290Y-58196959D01*
X71533290Y-58196959D02*
X71514243Y-58254102D01*
X71514243Y-58254102D02*
X71285671Y-58482673D01*
X71285671Y-58482673D02*
X71533290Y-58482673D01*
D10*
X37858767Y-128285565D02*
X37954005Y-128285565D01*
X37954005Y-128285565D02*
X38049243Y-128333184D01*
X38049243Y-128333184D02*
X38096862Y-128380803D01*
X38096862Y-128380803D02*
X38144481Y-128476041D01*
X38144481Y-128476041D02*
X38192100Y-128666517D01*
X38192100Y-128666517D02*
X38192100Y-128904612D01*
X38192100Y-128904612D02*
X38144481Y-129095088D01*
X38144481Y-129095088D02*
X38096862Y-129190326D01*
X38096862Y-129190326D02*
X38049243Y-129237946D01*
X38049243Y-129237946D02*
X37954005Y-129285565D01*
X37954005Y-129285565D02*
X37858767Y-129285565D01*
X37858767Y-129285565D02*
X37763529Y-129237946D01*
X37763529Y-129237946D02*
X37715910Y-129190326D01*
X37715910Y-129190326D02*
X37668291Y-129095088D01*
X37668291Y-129095088D02*
X37620672Y-128904612D01*
X37620672Y-128904612D02*
X37620672Y-128666517D01*
X37620672Y-128666517D02*
X37668291Y-128476041D01*
X37668291Y-128476041D02*
X37715910Y-128380803D01*
X37715910Y-128380803D02*
X37763529Y-128333184D01*
X37763529Y-128333184D02*
X37858767Y-128285565D01*
X38620672Y-129190326D02*
X38668291Y-129237946D01*
X38668291Y-129237946D02*
X38620672Y-129285565D01*
X38620672Y-129285565D02*
X38573053Y-129237946D01*
X38573053Y-129237946D02*
X38620672Y-129190326D01*
X38620672Y-129190326D02*
X38620672Y-129285565D01*
X39620671Y-129285565D02*
X39049243Y-129285565D01*
X39334957Y-129285565D02*
X39334957Y-128285565D01*
X39334957Y-128285565D02*
X39239719Y-128428422D01*
X39239719Y-128428422D02*
X39144481Y-128523660D01*
X39144481Y-128523660D02*
X39049243Y-128571279D01*
X40811148Y-128618898D02*
X40811148Y-129618898D01*
X41287338Y-129142707D02*
X41334957Y-129237946D01*
X41334957Y-129237946D02*
X41430195Y-129285565D01*
X40811148Y-129142707D02*
X40858767Y-129237946D01*
X40858767Y-129237946D02*
X40954005Y-129285565D01*
X40954005Y-129285565D02*
X41144481Y-129285565D01*
X41144481Y-129285565D02*
X41239719Y-129237946D01*
X41239719Y-129237946D02*
X41287338Y-129142707D01*
X41287338Y-129142707D02*
X41287338Y-128618898D01*
X42192100Y-128761755D02*
X41858767Y-128761755D01*
X41858767Y-129285565D02*
X41858767Y-128285565D01*
X41858767Y-128285565D02*
X42334957Y-128285565D01*
D12*
X39985671Y-127105276D02*
X39961862Y-127129086D01*
X39961862Y-127129086D02*
X39890433Y-127152895D01*
X39890433Y-127152895D02*
X39842814Y-127152895D01*
X39842814Y-127152895D02*
X39771386Y-127129086D01*
X39771386Y-127129086D02*
X39723767Y-127081466D01*
X39723767Y-127081466D02*
X39699957Y-127033847D01*
X39699957Y-127033847D02*
X39676148Y-126938609D01*
X39676148Y-126938609D02*
X39676148Y-126867181D01*
X39676148Y-126867181D02*
X39699957Y-126771943D01*
X39699957Y-126771943D02*
X39723767Y-126724324D01*
X39723767Y-126724324D02*
X39771386Y-126676705D01*
X39771386Y-126676705D02*
X39842814Y-126652895D01*
X39842814Y-126652895D02*
X39890433Y-126652895D01*
X39890433Y-126652895D02*
X39961862Y-126676705D01*
X39961862Y-126676705D02*
X39985671Y-126700514D01*
X40176148Y-126700514D02*
X40199957Y-126676705D01*
X40199957Y-126676705D02*
X40247576Y-126652895D01*
X40247576Y-126652895D02*
X40366624Y-126652895D01*
X40366624Y-126652895D02*
X40414243Y-126676705D01*
X40414243Y-126676705D02*
X40438052Y-126700514D01*
X40438052Y-126700514D02*
X40461862Y-126748133D01*
X40461862Y-126748133D02*
X40461862Y-126795752D01*
X40461862Y-126795752D02*
X40438052Y-126867181D01*
X40438052Y-126867181D02*
X40152338Y-127152895D01*
X40152338Y-127152895D02*
X40461862Y-127152895D01*
D10*
X40052790Y-159738981D02*
X40070220Y-159804030D01*
X40070220Y-159804030D02*
X40040031Y-159951558D01*
X40040031Y-159951558D02*
X39992412Y-160034036D01*
X39992412Y-160034036D02*
X39879744Y-160133945D01*
X39879744Y-160133945D02*
X39749646Y-160168804D01*
X39749646Y-160168804D02*
X39643358Y-160162424D01*
X39643358Y-160162424D02*
X39454591Y-160108426D01*
X39454591Y-160108426D02*
X39330873Y-160036997D01*
X39330873Y-160036997D02*
X39189726Y-159900520D01*
X39189726Y-159900520D02*
X39131057Y-159811661D01*
X39131057Y-159811661D02*
X39096197Y-159681564D01*
X39096197Y-159681564D02*
X39126386Y-159534036D01*
X39126386Y-159534036D02*
X39174005Y-159451558D01*
X39174005Y-159451558D02*
X39286673Y-159351649D01*
X39286673Y-159351649D02*
X39351722Y-159334219D01*
X40420983Y-159291729D02*
X40332125Y-159350398D01*
X40332125Y-159350398D02*
X40267076Y-159367828D01*
X40267076Y-159367828D02*
X40160788Y-159361448D01*
X40160788Y-159361448D02*
X39913352Y-159218591D01*
X39913352Y-159218591D02*
X39854683Y-159129732D01*
X39854683Y-159129732D02*
X39837253Y-159064684D01*
X39837253Y-159064684D02*
X39843633Y-158958395D01*
X39843633Y-158958395D02*
X39915061Y-158834678D01*
X39915061Y-158834678D02*
X40003920Y-158776008D01*
X40003920Y-158776008D02*
X40068969Y-158758579D01*
X40068969Y-158758579D02*
X40175257Y-158764958D01*
X40175257Y-158764958D02*
X40422692Y-158907816D01*
X40422692Y-158907816D02*
X40481362Y-158996674D01*
X40481362Y-158996674D02*
X40498791Y-159061723D01*
X40498791Y-159061723D02*
X40492412Y-159168011D01*
X40492412Y-159168011D02*
X40420983Y-159291729D01*
X40224585Y-158298566D02*
X40801935Y-158631900D01*
X40307064Y-158346186D02*
X40289634Y-158281137D01*
X40289634Y-158281137D02*
X40296014Y-158174849D01*
X40296014Y-158174849D02*
X40367442Y-158051131D01*
X40367442Y-158051131D02*
X40456301Y-157992462D01*
X40456301Y-157992462D02*
X40562589Y-157998841D01*
X40562589Y-157998841D02*
X41016221Y-158260746D01*
X40676966Y-157515020D02*
X41254316Y-157848353D01*
X40759445Y-157562639D02*
X40742015Y-157497590D01*
X40742015Y-157497590D02*
X40748395Y-157391302D01*
X40748395Y-157391302D02*
X40819823Y-157267584D01*
X40819823Y-157267584D02*
X40908682Y-157208915D01*
X40908682Y-157208915D02*
X41014970Y-157215294D01*
X41014970Y-157215294D02*
X41468602Y-157477199D01*
X41670128Y-157318622D02*
X42051081Y-156658793D01*
X41316863Y-155740020D02*
X41364482Y-155657541D01*
X41364482Y-155657541D02*
X41453340Y-155598872D01*
X41453340Y-155598872D02*
X41518389Y-155581442D01*
X41518389Y-155581442D02*
X41624677Y-155587822D01*
X41624677Y-155587822D02*
X41813444Y-155641821D01*
X41813444Y-155641821D02*
X42019640Y-155760868D01*
X42019640Y-155760868D02*
X42160788Y-155897346D01*
X42160788Y-155897346D02*
X42219457Y-155986204D01*
X42219457Y-155986204D02*
X42236887Y-156051253D01*
X42236887Y-156051253D02*
X42230507Y-156157541D01*
X42230507Y-156157541D02*
X42182888Y-156240020D01*
X42182888Y-156240020D02*
X42094030Y-156298689D01*
X42094030Y-156298689D02*
X42028981Y-156316119D01*
X42028981Y-156316119D02*
X41922693Y-156309739D01*
X41922693Y-156309739D02*
X41733926Y-156255740D01*
X41733926Y-156255740D02*
X41527729Y-156136692D01*
X41527729Y-156136692D02*
X41386582Y-156000215D01*
X41386582Y-156000215D02*
X41327913Y-155911357D01*
X41327913Y-155911357D02*
X41310483Y-155846308D01*
X41310483Y-155846308D02*
X41316863Y-155740020D01*
X42825745Y-155126558D02*
X42540031Y-155621430D01*
X42682888Y-155373994D02*
X41816863Y-154873994D01*
X41816863Y-154873994D02*
X41892962Y-155027901D01*
X41892962Y-155027901D02*
X41927821Y-155157999D01*
X41927821Y-155157999D02*
X41921441Y-155264287D01*
X42992412Y-154837883D02*
X42676966Y-154050918D01*
X42415062Y-154504550D02*
X43254317Y-154384251D01*
X42674006Y-153389379D02*
X42721625Y-153306901D01*
X42721625Y-153306901D02*
X42810483Y-153248231D01*
X42810483Y-153248231D02*
X42875532Y-153230802D01*
X42875532Y-153230802D02*
X42981820Y-153237181D01*
X42981820Y-153237181D02*
X43170587Y-153291180D01*
X43170587Y-153291180D02*
X43376783Y-153410228D01*
X43376783Y-153410228D02*
X43517931Y-153546705D01*
X43517931Y-153546705D02*
X43576600Y-153635564D01*
X43576600Y-153635564D02*
X43594030Y-153700612D01*
X43594030Y-153700612D02*
X43587650Y-153806901D01*
X43587650Y-153806901D02*
X43540031Y-153889379D01*
X43540031Y-153889379D02*
X43451173Y-153948048D01*
X43451173Y-153948048D02*
X43386124Y-153965478D01*
X43386124Y-153965478D02*
X43279836Y-153959098D01*
X43279836Y-153959098D02*
X43091069Y-153905099D01*
X43091069Y-153905099D02*
X42884872Y-153786052D01*
X42884872Y-153786052D02*
X42743725Y-153649574D01*
X42743725Y-153649574D02*
X42685056Y-153560716D01*
X42685056Y-153560716D02*
X42667626Y-153495667D01*
X42667626Y-153495667D02*
X42674006Y-153389379D01*
X43007339Y-152812029D02*
X43316863Y-152275918D01*
X43316863Y-152275918D02*
X43480111Y-152755069D01*
X43480111Y-152755069D02*
X43551539Y-152631351D01*
X43551539Y-152631351D02*
X43640398Y-152572682D01*
X43640398Y-152572682D02*
X43705446Y-152555252D01*
X43705446Y-152555252D02*
X43811734Y-152561632D01*
X43811734Y-152561632D02*
X44017931Y-152680680D01*
X44017931Y-152680680D02*
X44076600Y-152769538D01*
X44076600Y-152769538D02*
X44094030Y-152834587D01*
X44094030Y-152834587D02*
X44087650Y-152940875D01*
X44087650Y-152940875D02*
X43944793Y-153188311D01*
X43944793Y-153188311D02*
X43855935Y-153246980D01*
X43855935Y-153246980D02*
X43790886Y-153264410D01*
X46155036Y-156451372D02*
X46232386Y-157650731D01*
X46732386Y-156784705D02*
X45655036Y-157317397D01*
X47227258Y-157070420D02*
X47309736Y-157118039D01*
X47309736Y-157118039D02*
X47368405Y-157206897D01*
X47368405Y-157206897D02*
X47385835Y-157271946D01*
X47385835Y-157271946D02*
X47379455Y-157378234D01*
X47379455Y-157378234D02*
X47325457Y-157567001D01*
X47325457Y-157567001D02*
X47206409Y-157773197D01*
X47206409Y-157773197D02*
X47069932Y-157914345D01*
X47069932Y-157914345D02*
X46981073Y-157973014D01*
X46981073Y-157973014D02*
X46916024Y-157990444D01*
X46916024Y-157990444D02*
X46809736Y-157984064D01*
X46809736Y-157984064D02*
X46727258Y-157936445D01*
X46727258Y-157936445D02*
X46668589Y-157847587D01*
X46668589Y-157847587D02*
X46651159Y-157782538D01*
X46651159Y-157782538D02*
X46657539Y-157676250D01*
X46657539Y-157676250D02*
X46711537Y-157487483D01*
X46711537Y-157487483D02*
X46830585Y-157281286D01*
X46830585Y-157281286D02*
X46967062Y-157140139D01*
X46967062Y-157140139D02*
X47055921Y-157081470D01*
X47055921Y-157081470D02*
X47120970Y-157064040D01*
X47120970Y-157064040D02*
X47227258Y-157070420D01*
X88262438Y-109265476D02*
X88214819Y-109360714D01*
X88214819Y-109360714D02*
X88214819Y-109503571D01*
X88214819Y-109503571D02*
X88262438Y-109646428D01*
X88262438Y-109646428D02*
X88357676Y-109741666D01*
X88357676Y-109741666D02*
X88452914Y-109789285D01*
X88452914Y-109789285D02*
X88643390Y-109836904D01*
X88643390Y-109836904D02*
X88786247Y-109836904D01*
X88786247Y-109836904D02*
X88976723Y-109789285D01*
X88976723Y-109789285D02*
X89071961Y-109741666D01*
X89071961Y-109741666D02*
X89167200Y-109646428D01*
X89167200Y-109646428D02*
X89214819Y-109503571D01*
X89214819Y-109503571D02*
X89214819Y-109408333D01*
X89214819Y-109408333D02*
X89167200Y-109265476D01*
X89167200Y-109265476D02*
X89119580Y-109217857D01*
X89119580Y-109217857D02*
X88786247Y-109217857D01*
X88786247Y-109217857D02*
X88786247Y-109408333D01*
X89119580Y-108217857D02*
X89167200Y-108265476D01*
X89167200Y-108265476D02*
X89214819Y-108408333D01*
X89214819Y-108408333D02*
X89214819Y-108503571D01*
X89214819Y-108503571D02*
X89167200Y-108646428D01*
X89167200Y-108646428D02*
X89071961Y-108741666D01*
X89071961Y-108741666D02*
X88976723Y-108789285D01*
X88976723Y-108789285D02*
X88786247Y-108836904D01*
X88786247Y-108836904D02*
X88643390Y-108836904D01*
X88643390Y-108836904D02*
X88452914Y-108789285D01*
X88452914Y-108789285D02*
X88357676Y-108741666D01*
X88357676Y-108741666D02*
X88262438Y-108646428D01*
X88262438Y-108646428D02*
X88214819Y-108503571D01*
X88214819Y-108503571D02*
X88214819Y-108408333D01*
X88214819Y-108408333D02*
X88262438Y-108265476D01*
X88262438Y-108265476D02*
X88310057Y-108217857D01*
X88214819Y-107932142D02*
X88214819Y-107360714D01*
X89214819Y-107646428D02*
X88214819Y-107646428D01*
X89310057Y-107265476D02*
X89310057Y-106503571D01*
X88214819Y-106265475D02*
X89024342Y-106265475D01*
X89024342Y-106265475D02*
X89119580Y-106217856D01*
X89119580Y-106217856D02*
X89167200Y-106170237D01*
X89167200Y-106170237D02*
X89214819Y-106074999D01*
X89214819Y-106074999D02*
X89214819Y-105884523D01*
X89214819Y-105884523D02*
X89167200Y-105789285D01*
X89167200Y-105789285D02*
X89119580Y-105741666D01*
X89119580Y-105741666D02*
X89024342Y-105694047D01*
X89024342Y-105694047D02*
X88214819Y-105694047D01*
X89167200Y-105265475D02*
X89214819Y-105122618D01*
X89214819Y-105122618D02*
X89214819Y-104884523D01*
X89214819Y-104884523D02*
X89167200Y-104789285D01*
X89167200Y-104789285D02*
X89119580Y-104741666D01*
X89119580Y-104741666D02*
X89024342Y-104694047D01*
X89024342Y-104694047D02*
X88929104Y-104694047D01*
X88929104Y-104694047D02*
X88833866Y-104741666D01*
X88833866Y-104741666D02*
X88786247Y-104789285D01*
X88786247Y-104789285D02*
X88738628Y-104884523D01*
X88738628Y-104884523D02*
X88691009Y-105074999D01*
X88691009Y-105074999D02*
X88643390Y-105170237D01*
X88643390Y-105170237D02*
X88595771Y-105217856D01*
X88595771Y-105217856D02*
X88500533Y-105265475D01*
X88500533Y-105265475D02*
X88405295Y-105265475D01*
X88405295Y-105265475D02*
X88310057Y-105217856D01*
X88310057Y-105217856D02*
X88262438Y-105170237D01*
X88262438Y-105170237D02*
X88214819Y-105074999D01*
X88214819Y-105074999D02*
X88214819Y-104836904D01*
X88214819Y-104836904D02*
X88262438Y-104694047D01*
X88691009Y-103932142D02*
X88738628Y-103789285D01*
X88738628Y-103789285D02*
X88786247Y-103741666D01*
X88786247Y-103741666D02*
X88881485Y-103694047D01*
X88881485Y-103694047D02*
X89024342Y-103694047D01*
X89024342Y-103694047D02*
X89119580Y-103741666D01*
X89119580Y-103741666D02*
X89167200Y-103789285D01*
X89167200Y-103789285D02*
X89214819Y-103884523D01*
X89214819Y-103884523D02*
X89214819Y-104265475D01*
X89214819Y-104265475D02*
X88214819Y-104265475D01*
X88214819Y-104265475D02*
X88214819Y-103932142D01*
X88214819Y-103932142D02*
X88262438Y-103836904D01*
X88262438Y-103836904D02*
X88310057Y-103789285D01*
X88310057Y-103789285D02*
X88405295Y-103741666D01*
X88405295Y-103741666D02*
X88500533Y-103741666D01*
X88500533Y-103741666D02*
X88595771Y-103789285D01*
X88595771Y-103789285D02*
X88643390Y-103836904D01*
X88643390Y-103836904D02*
X88691009Y-103932142D01*
X88691009Y-103932142D02*
X88691009Y-104265475D01*
X88548152Y-102836904D02*
X89214819Y-102836904D01*
X88167200Y-103074999D02*
X88881485Y-103313094D01*
X88881485Y-103313094D02*
X88881485Y-102694047D01*
X89214819Y-101789285D02*
X89214819Y-102360713D01*
X89214819Y-102074999D02*
X88214819Y-102074999D01*
X88214819Y-102074999D02*
X88357676Y-102170237D01*
X88357676Y-102170237D02*
X88452914Y-102265475D01*
X88452914Y-102265475D02*
X88500533Y-102360713D01*
X88310057Y-101408332D02*
X88262438Y-101360713D01*
X88262438Y-101360713D02*
X88214819Y-101265475D01*
X88214819Y-101265475D02*
X88214819Y-101027380D01*
X88214819Y-101027380D02*
X88262438Y-100932142D01*
X88262438Y-100932142D02*
X88310057Y-100884523D01*
X88310057Y-100884523D02*
X88405295Y-100836904D01*
X88405295Y-100836904D02*
X88500533Y-100836904D01*
X88500533Y-100836904D02*
X88643390Y-100884523D01*
X88643390Y-100884523D02*
X89214819Y-101455951D01*
X89214819Y-101455951D02*
X89214819Y-100836904D01*
X88214819Y-99932142D02*
X88214819Y-100408332D01*
X88214819Y-100408332D02*
X88691009Y-100455951D01*
X88691009Y-100455951D02*
X88643390Y-100408332D01*
X88643390Y-100408332D02*
X88595771Y-100313094D01*
X88595771Y-100313094D02*
X88595771Y-100074999D01*
X88595771Y-100074999D02*
X88643390Y-99979761D01*
X88643390Y-99979761D02*
X88691009Y-99932142D01*
X88691009Y-99932142D02*
X88786247Y-99884523D01*
X88786247Y-99884523D02*
X89024342Y-99884523D01*
X89024342Y-99884523D02*
X89119580Y-99932142D01*
X89119580Y-99932142D02*
X89167200Y-99979761D01*
X89167200Y-99979761D02*
X89214819Y-100074999D01*
X89214819Y-100074999D02*
X89214819Y-100313094D01*
X89214819Y-100313094D02*
X89167200Y-100408332D01*
X89167200Y-100408332D02*
X89119580Y-100455951D01*
X88833866Y-99455951D02*
X88833866Y-98694047D01*
X88262438Y-97694047D02*
X88214819Y-97789285D01*
X88214819Y-97789285D02*
X88214819Y-97932142D01*
X88214819Y-97932142D02*
X88262438Y-98074999D01*
X88262438Y-98074999D02*
X88357676Y-98170237D01*
X88357676Y-98170237D02*
X88452914Y-98217856D01*
X88452914Y-98217856D02*
X88643390Y-98265475D01*
X88643390Y-98265475D02*
X88786247Y-98265475D01*
X88786247Y-98265475D02*
X88976723Y-98217856D01*
X88976723Y-98217856D02*
X89071961Y-98170237D01*
X89071961Y-98170237D02*
X89167200Y-98074999D01*
X89167200Y-98074999D02*
X89214819Y-97932142D01*
X89214819Y-97932142D02*
X89214819Y-97836904D01*
X89214819Y-97836904D02*
X89167200Y-97694047D01*
X89167200Y-97694047D02*
X89119580Y-97646428D01*
X89119580Y-97646428D02*
X88786247Y-97646428D01*
X88786247Y-97646428D02*
X88786247Y-97836904D01*
X88691009Y-96884523D02*
X88691009Y-97217856D01*
X89214819Y-97217856D02*
X88214819Y-97217856D01*
X88214819Y-97217856D02*
X88214819Y-96741666D01*
X88833866Y-96360713D02*
X88833866Y-95598809D01*
X88929104Y-95170237D02*
X88929104Y-94694047D01*
X89214819Y-95265475D02*
X88214819Y-94932142D01*
X88214819Y-94932142D02*
X89214819Y-94598809D01*
X88833866Y-94265475D02*
X88833866Y-93503571D01*
X88214819Y-92836904D02*
X88214819Y-92741666D01*
X88214819Y-92741666D02*
X88262438Y-92646428D01*
X88262438Y-92646428D02*
X88310057Y-92598809D01*
X88310057Y-92598809D02*
X88405295Y-92551190D01*
X88405295Y-92551190D02*
X88595771Y-92503571D01*
X88595771Y-92503571D02*
X88833866Y-92503571D01*
X88833866Y-92503571D02*
X89024342Y-92551190D01*
X89024342Y-92551190D02*
X89119580Y-92598809D01*
X89119580Y-92598809D02*
X89167200Y-92646428D01*
X89167200Y-92646428D02*
X89214819Y-92741666D01*
X89214819Y-92741666D02*
X89214819Y-92836904D01*
X89214819Y-92836904D02*
X89167200Y-92932142D01*
X89167200Y-92932142D02*
X89119580Y-92979761D01*
X89119580Y-92979761D02*
X89024342Y-93027380D01*
X89024342Y-93027380D02*
X88833866Y-93074999D01*
X88833866Y-93074999D02*
X88595771Y-93074999D01*
X88595771Y-93074999D02*
X88405295Y-93027380D01*
X88405295Y-93027380D02*
X88310057Y-92979761D01*
X88310057Y-92979761D02*
X88262438Y-92932142D01*
X88262438Y-92932142D02*
X88214819Y-92836904D01*
X89214819Y-91551190D02*
X89214819Y-92122618D01*
X89214819Y-91836904D02*
X88214819Y-91836904D01*
X88214819Y-91836904D02*
X88357676Y-91932142D01*
X88357676Y-91932142D02*
X88452914Y-92027380D01*
X88452914Y-92027380D02*
X88500533Y-92122618D01*
X89214819Y-91074999D02*
X89214819Y-90884523D01*
X89214819Y-90884523D02*
X89167200Y-90789285D01*
X89167200Y-90789285D02*
X89119580Y-90741666D01*
X89119580Y-90741666D02*
X88976723Y-90646428D01*
X88976723Y-90646428D02*
X88786247Y-90598809D01*
X88786247Y-90598809D02*
X88405295Y-90598809D01*
X88405295Y-90598809D02*
X88310057Y-90646428D01*
X88310057Y-90646428D02*
X88262438Y-90694047D01*
X88262438Y-90694047D02*
X88214819Y-90789285D01*
X88214819Y-90789285D02*
X88214819Y-90979761D01*
X88214819Y-90979761D02*
X88262438Y-91074999D01*
X88262438Y-91074999D02*
X88310057Y-91122618D01*
X88310057Y-91122618D02*
X88405295Y-91170237D01*
X88405295Y-91170237D02*
X88643390Y-91170237D01*
X88643390Y-91170237D02*
X88738628Y-91122618D01*
X88738628Y-91122618D02*
X88786247Y-91074999D01*
X88786247Y-91074999D02*
X88833866Y-90979761D01*
X88833866Y-90979761D02*
X88833866Y-90789285D01*
X88833866Y-90789285D02*
X88786247Y-90694047D01*
X88786247Y-90694047D02*
X88738628Y-90646428D01*
X88738628Y-90646428D02*
X88643390Y-90598809D01*
X88214819Y-89979761D02*
X88214819Y-89884523D01*
X88214819Y-89884523D02*
X88262438Y-89789285D01*
X88262438Y-89789285D02*
X88310057Y-89741666D01*
X88310057Y-89741666D02*
X88405295Y-89694047D01*
X88405295Y-89694047D02*
X88595771Y-89646428D01*
X88595771Y-89646428D02*
X88833866Y-89646428D01*
X88833866Y-89646428D02*
X89024342Y-89694047D01*
X89024342Y-89694047D02*
X89119580Y-89741666D01*
X89119580Y-89741666D02*
X89167200Y-89789285D01*
X89167200Y-89789285D02*
X89214819Y-89884523D01*
X89214819Y-89884523D02*
X89214819Y-89979761D01*
X89214819Y-89979761D02*
X89167200Y-90074999D01*
X89167200Y-90074999D02*
X89119580Y-90122618D01*
X89119580Y-90122618D02*
X89024342Y-90170237D01*
X89024342Y-90170237D02*
X88833866Y-90217856D01*
X88833866Y-90217856D02*
X88595771Y-90217856D01*
X88595771Y-90217856D02*
X88405295Y-90170237D01*
X88405295Y-90170237D02*
X88310057Y-90122618D01*
X88310057Y-90122618D02*
X88262438Y-90074999D01*
X88262438Y-90074999D02*
X88214819Y-89979761D01*
X89310057Y-89455952D02*
X89310057Y-88694047D01*
X89214819Y-87884523D02*
X88738628Y-88217856D01*
X89214819Y-88455951D02*
X88214819Y-88455951D01*
X88214819Y-88455951D02*
X88214819Y-88074999D01*
X88214819Y-88074999D02*
X88262438Y-87979761D01*
X88262438Y-87979761D02*
X88310057Y-87932142D01*
X88310057Y-87932142D02*
X88405295Y-87884523D01*
X88405295Y-87884523D02*
X88548152Y-87884523D01*
X88548152Y-87884523D02*
X88643390Y-87932142D01*
X88643390Y-87932142D02*
X88691009Y-87979761D01*
X88691009Y-87979761D02*
X88738628Y-88074999D01*
X88738628Y-88074999D02*
X88738628Y-88455951D01*
X88691009Y-87455951D02*
X88691009Y-87122618D01*
X89214819Y-86979761D02*
X89214819Y-87455951D01*
X89214819Y-87455951D02*
X88214819Y-87455951D01*
X88214819Y-87455951D02*
X88214819Y-86979761D01*
X88214819Y-86694046D02*
X89214819Y-86360713D01*
X89214819Y-86360713D02*
X88214819Y-86027380D01*
X88929104Y-85741665D02*
X88929104Y-85265475D01*
X89214819Y-85836903D02*
X88214819Y-85503570D01*
X88214819Y-85503570D02*
X89214819Y-85170237D01*
X88310057Y-84884522D02*
X88262438Y-84836903D01*
X88262438Y-84836903D02*
X88214819Y-84741665D01*
X88214819Y-84741665D02*
X88214819Y-84503570D01*
X88214819Y-84503570D02*
X88262438Y-84408332D01*
X88262438Y-84408332D02*
X88310057Y-84360713D01*
X88310057Y-84360713D02*
X88405295Y-84313094D01*
X88405295Y-84313094D02*
X88500533Y-84313094D01*
X88500533Y-84313094D02*
X88643390Y-84360713D01*
X88643390Y-84360713D02*
X89214819Y-84932141D01*
X89214819Y-84932141D02*
X89214819Y-84313094D01*
G36*
X65508855Y-53840958D02*
G01*
X65382826Y-53840958D01*
X65130767Y-54630351D01*
X64878708Y-53840958D01*
X64752679Y-53840958D01*
X65087292Y-54825746D01*
X65175463Y-54825746D01*
X65508855Y-53840958D01*
G37*
G36*
X66015415Y-54733666D02*
G01*
X65999988Y-54733257D01*
X65984944Y-54732031D01*
X65970291Y-54729992D01*
X65956035Y-54727144D01*
X65942183Y-54723491D01*
X65928743Y-54719036D01*
X65915721Y-54713782D01*
X65903124Y-54707734D01*
X65890959Y-54700895D01*
X65879234Y-54693268D01*
X65867954Y-54684858D01*
X65857128Y-54675667D01*
X65846762Y-54665700D01*
X65836863Y-54654960D01*
X65827438Y-54643451D01*
X65818494Y-54631176D01*
X65810038Y-54618138D01*
X65802077Y-54604343D01*
X65794618Y-54589792D01*
X65787668Y-54574491D01*
X65781233Y-54558441D01*
X65775322Y-54541648D01*
X65769941Y-54524115D01*
X65765096Y-54505845D01*
X65760795Y-54486841D01*
X65757045Y-54467109D01*
X65753853Y-54446650D01*
X65751226Y-54425469D01*
X65749170Y-54403570D01*
X65747693Y-54380955D01*
X65746802Y-54357630D01*
X65746503Y-54333596D01*
X65746802Y-54309541D01*
X65747693Y-54286194D01*
X65749170Y-54263560D01*
X65751226Y-54241643D01*
X65753853Y-54220445D01*
X65757045Y-54199971D01*
X65760795Y-54180223D01*
X65765096Y-54161207D01*
X65769941Y-54142924D01*
X65775322Y-54125379D01*
X65781233Y-54108576D01*
X65787668Y-54092517D01*
X65794618Y-54077207D01*
X65802077Y-54062649D01*
X65810038Y-54048846D01*
X65818494Y-54035803D01*
X65827438Y-54023523D01*
X65836863Y-54012008D01*
X65846762Y-54001264D01*
X65857128Y-53991294D01*
X65867954Y-53982100D01*
X65879234Y-53973687D01*
X65890959Y-53966059D01*
X65903124Y-53959218D01*
X65915721Y-53953168D01*
X65928743Y-53947914D01*
X65942183Y-53943458D01*
X65956035Y-53939804D01*
X65970291Y-53936956D01*
X65984944Y-53934917D01*
X65999988Y-53933692D01*
X66015415Y-53933282D01*
X66027902Y-53933593D01*
X66039908Y-53934510D01*
X66051447Y-53936010D01*
X66062530Y-53938068D01*
X66073168Y-53940662D01*
X66083375Y-53943768D01*
X66093162Y-53947362D01*
X66102541Y-53951421D01*
X66111524Y-53955921D01*
X66120124Y-53960838D01*
X66128352Y-53966150D01*
X66143742Y-53977861D01*
X66157790Y-53990865D01*
X66170594Y-54004973D01*
X66182250Y-54019998D01*
X66192854Y-54035750D01*
X66202503Y-54052042D01*
X66211294Y-54068683D01*
X66219324Y-54085487D01*
X66226688Y-54102264D01*
X66233484Y-54118825D01*
X66236699Y-54126967D01*
X66341723Y-54081782D01*
X66335995Y-54063526D01*
X66332562Y-54053891D01*
X66328734Y-54043975D01*
X66324500Y-54033820D01*
X66319849Y-54023469D01*
X66314770Y-54012964D01*
X66309250Y-54002349D01*
X66303280Y-53991667D01*
X66296847Y-53980958D01*
X66289940Y-53970267D01*
X66282548Y-53959637D01*
X66274660Y-53949108D01*
X66266264Y-53938725D01*
X66257349Y-53928531D01*
X66247903Y-53918567D01*
X66237916Y-53908876D01*
X66227376Y-53899501D01*
X66216272Y-53890485D01*
X66204592Y-53881870D01*
X66192325Y-53873699D01*
X66179459Y-53866015D01*
X66165985Y-53858860D01*
X66151889Y-53852277D01*
X66137161Y-53846309D01*
X66121790Y-53840999D01*
X66105764Y-53836388D01*
X66089071Y-53832520D01*
X66071702Y-53829437D01*
X66053643Y-53827182D01*
X66034885Y-53825798D01*
X66015415Y-53825327D01*
X65990406Y-53826022D01*
X65966301Y-53828081D01*
X65943091Y-53831465D01*
X65920770Y-53836137D01*
X65899331Y-53842058D01*
X65878766Y-53849189D01*
X65859069Y-53857492D01*
X65840231Y-53866928D01*
X65822247Y-53877460D01*
X65805108Y-53889048D01*
X65788808Y-53901655D01*
X65773339Y-53915242D01*
X65758695Y-53929770D01*
X65744868Y-53945202D01*
X65731851Y-53961498D01*
X65719637Y-53978620D01*
X65708218Y-53996530D01*
X65697588Y-54015189D01*
X65687739Y-54034560D01*
X65678665Y-54054603D01*
X65670357Y-54075280D01*
X65662810Y-54096553D01*
X65656015Y-54118383D01*
X65649966Y-54140732D01*
X65644656Y-54163562D01*
X65640076Y-54186833D01*
X65636221Y-54210509D01*
X65633083Y-54234549D01*
X65630655Y-54258917D01*
X65628929Y-54283573D01*
X65627899Y-54308479D01*
X65627557Y-54333596D01*
X65627899Y-54358691D01*
X65628929Y-54383574D01*
X65630655Y-54408207D01*
X65633083Y-54432552D01*
X65636221Y-54456570D01*
X65640076Y-54480223D01*
X65644656Y-54503473D01*
X65649966Y-54526281D01*
X65656015Y-54548609D01*
X65662810Y-54570418D01*
X65670357Y-54591671D01*
X65678665Y-54612328D01*
X65687739Y-54632351D01*
X65697588Y-54651703D01*
X65708218Y-54670344D01*
X65719637Y-54688237D01*
X65731851Y-54705342D01*
X65744868Y-54721622D01*
X65758695Y-54737038D01*
X65773339Y-54751552D01*
X65788808Y-54765125D01*
X65805108Y-54777719D01*
X65822247Y-54789296D01*
X65840231Y-54799818D01*
X65859069Y-54809245D01*
X65878766Y-54817539D01*
X65899331Y-54824663D01*
X65920770Y-54830578D01*
X65943091Y-54835245D01*
X65966301Y-54838626D01*
X65990406Y-54840683D01*
X66015415Y-54841377D01*
X66034885Y-54840907D01*
X66053643Y-54839525D01*
X66071702Y-54837273D01*
X66089071Y-54834195D01*
X66105764Y-54830332D01*
X66121790Y-54825728D01*
X66137161Y-54820424D01*
X66151889Y-54814465D01*
X66165985Y-54807891D01*
X66179459Y-54800745D01*
X66192325Y-54793071D01*
X66204592Y-54784911D01*
X66216272Y-54776307D01*
X66227376Y-54767302D01*
X66237916Y-54757939D01*
X66247903Y-54748259D01*
X66257349Y-54738307D01*
X66266264Y-54728123D01*
X66274660Y-54717752D01*
X66282548Y-54707234D01*
X66289940Y-54696614D01*
X66296847Y-54685933D01*
X66303280Y-54675234D01*
X66309250Y-54664560D01*
X66314770Y-54653954D01*
X66319849Y-54643457D01*
X66324500Y-54633112D01*
X66328734Y-54622963D01*
X66332562Y-54613051D01*
X66335995Y-54603419D01*
X66339045Y-54594110D01*
X66341723Y-54585166D01*
X66236699Y-54539981D01*
X66230151Y-54556365D01*
X66223083Y-54573058D01*
X66215398Y-54589871D01*
X66207000Y-54606618D01*
X66197792Y-54623108D01*
X66187677Y-54639153D01*
X66176559Y-54654565D01*
X66164342Y-54669155D01*
X66150928Y-54682735D01*
X66136220Y-54695116D01*
X66120124Y-54706110D01*
X66111524Y-54711027D01*
X66102541Y-54715527D01*
X66093162Y-54719586D01*
X66083375Y-54723180D01*
X66073168Y-54726286D01*
X66062530Y-54728880D01*
X66051447Y-54730938D01*
X66039908Y-54732438D01*
X66027902Y-54733355D01*
X66015415Y-54733666D01*
G37*
G36*
X66869288Y-54733666D02*
G01*
X66853861Y-54733257D01*
X66838817Y-54732031D01*
X66824164Y-54729992D01*
X66809908Y-54727144D01*
X66796056Y-54723491D01*
X66782616Y-54719036D01*
X66769594Y-54713782D01*
X66756997Y-54707734D01*
X66744832Y-54700895D01*
X66733107Y-54693268D01*
X66721827Y-54684858D01*
X66711001Y-54675667D01*
X66700635Y-54665700D01*
X66690736Y-54654960D01*
X66681311Y-54643451D01*
X66672367Y-54631176D01*
X66663911Y-54618138D01*
X66655950Y-54604343D01*
X66648491Y-54589792D01*
X66641541Y-54574491D01*
X66635106Y-54558441D01*
X66629195Y-54541648D01*
X66623814Y-54524115D01*
X66618969Y-54505845D01*
X66614668Y-54486841D01*
X66610918Y-54467109D01*
X66607726Y-54446650D01*
X66605099Y-54425469D01*
X66603043Y-54403570D01*
X66601566Y-54380955D01*
X66600675Y-54357630D01*
X66600376Y-54333596D01*
X66600675Y-54309541D01*
X66601566Y-54286194D01*
X66603043Y-54263560D01*
X66605099Y-54241643D01*
X66607726Y-54220445D01*
X66610918Y-54199971D01*
X66614668Y-54180223D01*
X66618969Y-54161207D01*
X66623814Y-54142924D01*
X66629195Y-54125379D01*
X66635106Y-54108576D01*
X66641541Y-54092517D01*
X66648491Y-54077207D01*
X66655950Y-54062649D01*
X66663911Y-54048846D01*
X66672367Y-54035803D01*
X66681311Y-54023523D01*
X66690736Y-54012008D01*
X66700635Y-54001264D01*
X66711001Y-53991294D01*
X66721827Y-53982100D01*
X66733107Y-53973687D01*
X66744832Y-53966059D01*
X66756997Y-53959218D01*
X66769594Y-53953168D01*
X66782616Y-53947914D01*
X66796056Y-53943458D01*
X66809908Y-53939804D01*
X66824164Y-53936956D01*
X66838817Y-53934917D01*
X66853861Y-53933692D01*
X66869288Y-53933282D01*
X66881775Y-53933593D01*
X66893781Y-53934510D01*
X66905320Y-53936010D01*
X66916403Y-53938068D01*
X66927041Y-53940662D01*
X66937248Y-53943768D01*
X66947035Y-53947362D01*
X66956414Y-53951421D01*
X66965397Y-53955921D01*
X66973997Y-53960838D01*
X66982225Y-53966150D01*
X66997615Y-53977861D01*
X67011663Y-53990865D01*
X67024467Y-54004973D01*
X67036123Y-54019998D01*
X67046727Y-54035750D01*
X67056376Y-54052042D01*
X67065167Y-54068683D01*
X67073197Y-54085487D01*
X67080561Y-54102264D01*
X67087357Y-54118825D01*
X67090572Y-54126967D01*
X67195596Y-54081782D01*
X67189868Y-54063526D01*
X67186435Y-54053891D01*
X67182607Y-54043975D01*
X67178373Y-54033820D01*
X67173722Y-54023469D01*
X67168643Y-54012964D01*
X67163123Y-54002349D01*
X67157153Y-53991667D01*
X67150720Y-53980958D01*
X67143813Y-53970267D01*
X67136421Y-53959637D01*
X67128533Y-53949108D01*
X67120137Y-53938725D01*
X67111222Y-53928531D01*
X67101776Y-53918567D01*
X67091789Y-53908876D01*
X67081249Y-53899501D01*
X67070145Y-53890485D01*
X67058465Y-53881870D01*
X67046198Y-53873699D01*
X67033332Y-53866015D01*
X67019858Y-53858860D01*
X67005762Y-53852277D01*
X66991034Y-53846309D01*
X66975663Y-53840999D01*
X66959637Y-53836388D01*
X66942944Y-53832520D01*
X66925575Y-53829437D01*
X66907516Y-53827182D01*
X66888758Y-53825798D01*
X66869288Y-53825327D01*
X66844279Y-53826022D01*
X66820174Y-53828081D01*
X66796964Y-53831465D01*
X66774643Y-53836137D01*
X66753204Y-53842058D01*
X66732639Y-53849189D01*
X66712942Y-53857492D01*
X66694104Y-53866928D01*
X66676120Y-53877460D01*
X66658981Y-53889048D01*
X66642681Y-53901655D01*
X66627212Y-53915242D01*
X66612568Y-53929770D01*
X66598741Y-53945202D01*
X66585724Y-53961498D01*
X66573509Y-53978620D01*
X66562091Y-53996530D01*
X66551461Y-54015189D01*
X66541612Y-54034560D01*
X66532538Y-54054603D01*
X66524230Y-54075280D01*
X66516683Y-54096553D01*
X66509888Y-54118383D01*
X66503839Y-54140732D01*
X66498529Y-54163562D01*
X66493949Y-54186833D01*
X66490094Y-54210509D01*
X66486956Y-54234549D01*
X66484528Y-54258917D01*
X66482802Y-54283573D01*
X66481772Y-54308479D01*
X66481430Y-54333596D01*
X66481772Y-54358691D01*
X66482802Y-54383574D01*
X66484528Y-54408207D01*
X66486956Y-54432552D01*
X66490094Y-54456570D01*
X66493949Y-54480223D01*
X66498529Y-54503473D01*
X66503839Y-54526281D01*
X66509888Y-54548609D01*
X66516683Y-54570418D01*
X66524230Y-54591671D01*
X66532538Y-54612328D01*
X66541612Y-54632351D01*
X66551461Y-54651703D01*
X66562091Y-54670344D01*
X66573509Y-54688237D01*
X66585724Y-54705342D01*
X66598741Y-54721622D01*
X66612568Y-54737038D01*
X66627212Y-54751552D01*
X66642681Y-54765125D01*
X66658981Y-54777719D01*
X66676120Y-54789296D01*
X66694104Y-54799818D01*
X66712942Y-54809245D01*
X66732639Y-54817539D01*
X66753204Y-54824663D01*
X66774643Y-54830578D01*
X66796964Y-54835245D01*
X66820174Y-54838626D01*
X66844279Y-54840683D01*
X66869288Y-54841377D01*
X66888758Y-54840907D01*
X66907516Y-54839525D01*
X66925575Y-54837273D01*
X66942944Y-54834195D01*
X66959637Y-54830332D01*
X66975663Y-54825728D01*
X66991034Y-54820424D01*
X67005762Y-54814465D01*
X67019858Y-54807891D01*
X67033332Y-54800745D01*
X67046198Y-54793071D01*
X67058465Y-54784911D01*
X67070145Y-54776307D01*
X67081249Y-54767302D01*
X67091789Y-54757939D01*
X67101776Y-54748259D01*
X67111222Y-54738307D01*
X67120137Y-54728123D01*
X67128533Y-54717752D01*
X67136421Y-54707234D01*
X67143813Y-54696614D01*
X67150720Y-54685933D01*
X67157153Y-54675234D01*
X67163123Y-54664560D01*
X67168643Y-54653954D01*
X67173722Y-54643457D01*
X67178373Y-54633112D01*
X67182607Y-54622963D01*
X67186435Y-54613051D01*
X67189868Y-54603419D01*
X67192918Y-54594110D01*
X67195596Y-54585166D01*
X67090572Y-54539981D01*
X67084024Y-54556365D01*
X67076956Y-54573058D01*
X67069271Y-54589871D01*
X67060873Y-54606618D01*
X67051665Y-54623108D01*
X67041550Y-54639153D01*
X67030432Y-54654565D01*
X67018215Y-54669155D01*
X67004801Y-54682735D01*
X66990093Y-54695116D01*
X66973997Y-54706110D01*
X66965397Y-54711027D01*
X66956414Y-54715527D01*
X66947035Y-54719586D01*
X66937248Y-54723180D01*
X66927041Y-54726286D01*
X66916403Y-54728880D01*
X66905320Y-54730938D01*
X66893781Y-54732438D01*
X66881775Y-54733355D01*
X66869288Y-54733666D01*
G37*
G36*
X68298352Y-54535585D02*
G01*
X68193328Y-54581014D01*
X68199745Y-54599747D01*
X68206623Y-54617627D01*
X68213945Y-54634671D01*
X68221697Y-54650896D01*
X68229864Y-54666318D01*
X68238431Y-54680955D01*
X68247381Y-54694823D01*
X68256701Y-54707940D01*
X68266376Y-54720323D01*
X68276389Y-54731988D01*
X68286726Y-54742952D01*
X68297373Y-54753233D01*
X68308313Y-54762846D01*
X68319531Y-54771811D01*
X68331013Y-54780142D01*
X68342744Y-54787857D01*
X68354707Y-54794974D01*
X68366889Y-54801508D01*
X68379274Y-54807478D01*
X68391847Y-54812899D01*
X68404593Y-54817790D01*
X68417496Y-54822166D01*
X68430542Y-54826045D01*
X68443715Y-54829443D01*
X68457001Y-54832379D01*
X68470384Y-54834868D01*
X68483849Y-54836927D01*
X68497381Y-54838574D01*
X68510965Y-54839826D01*
X68524585Y-54840699D01*
X68538228Y-54841210D01*
X68551877Y-54841377D01*
X68569866Y-54841106D01*
X68587598Y-54840293D01*
X68605052Y-54838935D01*
X68622206Y-54837032D01*
X68639040Y-54834582D01*
X68655534Y-54831582D01*
X68671668Y-54828031D01*
X68687420Y-54823929D01*
X68702770Y-54819273D01*
X68717698Y-54814061D01*
X68732184Y-54808292D01*
X68746206Y-54801964D01*
X68759744Y-54795076D01*
X68772777Y-54787627D01*
X68785286Y-54779613D01*
X68797249Y-54771035D01*
X68808646Y-54761890D01*
X68819457Y-54752177D01*
X68829660Y-54741893D01*
X68839236Y-54731038D01*
X68848164Y-54719610D01*
X68856423Y-54707608D01*
X68863994Y-54695028D01*
X68870854Y-54681871D01*
X68876984Y-54668134D01*
X68882363Y-54653816D01*
X68886972Y-54638916D01*
X68890788Y-54623430D01*
X68893792Y-54607359D01*
X68895963Y-54590700D01*
X68897281Y-54573452D01*
X68897724Y-54555613D01*
X68897205Y-54535398D01*
X68895670Y-54516137D01*
X68893156Y-54497802D01*
X68889696Y-54480369D01*
X68885326Y-54463811D01*
X68880082Y-54448101D01*
X68873998Y-54433216D01*
X68867110Y-54419127D01*
X68859453Y-54405810D01*
X68851061Y-54393238D01*
X68841971Y-54381386D01*
X68832217Y-54370227D01*
X68821834Y-54359736D01*
X68810858Y-54349886D01*
X68799323Y-54340653D01*
X68787266Y-54332009D01*
X68774720Y-54323929D01*
X68761721Y-54316386D01*
X68748305Y-54309356D01*
X68734506Y-54302812D01*
X68720360Y-54296728D01*
X68705902Y-54291078D01*
X68691166Y-54285836D01*
X68676189Y-54280977D01*
X68661004Y-54276474D01*
X68645648Y-54272301D01*
X68630156Y-54268433D01*
X68614562Y-54264844D01*
X68598902Y-54261507D01*
X68583211Y-54258396D01*
X68567524Y-54255487D01*
X68551877Y-54252752D01*
X68542195Y-54250999D01*
X68532578Y-54249168D01*
X68513601Y-54245220D01*
X68495074Y-54240804D01*
X68477123Y-54235819D01*
X68459876Y-54230163D01*
X68443461Y-54223733D01*
X68428005Y-54216429D01*
X68413635Y-54208147D01*
X68400479Y-54198786D01*
X68388663Y-54188244D01*
X68378316Y-54176420D01*
X68369565Y-54163210D01*
X68362536Y-54148513D01*
X68357358Y-54132228D01*
X68354158Y-54114252D01*
X68353063Y-54094482D01*
X68353335Y-54083447D01*
X68354142Y-54072869D01*
X68355468Y-54062740D01*
X68357298Y-54053055D01*
X68362411Y-54034983D01*
X68369358Y-54018599D01*
X68378021Y-54003847D01*
X68388277Y-53990670D01*
X68400005Y-53979013D01*
X68413086Y-53968819D01*
X68427397Y-53960035D01*
X68442817Y-53952602D01*
X68459227Y-53946466D01*
X68476505Y-53941571D01*
X68494529Y-53937861D01*
X68513180Y-53935280D01*
X68532336Y-53933772D01*
X68551877Y-53933282D01*
X68570935Y-53933780D01*
X68589282Y-53935338D01*
X68606929Y-53938057D01*
X68623886Y-53942037D01*
X68640163Y-53947376D01*
X68655771Y-53954173D01*
X68670719Y-53962530D01*
X68685019Y-53972544D01*
X68698681Y-53984316D01*
X68711715Y-53997944D01*
X68718000Y-54005486D01*
X68724131Y-54013529D01*
X68730111Y-54022087D01*
X68735940Y-54031170D01*
X68741620Y-54040792D01*
X68747153Y-54050966D01*
X68752538Y-54061703D01*
X68757779Y-54073017D01*
X68762875Y-54084919D01*
X68767828Y-54097422D01*
X68772641Y-54110538D01*
X68777313Y-54124280D01*
X68882337Y-54078851D01*
X68877106Y-54061620D01*
X68871405Y-54045092D01*
X68865249Y-54029256D01*
X68858651Y-54014102D01*
X68851626Y-53999620D01*
X68844187Y-53985799D01*
X68836349Y-53972631D01*
X68828127Y-53960103D01*
X68819533Y-53948207D01*
X68810582Y-53936931D01*
X68801289Y-53926267D01*
X68791666Y-53916202D01*
X68781729Y-53906728D01*
X68771492Y-53897835D01*
X68760968Y-53889511D01*
X68750171Y-53881747D01*
X68739116Y-53874532D01*
X68727817Y-53867857D01*
X68716288Y-53861711D01*
X68704543Y-53856084D01*
X68692596Y-53850966D01*
X68680461Y-53846346D01*
X68668152Y-53842215D01*
X68655684Y-53838562D01*
X68643069Y-53835377D01*
X68630324Y-53832649D01*
X68617461Y-53830369D01*
X68604494Y-53828527D01*
X68591438Y-53827111D01*
X68578308Y-53826113D01*
X68565116Y-53825522D01*
X68551877Y-53825327D01*
X68535686Y-53825589D01*
X68519690Y-53826377D01*
X68503909Y-53827690D01*
X68488364Y-53829529D01*
X68473077Y-53831893D01*
X68458067Y-53834782D01*
X68443356Y-53838197D01*
X68428965Y-53842138D01*
X68414915Y-53846604D01*
X68401227Y-53851595D01*
X68387922Y-53857112D01*
X68375021Y-53863155D01*
X68362545Y-53869724D01*
X68350515Y-53876819D01*
X68338951Y-53884439D01*
X68327875Y-53892585D01*
X68317308Y-53901257D01*
X68307271Y-53910456D01*
X68297784Y-53920180D01*
X68288869Y-53930430D01*
X68280547Y-53941206D01*
X68272839Y-53952509D01*
X68265765Y-53964338D01*
X68259346Y-53976692D01*
X68253604Y-53989574D01*
X68248560Y-54002981D01*
X68244234Y-54016915D01*
X68240648Y-54031376D01*
X68237822Y-54046363D01*
X68235777Y-54061876D01*
X68234535Y-54077916D01*
X68234117Y-54094482D01*
X68234611Y-54113139D01*
X68236070Y-54130931D01*
X68238458Y-54147879D01*
X68241740Y-54164006D01*
X68245879Y-54179334D01*
X68250841Y-54193885D01*
X68256590Y-54207681D01*
X68263090Y-54220745D01*
X68270305Y-54233097D01*
X68278201Y-54244760D01*
X68286741Y-54255757D01*
X68295889Y-54266108D01*
X68305611Y-54275837D01*
X68315870Y-54284966D01*
X68326631Y-54293516D01*
X68337859Y-54301509D01*
X68349517Y-54308967D01*
X68361571Y-54315914D01*
X68373984Y-54322369D01*
X68386721Y-54328357D01*
X68399746Y-54333898D01*
X68413024Y-54339015D01*
X68426520Y-54343729D01*
X68440197Y-54348064D01*
X68454019Y-54352040D01*
X68467953Y-54355680D01*
X68481961Y-54359006D01*
X68496008Y-54362040D01*
X68510059Y-54364805D01*
X68524077Y-54367321D01*
X68538029Y-54369611D01*
X68551877Y-54371698D01*
X68563486Y-54373343D01*
X68574950Y-54375127D01*
X68586252Y-54377061D01*
X68597379Y-54379160D01*
X68608316Y-54381435D01*
X68619049Y-54383899D01*
X68629562Y-54386564D01*
X68639842Y-54389444D01*
X68649874Y-54392550D01*
X68659642Y-54395896D01*
X68669133Y-54399494D01*
X68678332Y-54403357D01*
X68687225Y-54407497D01*
X68704032Y-54416659D01*
X68719437Y-54427082D01*
X68733324Y-54438866D01*
X68745577Y-54452112D01*
X68756078Y-54466922D01*
X68764711Y-54483395D01*
X68771360Y-54501633D01*
X68773904Y-54511446D01*
X68775908Y-54521738D01*
X68777357Y-54532521D01*
X68778237Y-54543808D01*
X68778534Y-54555613D01*
X68778281Y-54566933D01*
X68777526Y-54577858D01*
X68776275Y-54588392D01*
X68774535Y-54598536D01*
X68772311Y-54608293D01*
X68766437Y-54626654D01*
X68758703Y-54643493D01*
X68749156Y-54658829D01*
X68737848Y-54672679D01*
X68724825Y-54685063D01*
X68710138Y-54695997D01*
X68693836Y-54705501D01*
X68675967Y-54713592D01*
X68666461Y-54717114D01*
X68656581Y-54720290D01*
X68646334Y-54723122D01*
X68635726Y-54725612D01*
X68624763Y-54727762D01*
X68613451Y-54729576D01*
X68601797Y-54731054D01*
X68589806Y-54732200D01*
X68577485Y-54733016D01*
X68564840Y-54733504D01*
X68551877Y-54733666D01*
X68542088Y-54733579D01*
X68522856Y-54732826D01*
X68504089Y-54731159D01*
X68485790Y-54728415D01*
X68467964Y-54724427D01*
X68450616Y-54719029D01*
X68433749Y-54712056D01*
X68417368Y-54703343D01*
X68401477Y-54692723D01*
X68393717Y-54686646D01*
X68386081Y-54680031D01*
X68378569Y-54672856D01*
X68371183Y-54665101D01*
X68363922Y-54656745D01*
X68356788Y-54647768D01*
X68349781Y-54638148D01*
X68342901Y-54627865D01*
X68336149Y-54616899D01*
X68329525Y-54605228D01*
X68323031Y-54592833D01*
X68316665Y-54579691D01*
X68310430Y-54565783D01*
X68304326Y-54551088D01*
X68298352Y-54535585D01*
G37*
G36*
X69694200Y-53840958D02*
G01*
X69106064Y-53840958D01*
X69106064Y-53948914D01*
X69341269Y-53948914D01*
X69341269Y-54718034D01*
X69106064Y-54718034D01*
X69106064Y-54825746D01*
X69694200Y-54825746D01*
X69694200Y-54718034D01*
X69460216Y-54718034D01*
X69460216Y-53948914D01*
X69694200Y-53948914D01*
X69694200Y-53840958D01*
G37*
G36*
X70311402Y-54480386D02*
G01*
X70506064Y-54476234D01*
X70506064Y-54477455D01*
X70505763Y-54493516D01*
X70504870Y-54509047D01*
X70503402Y-54524049D01*
X70501373Y-54538523D01*
X70498798Y-54552470D01*
X70495694Y-54565892D01*
X70492074Y-54578789D01*
X70487955Y-54591162D01*
X70483352Y-54603012D01*
X70478281Y-54614341D01*
X70472756Y-54625149D01*
X70466792Y-54635437D01*
X70460407Y-54645207D01*
X70453613Y-54654459D01*
X70446428Y-54663194D01*
X70438866Y-54671415D01*
X70430943Y-54679120D01*
X70422674Y-54686312D01*
X70414074Y-54692992D01*
X70405158Y-54699160D01*
X70395943Y-54704818D01*
X70386443Y-54709967D01*
X70376674Y-54714607D01*
X70366651Y-54718740D01*
X70356389Y-54722367D01*
X70345903Y-54725489D01*
X70335210Y-54728106D01*
X70324324Y-54730220D01*
X70313261Y-54731832D01*
X70302036Y-54732943D01*
X70290665Y-54733554D01*
X70279162Y-54733666D01*
X70263872Y-54733130D01*
X70248966Y-54731798D01*
X70234449Y-54729675D01*
X70220329Y-54726763D01*
X70206612Y-54723065D01*
X70193305Y-54718585D01*
X70180415Y-54713326D01*
X70167948Y-54707292D01*
X70155910Y-54700484D01*
X70144310Y-54692908D01*
X70133153Y-54684566D01*
X70122447Y-54675461D01*
X70112197Y-54665597D01*
X70102411Y-54654977D01*
X70093095Y-54643604D01*
X70084256Y-54631481D01*
X70075901Y-54618612D01*
X70068036Y-54605000D01*
X70060669Y-54590648D01*
X70053805Y-54575559D01*
X70047452Y-54559738D01*
X70041616Y-54543186D01*
X70036304Y-54525907D01*
X70031523Y-54507905D01*
X70027279Y-54489183D01*
X70023579Y-54469744D01*
X70020430Y-54449591D01*
X70017838Y-54428728D01*
X70015811Y-54407158D01*
X70014355Y-54384884D01*
X70013476Y-54361909D01*
X70013182Y-54338237D01*
X70013479Y-54313910D01*
X70014368Y-54290299D01*
X70015840Y-54267409D01*
X70017888Y-54245242D01*
X70020505Y-54223803D01*
X70023684Y-54203095D01*
X70027416Y-54183121D01*
X70031694Y-54163886D01*
X70036512Y-54145392D01*
X70041862Y-54127645D01*
X70047736Y-54110646D01*
X70054127Y-54094401D01*
X70061028Y-54078913D01*
X70068431Y-54064185D01*
X70076329Y-54050221D01*
X70084714Y-54037024D01*
X70093580Y-54024599D01*
X70102918Y-54012949D01*
X70112722Y-54002078D01*
X70122983Y-53991989D01*
X70133696Y-53982686D01*
X70144851Y-53974173D01*
X70156443Y-53966453D01*
X70168463Y-53959531D01*
X70180904Y-53953409D01*
X70193758Y-53948091D01*
X70207020Y-53943581D01*
X70220680Y-53939883D01*
X70234731Y-53937001D01*
X70249167Y-53934937D01*
X70263980Y-53933697D01*
X70279162Y-53933282D01*
X70292159Y-53933597D01*
X70304645Y-53934524D01*
X70316631Y-53936041D01*
X70328131Y-53938123D01*
X70339159Y-53940747D01*
X70349727Y-53943889D01*
X70359848Y-53947525D01*
X70369536Y-53951631D01*
X70378803Y-53956184D01*
X70387663Y-53961159D01*
X70396129Y-53966533D01*
X70404214Y-53972283D01*
X70411931Y-53978384D01*
X70419293Y-53984812D01*
X70433004Y-53998556D01*
X70445454Y-54013325D01*
X70456746Y-54028928D01*
X70466986Y-54045175D01*
X70476277Y-54061876D01*
X70484726Y-54078840D01*
X70492437Y-54095877D01*
X70499515Y-54112797D01*
X70506064Y-54129409D01*
X70611088Y-54083491D01*
X70605359Y-54065015D01*
X70601922Y-54055276D01*
X70598088Y-54045260D01*
X70593844Y-54035010D01*
X70589177Y-54024567D01*
X70584076Y-54013975D01*
X70578527Y-54003277D01*
X70572520Y-53992514D01*
X70566040Y-53981730D01*
X70559077Y-53970968D01*
X70551617Y-53960269D01*
X70543648Y-53949676D01*
X70535158Y-53939233D01*
X70526135Y-53928981D01*
X70516566Y-53918963D01*
X70506439Y-53909223D01*
X70495741Y-53899802D01*
X70484461Y-53890743D01*
X70472585Y-53882089D01*
X70460102Y-53873882D01*
X70446999Y-53866166D01*
X70433264Y-53858982D01*
X70418884Y-53852373D01*
X70403848Y-53846382D01*
X70388142Y-53841052D01*
X70371754Y-53836424D01*
X70354673Y-53832543D01*
X70336886Y-53829450D01*
X70318379Y-53827188D01*
X70299142Y-53825799D01*
X70279162Y-53825327D01*
X70254398Y-53826027D01*
X70230524Y-53828100D01*
X70207532Y-53831510D01*
X70185415Y-53836216D01*
X70164168Y-53842181D01*
X70143782Y-53849366D01*
X70124252Y-53857732D01*
X70105570Y-53867241D01*
X70087730Y-53877855D01*
X70070726Y-53889534D01*
X70054550Y-53902242D01*
X70039195Y-53915938D01*
X70024655Y-53930584D01*
X70010923Y-53946142D01*
X69997993Y-53962574D01*
X69985857Y-53979841D01*
X69974509Y-53997904D01*
X69963942Y-54016725D01*
X69954149Y-54036266D01*
X69945124Y-54056487D01*
X69936860Y-54077351D01*
X69929350Y-54098818D01*
X69922587Y-54120851D01*
X69916564Y-54143411D01*
X69911276Y-54166459D01*
X69906714Y-54189957D01*
X69902873Y-54213867D01*
X69899745Y-54238149D01*
X69897325Y-54262766D01*
X69895604Y-54287678D01*
X69894576Y-54312848D01*
X69894235Y-54338237D01*
X69894596Y-54363812D01*
X69895682Y-54389088D01*
X69897494Y-54414030D01*
X69900036Y-54438606D01*
X69903311Y-54462781D01*
X69907321Y-54486521D01*
X69912070Y-54509795D01*
X69917560Y-54532566D01*
X69923795Y-54554803D01*
X69930776Y-54576472D01*
X69938508Y-54597538D01*
X69946992Y-54617969D01*
X69956231Y-54637730D01*
X69966230Y-54656789D01*
X69976989Y-54675111D01*
X69988513Y-54692664D01*
X70000804Y-54709412D01*
X70013865Y-54725324D01*
X70027698Y-54740365D01*
X70042307Y-54754501D01*
X70057695Y-54767700D01*
X70073864Y-54779927D01*
X70090818Y-54791149D01*
X70108558Y-54801333D01*
X70127089Y-54810444D01*
X70146412Y-54818449D01*
X70166531Y-54825315D01*
X70187449Y-54831008D01*
X70209168Y-54835494D01*
X70231691Y-54838740D01*
X70255022Y-54840712D01*
X70279162Y-54841377D01*
X70293362Y-54841036D01*
X70308051Y-54839951D01*
X70323128Y-54838033D01*
X70338494Y-54835191D01*
X70354047Y-54831334D01*
X70369687Y-54826372D01*
X70385313Y-54820214D01*
X70400825Y-54812770D01*
X70416123Y-54803949D01*
X70431105Y-54793661D01*
X70445672Y-54781816D01*
X70459722Y-54768322D01*
X70466522Y-54760928D01*
X70473156Y-54753089D01*
X70479610Y-54744792D01*
X70485872Y-54736027D01*
X70491930Y-54726781D01*
X70497770Y-54717045D01*
X70503381Y-54706806D01*
X70508750Y-54696053D01*
X70521451Y-54825746D01*
X70608157Y-54825746D01*
X70608157Y-54372431D01*
X70311402Y-54372431D01*
X70311402Y-54480386D01*
G37*
G36*
X71659378Y-54388062D02*
G01*
X71659378Y-54496018D01*
X72250202Y-54496018D01*
X72250202Y-54388062D01*
X71659378Y-54388062D01*
G37*
G36*
X73726894Y-54480386D02*
G01*
X73921556Y-54476234D01*
X73921556Y-54477455D01*
X73921255Y-54493516D01*
X73920362Y-54509047D01*
X73918894Y-54524049D01*
X73916865Y-54538523D01*
X73914290Y-54552470D01*
X73911186Y-54565892D01*
X73907566Y-54578789D01*
X73903447Y-54591162D01*
X73898844Y-54603012D01*
X73893773Y-54614341D01*
X73888248Y-54625149D01*
X73882284Y-54635437D01*
X73875899Y-54645207D01*
X73869105Y-54654459D01*
X73861920Y-54663194D01*
X73854358Y-54671415D01*
X73846435Y-54679120D01*
X73838166Y-54686312D01*
X73829566Y-54692992D01*
X73820650Y-54699160D01*
X73811435Y-54704818D01*
X73801935Y-54709967D01*
X73792166Y-54714607D01*
X73782142Y-54718740D01*
X73771881Y-54722367D01*
X73761395Y-54725489D01*
X73750702Y-54728106D01*
X73739816Y-54730220D01*
X73728753Y-54731832D01*
X73717528Y-54732943D01*
X73706157Y-54733554D01*
X73694654Y-54733666D01*
X73679364Y-54733130D01*
X73664458Y-54731798D01*
X73649941Y-54729675D01*
X73635821Y-54726763D01*
X73622104Y-54723065D01*
X73608797Y-54718585D01*
X73595907Y-54713326D01*
X73583439Y-54707292D01*
X73571402Y-54700484D01*
X73559802Y-54692908D01*
X73548645Y-54684566D01*
X73537939Y-54675461D01*
X73527689Y-54665597D01*
X73517903Y-54654977D01*
X73508587Y-54643604D01*
X73499748Y-54631481D01*
X73491393Y-54618612D01*
X73483528Y-54605000D01*
X73476161Y-54590648D01*
X73469297Y-54575559D01*
X73462944Y-54559738D01*
X73457108Y-54543186D01*
X73451796Y-54525907D01*
X73447015Y-54507905D01*
X73442771Y-54489183D01*
X73439071Y-54469744D01*
X73435922Y-54449591D01*
X73433330Y-54428728D01*
X73431303Y-54407158D01*
X73429847Y-54384884D01*
X73428968Y-54361909D01*
X73428673Y-54338237D01*
X73428971Y-54313910D01*
X73429860Y-54290299D01*
X73431332Y-54267409D01*
X73433380Y-54245242D01*
X73435997Y-54223803D01*
X73439176Y-54203095D01*
X73442908Y-54183121D01*
X73447186Y-54163886D01*
X73452004Y-54145392D01*
X73457354Y-54127645D01*
X73463228Y-54110646D01*
X73469619Y-54094401D01*
X73476520Y-54078913D01*
X73483923Y-54064185D01*
X73491821Y-54050221D01*
X73500206Y-54037024D01*
X73509072Y-54024599D01*
X73518410Y-54012949D01*
X73528214Y-54002078D01*
X73538475Y-53991989D01*
X73549188Y-53982686D01*
X73560343Y-53974173D01*
X73571935Y-53966453D01*
X73583955Y-53959531D01*
X73596396Y-53953409D01*
X73609250Y-53948091D01*
X73622512Y-53943581D01*
X73636172Y-53939883D01*
X73650223Y-53937001D01*
X73664659Y-53934937D01*
X73679472Y-53933697D01*
X73694654Y-53933282D01*
X73707651Y-53933597D01*
X73720137Y-53934524D01*
X73732123Y-53936041D01*
X73743623Y-53938123D01*
X73754651Y-53940747D01*
X73765219Y-53943889D01*
X73775340Y-53947525D01*
X73785028Y-53951631D01*
X73794295Y-53956184D01*
X73803155Y-53961159D01*
X73811621Y-53966533D01*
X73819706Y-53972283D01*
X73827423Y-53978384D01*
X73834785Y-53984812D01*
X73848496Y-53998556D01*
X73860946Y-54013325D01*
X73872238Y-54028928D01*
X73882478Y-54045175D01*
X73891769Y-54061876D01*
X73900218Y-54078840D01*
X73907929Y-54095877D01*
X73915006Y-54112797D01*
X73921556Y-54129409D01*
X74026580Y-54083491D01*
X74020851Y-54065015D01*
X74017414Y-54055276D01*
X74013580Y-54045260D01*
X74009336Y-54035010D01*
X74004669Y-54024567D01*
X73999568Y-54013975D01*
X73994019Y-54003277D01*
X73988012Y-53992514D01*
X73981532Y-53981730D01*
X73974569Y-53970968D01*
X73967109Y-53960269D01*
X73959140Y-53949676D01*
X73950650Y-53939233D01*
X73941627Y-53928981D01*
X73932058Y-53918963D01*
X73921931Y-53909223D01*
X73911233Y-53899802D01*
X73899953Y-53890743D01*
X73888077Y-53882089D01*
X73875594Y-53873882D01*
X73862491Y-53866166D01*
X73848756Y-53858982D01*
X73834376Y-53852373D01*
X73819340Y-53846382D01*
X73803634Y-53841052D01*
X73787246Y-53836424D01*
X73770165Y-53832543D01*
X73752378Y-53829450D01*
X73733871Y-53827188D01*
X73714634Y-53825799D01*
X73694654Y-53825327D01*
X73669890Y-53826027D01*
X73646016Y-53828100D01*
X73623024Y-53831510D01*
X73600907Y-53836216D01*
X73579659Y-53842181D01*
X73559274Y-53849366D01*
X73539744Y-53857732D01*
X73521062Y-53867241D01*
X73503222Y-53877855D01*
X73486218Y-53889534D01*
X73470041Y-53902242D01*
X73454687Y-53915938D01*
X73440147Y-53930584D01*
X73426415Y-53946142D01*
X73413485Y-53962574D01*
X73401349Y-53979841D01*
X73390001Y-53997904D01*
X73379434Y-54016725D01*
X73369641Y-54036266D01*
X73360616Y-54056487D01*
X73352352Y-54077351D01*
X73344842Y-54098818D01*
X73338079Y-54120851D01*
X73332056Y-54143411D01*
X73326768Y-54166459D01*
X73322206Y-54189957D01*
X73318365Y-54213867D01*
X73315237Y-54238149D01*
X73312817Y-54262766D01*
X73311096Y-54287678D01*
X73310068Y-54312848D01*
X73309727Y-54338237D01*
X73310088Y-54363812D01*
X73311174Y-54389088D01*
X73312986Y-54414030D01*
X73315528Y-54438606D01*
X73318803Y-54462781D01*
X73322813Y-54486521D01*
X73327562Y-54509795D01*
X73333052Y-54532566D01*
X73339287Y-54554803D01*
X73346268Y-54576472D01*
X73354000Y-54597538D01*
X73362484Y-54617969D01*
X73371723Y-54637730D01*
X73381722Y-54656789D01*
X73392481Y-54675111D01*
X73404005Y-54692664D01*
X73416296Y-54709412D01*
X73429357Y-54725324D01*
X73443190Y-54740365D01*
X73457799Y-54754501D01*
X73473187Y-54767700D01*
X73489356Y-54779927D01*
X73506310Y-54791149D01*
X73524050Y-54801333D01*
X73542581Y-54810444D01*
X73561904Y-54818449D01*
X73582023Y-54825315D01*
X73602941Y-54831008D01*
X73624660Y-54835494D01*
X73647183Y-54838740D01*
X73670513Y-54840712D01*
X73694654Y-54841377D01*
X73708854Y-54841036D01*
X73723543Y-54839951D01*
X73738620Y-54838033D01*
X73753986Y-54835191D01*
X73769539Y-54831334D01*
X73785179Y-54826372D01*
X73800805Y-54820214D01*
X73816317Y-54812770D01*
X73831615Y-54803949D01*
X73846597Y-54793661D01*
X73861164Y-54781816D01*
X73875214Y-54768322D01*
X73882014Y-54760928D01*
X73888648Y-54753089D01*
X73895102Y-54744792D01*
X73901364Y-54736027D01*
X73907422Y-54726781D01*
X73913262Y-54717045D01*
X73918873Y-54706806D01*
X73924242Y-54696053D01*
X73936943Y-54825746D01*
X74023649Y-54825746D01*
X74023649Y-54372431D01*
X73726894Y-54372431D01*
X73726894Y-54480386D01*
G37*
G36*
X74727801Y-53840958D02*
G01*
X74733419Y-54595180D01*
X74295247Y-53840958D01*
X74199992Y-53840958D01*
X74199992Y-54825746D01*
X74318939Y-54825746D01*
X74313321Y-54071768D01*
X74751493Y-54825746D01*
X74846747Y-54825746D01*
X74846747Y-53840958D01*
X74727801Y-53840958D01*
G37*
G36*
X75336949Y-53841624D02*
G01*
X75362715Y-53843596D01*
X75387390Y-53846839D01*
X75410992Y-53851317D01*
X75433538Y-53856996D01*
X75455043Y-53863838D01*
X75475524Y-53871809D01*
X75494999Y-53880873D01*
X75513483Y-53890994D01*
X75530993Y-53902137D01*
X75547546Y-53914265D01*
X75563159Y-53927344D01*
X75577849Y-53941338D01*
X75591631Y-53956211D01*
X75604522Y-53971927D01*
X75616540Y-53988450D01*
X75627700Y-54005746D01*
X75638020Y-54023779D01*
X75647516Y-54042512D01*
X75656205Y-54061910D01*
X75664102Y-54081938D01*
X75671226Y-54102559D01*
X75677593Y-54123739D01*
X75683218Y-54145441D01*
X75688120Y-54167631D01*
X75692314Y-54190271D01*
X75695817Y-54213328D01*
X75698646Y-54236764D01*
X75700817Y-54260545D01*
X75702347Y-54284634D01*
X75703253Y-54308996D01*
X75703551Y-54333596D01*
X75703241Y-54358173D01*
X75702301Y-54382513D01*
X75700718Y-54406579D01*
X75698475Y-54430337D01*
X75695560Y-54453751D01*
X75691958Y-54476785D01*
X75687654Y-54499404D01*
X75682634Y-54521572D01*
X75676884Y-54543253D01*
X75670390Y-54564412D01*
X75663136Y-54585013D01*
X75655110Y-54605021D01*
X75646295Y-54624399D01*
X75636679Y-54643114D01*
X75626246Y-54661128D01*
X75614983Y-54678406D01*
X75602874Y-54694913D01*
X75589906Y-54710613D01*
X75576065Y-54725470D01*
X75561335Y-54739450D01*
X75545702Y-54752515D01*
X75529153Y-54764631D01*
X75511673Y-54775762D01*
X75493247Y-54785873D01*
X75473861Y-54794927D01*
X75453501Y-54802890D01*
X75432152Y-54809725D01*
X75409800Y-54815398D01*
X75386431Y-54819871D01*
X75362030Y-54823111D01*
X75336583Y-54825081D01*
X75310076Y-54825746D01*
X75050934Y-54825746D01*
X75050934Y-53948914D01*
X75169881Y-53948914D01*
X75169881Y-54718034D01*
X75305924Y-54718034D01*
X75326536Y-54717487D01*
X75346161Y-54715866D01*
X75364823Y-54713206D01*
X75382543Y-54709540D01*
X75399342Y-54704900D01*
X75415242Y-54699321D01*
X75430265Y-54692836D01*
X75444433Y-54685478D01*
X75457767Y-54677279D01*
X75470289Y-54668275D01*
X75482021Y-54658497D01*
X75492984Y-54647980D01*
X75503201Y-54636756D01*
X75512693Y-54624860D01*
X75521482Y-54612323D01*
X75529589Y-54599180D01*
X75537037Y-54585463D01*
X75543846Y-54571207D01*
X75550040Y-54556445D01*
X75555638Y-54541209D01*
X75560664Y-54525533D01*
X75565139Y-54509451D01*
X75569085Y-54492995D01*
X75572523Y-54476200D01*
X75575475Y-54459098D01*
X75577963Y-54441722D01*
X75580008Y-54424107D01*
X75581633Y-54406285D01*
X75582859Y-54388289D01*
X75583708Y-54370154D01*
X75584201Y-54351912D01*
X75584361Y-54333596D01*
X75584201Y-54315258D01*
X75583708Y-54296996D01*
X75582859Y-54278841D01*
X75581633Y-54260827D01*
X75580008Y-54242988D01*
X75577963Y-54225357D01*
X75575475Y-54207967D01*
X75572523Y-54190851D01*
X75569085Y-54174044D01*
X75565139Y-54157577D01*
X75560664Y-54141484D01*
X75555638Y-54125799D01*
X75550040Y-54110555D01*
X75543846Y-54095784D01*
X75537037Y-54081521D01*
X75529589Y-54067799D01*
X75521482Y-54054650D01*
X75512693Y-54042109D01*
X75503201Y-54030208D01*
X75492984Y-54018981D01*
X75482021Y-54008461D01*
X75470289Y-53998681D01*
X75457767Y-53989674D01*
X75444433Y-53981474D01*
X75430265Y-53974115D01*
X75415242Y-53967628D01*
X75399342Y-53962049D01*
X75382543Y-53957409D01*
X75364823Y-53953742D01*
X75346161Y-53951082D01*
X75326536Y-53949461D01*
X75305924Y-53948914D01*
X75169881Y-53948914D01*
X75050934Y-53948914D01*
X75050934Y-53840958D01*
X75310076Y-53840958D01*
X75336949Y-53841624D01*
G37*
X68494957Y-51265565D02*
X68494957Y-50265565D01*
X68494957Y-50265565D02*
X68733052Y-50265565D01*
X68733052Y-50265565D02*
X68875909Y-50313184D01*
X68875909Y-50313184D02*
X68971147Y-50408422D01*
X68971147Y-50408422D02*
X69018766Y-50503660D01*
X69018766Y-50503660D02*
X69066385Y-50694136D01*
X69066385Y-50694136D02*
X69066385Y-50836993D01*
X69066385Y-50836993D02*
X69018766Y-51027469D01*
X69018766Y-51027469D02*
X68971147Y-51122707D01*
X68971147Y-51122707D02*
X68875909Y-51217946D01*
X68875909Y-51217946D02*
X68733052Y-51265565D01*
X68733052Y-51265565D02*
X68494957Y-51265565D01*
X69494957Y-51265565D02*
X69494957Y-50265565D01*
X69494957Y-50741755D02*
X70066385Y-50741755D01*
X70066385Y-51265565D02*
X70066385Y-50265565D01*
X70399719Y-50265565D02*
X70971147Y-50265565D01*
X70685433Y-51265565D02*
X70685433Y-50265565D01*
X71828290Y-51265565D02*
X71256862Y-51265565D01*
X71542576Y-51265565D02*
X71542576Y-50265565D01*
X71542576Y-50265565D02*
X71447338Y-50408422D01*
X71447338Y-50408422D02*
X71352100Y-50503660D01*
X71352100Y-50503660D02*
X71256862Y-50551279D01*
X72780671Y-51265565D02*
X72209243Y-51265565D01*
X72494957Y-51265565D02*
X72494957Y-50265565D01*
X72494957Y-50265565D02*
X72399719Y-50408422D01*
X72399719Y-50408422D02*
X72304481Y-50503660D01*
X72304481Y-50503660D02*
X72209243Y-50551279D01*
X55928585Y-165623841D02*
X55976205Y-165671460D01*
X55976205Y-165671460D02*
X56023824Y-165814317D01*
X56023824Y-165814317D02*
X56023824Y-165909555D01*
X56023824Y-165909555D02*
X55976205Y-166052412D01*
X55976205Y-166052412D02*
X55880966Y-166147650D01*
X55880966Y-166147650D02*
X55785728Y-166195269D01*
X55785728Y-166195269D02*
X55595252Y-166242888D01*
X55595252Y-166242888D02*
X55452395Y-166242888D01*
X55452395Y-166242888D02*
X55261919Y-166195269D01*
X55261919Y-166195269D02*
X55166681Y-166147650D01*
X55166681Y-166147650D02*
X55071443Y-166052412D01*
X55071443Y-166052412D02*
X55023824Y-165909555D01*
X55023824Y-165909555D02*
X55023824Y-165814317D01*
X55023824Y-165814317D02*
X55071443Y-165671460D01*
X55071443Y-165671460D02*
X55119062Y-165623841D01*
X56023824Y-165052412D02*
X55976205Y-165147650D01*
X55976205Y-165147650D02*
X55928585Y-165195269D01*
X55928585Y-165195269D02*
X55833347Y-165242888D01*
X55833347Y-165242888D02*
X55547633Y-165242888D01*
X55547633Y-165242888D02*
X55452395Y-165195269D01*
X55452395Y-165195269D02*
X55404776Y-165147650D01*
X55404776Y-165147650D02*
X55357157Y-165052412D01*
X55357157Y-165052412D02*
X55357157Y-164909555D01*
X55357157Y-164909555D02*
X55404776Y-164814317D01*
X55404776Y-164814317D02*
X55452395Y-164766698D01*
X55452395Y-164766698D02*
X55547633Y-164719079D01*
X55547633Y-164719079D02*
X55833347Y-164719079D01*
X55833347Y-164719079D02*
X55928585Y-164766698D01*
X55928585Y-164766698D02*
X55976205Y-164814317D01*
X55976205Y-164814317D02*
X56023824Y-164909555D01*
X56023824Y-164909555D02*
X56023824Y-165052412D01*
X55357157Y-164290507D02*
X56023824Y-164290507D01*
X55452395Y-164290507D02*
X55404776Y-164242888D01*
X55404776Y-164242888D02*
X55357157Y-164147650D01*
X55357157Y-164147650D02*
X55357157Y-164004793D01*
X55357157Y-164004793D02*
X55404776Y-163909555D01*
X55404776Y-163909555D02*
X55500014Y-163861936D01*
X55500014Y-163861936D02*
X56023824Y-163861936D01*
X55357157Y-163385745D02*
X56023824Y-163385745D01*
X55452395Y-163385745D02*
X55404776Y-163338126D01*
X55404776Y-163338126D02*
X55357157Y-163242888D01*
X55357157Y-163242888D02*
X55357157Y-163100031D01*
X55357157Y-163100031D02*
X55404776Y-163004793D01*
X55404776Y-163004793D02*
X55500014Y-162957174D01*
X55500014Y-162957174D02*
X56023824Y-162957174D01*
X56119062Y-162719079D02*
X56119062Y-161957174D01*
X55023824Y-161528602D02*
X55023824Y-161433364D01*
X55023824Y-161433364D02*
X55071443Y-161338126D01*
X55071443Y-161338126D02*
X55119062Y-161290507D01*
X55119062Y-161290507D02*
X55214300Y-161242888D01*
X55214300Y-161242888D02*
X55404776Y-161195269D01*
X55404776Y-161195269D02*
X55642871Y-161195269D01*
X55642871Y-161195269D02*
X55833347Y-161242888D01*
X55833347Y-161242888D02*
X55928585Y-161290507D01*
X55928585Y-161290507D02*
X55976205Y-161338126D01*
X55976205Y-161338126D02*
X56023824Y-161433364D01*
X56023824Y-161433364D02*
X56023824Y-161528602D01*
X56023824Y-161528602D02*
X55976205Y-161623840D01*
X55976205Y-161623840D02*
X55928585Y-161671459D01*
X55928585Y-161671459D02*
X55833347Y-161719078D01*
X55833347Y-161719078D02*
X55642871Y-161766697D01*
X55642871Y-161766697D02*
X55404776Y-161766697D01*
X55404776Y-161766697D02*
X55214300Y-161719078D01*
X55214300Y-161719078D02*
X55119062Y-161671459D01*
X55119062Y-161671459D02*
X55071443Y-161623840D01*
X55071443Y-161623840D02*
X55023824Y-161528602D01*
X56023824Y-160242888D02*
X56023824Y-160814316D01*
X56023824Y-160528602D02*
X55023824Y-160528602D01*
X55023824Y-160528602D02*
X55166681Y-160623840D01*
X55166681Y-160623840D02*
X55261919Y-160719078D01*
X55261919Y-160719078D02*
X55309538Y-160814316D01*
X56023824Y-159909554D02*
X55357157Y-159385745D01*
X55357157Y-159909554D02*
X56023824Y-159385745D01*
X55023824Y-158814316D02*
X55023824Y-158719078D01*
X55023824Y-158719078D02*
X55071443Y-158623840D01*
X55071443Y-158623840D02*
X55119062Y-158576221D01*
X55119062Y-158576221D02*
X55214300Y-158528602D01*
X55214300Y-158528602D02*
X55404776Y-158480983D01*
X55404776Y-158480983D02*
X55642871Y-158480983D01*
X55642871Y-158480983D02*
X55833347Y-158528602D01*
X55833347Y-158528602D02*
X55928585Y-158576221D01*
X55928585Y-158576221D02*
X55976205Y-158623840D01*
X55976205Y-158623840D02*
X56023824Y-158719078D01*
X56023824Y-158719078D02*
X56023824Y-158814316D01*
X56023824Y-158814316D02*
X55976205Y-158909554D01*
X55976205Y-158909554D02*
X55928585Y-158957173D01*
X55928585Y-158957173D02*
X55833347Y-159004792D01*
X55833347Y-159004792D02*
X55642871Y-159052411D01*
X55642871Y-159052411D02*
X55404776Y-159052411D01*
X55404776Y-159052411D02*
X55214300Y-159004792D01*
X55214300Y-159004792D02*
X55119062Y-158957173D01*
X55119062Y-158957173D02*
X55071443Y-158909554D01*
X55071443Y-158909554D02*
X55023824Y-158814316D01*
X55023824Y-158147649D02*
X55023824Y-157528602D01*
X55023824Y-157528602D02*
X55404776Y-157861935D01*
X55404776Y-157861935D02*
X55404776Y-157719078D01*
X55404776Y-157719078D02*
X55452395Y-157623840D01*
X55452395Y-157623840D02*
X55500014Y-157576221D01*
X55500014Y-157576221D02*
X55595252Y-157528602D01*
X55595252Y-157528602D02*
X55833347Y-157528602D01*
X55833347Y-157528602D02*
X55928585Y-157576221D01*
X55928585Y-157576221D02*
X55976205Y-157623840D01*
X55976205Y-157623840D02*
X56023824Y-157719078D01*
X56023824Y-157719078D02*
X56023824Y-158004792D01*
X56023824Y-158004792D02*
X55976205Y-158100030D01*
X55976205Y-158100030D02*
X55928585Y-158147649D01*
X59569481Y-159725565D02*
X60236147Y-160725565D01*
X60236147Y-159725565D02*
X59569481Y-160725565D01*
X60569481Y-159820803D02*
X60617100Y-159773184D01*
X60617100Y-159773184D02*
X60712338Y-159725565D01*
X60712338Y-159725565D02*
X60950433Y-159725565D01*
X60950433Y-159725565D02*
X61045671Y-159773184D01*
X61045671Y-159773184D02*
X61093290Y-159820803D01*
X61093290Y-159820803D02*
X61140909Y-159916041D01*
X61140909Y-159916041D02*
X61140909Y-160011279D01*
X61140909Y-160011279D02*
X61093290Y-160154136D01*
X61093290Y-160154136D02*
X60521862Y-160725565D01*
X60521862Y-160725565D02*
X61140909Y-160725565D01*
X60253824Y-55867412D02*
X59777633Y-56200745D01*
X60253824Y-56438840D02*
X59253824Y-56438840D01*
X59253824Y-56438840D02*
X59253824Y-56057888D01*
X59253824Y-56057888D02*
X59301443Y-55962650D01*
X59301443Y-55962650D02*
X59349062Y-55915031D01*
X59349062Y-55915031D02*
X59444300Y-55867412D01*
X59444300Y-55867412D02*
X59587157Y-55867412D01*
X59587157Y-55867412D02*
X59682395Y-55915031D01*
X59682395Y-55915031D02*
X59730014Y-55962650D01*
X59730014Y-55962650D02*
X59777633Y-56057888D01*
X59777633Y-56057888D02*
X59777633Y-56438840D01*
X59301443Y-54915031D02*
X59253824Y-55010269D01*
X59253824Y-55010269D02*
X59253824Y-55153126D01*
X59253824Y-55153126D02*
X59301443Y-55295983D01*
X59301443Y-55295983D02*
X59396681Y-55391221D01*
X59396681Y-55391221D02*
X59491919Y-55438840D01*
X59491919Y-55438840D02*
X59682395Y-55486459D01*
X59682395Y-55486459D02*
X59825252Y-55486459D01*
X59825252Y-55486459D02*
X60015728Y-55438840D01*
X60015728Y-55438840D02*
X60110966Y-55391221D01*
X60110966Y-55391221D02*
X60206205Y-55295983D01*
X60206205Y-55295983D02*
X60253824Y-55153126D01*
X60253824Y-55153126D02*
X60253824Y-55057888D01*
X60253824Y-55057888D02*
X60206205Y-54915031D01*
X60206205Y-54915031D02*
X60158585Y-54867412D01*
X60158585Y-54867412D02*
X59825252Y-54867412D01*
X59825252Y-54867412D02*
X59825252Y-55057888D01*
X60253824Y-53915031D02*
X60253824Y-54486459D01*
X60253824Y-54200745D02*
X59253824Y-54200745D01*
X59253824Y-54200745D02*
X59396681Y-54295983D01*
X59396681Y-54295983D02*
X59491919Y-54391221D01*
X59491919Y-54391221D02*
X59539538Y-54486459D01*
X33105909Y-96410326D02*
X33058290Y-96457946D01*
X33058290Y-96457946D02*
X32915433Y-96505565D01*
X32915433Y-96505565D02*
X32820195Y-96505565D01*
X32820195Y-96505565D02*
X32677338Y-96457946D01*
X32677338Y-96457946D02*
X32582100Y-96362707D01*
X32582100Y-96362707D02*
X32534481Y-96267469D01*
X32534481Y-96267469D02*
X32486862Y-96076993D01*
X32486862Y-96076993D02*
X32486862Y-95934136D01*
X32486862Y-95934136D02*
X32534481Y-95743660D01*
X32534481Y-95743660D02*
X32582100Y-95648422D01*
X32582100Y-95648422D02*
X32677338Y-95553184D01*
X32677338Y-95553184D02*
X32820195Y-95505565D01*
X32820195Y-95505565D02*
X32915433Y-95505565D01*
X32915433Y-95505565D02*
X33058290Y-95553184D01*
X33058290Y-95553184D02*
X33105909Y-95600803D01*
X33677338Y-96505565D02*
X33582100Y-96457946D01*
X33582100Y-96457946D02*
X33534481Y-96410326D01*
X33534481Y-96410326D02*
X33486862Y-96315088D01*
X33486862Y-96315088D02*
X33486862Y-96029374D01*
X33486862Y-96029374D02*
X33534481Y-95934136D01*
X33534481Y-95934136D02*
X33582100Y-95886517D01*
X33582100Y-95886517D02*
X33677338Y-95838898D01*
X33677338Y-95838898D02*
X33820195Y-95838898D01*
X33820195Y-95838898D02*
X33915433Y-95886517D01*
X33915433Y-95886517D02*
X33963052Y-95934136D01*
X33963052Y-95934136D02*
X34010671Y-96029374D01*
X34010671Y-96029374D02*
X34010671Y-96315088D01*
X34010671Y-96315088D02*
X33963052Y-96410326D01*
X33963052Y-96410326D02*
X33915433Y-96457946D01*
X33915433Y-96457946D02*
X33820195Y-96505565D01*
X33820195Y-96505565D02*
X33677338Y-96505565D01*
X34439243Y-95838898D02*
X34439243Y-96505565D01*
X34439243Y-95934136D02*
X34486862Y-95886517D01*
X34486862Y-95886517D02*
X34582100Y-95838898D01*
X34582100Y-95838898D02*
X34724957Y-95838898D01*
X34724957Y-95838898D02*
X34820195Y-95886517D01*
X34820195Y-95886517D02*
X34867814Y-95981755D01*
X34867814Y-95981755D02*
X34867814Y-96505565D01*
X35344005Y-95838898D02*
X35344005Y-96505565D01*
X35344005Y-95934136D02*
X35391624Y-95886517D01*
X35391624Y-95886517D02*
X35486862Y-95838898D01*
X35486862Y-95838898D02*
X35629719Y-95838898D01*
X35629719Y-95838898D02*
X35724957Y-95886517D01*
X35724957Y-95886517D02*
X35772576Y-95981755D01*
X35772576Y-95981755D02*
X35772576Y-96505565D01*
X36010672Y-96600803D02*
X36772576Y-96600803D01*
X37201148Y-95505565D02*
X37296386Y-95505565D01*
X37296386Y-95505565D02*
X37391624Y-95553184D01*
X37391624Y-95553184D02*
X37439243Y-95600803D01*
X37439243Y-95600803D02*
X37486862Y-95696041D01*
X37486862Y-95696041D02*
X37534481Y-95886517D01*
X37534481Y-95886517D02*
X37534481Y-96124612D01*
X37534481Y-96124612D02*
X37486862Y-96315088D01*
X37486862Y-96315088D02*
X37439243Y-96410326D01*
X37439243Y-96410326D02*
X37391624Y-96457946D01*
X37391624Y-96457946D02*
X37296386Y-96505565D01*
X37296386Y-96505565D02*
X37201148Y-96505565D01*
X37201148Y-96505565D02*
X37105910Y-96457946D01*
X37105910Y-96457946D02*
X37058291Y-96410326D01*
X37058291Y-96410326D02*
X37010672Y-96315088D01*
X37010672Y-96315088D02*
X36963053Y-96124612D01*
X36963053Y-96124612D02*
X36963053Y-95886517D01*
X36963053Y-95886517D02*
X37010672Y-95696041D01*
X37010672Y-95696041D02*
X37058291Y-95600803D01*
X37058291Y-95600803D02*
X37105910Y-95553184D01*
X37105910Y-95553184D02*
X37201148Y-95505565D01*
X38486862Y-96505565D02*
X37915434Y-96505565D01*
X38201148Y-96505565D02*
X38201148Y-95505565D01*
X38201148Y-95505565D02*
X38105910Y-95648422D01*
X38105910Y-95648422D02*
X38010672Y-95743660D01*
X38010672Y-95743660D02*
X37915434Y-95791279D01*
X38820196Y-96505565D02*
X39344005Y-95838898D01*
X38820196Y-95838898D02*
X39344005Y-96505565D01*
X39915434Y-95505565D02*
X40010672Y-95505565D01*
X40010672Y-95505565D02*
X40105910Y-95553184D01*
X40105910Y-95553184D02*
X40153529Y-95600803D01*
X40153529Y-95600803D02*
X40201148Y-95696041D01*
X40201148Y-95696041D02*
X40248767Y-95886517D01*
X40248767Y-95886517D02*
X40248767Y-96124612D01*
X40248767Y-96124612D02*
X40201148Y-96315088D01*
X40201148Y-96315088D02*
X40153529Y-96410326D01*
X40153529Y-96410326D02*
X40105910Y-96457946D01*
X40105910Y-96457946D02*
X40010672Y-96505565D01*
X40010672Y-96505565D02*
X39915434Y-96505565D01*
X39915434Y-96505565D02*
X39820196Y-96457946D01*
X39820196Y-96457946D02*
X39772577Y-96410326D01*
X39772577Y-96410326D02*
X39724958Y-96315088D01*
X39724958Y-96315088D02*
X39677339Y-96124612D01*
X39677339Y-96124612D02*
X39677339Y-95886517D01*
X39677339Y-95886517D02*
X39724958Y-95696041D01*
X39724958Y-95696041D02*
X39772577Y-95600803D01*
X39772577Y-95600803D02*
X39820196Y-95553184D01*
X39820196Y-95553184D02*
X39915434Y-95505565D01*
X40582101Y-95505565D02*
X41201148Y-95505565D01*
X41201148Y-95505565D02*
X40867815Y-95886517D01*
X40867815Y-95886517D02*
X41010672Y-95886517D01*
X41010672Y-95886517D02*
X41105910Y-95934136D01*
X41105910Y-95934136D02*
X41153529Y-95981755D01*
X41153529Y-95981755D02*
X41201148Y-96076993D01*
X41201148Y-96076993D02*
X41201148Y-96315088D01*
X41201148Y-96315088D02*
X41153529Y-96410326D01*
X41153529Y-96410326D02*
X41105910Y-96457946D01*
X41105910Y-96457946D02*
X41010672Y-96505565D01*
X41010672Y-96505565D02*
X40724958Y-96505565D01*
X40724958Y-96505565D02*
X40629720Y-96457946D01*
X40629720Y-96457946D02*
X40582101Y-96410326D01*
X52279957Y-57740565D02*
X51803767Y-57740565D01*
X51803767Y-57740565D02*
X51803767Y-56740565D01*
X52613291Y-57216755D02*
X52946624Y-57216755D01*
X53089481Y-57740565D02*
X52613291Y-57740565D01*
X52613291Y-57740565D02*
X52613291Y-56740565D01*
X52613291Y-56740565D02*
X53089481Y-56740565D01*
X53518053Y-57740565D02*
X53518053Y-56740565D01*
X53518053Y-56740565D02*
X53756148Y-56740565D01*
X53756148Y-56740565D02*
X53899005Y-56788184D01*
X53899005Y-56788184D02*
X53994243Y-56883422D01*
X53994243Y-56883422D02*
X54041862Y-56978660D01*
X54041862Y-56978660D02*
X54089481Y-57169136D01*
X54089481Y-57169136D02*
X54089481Y-57311993D01*
X54089481Y-57311993D02*
X54041862Y-57502469D01*
X54041862Y-57502469D02*
X53994243Y-57597707D01*
X53994243Y-57597707D02*
X53899005Y-57692946D01*
X53899005Y-57692946D02*
X53756148Y-57740565D01*
X53756148Y-57740565D02*
X53518053Y-57740565D01*
X55041862Y-56788184D02*
X54946624Y-56740565D01*
X54946624Y-56740565D02*
X54803767Y-56740565D01*
X54803767Y-56740565D02*
X54660910Y-56788184D01*
X54660910Y-56788184D02*
X54565672Y-56883422D01*
X54565672Y-56883422D02*
X54518053Y-56978660D01*
X54518053Y-56978660D02*
X54470434Y-57169136D01*
X54470434Y-57169136D02*
X54470434Y-57311993D01*
X54470434Y-57311993D02*
X54518053Y-57502469D01*
X54518053Y-57502469D02*
X54565672Y-57597707D01*
X54565672Y-57597707D02*
X54660910Y-57692946D01*
X54660910Y-57692946D02*
X54803767Y-57740565D01*
X54803767Y-57740565D02*
X54899005Y-57740565D01*
X54899005Y-57740565D02*
X55041862Y-57692946D01*
X55041862Y-57692946D02*
X55089481Y-57645326D01*
X55089481Y-57645326D02*
X55089481Y-57311993D01*
X55089481Y-57311993D02*
X54899005Y-57311993D01*
X56041862Y-57740565D02*
X55470434Y-57740565D01*
X55756148Y-57740565D02*
X55756148Y-56740565D01*
X55756148Y-56740565D02*
X55660910Y-56883422D01*
X55660910Y-56883422D02*
X55565672Y-56978660D01*
X55565672Y-56978660D02*
X55470434Y-57026279D01*
X50945938Y-99411755D02*
X51279271Y-99411755D01*
X51422128Y-99935565D02*
X50945938Y-99935565D01*
X50945938Y-99935565D02*
X50945938Y-98935565D01*
X50945938Y-98935565D02*
X51422128Y-98935565D01*
X51803081Y-99887946D02*
X51945938Y-99935565D01*
X51945938Y-99935565D02*
X52184033Y-99935565D01*
X52184033Y-99935565D02*
X52279271Y-99887946D01*
X52279271Y-99887946D02*
X52326890Y-99840326D01*
X52326890Y-99840326D02*
X52374509Y-99745088D01*
X52374509Y-99745088D02*
X52374509Y-99649850D01*
X52374509Y-99649850D02*
X52326890Y-99554612D01*
X52326890Y-99554612D02*
X52279271Y-99506993D01*
X52279271Y-99506993D02*
X52184033Y-99459374D01*
X52184033Y-99459374D02*
X51993557Y-99411755D01*
X51993557Y-99411755D02*
X51898319Y-99364136D01*
X51898319Y-99364136D02*
X51850700Y-99316517D01*
X51850700Y-99316517D02*
X51803081Y-99221279D01*
X51803081Y-99221279D02*
X51803081Y-99126041D01*
X51803081Y-99126041D02*
X51850700Y-99030803D01*
X51850700Y-99030803D02*
X51898319Y-98983184D01*
X51898319Y-98983184D02*
X51993557Y-98935565D01*
X51993557Y-98935565D02*
X52231652Y-98935565D01*
X52231652Y-98935565D02*
X52374509Y-98983184D01*
X52803081Y-99935565D02*
X52803081Y-98935565D01*
X52803081Y-98935565D02*
X53184033Y-98935565D01*
X53184033Y-98935565D02*
X53279271Y-98983184D01*
X53279271Y-98983184D02*
X53326890Y-99030803D01*
X53326890Y-99030803D02*
X53374509Y-99126041D01*
X53374509Y-99126041D02*
X53374509Y-99268898D01*
X53374509Y-99268898D02*
X53326890Y-99364136D01*
X53326890Y-99364136D02*
X53279271Y-99411755D01*
X53279271Y-99411755D02*
X53184033Y-99459374D01*
X53184033Y-99459374D02*
X52803081Y-99459374D01*
X54326890Y-99935565D02*
X53755462Y-99935565D01*
X54041176Y-99935565D02*
X54041176Y-98935565D01*
X54041176Y-98935565D02*
X53945938Y-99078422D01*
X53945938Y-99078422D02*
X53850700Y-99173660D01*
X53850700Y-99173660D02*
X53755462Y-99221279D01*
X48874509Y-140940326D02*
X48826890Y-140987946D01*
X48826890Y-140987946D02*
X48684033Y-141035565D01*
X48684033Y-141035565D02*
X48588795Y-141035565D01*
X48588795Y-141035565D02*
X48445938Y-140987946D01*
X48445938Y-140987946D02*
X48350700Y-140892707D01*
X48350700Y-140892707D02*
X48303081Y-140797469D01*
X48303081Y-140797469D02*
X48255462Y-140606993D01*
X48255462Y-140606993D02*
X48255462Y-140464136D01*
X48255462Y-140464136D02*
X48303081Y-140273660D01*
X48303081Y-140273660D02*
X48350700Y-140178422D01*
X48350700Y-140178422D02*
X48445938Y-140083184D01*
X48445938Y-140083184D02*
X48588795Y-140035565D01*
X48588795Y-140035565D02*
X48684033Y-140035565D01*
X48684033Y-140035565D02*
X48826890Y-140083184D01*
X48826890Y-140083184D02*
X48874509Y-140130803D01*
X49445938Y-141035565D02*
X49350700Y-140987946D01*
X49350700Y-140987946D02*
X49303081Y-140940326D01*
X49303081Y-140940326D02*
X49255462Y-140845088D01*
X49255462Y-140845088D02*
X49255462Y-140559374D01*
X49255462Y-140559374D02*
X49303081Y-140464136D01*
X49303081Y-140464136D02*
X49350700Y-140416517D01*
X49350700Y-140416517D02*
X49445938Y-140368898D01*
X49445938Y-140368898D02*
X49588795Y-140368898D01*
X49588795Y-140368898D02*
X49684033Y-140416517D01*
X49684033Y-140416517D02*
X49731652Y-140464136D01*
X49731652Y-140464136D02*
X49779271Y-140559374D01*
X49779271Y-140559374D02*
X49779271Y-140845088D01*
X49779271Y-140845088D02*
X49731652Y-140940326D01*
X49731652Y-140940326D02*
X49684033Y-140987946D01*
X49684033Y-140987946D02*
X49588795Y-141035565D01*
X49588795Y-141035565D02*
X49445938Y-141035565D01*
X50207843Y-140368898D02*
X50207843Y-141035565D01*
X50207843Y-140464136D02*
X50255462Y-140416517D01*
X50255462Y-140416517D02*
X50350700Y-140368898D01*
X50350700Y-140368898D02*
X50493557Y-140368898D01*
X50493557Y-140368898D02*
X50588795Y-140416517D01*
X50588795Y-140416517D02*
X50636414Y-140511755D01*
X50636414Y-140511755D02*
X50636414Y-141035565D01*
X51112605Y-140368898D02*
X51112605Y-141035565D01*
X51112605Y-140464136D02*
X51160224Y-140416517D01*
X51160224Y-140416517D02*
X51255462Y-140368898D01*
X51255462Y-140368898D02*
X51398319Y-140368898D01*
X51398319Y-140368898D02*
X51493557Y-140416517D01*
X51493557Y-140416517D02*
X51541176Y-140511755D01*
X51541176Y-140511755D02*
X51541176Y-141035565D01*
X51779272Y-141130803D02*
X52541176Y-141130803D01*
X52969748Y-140035565D02*
X53064986Y-140035565D01*
X53064986Y-140035565D02*
X53160224Y-140083184D01*
X53160224Y-140083184D02*
X53207843Y-140130803D01*
X53207843Y-140130803D02*
X53255462Y-140226041D01*
X53255462Y-140226041D02*
X53303081Y-140416517D01*
X53303081Y-140416517D02*
X53303081Y-140654612D01*
X53303081Y-140654612D02*
X53255462Y-140845088D01*
X53255462Y-140845088D02*
X53207843Y-140940326D01*
X53207843Y-140940326D02*
X53160224Y-140987946D01*
X53160224Y-140987946D02*
X53064986Y-141035565D01*
X53064986Y-141035565D02*
X52969748Y-141035565D01*
X52969748Y-141035565D02*
X52874510Y-140987946D01*
X52874510Y-140987946D02*
X52826891Y-140940326D01*
X52826891Y-140940326D02*
X52779272Y-140845088D01*
X52779272Y-140845088D02*
X52731653Y-140654612D01*
X52731653Y-140654612D02*
X52731653Y-140416517D01*
X52731653Y-140416517D02*
X52779272Y-140226041D01*
X52779272Y-140226041D02*
X52826891Y-140130803D01*
X52826891Y-140130803D02*
X52874510Y-140083184D01*
X52874510Y-140083184D02*
X52969748Y-140035565D01*
X54255462Y-141035565D02*
X53684034Y-141035565D01*
X53969748Y-141035565D02*
X53969748Y-140035565D01*
X53969748Y-140035565D02*
X53874510Y-140178422D01*
X53874510Y-140178422D02*
X53779272Y-140273660D01*
X53779272Y-140273660D02*
X53684034Y-140321279D01*
X54588796Y-141035565D02*
X55112605Y-140368898D01*
X54588796Y-140368898D02*
X55112605Y-141035565D01*
X56017367Y-141035565D02*
X55445939Y-141035565D01*
X55731653Y-141035565D02*
X55731653Y-140035565D01*
X55731653Y-140035565D02*
X55636415Y-140178422D01*
X55636415Y-140178422D02*
X55541177Y-140273660D01*
X55541177Y-140273660D02*
X55445939Y-140321279D01*
X56922129Y-140035565D02*
X56445939Y-140035565D01*
X56445939Y-140035565D02*
X56398320Y-140511755D01*
X56398320Y-140511755D02*
X56445939Y-140464136D01*
X56445939Y-140464136D02*
X56541177Y-140416517D01*
X56541177Y-140416517D02*
X56779272Y-140416517D01*
X56779272Y-140416517D02*
X56874510Y-140464136D01*
X56874510Y-140464136D02*
X56922129Y-140511755D01*
X56922129Y-140511755D02*
X56969748Y-140606993D01*
X56969748Y-140606993D02*
X56969748Y-140845088D01*
X56969748Y-140845088D02*
X56922129Y-140940326D01*
X56922129Y-140940326D02*
X56874510Y-140987946D01*
X56874510Y-140987946D02*
X56779272Y-141035565D01*
X56779272Y-141035565D02*
X56541177Y-141035565D01*
X56541177Y-141035565D02*
X56445939Y-140987946D01*
X56445939Y-140987946D02*
X56398320Y-140940326D01*
X52543614Y-121697412D02*
X52543614Y-121364079D01*
X53067424Y-121221222D02*
X53067424Y-121697412D01*
X53067424Y-121697412D02*
X52067424Y-121697412D01*
X52067424Y-121697412D02*
X52067424Y-121221222D01*
X53019805Y-120840269D02*
X53067424Y-120697412D01*
X53067424Y-120697412D02*
X53067424Y-120459317D01*
X53067424Y-120459317D02*
X53019805Y-120364079D01*
X53019805Y-120364079D02*
X52972185Y-120316460D01*
X52972185Y-120316460D02*
X52876947Y-120268841D01*
X52876947Y-120268841D02*
X52781709Y-120268841D01*
X52781709Y-120268841D02*
X52686471Y-120316460D01*
X52686471Y-120316460D02*
X52638852Y-120364079D01*
X52638852Y-120364079D02*
X52591233Y-120459317D01*
X52591233Y-120459317D02*
X52543614Y-120649793D01*
X52543614Y-120649793D02*
X52495995Y-120745031D01*
X52495995Y-120745031D02*
X52448376Y-120792650D01*
X52448376Y-120792650D02*
X52353138Y-120840269D01*
X52353138Y-120840269D02*
X52257900Y-120840269D01*
X52257900Y-120840269D02*
X52162662Y-120792650D01*
X52162662Y-120792650D02*
X52115043Y-120745031D01*
X52115043Y-120745031D02*
X52067424Y-120649793D01*
X52067424Y-120649793D02*
X52067424Y-120411698D01*
X52067424Y-120411698D02*
X52115043Y-120268841D01*
X53067424Y-119840269D02*
X52067424Y-119840269D01*
X52067424Y-119840269D02*
X52067424Y-119459317D01*
X52067424Y-119459317D02*
X52115043Y-119364079D01*
X52115043Y-119364079D02*
X52162662Y-119316460D01*
X52162662Y-119316460D02*
X52257900Y-119268841D01*
X52257900Y-119268841D02*
X52400757Y-119268841D01*
X52400757Y-119268841D02*
X52495995Y-119316460D01*
X52495995Y-119316460D02*
X52543614Y-119364079D01*
X52543614Y-119364079D02*
X52591233Y-119459317D01*
X52591233Y-119459317D02*
X52591233Y-119840269D01*
X53067424Y-118316460D02*
X53067424Y-118887888D01*
X53067424Y-118602174D02*
X52067424Y-118602174D01*
X52067424Y-118602174D02*
X52210281Y-118697412D01*
X52210281Y-118697412D02*
X52305519Y-118792650D01*
X52305519Y-118792650D02*
X52353138Y-118887888D01*
X91347861Y-132688260D02*
X92109766Y-132688260D01*
X91728813Y-133069213D02*
X91728813Y-132307308D01*
X73577338Y-99411755D02*
X73910671Y-99411755D01*
X74053528Y-99935565D02*
X73577338Y-99935565D01*
X73577338Y-99935565D02*
X73577338Y-98935565D01*
X73577338Y-98935565D02*
X74053528Y-98935565D01*
X74434481Y-99887946D02*
X74577338Y-99935565D01*
X74577338Y-99935565D02*
X74815433Y-99935565D01*
X74815433Y-99935565D02*
X74910671Y-99887946D01*
X74910671Y-99887946D02*
X74958290Y-99840326D01*
X74958290Y-99840326D02*
X75005909Y-99745088D01*
X75005909Y-99745088D02*
X75005909Y-99649850D01*
X75005909Y-99649850D02*
X74958290Y-99554612D01*
X74958290Y-99554612D02*
X74910671Y-99506993D01*
X74910671Y-99506993D02*
X74815433Y-99459374D01*
X74815433Y-99459374D02*
X74624957Y-99411755D01*
X74624957Y-99411755D02*
X74529719Y-99364136D01*
X74529719Y-99364136D02*
X74482100Y-99316517D01*
X74482100Y-99316517D02*
X74434481Y-99221279D01*
X74434481Y-99221279D02*
X74434481Y-99126041D01*
X74434481Y-99126041D02*
X74482100Y-99030803D01*
X74482100Y-99030803D02*
X74529719Y-98983184D01*
X74529719Y-98983184D02*
X74624957Y-98935565D01*
X74624957Y-98935565D02*
X74863052Y-98935565D01*
X74863052Y-98935565D02*
X75005909Y-98983184D01*
X75434481Y-99935565D02*
X75434481Y-98935565D01*
X75434481Y-98935565D02*
X75815433Y-98935565D01*
X75815433Y-98935565D02*
X75910671Y-98983184D01*
X75910671Y-98983184D02*
X75958290Y-99030803D01*
X75958290Y-99030803D02*
X76005909Y-99126041D01*
X76005909Y-99126041D02*
X76005909Y-99268898D01*
X76005909Y-99268898D02*
X75958290Y-99364136D01*
X75958290Y-99364136D02*
X75910671Y-99411755D01*
X75910671Y-99411755D02*
X75815433Y-99459374D01*
X75815433Y-99459374D02*
X75434481Y-99459374D01*
X76386862Y-99030803D02*
X76434481Y-98983184D01*
X76434481Y-98983184D02*
X76529719Y-98935565D01*
X76529719Y-98935565D02*
X76767814Y-98935565D01*
X76767814Y-98935565D02*
X76863052Y-98983184D01*
X76863052Y-98983184D02*
X76910671Y-99030803D01*
X76910671Y-99030803D02*
X76958290Y-99126041D01*
X76958290Y-99126041D02*
X76958290Y-99221279D01*
X76958290Y-99221279D02*
X76910671Y-99364136D01*
X76910671Y-99364136D02*
X76339243Y-99935565D01*
X76339243Y-99935565D02*
X76958290Y-99935565D01*
X71505909Y-140940326D02*
X71458290Y-140987946D01*
X71458290Y-140987946D02*
X71315433Y-141035565D01*
X71315433Y-141035565D02*
X71220195Y-141035565D01*
X71220195Y-141035565D02*
X71077338Y-140987946D01*
X71077338Y-140987946D02*
X70982100Y-140892707D01*
X70982100Y-140892707D02*
X70934481Y-140797469D01*
X70934481Y-140797469D02*
X70886862Y-140606993D01*
X70886862Y-140606993D02*
X70886862Y-140464136D01*
X70886862Y-140464136D02*
X70934481Y-140273660D01*
X70934481Y-140273660D02*
X70982100Y-140178422D01*
X70982100Y-140178422D02*
X71077338Y-140083184D01*
X71077338Y-140083184D02*
X71220195Y-140035565D01*
X71220195Y-140035565D02*
X71315433Y-140035565D01*
X71315433Y-140035565D02*
X71458290Y-140083184D01*
X71458290Y-140083184D02*
X71505909Y-140130803D01*
X72077338Y-141035565D02*
X71982100Y-140987946D01*
X71982100Y-140987946D02*
X71934481Y-140940326D01*
X71934481Y-140940326D02*
X71886862Y-140845088D01*
X71886862Y-140845088D02*
X71886862Y-140559374D01*
X71886862Y-140559374D02*
X71934481Y-140464136D01*
X71934481Y-140464136D02*
X71982100Y-140416517D01*
X71982100Y-140416517D02*
X72077338Y-140368898D01*
X72077338Y-140368898D02*
X72220195Y-140368898D01*
X72220195Y-140368898D02*
X72315433Y-140416517D01*
X72315433Y-140416517D02*
X72363052Y-140464136D01*
X72363052Y-140464136D02*
X72410671Y-140559374D01*
X72410671Y-140559374D02*
X72410671Y-140845088D01*
X72410671Y-140845088D02*
X72363052Y-140940326D01*
X72363052Y-140940326D02*
X72315433Y-140987946D01*
X72315433Y-140987946D02*
X72220195Y-141035565D01*
X72220195Y-141035565D02*
X72077338Y-141035565D01*
X72839243Y-140368898D02*
X72839243Y-141035565D01*
X72839243Y-140464136D02*
X72886862Y-140416517D01*
X72886862Y-140416517D02*
X72982100Y-140368898D01*
X72982100Y-140368898D02*
X73124957Y-140368898D01*
X73124957Y-140368898D02*
X73220195Y-140416517D01*
X73220195Y-140416517D02*
X73267814Y-140511755D01*
X73267814Y-140511755D02*
X73267814Y-141035565D01*
X73744005Y-140368898D02*
X73744005Y-141035565D01*
X73744005Y-140464136D02*
X73791624Y-140416517D01*
X73791624Y-140416517D02*
X73886862Y-140368898D01*
X73886862Y-140368898D02*
X74029719Y-140368898D01*
X74029719Y-140368898D02*
X74124957Y-140416517D01*
X74124957Y-140416517D02*
X74172576Y-140511755D01*
X74172576Y-140511755D02*
X74172576Y-141035565D01*
X74410672Y-141130803D02*
X75172576Y-141130803D01*
X75601148Y-140035565D02*
X75696386Y-140035565D01*
X75696386Y-140035565D02*
X75791624Y-140083184D01*
X75791624Y-140083184D02*
X75839243Y-140130803D01*
X75839243Y-140130803D02*
X75886862Y-140226041D01*
X75886862Y-140226041D02*
X75934481Y-140416517D01*
X75934481Y-140416517D02*
X75934481Y-140654612D01*
X75934481Y-140654612D02*
X75886862Y-140845088D01*
X75886862Y-140845088D02*
X75839243Y-140940326D01*
X75839243Y-140940326D02*
X75791624Y-140987946D01*
X75791624Y-140987946D02*
X75696386Y-141035565D01*
X75696386Y-141035565D02*
X75601148Y-141035565D01*
X75601148Y-141035565D02*
X75505910Y-140987946D01*
X75505910Y-140987946D02*
X75458291Y-140940326D01*
X75458291Y-140940326D02*
X75410672Y-140845088D01*
X75410672Y-140845088D02*
X75363053Y-140654612D01*
X75363053Y-140654612D02*
X75363053Y-140416517D01*
X75363053Y-140416517D02*
X75410672Y-140226041D01*
X75410672Y-140226041D02*
X75458291Y-140130803D01*
X75458291Y-140130803D02*
X75505910Y-140083184D01*
X75505910Y-140083184D02*
X75601148Y-140035565D01*
X76886862Y-141035565D02*
X76315434Y-141035565D01*
X76601148Y-141035565D02*
X76601148Y-140035565D01*
X76601148Y-140035565D02*
X76505910Y-140178422D01*
X76505910Y-140178422D02*
X76410672Y-140273660D01*
X76410672Y-140273660D02*
X76315434Y-140321279D01*
X77220196Y-141035565D02*
X77744005Y-140368898D01*
X77220196Y-140368898D02*
X77744005Y-141035565D01*
X78648767Y-141035565D02*
X78077339Y-141035565D01*
X78363053Y-141035565D02*
X78363053Y-140035565D01*
X78363053Y-140035565D02*
X78267815Y-140178422D01*
X78267815Y-140178422D02*
X78172577Y-140273660D01*
X78172577Y-140273660D02*
X78077339Y-140321279D01*
X79553529Y-140035565D02*
X79077339Y-140035565D01*
X79077339Y-140035565D02*
X79029720Y-140511755D01*
X79029720Y-140511755D02*
X79077339Y-140464136D01*
X79077339Y-140464136D02*
X79172577Y-140416517D01*
X79172577Y-140416517D02*
X79410672Y-140416517D01*
X79410672Y-140416517D02*
X79505910Y-140464136D01*
X79505910Y-140464136D02*
X79553529Y-140511755D01*
X79553529Y-140511755D02*
X79601148Y-140606993D01*
X79601148Y-140606993D02*
X79601148Y-140845088D01*
X79601148Y-140845088D02*
X79553529Y-140940326D01*
X79553529Y-140940326D02*
X79505910Y-140987946D01*
X79505910Y-140987946D02*
X79410672Y-141035565D01*
X79410672Y-141035565D02*
X79172577Y-141035565D01*
X79172577Y-141035565D02*
X79077339Y-140987946D01*
X79077339Y-140987946D02*
X79029720Y-140940326D01*
X75175014Y-121697412D02*
X75175014Y-121364079D01*
X75698824Y-121221222D02*
X75698824Y-121697412D01*
X75698824Y-121697412D02*
X74698824Y-121697412D01*
X74698824Y-121697412D02*
X74698824Y-121221222D01*
X75651205Y-120840269D02*
X75698824Y-120697412D01*
X75698824Y-120697412D02*
X75698824Y-120459317D01*
X75698824Y-120459317D02*
X75651205Y-120364079D01*
X75651205Y-120364079D02*
X75603585Y-120316460D01*
X75603585Y-120316460D02*
X75508347Y-120268841D01*
X75508347Y-120268841D02*
X75413109Y-120268841D01*
X75413109Y-120268841D02*
X75317871Y-120316460D01*
X75317871Y-120316460D02*
X75270252Y-120364079D01*
X75270252Y-120364079D02*
X75222633Y-120459317D01*
X75222633Y-120459317D02*
X75175014Y-120649793D01*
X75175014Y-120649793D02*
X75127395Y-120745031D01*
X75127395Y-120745031D02*
X75079776Y-120792650D01*
X75079776Y-120792650D02*
X74984538Y-120840269D01*
X74984538Y-120840269D02*
X74889300Y-120840269D01*
X74889300Y-120840269D02*
X74794062Y-120792650D01*
X74794062Y-120792650D02*
X74746443Y-120745031D01*
X74746443Y-120745031D02*
X74698824Y-120649793D01*
X74698824Y-120649793D02*
X74698824Y-120411698D01*
X74698824Y-120411698D02*
X74746443Y-120268841D01*
X75698824Y-119840269D02*
X74698824Y-119840269D01*
X74698824Y-119840269D02*
X74698824Y-119459317D01*
X74698824Y-119459317D02*
X74746443Y-119364079D01*
X74746443Y-119364079D02*
X74794062Y-119316460D01*
X74794062Y-119316460D02*
X74889300Y-119268841D01*
X74889300Y-119268841D02*
X75032157Y-119268841D01*
X75032157Y-119268841D02*
X75127395Y-119316460D01*
X75127395Y-119316460D02*
X75175014Y-119364079D01*
X75175014Y-119364079D02*
X75222633Y-119459317D01*
X75222633Y-119459317D02*
X75222633Y-119840269D01*
X74794062Y-118887888D02*
X74746443Y-118840269D01*
X74746443Y-118840269D02*
X74698824Y-118745031D01*
X74698824Y-118745031D02*
X74698824Y-118506936D01*
X74698824Y-118506936D02*
X74746443Y-118411698D01*
X74746443Y-118411698D02*
X74794062Y-118364079D01*
X74794062Y-118364079D02*
X74889300Y-118316460D01*
X74889300Y-118316460D02*
X74984538Y-118316460D01*
X74984538Y-118316460D02*
X75127395Y-118364079D01*
X75127395Y-118364079D02*
X75698824Y-118935507D01*
X75698824Y-118935507D02*
X75698824Y-118316460D01*
X71372100Y-23115565D02*
X71372100Y-22115565D01*
X71372100Y-22115565D02*
X71753052Y-22115565D01*
X71753052Y-22115565D02*
X71848290Y-22163184D01*
X71848290Y-22163184D02*
X71895909Y-22210803D01*
X71895909Y-22210803D02*
X71943528Y-22306041D01*
X71943528Y-22306041D02*
X71943528Y-22448898D01*
X71943528Y-22448898D02*
X71895909Y-22544136D01*
X71895909Y-22544136D02*
X71848290Y-22591755D01*
X71848290Y-22591755D02*
X71753052Y-22639374D01*
X71753052Y-22639374D02*
X71372100Y-22639374D01*
X72372100Y-23115565D02*
X72372100Y-22115565D01*
X72372100Y-22591755D02*
X72943528Y-22591755D01*
X72943528Y-23115565D02*
X72943528Y-22115565D01*
X73991147Y-23115565D02*
X73657814Y-22639374D01*
X73419719Y-23115565D02*
X73419719Y-22115565D01*
X73419719Y-22115565D02*
X73800671Y-22115565D01*
X73800671Y-22115565D02*
X73895909Y-22163184D01*
X73895909Y-22163184D02*
X73943528Y-22210803D01*
X73943528Y-22210803D02*
X73991147Y-22306041D01*
X73991147Y-22306041D02*
X73991147Y-22448898D01*
X73991147Y-22448898D02*
X73943528Y-22544136D01*
X73943528Y-22544136D02*
X73895909Y-22591755D01*
X73895909Y-22591755D02*
X73800671Y-22639374D01*
X73800671Y-22639374D02*
X73419719Y-22639374D01*
X74943528Y-23115565D02*
X74372100Y-23115565D01*
X74657814Y-23115565D02*
X74657814Y-22115565D01*
X74657814Y-22115565D02*
X74562576Y-22258422D01*
X74562576Y-22258422D02*
X74467338Y-22353660D01*
X74467338Y-22353660D02*
X74372100Y-22401279D01*
X52351385Y-51490565D02*
X51875195Y-51490565D01*
X51875195Y-51490565D02*
X51875195Y-50490565D01*
X52684719Y-50966755D02*
X53018052Y-50966755D01*
X53160909Y-51490565D02*
X52684719Y-51490565D01*
X52684719Y-51490565D02*
X52684719Y-50490565D01*
X52684719Y-50490565D02*
X53160909Y-50490565D01*
X53589481Y-51490565D02*
X53589481Y-50490565D01*
X53589481Y-50490565D02*
X53827576Y-50490565D01*
X53827576Y-50490565D02*
X53970433Y-50538184D01*
X53970433Y-50538184D02*
X54065671Y-50633422D01*
X54065671Y-50633422D02*
X54113290Y-50728660D01*
X54113290Y-50728660D02*
X54160909Y-50919136D01*
X54160909Y-50919136D02*
X54160909Y-51061993D01*
X54160909Y-51061993D02*
X54113290Y-51252469D01*
X54113290Y-51252469D02*
X54065671Y-51347707D01*
X54065671Y-51347707D02*
X53970433Y-51442946D01*
X53970433Y-51442946D02*
X53827576Y-51490565D01*
X53827576Y-51490565D02*
X53589481Y-51490565D01*
X54779957Y-51014374D02*
X54779957Y-51490565D01*
X54446624Y-50490565D02*
X54779957Y-51014374D01*
X54779957Y-51014374D02*
X55113290Y-50490565D01*
X55970433Y-51490565D02*
X55399005Y-51490565D01*
X55684719Y-51490565D02*
X55684719Y-50490565D01*
X55684719Y-50490565D02*
X55589481Y-50633422D01*
X55589481Y-50633422D02*
X55494243Y-50728660D01*
X55494243Y-50728660D02*
X55399005Y-50776279D01*
X35030909Y-85735326D02*
X34983290Y-85782946D01*
X34983290Y-85782946D02*
X34840433Y-85830565D01*
X34840433Y-85830565D02*
X34745195Y-85830565D01*
X34745195Y-85830565D02*
X34602338Y-85782946D01*
X34602338Y-85782946D02*
X34507100Y-85687707D01*
X34507100Y-85687707D02*
X34459481Y-85592469D01*
X34459481Y-85592469D02*
X34411862Y-85401993D01*
X34411862Y-85401993D02*
X34411862Y-85259136D01*
X34411862Y-85259136D02*
X34459481Y-85068660D01*
X34459481Y-85068660D02*
X34507100Y-84973422D01*
X34507100Y-84973422D02*
X34602338Y-84878184D01*
X34602338Y-84878184D02*
X34745195Y-84830565D01*
X34745195Y-84830565D02*
X34840433Y-84830565D01*
X34840433Y-84830565D02*
X34983290Y-84878184D01*
X34983290Y-84878184D02*
X35030909Y-84925803D01*
X35602338Y-85830565D02*
X35507100Y-85782946D01*
X35507100Y-85782946D02*
X35459481Y-85735326D01*
X35459481Y-85735326D02*
X35411862Y-85640088D01*
X35411862Y-85640088D02*
X35411862Y-85354374D01*
X35411862Y-85354374D02*
X35459481Y-85259136D01*
X35459481Y-85259136D02*
X35507100Y-85211517D01*
X35507100Y-85211517D02*
X35602338Y-85163898D01*
X35602338Y-85163898D02*
X35745195Y-85163898D01*
X35745195Y-85163898D02*
X35840433Y-85211517D01*
X35840433Y-85211517D02*
X35888052Y-85259136D01*
X35888052Y-85259136D02*
X35935671Y-85354374D01*
X35935671Y-85354374D02*
X35935671Y-85640088D01*
X35935671Y-85640088D02*
X35888052Y-85735326D01*
X35888052Y-85735326D02*
X35840433Y-85782946D01*
X35840433Y-85782946D02*
X35745195Y-85830565D01*
X35745195Y-85830565D02*
X35602338Y-85830565D01*
X36364243Y-85163898D02*
X36364243Y-85830565D01*
X36364243Y-85259136D02*
X36411862Y-85211517D01*
X36411862Y-85211517D02*
X36507100Y-85163898D01*
X36507100Y-85163898D02*
X36649957Y-85163898D01*
X36649957Y-85163898D02*
X36745195Y-85211517D01*
X36745195Y-85211517D02*
X36792814Y-85306755D01*
X36792814Y-85306755D02*
X36792814Y-85830565D01*
X37269005Y-85163898D02*
X37269005Y-85830565D01*
X37269005Y-85259136D02*
X37316624Y-85211517D01*
X37316624Y-85211517D02*
X37411862Y-85163898D01*
X37411862Y-85163898D02*
X37554719Y-85163898D01*
X37554719Y-85163898D02*
X37649957Y-85211517D01*
X37649957Y-85211517D02*
X37697576Y-85306755D01*
X37697576Y-85306755D02*
X37697576Y-85830565D01*
X37935672Y-85925803D02*
X38697576Y-85925803D01*
X39126148Y-84830565D02*
X39221386Y-84830565D01*
X39221386Y-84830565D02*
X39316624Y-84878184D01*
X39316624Y-84878184D02*
X39364243Y-84925803D01*
X39364243Y-84925803D02*
X39411862Y-85021041D01*
X39411862Y-85021041D02*
X39459481Y-85211517D01*
X39459481Y-85211517D02*
X39459481Y-85449612D01*
X39459481Y-85449612D02*
X39411862Y-85640088D01*
X39411862Y-85640088D02*
X39364243Y-85735326D01*
X39364243Y-85735326D02*
X39316624Y-85782946D01*
X39316624Y-85782946D02*
X39221386Y-85830565D01*
X39221386Y-85830565D02*
X39126148Y-85830565D01*
X39126148Y-85830565D02*
X39030910Y-85782946D01*
X39030910Y-85782946D02*
X38983291Y-85735326D01*
X38983291Y-85735326D02*
X38935672Y-85640088D01*
X38935672Y-85640088D02*
X38888053Y-85449612D01*
X38888053Y-85449612D02*
X38888053Y-85211517D01*
X38888053Y-85211517D02*
X38935672Y-85021041D01*
X38935672Y-85021041D02*
X38983291Y-84925803D01*
X38983291Y-84925803D02*
X39030910Y-84878184D01*
X39030910Y-84878184D02*
X39126148Y-84830565D01*
X40411862Y-85830565D02*
X39840434Y-85830565D01*
X40126148Y-85830565D02*
X40126148Y-84830565D01*
X40126148Y-84830565D02*
X40030910Y-84973422D01*
X40030910Y-84973422D02*
X39935672Y-85068660D01*
X39935672Y-85068660D02*
X39840434Y-85116279D01*
X40745196Y-85830565D02*
X41269005Y-85163898D01*
X40745196Y-85163898D02*
X41269005Y-85830565D01*
X41840434Y-84830565D02*
X41935672Y-84830565D01*
X41935672Y-84830565D02*
X42030910Y-84878184D01*
X42030910Y-84878184D02*
X42078529Y-84925803D01*
X42078529Y-84925803D02*
X42126148Y-85021041D01*
X42126148Y-85021041D02*
X42173767Y-85211517D01*
X42173767Y-85211517D02*
X42173767Y-85449612D01*
X42173767Y-85449612D02*
X42126148Y-85640088D01*
X42126148Y-85640088D02*
X42078529Y-85735326D01*
X42078529Y-85735326D02*
X42030910Y-85782946D01*
X42030910Y-85782946D02*
X41935672Y-85830565D01*
X41935672Y-85830565D02*
X41840434Y-85830565D01*
X41840434Y-85830565D02*
X41745196Y-85782946D01*
X41745196Y-85782946D02*
X41697577Y-85735326D01*
X41697577Y-85735326D02*
X41649958Y-85640088D01*
X41649958Y-85640088D02*
X41602339Y-85449612D01*
X41602339Y-85449612D02*
X41602339Y-85211517D01*
X41602339Y-85211517D02*
X41649958Y-85021041D01*
X41649958Y-85021041D02*
X41697577Y-84925803D01*
X41697577Y-84925803D02*
X41745196Y-84878184D01*
X41745196Y-84878184D02*
X41840434Y-84830565D01*
X42507101Y-84830565D02*
X43126148Y-84830565D01*
X43126148Y-84830565D02*
X42792815Y-85211517D01*
X42792815Y-85211517D02*
X42935672Y-85211517D01*
X42935672Y-85211517D02*
X43030910Y-85259136D01*
X43030910Y-85259136D02*
X43078529Y-85306755D01*
X43078529Y-85306755D02*
X43126148Y-85401993D01*
X43126148Y-85401993D02*
X43126148Y-85640088D01*
X43126148Y-85640088D02*
X43078529Y-85735326D01*
X43078529Y-85735326D02*
X43030910Y-85782946D01*
X43030910Y-85782946D02*
X42935672Y-85830565D01*
X42935672Y-85830565D02*
X42649958Y-85830565D01*
X42649958Y-85830565D02*
X42554720Y-85782946D01*
X42554720Y-85782946D02*
X42507101Y-85735326D01*
X37905909Y-75045326D02*
X37858290Y-75092946D01*
X37858290Y-75092946D02*
X37715433Y-75140565D01*
X37715433Y-75140565D02*
X37620195Y-75140565D01*
X37620195Y-75140565D02*
X37477338Y-75092946D01*
X37477338Y-75092946D02*
X37382100Y-74997707D01*
X37382100Y-74997707D02*
X37334481Y-74902469D01*
X37334481Y-74902469D02*
X37286862Y-74711993D01*
X37286862Y-74711993D02*
X37286862Y-74569136D01*
X37286862Y-74569136D02*
X37334481Y-74378660D01*
X37334481Y-74378660D02*
X37382100Y-74283422D01*
X37382100Y-74283422D02*
X37477338Y-74188184D01*
X37477338Y-74188184D02*
X37620195Y-74140565D01*
X37620195Y-74140565D02*
X37715433Y-74140565D01*
X37715433Y-74140565D02*
X37858290Y-74188184D01*
X37858290Y-74188184D02*
X37905909Y-74235803D01*
X38477338Y-75140565D02*
X38382100Y-75092946D01*
X38382100Y-75092946D02*
X38334481Y-75045326D01*
X38334481Y-75045326D02*
X38286862Y-74950088D01*
X38286862Y-74950088D02*
X38286862Y-74664374D01*
X38286862Y-74664374D02*
X38334481Y-74569136D01*
X38334481Y-74569136D02*
X38382100Y-74521517D01*
X38382100Y-74521517D02*
X38477338Y-74473898D01*
X38477338Y-74473898D02*
X38620195Y-74473898D01*
X38620195Y-74473898D02*
X38715433Y-74521517D01*
X38715433Y-74521517D02*
X38763052Y-74569136D01*
X38763052Y-74569136D02*
X38810671Y-74664374D01*
X38810671Y-74664374D02*
X38810671Y-74950088D01*
X38810671Y-74950088D02*
X38763052Y-75045326D01*
X38763052Y-75045326D02*
X38715433Y-75092946D01*
X38715433Y-75092946D02*
X38620195Y-75140565D01*
X38620195Y-75140565D02*
X38477338Y-75140565D01*
X39239243Y-74473898D02*
X39239243Y-75140565D01*
X39239243Y-74569136D02*
X39286862Y-74521517D01*
X39286862Y-74521517D02*
X39382100Y-74473898D01*
X39382100Y-74473898D02*
X39524957Y-74473898D01*
X39524957Y-74473898D02*
X39620195Y-74521517D01*
X39620195Y-74521517D02*
X39667814Y-74616755D01*
X39667814Y-74616755D02*
X39667814Y-75140565D01*
X40144005Y-74473898D02*
X40144005Y-75140565D01*
X40144005Y-74569136D02*
X40191624Y-74521517D01*
X40191624Y-74521517D02*
X40286862Y-74473898D01*
X40286862Y-74473898D02*
X40429719Y-74473898D01*
X40429719Y-74473898D02*
X40524957Y-74521517D01*
X40524957Y-74521517D02*
X40572576Y-74616755D01*
X40572576Y-74616755D02*
X40572576Y-75140565D01*
X40810672Y-75235803D02*
X41572576Y-75235803D01*
X42001148Y-74140565D02*
X42096386Y-74140565D01*
X42096386Y-74140565D02*
X42191624Y-74188184D01*
X42191624Y-74188184D02*
X42239243Y-74235803D01*
X42239243Y-74235803D02*
X42286862Y-74331041D01*
X42286862Y-74331041D02*
X42334481Y-74521517D01*
X42334481Y-74521517D02*
X42334481Y-74759612D01*
X42334481Y-74759612D02*
X42286862Y-74950088D01*
X42286862Y-74950088D02*
X42239243Y-75045326D01*
X42239243Y-75045326D02*
X42191624Y-75092946D01*
X42191624Y-75092946D02*
X42096386Y-75140565D01*
X42096386Y-75140565D02*
X42001148Y-75140565D01*
X42001148Y-75140565D02*
X41905910Y-75092946D01*
X41905910Y-75092946D02*
X41858291Y-75045326D01*
X41858291Y-75045326D02*
X41810672Y-74950088D01*
X41810672Y-74950088D02*
X41763053Y-74759612D01*
X41763053Y-74759612D02*
X41763053Y-74521517D01*
X41763053Y-74521517D02*
X41810672Y-74331041D01*
X41810672Y-74331041D02*
X41858291Y-74235803D01*
X41858291Y-74235803D02*
X41905910Y-74188184D01*
X41905910Y-74188184D02*
X42001148Y-74140565D01*
X43286862Y-75140565D02*
X42715434Y-75140565D01*
X43001148Y-75140565D02*
X43001148Y-74140565D01*
X43001148Y-74140565D02*
X42905910Y-74283422D01*
X42905910Y-74283422D02*
X42810672Y-74378660D01*
X42810672Y-74378660D02*
X42715434Y-74426279D01*
X43620196Y-75140565D02*
X44144005Y-74473898D01*
X43620196Y-74473898D02*
X44144005Y-75140565D01*
X44715434Y-74140565D02*
X44810672Y-74140565D01*
X44810672Y-74140565D02*
X44905910Y-74188184D01*
X44905910Y-74188184D02*
X44953529Y-74235803D01*
X44953529Y-74235803D02*
X45001148Y-74331041D01*
X45001148Y-74331041D02*
X45048767Y-74521517D01*
X45048767Y-74521517D02*
X45048767Y-74759612D01*
X45048767Y-74759612D02*
X45001148Y-74950088D01*
X45001148Y-74950088D02*
X44953529Y-75045326D01*
X44953529Y-75045326D02*
X44905910Y-75092946D01*
X44905910Y-75092946D02*
X44810672Y-75140565D01*
X44810672Y-75140565D02*
X44715434Y-75140565D01*
X44715434Y-75140565D02*
X44620196Y-75092946D01*
X44620196Y-75092946D02*
X44572577Y-75045326D01*
X44572577Y-75045326D02*
X44524958Y-74950088D01*
X44524958Y-74950088D02*
X44477339Y-74759612D01*
X44477339Y-74759612D02*
X44477339Y-74521517D01*
X44477339Y-74521517D02*
X44524958Y-74331041D01*
X44524958Y-74331041D02*
X44572577Y-74235803D01*
X44572577Y-74235803D02*
X44620196Y-74188184D01*
X44620196Y-74188184D02*
X44715434Y-74140565D01*
X45382101Y-74140565D02*
X46001148Y-74140565D01*
X46001148Y-74140565D02*
X45667815Y-74521517D01*
X45667815Y-74521517D02*
X45810672Y-74521517D01*
X45810672Y-74521517D02*
X45905910Y-74569136D01*
X45905910Y-74569136D02*
X45953529Y-74616755D01*
X45953529Y-74616755D02*
X46001148Y-74711993D01*
X46001148Y-74711993D02*
X46001148Y-74950088D01*
X46001148Y-74950088D02*
X45953529Y-75045326D01*
X45953529Y-75045326D02*
X45905910Y-75092946D01*
X45905910Y-75092946D02*
X45810672Y-75140565D01*
X45810672Y-75140565D02*
X45524958Y-75140565D01*
X45524958Y-75140565D02*
X45429720Y-75092946D01*
X45429720Y-75092946D02*
X45382101Y-75045326D01*
X77628585Y-133497175D02*
X77676205Y-133544794D01*
X77676205Y-133544794D02*
X77723824Y-133687651D01*
X77723824Y-133687651D02*
X77723824Y-133782889D01*
X77723824Y-133782889D02*
X77676205Y-133925746D01*
X77676205Y-133925746D02*
X77580966Y-134020984D01*
X77580966Y-134020984D02*
X77485728Y-134068603D01*
X77485728Y-134068603D02*
X77295252Y-134116222D01*
X77295252Y-134116222D02*
X77152395Y-134116222D01*
X77152395Y-134116222D02*
X76961919Y-134068603D01*
X76961919Y-134068603D02*
X76866681Y-134020984D01*
X76866681Y-134020984D02*
X76771443Y-133925746D01*
X76771443Y-133925746D02*
X76723824Y-133782889D01*
X76723824Y-133782889D02*
X76723824Y-133687651D01*
X76723824Y-133687651D02*
X76771443Y-133544794D01*
X76771443Y-133544794D02*
X76819062Y-133497175D01*
X77819062Y-133306699D02*
X77819062Y-132544794D01*
X77723824Y-132306698D02*
X76723824Y-132306698D01*
X76723824Y-132306698D02*
X76723824Y-131925746D01*
X76723824Y-131925746D02*
X76771443Y-131830508D01*
X76771443Y-131830508D02*
X76819062Y-131782889D01*
X76819062Y-131782889D02*
X76914300Y-131735270D01*
X76914300Y-131735270D02*
X77057157Y-131735270D01*
X77057157Y-131735270D02*
X77152395Y-131782889D01*
X77152395Y-131782889D02*
X77200014Y-131830508D01*
X77200014Y-131830508D02*
X77247633Y-131925746D01*
X77247633Y-131925746D02*
X77247633Y-132306698D01*
X77723824Y-131163841D02*
X77676205Y-131259079D01*
X77676205Y-131259079D02*
X77628585Y-131306698D01*
X77628585Y-131306698D02*
X77533347Y-131354317D01*
X77533347Y-131354317D02*
X77247633Y-131354317D01*
X77247633Y-131354317D02*
X77152395Y-131306698D01*
X77152395Y-131306698D02*
X77104776Y-131259079D01*
X77104776Y-131259079D02*
X77057157Y-131163841D01*
X77057157Y-131163841D02*
X77057157Y-131020984D01*
X77057157Y-131020984D02*
X77104776Y-130925746D01*
X77104776Y-130925746D02*
X77152395Y-130878127D01*
X77152395Y-130878127D02*
X77247633Y-130830508D01*
X77247633Y-130830508D02*
X77533347Y-130830508D01*
X77533347Y-130830508D02*
X77628585Y-130878127D01*
X77628585Y-130878127D02*
X77676205Y-130925746D01*
X77676205Y-130925746D02*
X77723824Y-131020984D01*
X77723824Y-131020984D02*
X77723824Y-131163841D01*
X77723824Y-130259079D02*
X77676205Y-130354317D01*
X77676205Y-130354317D02*
X77580966Y-130401936D01*
X77580966Y-130401936D02*
X76723824Y-130401936D01*
X77723824Y-129449555D02*
X77200014Y-129449555D01*
X77200014Y-129449555D02*
X77104776Y-129497174D01*
X77104776Y-129497174D02*
X77057157Y-129592412D01*
X77057157Y-129592412D02*
X77057157Y-129782888D01*
X77057157Y-129782888D02*
X77104776Y-129878126D01*
X77676205Y-129449555D02*
X77723824Y-129544793D01*
X77723824Y-129544793D02*
X77723824Y-129782888D01*
X77723824Y-129782888D02*
X77676205Y-129878126D01*
X77676205Y-129878126D02*
X77580966Y-129925745D01*
X77580966Y-129925745D02*
X77485728Y-129925745D01*
X77485728Y-129925745D02*
X77390490Y-129878126D01*
X77390490Y-129878126D02*
X77342871Y-129782888D01*
X77342871Y-129782888D02*
X77342871Y-129544793D01*
X77342871Y-129544793D02*
X77295252Y-129449555D01*
X77723824Y-128973364D02*
X77057157Y-128973364D01*
X77247633Y-128973364D02*
X77152395Y-128925745D01*
X77152395Y-128925745D02*
X77104776Y-128878126D01*
X77104776Y-128878126D02*
X77057157Y-128782888D01*
X77057157Y-128782888D02*
X77057157Y-128687650D01*
X77723824Y-128354316D02*
X77057157Y-128354316D01*
X76723824Y-128354316D02*
X76771443Y-128401935D01*
X76771443Y-128401935D02*
X76819062Y-128354316D01*
X76819062Y-128354316D02*
X76771443Y-128306697D01*
X76771443Y-128306697D02*
X76723824Y-128354316D01*
X76723824Y-128354316D02*
X76819062Y-128354316D01*
X77057157Y-127973364D02*
X77057157Y-127449555D01*
X77057157Y-127449555D02*
X77723824Y-127973364D01*
X77723824Y-127973364D02*
X77723824Y-127449555D01*
X77676205Y-126687650D02*
X77723824Y-126782888D01*
X77723824Y-126782888D02*
X77723824Y-126973364D01*
X77723824Y-126973364D02*
X77676205Y-127068602D01*
X77676205Y-127068602D02*
X77580966Y-127116221D01*
X77580966Y-127116221D02*
X77200014Y-127116221D01*
X77200014Y-127116221D02*
X77104776Y-127068602D01*
X77104776Y-127068602D02*
X77057157Y-126973364D01*
X77057157Y-126973364D02*
X77057157Y-126782888D01*
X77057157Y-126782888D02*
X77104776Y-126687650D01*
X77104776Y-126687650D02*
X77200014Y-126640031D01*
X77200014Y-126640031D02*
X77295252Y-126640031D01*
X77295252Y-126640031D02*
X77390490Y-127116221D01*
X77723824Y-125782888D02*
X76723824Y-125782888D01*
X77676205Y-125782888D02*
X77723824Y-125878126D01*
X77723824Y-125878126D02*
X77723824Y-126068602D01*
X77723824Y-126068602D02*
X77676205Y-126163840D01*
X77676205Y-126163840D02*
X77628585Y-126211459D01*
X77628585Y-126211459D02*
X77533347Y-126259078D01*
X77533347Y-126259078D02*
X77247633Y-126259078D01*
X77247633Y-126259078D02*
X77152395Y-126211459D01*
X77152395Y-126211459D02*
X77104776Y-126163840D01*
X77104776Y-126163840D02*
X77057157Y-126068602D01*
X77057157Y-126068602D02*
X77057157Y-125878126D01*
X77057157Y-125878126D02*
X77104776Y-125782888D01*
X82878585Y-130092412D02*
X82926205Y-130140031D01*
X82926205Y-130140031D02*
X82973824Y-130282888D01*
X82973824Y-130282888D02*
X82973824Y-130378126D01*
X82973824Y-130378126D02*
X82926205Y-130520983D01*
X82926205Y-130520983D02*
X82830966Y-130616221D01*
X82830966Y-130616221D02*
X82735728Y-130663840D01*
X82735728Y-130663840D02*
X82545252Y-130711459D01*
X82545252Y-130711459D02*
X82402395Y-130711459D01*
X82402395Y-130711459D02*
X82211919Y-130663840D01*
X82211919Y-130663840D02*
X82116681Y-130616221D01*
X82116681Y-130616221D02*
X82021443Y-130520983D01*
X82021443Y-130520983D02*
X81973824Y-130378126D01*
X81973824Y-130378126D02*
X81973824Y-130282888D01*
X81973824Y-130282888D02*
X82021443Y-130140031D01*
X82021443Y-130140031D02*
X82069062Y-130092412D01*
X82973824Y-129140031D02*
X82973824Y-129711459D01*
X82973824Y-129425745D02*
X81973824Y-129425745D01*
X81973824Y-129425745D02*
X82116681Y-129520983D01*
X82116681Y-129520983D02*
X82211919Y-129616221D01*
X82211919Y-129616221D02*
X82259538Y-129711459D01*
X75866160Y-64899579D02*
X75913780Y-64947198D01*
X75913780Y-64947198D02*
X75961399Y-65090055D01*
X75961399Y-65090055D02*
X75961399Y-65185293D01*
X75961399Y-65185293D02*
X75913780Y-65328150D01*
X75913780Y-65328150D02*
X75818541Y-65423388D01*
X75818541Y-65423388D02*
X75723303Y-65471007D01*
X75723303Y-65471007D02*
X75532827Y-65518626D01*
X75532827Y-65518626D02*
X75389970Y-65518626D01*
X75389970Y-65518626D02*
X75199494Y-65471007D01*
X75199494Y-65471007D02*
X75104256Y-65423388D01*
X75104256Y-65423388D02*
X75009018Y-65328150D01*
X75009018Y-65328150D02*
X74961399Y-65185293D01*
X74961399Y-65185293D02*
X74961399Y-65090055D01*
X74961399Y-65090055D02*
X75009018Y-64947198D01*
X75009018Y-64947198D02*
X75056637Y-64899579D01*
X75961399Y-64328150D02*
X75913780Y-64423388D01*
X75913780Y-64423388D02*
X75866160Y-64471007D01*
X75866160Y-64471007D02*
X75770922Y-64518626D01*
X75770922Y-64518626D02*
X75485208Y-64518626D01*
X75485208Y-64518626D02*
X75389970Y-64471007D01*
X75389970Y-64471007D02*
X75342351Y-64423388D01*
X75342351Y-64423388D02*
X75294732Y-64328150D01*
X75294732Y-64328150D02*
X75294732Y-64185293D01*
X75294732Y-64185293D02*
X75342351Y-64090055D01*
X75342351Y-64090055D02*
X75389970Y-64042436D01*
X75389970Y-64042436D02*
X75485208Y-63994817D01*
X75485208Y-63994817D02*
X75770922Y-63994817D01*
X75770922Y-63994817D02*
X75866160Y-64042436D01*
X75866160Y-64042436D02*
X75913780Y-64090055D01*
X75913780Y-64090055D02*
X75961399Y-64185293D01*
X75961399Y-64185293D02*
X75961399Y-64328150D01*
X75294732Y-63566245D02*
X75961399Y-63566245D01*
X75389970Y-63566245D02*
X75342351Y-63518626D01*
X75342351Y-63518626D02*
X75294732Y-63423388D01*
X75294732Y-63423388D02*
X75294732Y-63280531D01*
X75294732Y-63280531D02*
X75342351Y-63185293D01*
X75342351Y-63185293D02*
X75437589Y-63137674D01*
X75437589Y-63137674D02*
X75961399Y-63137674D01*
X75294732Y-62661483D02*
X75961399Y-62661483D01*
X75389970Y-62661483D02*
X75342351Y-62613864D01*
X75342351Y-62613864D02*
X75294732Y-62518626D01*
X75294732Y-62518626D02*
X75294732Y-62375769D01*
X75294732Y-62375769D02*
X75342351Y-62280531D01*
X75342351Y-62280531D02*
X75437589Y-62232912D01*
X75437589Y-62232912D02*
X75961399Y-62232912D01*
X76056637Y-61994817D02*
X76056637Y-61232912D01*
X74961399Y-60804340D02*
X74961399Y-60709102D01*
X74961399Y-60709102D02*
X75009018Y-60613864D01*
X75009018Y-60613864D02*
X75056637Y-60566245D01*
X75056637Y-60566245D02*
X75151875Y-60518626D01*
X75151875Y-60518626D02*
X75342351Y-60471007D01*
X75342351Y-60471007D02*
X75580446Y-60471007D01*
X75580446Y-60471007D02*
X75770922Y-60518626D01*
X75770922Y-60518626D02*
X75866160Y-60566245D01*
X75866160Y-60566245D02*
X75913780Y-60613864D01*
X75913780Y-60613864D02*
X75961399Y-60709102D01*
X75961399Y-60709102D02*
X75961399Y-60804340D01*
X75961399Y-60804340D02*
X75913780Y-60899578D01*
X75913780Y-60899578D02*
X75866160Y-60947197D01*
X75866160Y-60947197D02*
X75770922Y-60994816D01*
X75770922Y-60994816D02*
X75580446Y-61042435D01*
X75580446Y-61042435D02*
X75342351Y-61042435D01*
X75342351Y-61042435D02*
X75151875Y-60994816D01*
X75151875Y-60994816D02*
X75056637Y-60947197D01*
X75056637Y-60947197D02*
X75009018Y-60899578D01*
X75009018Y-60899578D02*
X74961399Y-60804340D01*
X75961399Y-59518626D02*
X75961399Y-60090054D01*
X75961399Y-59804340D02*
X74961399Y-59804340D01*
X74961399Y-59804340D02*
X75104256Y-59899578D01*
X75104256Y-59899578D02*
X75199494Y-59994816D01*
X75199494Y-59994816D02*
X75247113Y-60090054D01*
X75961399Y-59185292D02*
X75294732Y-58661483D01*
X75294732Y-59185292D02*
X75961399Y-58661483D01*
X74961399Y-58090054D02*
X74961399Y-57994816D01*
X74961399Y-57994816D02*
X75009018Y-57899578D01*
X75009018Y-57899578D02*
X75056637Y-57851959D01*
X75056637Y-57851959D02*
X75151875Y-57804340D01*
X75151875Y-57804340D02*
X75342351Y-57756721D01*
X75342351Y-57756721D02*
X75580446Y-57756721D01*
X75580446Y-57756721D02*
X75770922Y-57804340D01*
X75770922Y-57804340D02*
X75866160Y-57851959D01*
X75866160Y-57851959D02*
X75913780Y-57899578D01*
X75913780Y-57899578D02*
X75961399Y-57994816D01*
X75961399Y-57994816D02*
X75961399Y-58090054D01*
X75961399Y-58090054D02*
X75913780Y-58185292D01*
X75913780Y-58185292D02*
X75866160Y-58232911D01*
X75866160Y-58232911D02*
X75770922Y-58280530D01*
X75770922Y-58280530D02*
X75580446Y-58328149D01*
X75580446Y-58328149D02*
X75342351Y-58328149D01*
X75342351Y-58328149D02*
X75151875Y-58280530D01*
X75151875Y-58280530D02*
X75056637Y-58232911D01*
X75056637Y-58232911D02*
X75009018Y-58185292D01*
X75009018Y-58185292D02*
X74961399Y-58090054D01*
X75294732Y-56899578D02*
X75961399Y-56899578D01*
X74913780Y-57137673D02*
X75628065Y-57375768D01*
X75628065Y-57375768D02*
X75628065Y-56756721D01*
X67664675Y-61616303D02*
X67664675Y-60616303D01*
X67664675Y-60616303D02*
X67902770Y-60616303D01*
X67902770Y-60616303D02*
X68045627Y-60663922D01*
X68045627Y-60663922D02*
X68140865Y-60759160D01*
X68140865Y-60759160D02*
X68188484Y-60854398D01*
X68188484Y-60854398D02*
X68236103Y-61044874D01*
X68236103Y-61044874D02*
X68236103Y-61187731D01*
X68236103Y-61187731D02*
X68188484Y-61378207D01*
X68188484Y-61378207D02*
X68140865Y-61473445D01*
X68140865Y-61473445D02*
X68045627Y-61568684D01*
X68045627Y-61568684D02*
X67902770Y-61616303D01*
X67902770Y-61616303D02*
X67664675Y-61616303D01*
X68664675Y-61616303D02*
X68664675Y-60616303D01*
X68664675Y-61092493D02*
X69236103Y-61092493D01*
X69236103Y-61616303D02*
X69236103Y-60616303D01*
X70236103Y-61616303D02*
X69664675Y-61616303D01*
X69950389Y-61616303D02*
X69950389Y-60616303D01*
X69950389Y-60616303D02*
X69855151Y-60759160D01*
X69855151Y-60759160D02*
X69759913Y-60854398D01*
X69759913Y-60854398D02*
X69664675Y-60902017D01*
D13*
%TO.C,R5*%
X83560000Y-119507500D02*
X81960000Y-119507500D01*
X83560000Y-118682500D02*
X83560000Y-119507500D01*
X81960000Y-119507500D02*
X81960000Y-118682500D01*
X81960000Y-118682500D02*
X83560000Y-118682500D01*
%TO.C,RY1*%
X58781505Y-48025746D02*
X58781505Y-49625746D01*
X57956505Y-48025746D02*
X58781505Y-48025746D01*
X58781505Y-49625746D02*
X57956505Y-49625746D01*
X57956505Y-49625746D02*
X57956505Y-48025746D01*
%TO.C,-*%
X90248813Y-134544394D02*
X91508813Y-134544394D01*
X90248813Y-137084394D02*
X90248813Y-134544394D01*
X91508813Y-134544394D02*
X91508813Y-137084394D01*
X91508813Y-137084394D02*
X90248813Y-137084394D01*
%TO.C,R1*%
X66219005Y-32763246D02*
X64619005Y-32763246D01*
X66219005Y-31938246D02*
X66219005Y-32763246D01*
X64619005Y-32763246D02*
X64619005Y-31938246D01*
X64619005Y-31938246D02*
X66219005Y-31938246D01*
%TO.C,RR1*%
X58781505Y-42000746D02*
X58781505Y-43600746D01*
X57956505Y-42000746D02*
X58781505Y-42000746D01*
X58781505Y-43600746D02*
X57956505Y-43600746D01*
X57956505Y-43600746D02*
X57956505Y-42000746D01*
%TO.C,X5*%
X82789210Y-143107328D02*
X82469210Y-143661584D01*
X82789210Y-143107328D02*
X84365376Y-144017328D01*
X82469210Y-143661584D02*
X84045376Y-144571584D01*
X81519210Y-145307032D02*
X81199210Y-145861289D01*
X81519210Y-145307032D02*
X83095376Y-146217032D01*
X81199210Y-145861289D02*
X82775376Y-146771289D01*
X80249210Y-147506737D02*
X79929210Y-148060993D01*
X80249210Y-147506737D02*
X81825376Y-148416737D01*
X79929210Y-148060993D02*
X81505376Y-148970993D01*
X84522876Y-143744530D02*
X85390302Y-143512104D01*
X81030376Y-149793717D02*
X84522876Y-143744530D01*
X85390302Y-143512104D02*
X87040081Y-144464604D01*
X87040081Y-144464604D02*
X83230081Y-151063717D01*
X83230081Y-151063717D02*
X81030376Y-149793717D01*
%TO.C,LEDR1*%
X55399005Y-43191936D02*
X55399005Y-40859556D01*
X55399559Y-40860271D02*
G75*
G03*
X55399004Y-43191936I-1500554J-1165475D01*
G01*
X55399005Y-42025746D02*
G75*
G03*
X55399005Y-42025746I-1500000J0D01*
G01*
%TO.C,R6*%
X83535000Y-117732500D02*
X81935000Y-117732500D01*
X83535000Y-116907500D02*
X83535000Y-117732500D01*
X81935000Y-117732500D02*
X81935000Y-116907500D01*
X81935000Y-116907500D02*
X83535000Y-116907500D01*
%TO.C,IC1*%
X46154005Y-124075746D02*
X45154005Y-125075746D01*
X46154005Y-104755746D02*
X46154005Y-124075746D01*
X45154005Y-125075746D02*
X39804005Y-125075746D01*
X39804005Y-125075746D02*
X39804005Y-104755746D01*
X39804005Y-104755746D02*
X46154005Y-104755746D01*
%TO.C,R2*%
X67619005Y-56438246D02*
X69219005Y-56438246D01*
X67619005Y-57263246D02*
X67619005Y-56438246D01*
X69219005Y-56438246D02*
X69219005Y-57263246D01*
X69219005Y-57263246D02*
X67619005Y-57263246D01*
%TO.C,C2*%
X41069005Y-127550746D02*
X39069005Y-127550746D01*
X41069005Y-126300746D02*
X41069005Y-127550746D01*
X39069005Y-127550746D02*
X39069005Y-126300746D01*
X39069005Y-126300746D02*
X41069005Y-126300746D01*
%TO.C,X0*%
X50605347Y-156082257D02*
X50051091Y-155762257D01*
X50605347Y-156082257D02*
X49695347Y-157658423D01*
X50051091Y-155762257D02*
X49141091Y-157338423D01*
X48405643Y-154812257D02*
X47851386Y-154492257D01*
X48405643Y-154812257D02*
X47495643Y-156388423D01*
X47851386Y-154492257D02*
X46941386Y-156068423D01*
X46205938Y-153542257D02*
X45651682Y-153222257D01*
X46205938Y-153542257D02*
X45295938Y-155118423D01*
X45651682Y-153222257D02*
X44741682Y-154798423D01*
X49968145Y-157815923D02*
X50200571Y-158683349D01*
X43918958Y-154323423D02*
X49968145Y-157815923D01*
X50200571Y-158683349D02*
X49248071Y-160333128D01*
X49248071Y-160333128D02*
X42648958Y-156523128D01*
X48425347Y-159858128D02*
X45425347Y-165054280D01*
X47871091Y-159538128D02*
X44871091Y-164734280D01*
X46225643Y-158588128D02*
X43225643Y-163784280D01*
X45671386Y-158268128D02*
X42671386Y-163464280D01*
X44025938Y-157318128D02*
X41025938Y-162514280D01*
X43471682Y-156998128D02*
X40471682Y-162194280D01*
X42648958Y-156523128D02*
X43918958Y-154323423D01*
X45425347Y-165054280D02*
X44871091Y-164734280D01*
X43225643Y-163784280D02*
X42671386Y-163464280D01*
X41025938Y-162514280D02*
X40471682Y-162194280D01*
%TO.C,X3*%
X41006133Y-147942874D02*
X40686133Y-147388618D01*
X41006133Y-147942874D02*
X39429967Y-148852874D01*
X40686133Y-147388618D02*
X39109967Y-148298618D01*
X39736133Y-145743170D02*
X39416133Y-145188913D01*
X39736133Y-145743170D02*
X38159967Y-146653170D01*
X39416133Y-145188913D02*
X37839967Y-146098913D01*
X38466133Y-143543465D02*
X38146133Y-142989209D01*
X38466133Y-143543465D02*
X36889967Y-144453465D01*
X38146133Y-142989209D02*
X36569967Y-143899209D01*
X39587467Y-149125672D02*
X39355041Y-149993098D01*
X36094967Y-143076485D02*
X39587467Y-149125672D01*
X39355041Y-149993098D02*
X37705262Y-150945598D01*
X37705262Y-150945598D02*
X33895262Y-144346485D01*
X37230262Y-150122874D02*
X32034110Y-153122874D01*
X36910262Y-149568618D02*
X31714110Y-152568618D01*
X35960262Y-147923170D02*
X30764110Y-150923170D01*
X35640262Y-147368913D02*
X30444110Y-150368913D01*
X34690262Y-145723465D02*
X29494110Y-148723465D01*
X34370262Y-145169209D02*
X29174110Y-148169209D01*
X33895262Y-144346485D02*
X36094967Y-143076485D01*
X32034110Y-153122874D02*
X31714110Y-152568618D01*
X30764110Y-150923170D02*
X30444110Y-150368913D01*
X29494110Y-148723465D02*
X29174110Y-148169209D01*
%TO.C,Vin*%
X85260000Y-122690000D02*
X85260000Y-113750000D01*
X92060000Y-122690000D02*
X85260000Y-122690000D01*
X85260000Y-113750000D02*
X92060000Y-113750000D01*
X92060000Y-113750000D02*
X92060000Y-122690000D01*
%TO.C,DHT11*%
X65505221Y-55425044D02*
X76505221Y-55425044D01*
X65505221Y-55425044D02*
X64505221Y-54425044D01*
X64505221Y-54425044D02*
X64505221Y-49925044D01*
X64505221Y-49925044D02*
X76505221Y-49925044D01*
X76505221Y-49925044D02*
X76505221Y-55425044D01*
%TO.C,X2*%
X63239005Y-157180746D02*
X62599005Y-157180746D01*
X63239005Y-157180746D02*
X63239005Y-159000746D01*
X62599005Y-157180746D02*
X62599005Y-159000746D01*
X60699005Y-157180746D02*
X60059005Y-157180746D01*
X60699005Y-157180746D02*
X60699005Y-159000746D01*
X60059005Y-157180746D02*
X60059005Y-159000746D01*
X58159005Y-157180746D02*
X57519005Y-157180746D01*
X58159005Y-157180746D02*
X58159005Y-159000746D01*
X57519005Y-157180746D02*
X57519005Y-159000746D01*
X63554005Y-159000746D02*
X64189005Y-159635746D01*
X56569005Y-159000746D02*
X63554005Y-159000746D01*
X64189005Y-159635746D02*
X64189005Y-161540746D01*
X64189005Y-161540746D02*
X56569005Y-161540746D01*
X63239005Y-161540746D02*
X63239005Y-167540746D01*
X62599005Y-161540746D02*
X62599005Y-167540746D01*
X60699005Y-161540746D02*
X60699005Y-167540746D01*
X60059005Y-161540746D02*
X60059005Y-167540746D01*
X58159005Y-161540746D02*
X58159005Y-167540746D01*
X57519005Y-161540746D02*
X57519005Y-167540746D01*
X56569005Y-161540746D02*
X56569005Y-159000746D01*
X63239005Y-167540746D02*
X62599005Y-167540746D01*
X58159005Y-167540746D02*
X57519005Y-167540746D01*
%TO.C,RG1*%
X58781505Y-54400746D02*
X58781505Y-56000746D01*
X57956505Y-54400746D02*
X58781505Y-54400746D01*
X58781505Y-56000746D02*
X57956505Y-56000746D01*
X57956505Y-56000746D02*
X57956505Y-54400746D01*
%TO.C,X6*%
X36264711Y-135760317D02*
X36153576Y-135130040D01*
X36264711Y-135760317D02*
X34472361Y-136076357D01*
X36153576Y-135130040D02*
X34361226Y-135446080D01*
X35823645Y-133258905D02*
X35712510Y-132628628D01*
X35823645Y-133258905D02*
X34031294Y-133574945D01*
X35712510Y-132628628D02*
X33920160Y-132944668D01*
X35382578Y-130757494D02*
X35271443Y-130127217D01*
X35382578Y-130757494D02*
X33590228Y-131073533D01*
X35271443Y-130127217D02*
X33479093Y-130443256D01*
X34527060Y-136386571D02*
X34011974Y-137122191D01*
X33314127Y-129507689D02*
X34527060Y-136386571D01*
X34011974Y-137122191D02*
X32135915Y-137452990D01*
X32135915Y-137452990D02*
X30812716Y-129948755D01*
X31970949Y-136517423D02*
X26062103Y-137559312D01*
X31859814Y-135887146D02*
X25950968Y-136929035D01*
X31529883Y-134016011D02*
X25621036Y-135057900D01*
X31418748Y-133385734D02*
X25509901Y-134427624D01*
X31088816Y-131514600D02*
X25179970Y-132556489D01*
X30977682Y-130884323D02*
X25068835Y-131926212D01*
X30812716Y-129948755D02*
X33314127Y-129507689D01*
X26062103Y-137559312D02*
X25950968Y-136929035D01*
X25621036Y-135057900D02*
X25509901Y-134427624D01*
X25179970Y-132556489D02*
X25068835Y-131926212D01*
%TO.C,X4*%
X75410347Y-153237257D02*
X74856091Y-153557257D01*
X75410347Y-153237257D02*
X76320347Y-154813423D01*
X74856091Y-153557257D02*
X75766091Y-155133423D01*
X73210643Y-154507257D02*
X72656386Y-154827257D01*
X73210643Y-154507257D02*
X74120643Y-156083423D01*
X72656386Y-154827257D02*
X73566386Y-156403423D01*
X71010938Y-155777257D02*
X70456682Y-156097257D01*
X71010938Y-155777257D02*
X71920938Y-157353423D01*
X70456682Y-156097257D02*
X71366682Y-157673423D01*
X76593145Y-154655923D02*
X77460571Y-154888349D01*
X70543958Y-158148423D02*
X76593145Y-154655923D01*
X77460571Y-154888349D02*
X78413071Y-156538128D01*
X78413071Y-156538128D02*
X71813958Y-160348128D01*
X77590347Y-157013128D02*
X80590347Y-162209280D01*
X77036091Y-157333128D02*
X80036091Y-162529280D01*
X75390643Y-158283128D02*
X78390643Y-163479280D01*
X74836386Y-158603128D02*
X77836386Y-163799280D01*
X73190938Y-159553128D02*
X76190938Y-164749280D01*
X72636682Y-159873128D02*
X75636682Y-165069280D01*
X71813958Y-160348128D02*
X70543958Y-158148423D01*
X80590347Y-162209280D02*
X80036091Y-162529280D01*
X78390643Y-163479280D02*
X77836386Y-163799280D01*
X76190938Y-164749280D02*
X75636682Y-165069280D01*
%TO.C,gndpad*%
X86880000Y-111485000D02*
X86880000Y-112745000D01*
X84340000Y-111485000D02*
X86880000Y-111485000D01*
X86880000Y-112745000D02*
X84340000Y-112745000D01*
X84340000Y-112745000D02*
X84340000Y-111485000D01*
%TO.C,SD3*%
X35574005Y-86930746D02*
X37479005Y-86930746D01*
X35574005Y-94550746D02*
X35574005Y-86930746D01*
X37479005Y-86930746D02*
X38114005Y-87565746D01*
X38114005Y-87565746D02*
X38114005Y-94550746D01*
X38114005Y-94550746D02*
X35574005Y-94550746D01*
%TO.C,LEDG1*%
X55399005Y-55491936D02*
X55399005Y-53159556D01*
X55399559Y-53160271D02*
G75*
G03*
X55399004Y-55491936I-1500554J-1165475D01*
G01*
X55399005Y-54325746D02*
G75*
G03*
X55399005Y-54325746I-1500000J0D01*
G01*
%TO.C,ESP1*%
X51342605Y-100980746D02*
X53247605Y-100980746D01*
X51342605Y-139080746D02*
X51342605Y-100980746D01*
X53247605Y-100980746D02*
X53882605Y-101615746D01*
X53882605Y-101615746D02*
X53882605Y-139080746D01*
X53882605Y-139080746D02*
X51342605Y-139080746D01*
%TO.C,+*%
X91098813Y-131344394D02*
X92358813Y-131344394D01*
X91098813Y-133884394D02*
X91098813Y-131344394D01*
X92358813Y-131344394D02*
X92358813Y-133884394D01*
X92358813Y-133884394D02*
X91098813Y-133884394D01*
%TO.C,X1*%
X34689005Y-121175746D02*
X34689005Y-120535746D01*
X34689005Y-121175746D02*
X32869005Y-121175746D01*
X34689005Y-120535746D02*
X32869005Y-120535746D01*
X34689005Y-118635746D02*
X34689005Y-117995746D01*
X34689005Y-118635746D02*
X32869005Y-118635746D01*
X34689005Y-117995746D02*
X32869005Y-117995746D01*
X34689005Y-116095746D02*
X34689005Y-115455746D01*
X34689005Y-116095746D02*
X32869005Y-116095746D01*
X34689005Y-115455746D02*
X32869005Y-115455746D01*
X32869005Y-121490746D02*
X32234005Y-122125746D01*
X32869005Y-114505746D02*
X32869005Y-121490746D01*
X32234005Y-122125746D02*
X30329005Y-122125746D01*
X30329005Y-122125746D02*
X30329005Y-114505746D01*
X30329005Y-121175746D02*
X24329005Y-121175746D01*
X30329005Y-120535746D02*
X24329005Y-120535746D01*
X30329005Y-118635746D02*
X24329005Y-118635746D01*
X30329005Y-117995746D02*
X24329005Y-117995746D01*
X30329005Y-116095746D02*
X24329005Y-116095746D01*
X30329005Y-115455746D02*
X24329005Y-115455746D01*
X30329005Y-114505746D02*
X32869005Y-114505746D01*
X24329005Y-121175746D02*
X24329005Y-120535746D01*
X24329005Y-118635746D02*
X24329005Y-117995746D01*
X24329005Y-116095746D02*
X24329005Y-115455746D01*
%TO.C,ESP2*%
X73974005Y-100980746D02*
X75879005Y-100980746D01*
X73974005Y-139080746D02*
X73974005Y-100980746D01*
X75879005Y-100980746D02*
X76514005Y-101615746D01*
X76514005Y-101615746D02*
X76514005Y-139080746D01*
X76514005Y-139080746D02*
X73974005Y-139080746D01*
%TO.C,PHR1*%
X72944005Y-28225746D02*
X69944005Y-28225746D01*
X72344005Y-27925746D02*
X70544005Y-27925746D01*
X72344005Y-27325746D02*
X72344005Y-26725746D01*
X72344005Y-24925746D02*
X72344005Y-24325746D01*
X72344005Y-24325746D02*
X70544005Y-24325746D01*
X72144005Y-26125746D02*
X72144005Y-25525746D01*
X72144005Y-26125746D02*
X70844005Y-26125746D01*
X70844005Y-26725746D02*
X72344005Y-26725746D01*
X70844005Y-26125746D02*
X70844005Y-26725746D01*
X70544005Y-27925746D02*
X70544005Y-27325746D01*
X70544005Y-27325746D02*
X72344005Y-27325746D01*
X70544005Y-25525746D02*
X72144005Y-25525746D01*
X70544005Y-25525746D02*
X70544005Y-24925746D01*
X70544005Y-24925746D02*
X72344005Y-24925746D01*
X69944005Y-24025746D02*
X72944005Y-24025746D01*
X72941242Y-28227716D02*
G75*
G03*
X72944005Y-24025746I-1497237J2101970D01*
G01*
X69946768Y-24023776D02*
G75*
G03*
X69944005Y-28225746I1497237J-2101970D01*
G01*
%TO.C,LEDY1*%
X55399005Y-49241936D02*
X55399005Y-46909556D01*
X55399559Y-46910271D02*
G75*
G03*
X55399004Y-49241936I-1500554J-1165475D01*
G01*
X55399005Y-48075746D02*
G75*
G03*
X55399005Y-48075746I-1500000J0D01*
G01*
%TO.C,SD2*%
X37499005Y-76255746D02*
X39404005Y-76255746D01*
X37499005Y-83875746D02*
X37499005Y-76255746D01*
X39404005Y-76255746D02*
X40039005Y-76890746D01*
X40039005Y-76890746D02*
X40039005Y-83875746D01*
X40039005Y-83875746D02*
X37499005Y-83875746D01*
%TO.C,SD1*%
X40374005Y-65565746D02*
X42279005Y-65565746D01*
X40374005Y-73185746D02*
X40374005Y-65565746D01*
X42279005Y-65565746D02*
X42914005Y-66200746D01*
X42914005Y-66200746D02*
X42914005Y-73185746D01*
X42914005Y-73185746D02*
X40374005Y-73185746D01*
%TO.C,C1*%
X84266505Y-126498987D02*
X84266505Y-127298987D01*
X84666505Y-126898987D02*
X83866505Y-126898987D01*
X86519005Y-129925746D02*
G75*
G03*
X86519005Y-129925746I-4000000J0D01*
G01*
%TO.C,DH1*%
X63846580Y-62431484D02*
X63846580Y-60526484D01*
X74006580Y-62431484D02*
X63846580Y-62431484D01*
X63846580Y-60526484D02*
X64481580Y-59891484D01*
X64481580Y-59891484D02*
X74006580Y-59891484D01*
X74006580Y-59891484D02*
X74006580Y-62431484D01*
%TD*%
M02*
