%TF.GenerationSoftware,KiCad,Pcbnew,7.0.8*%
%TF.CreationDate,2024-08-01T15:22:41+02:00*%
%TF.ProjectId,Pflanzensensor,32303234-3036-4303-965f-50666c616e7a,rev?*%
%TF.SameCoordinates,Original*%
%TF.FileFunction,Profile,NP*%
%FSLAX46Y46*%
G04 Gerber Fmt 4.6, Leading zero omitted, Abs format (unit mm)*
G04 Created by KiCad (PCBNEW 7.0.8) date 2024-08-01 15:22:41*
%MOMM*%
%LPD*%
G01*
G04 APERTURE LIST*
%TA.AperFunction,Profile*%
%ADD10C,0.200000*%
%TD*%
%TA.AperFunction,Profile*%
%ADD11C,0.500000*%
%TD*%
G04 APERTURE END LIST*
D10*
X37040000Y-101100000D02*
G75*
G03*
X37040000Y-101100000I-1500000J0D01*
G01*
X68060000Y-141510000D02*
G75*
G03*
X68060000Y-141510000I-1500000J0D01*
G01*
X59040460Y-225449334D02*
X58922517Y-226032763D01*
X59361980Y-224972719D02*
X59040460Y-225449334D01*
X59838613Y-224651281D02*
X59361980Y-224972719D01*
X60421893Y-224533387D02*
X59838613Y-224651281D01*
X61005322Y-224651281D02*
X60421893Y-224533387D01*
X61481938Y-224972719D02*
X61005322Y-224651281D01*
X61803375Y-225449334D02*
X61481938Y-224972719D01*
X61921269Y-226032763D02*
X61803375Y-225449334D01*
X61803375Y-226616192D02*
X61921269Y-226032763D01*
X61481938Y-227092808D02*
X61803375Y-226616192D01*
X61005322Y-227414246D02*
X61481938Y-227092808D01*
X60421893Y-227532139D02*
X61005322Y-227414246D01*
X59838613Y-227414246D02*
X60421893Y-227532139D01*
X59361980Y-227092808D02*
X59838613Y-227414246D01*
X59040460Y-226616192D02*
X59361980Y-227092808D01*
X58922517Y-226032763D02*
X59040460Y-226616192D01*
X59040460Y-245440543D02*
X58922517Y-246023972D01*
X59361980Y-244963927D02*
X59040460Y-245440543D01*
X59838613Y-244642490D02*
X59361980Y-244963927D01*
X60421893Y-244524596D02*
X59838613Y-244642490D01*
X61005322Y-244642490D02*
X60421893Y-244524596D01*
X61481938Y-244963927D02*
X61005322Y-244642490D01*
X61803375Y-245440543D02*
X61481938Y-244963927D01*
X61921269Y-246023972D02*
X61803375Y-245440543D01*
X61803375Y-246607253D02*
X61921269Y-246023972D01*
X61481938Y-247083885D02*
X61803375Y-246607253D01*
X61005322Y-247405405D02*
X61481938Y-247083885D01*
X60421893Y-247523348D02*
X61005322Y-247405405D01*
X59838613Y-247405405D02*
X60421893Y-247523348D01*
X59361980Y-247083885D02*
X59838613Y-247405405D01*
X59040460Y-246607253D02*
X59361980Y-247083885D01*
X58922517Y-246023972D02*
X59040460Y-246607253D01*
X54468821Y-251521449D02*
X54468821Y-162952834D01*
X54590759Y-252729522D02*
X54468821Y-251521449D01*
X54940445Y-253855017D02*
X54590759Y-252729522D01*
X55493682Y-254873741D02*
X54940445Y-253855017D01*
X56226277Y-255761497D02*
X55493682Y-254873741D01*
X57114034Y-256494091D02*
X56226277Y-255761497D01*
X58132757Y-257047329D02*
X57114034Y-256494091D01*
X59258252Y-257397014D02*
X58132757Y-257047329D01*
X60466325Y-257518953D02*
X59258252Y-257397014D01*
X61674397Y-257397014D02*
X60466325Y-257518953D01*
X62799893Y-257047329D02*
X61674397Y-257397014D01*
X63818617Y-256494091D02*
X62799893Y-257047329D01*
X64706373Y-255761497D02*
X63818617Y-256494091D01*
X65438967Y-254873741D02*
X64706373Y-255761497D01*
X65992205Y-253855017D02*
X65438967Y-254873741D01*
X66341890Y-252729522D02*
X65992205Y-253855017D01*
X66463828Y-251521449D02*
X66341890Y-252729522D01*
X66463828Y-162847750D02*
X66463828Y-251521449D01*
X68864435Y-162297651D02*
X66463828Y-162847750D01*
X71111118Y-161583578D02*
X68864435Y-162297651D01*
X71740641Y-162178778D02*
X71111118Y-161583578D01*
X72451580Y-162650058D02*
X71740641Y-162178778D01*
X74043487Y-163200820D02*
X72451580Y-162650058D01*
X75738406Y-163195795D02*
X74043487Y-163200820D01*
X76578109Y-162972342D02*
X75738406Y-163195795D01*
X77387902Y-162594917D02*
X76578109Y-162972342D01*
X78135553Y-162068646D02*
X77387902Y-162594917D01*
X78759038Y-161435099D02*
X78135553Y-162068646D01*
X79253039Y-160714178D02*
X78759038Y-161435099D01*
X79612239Y-159925783D02*
X79253039Y-160714178D01*
X79904959Y-158226181D02*
X79612239Y-159925783D01*
X79827843Y-157354776D02*
X79904959Y-158226181D01*
X79594651Y-156495504D02*
X79827843Y-157354776D01*
X81582418Y-154509324D02*
X79594651Y-156495504D01*
X83346970Y-152350711D02*
X81582418Y-154509324D01*
X84233410Y-152644082D02*
X83346970Y-152350711D01*
X85139149Y-152766778D02*
X84233410Y-152644082D01*
X86041763Y-152724792D02*
X85139149Y-152766778D01*
X86918831Y-152524114D02*
X86041763Y-152724792D01*
X87747931Y-152170738D02*
X86918831Y-152524114D01*
X88506640Y-151670655D02*
X87747931Y-152170738D01*
X89172537Y-151029856D02*
X88506640Y-151670655D01*
X89723198Y-150254335D02*
X89172537Y-151029856D01*
X90132797Y-149350993D02*
X89723198Y-150254335D01*
X90352700Y-148413294D02*
X90132797Y-149350993D01*
X90389746Y-147466786D02*
X90352700Y-148413294D01*
X90250773Y-146537013D02*
X90389746Y-147466786D01*
X89942622Y-145649523D02*
X90250773Y-146537013D01*
X89472132Y-144829862D02*
X89942622Y-145649523D01*
X88846140Y-144103575D02*
X89472132Y-144829862D01*
X88071486Y-143496210D02*
X88846140Y-144103575D01*
X89656902Y-138465966D02*
X88071486Y-143496210D01*
X90586363Y-138289203D02*
X89656902Y-138465966D01*
X91447053Y-137950071D02*
X90586363Y-138289203D01*
X92221972Y-137465546D02*
X91447053Y-137950071D01*
X92894119Y-136852603D02*
X92221972Y-137465546D01*
X93446493Y-136128219D02*
X92894119Y-136852603D01*
X93862095Y-135309369D02*
X93446493Y-136128219D01*
X94123922Y-134413029D02*
X93862095Y-135309369D01*
X94214976Y-133456174D02*
X94123922Y-134413029D01*
X94003934Y-132010552D02*
X94214976Y-133456174D01*
X93411821Y-130729035D02*
X94003934Y-132010552D01*
X92500161Y-129672980D02*
X93411821Y-130729035D01*
X91330477Y-128903743D02*
X92500161Y-129672980D01*
X91526744Y-118499768D02*
X91330477Y-128903743D01*
X91238065Y-108699265D02*
X91526744Y-118499768D01*
X90538875Y-99471631D02*
X91238065Y-108699265D01*
X89503609Y-90786261D02*
X90538875Y-99471631D01*
X88206702Y-82612550D02*
X89503609Y-90786261D01*
X86722590Y-74919894D02*
X88206702Y-82612550D01*
X85125708Y-67677686D02*
X86722590Y-74919894D01*
X83490491Y-60855323D02*
X85125708Y-67677686D01*
X80402792Y-48347712D02*
X83490491Y-60855323D01*
X79099182Y-42601254D02*
X80402792Y-48347712D01*
X78054978Y-37152221D02*
X79099182Y-42601254D01*
X77344615Y-31970009D02*
X78054978Y-37152221D01*
X77042528Y-27024013D02*
X77344615Y-31970009D01*
X77223153Y-22283627D02*
X77042528Y-27024013D01*
X77517744Y-19980975D02*
X77223153Y-22283627D01*
X77960926Y-17718248D02*
X77517744Y-19980975D01*
X77771049Y-17618237D02*
X77960926Y-17718248D01*
X77132858Y-17741091D02*
X77771049Y-17618237D01*
X74678578Y-18700621D02*
X77132858Y-17741091D01*
X70932165Y-20687284D02*
X74678578Y-18700621D01*
X66227700Y-23791523D02*
X70932165Y-20687284D01*
X63620599Y-25790998D02*
X66227700Y-23791523D01*
X60899266Y-28103785D02*
X63620599Y-25790998D01*
X58105460Y-30741188D02*
X60899266Y-28103785D01*
X55280941Y-33714514D02*
X58105460Y-30741188D01*
X52467471Y-37035067D02*
X55280941Y-33714514D01*
X49706809Y-40714155D02*
X52467471Y-37035067D01*
X47040715Y-44763082D02*
X49706809Y-40714155D01*
X44510949Y-49193154D02*
X47040715Y-44763082D01*
X42654923Y-52905584D02*
X44510949Y-49193154D01*
X40943270Y-56737076D02*
X42654923Y-52905584D01*
X39371282Y-60670901D02*
X40943270Y-56737076D01*
X37934253Y-64690333D02*
X39371282Y-60670901D01*
X35446245Y-72919104D02*
X37934253Y-64690333D01*
X33441591Y-81289565D02*
X35446245Y-72919104D01*
X31882638Y-89667895D02*
X33441591Y-81289565D01*
X30731730Y-97920270D02*
X31882638Y-89667895D01*
X29951215Y-105912867D02*
X30731730Y-97920270D01*
X29503437Y-113511866D02*
X29951215Y-105912867D01*
X28001990Y-114161782D02*
X29503437Y-113511866D01*
X26804155Y-115243712D02*
X28001990Y-114161782D01*
X26007656Y-116661917D02*
X26804155Y-115243712D01*
X25710214Y-118320659D02*
X26007656Y-116661917D01*
X25979269Y-119982481D02*
X25710214Y-118320659D01*
X26751349Y-121412990D02*
X25979269Y-119982481D01*
X27930186Y-122514695D02*
X26751349Y-121412990D01*
X29419512Y-123190105D02*
X27930186Y-122514695D01*
X29712899Y-128927016D02*
X29419512Y-123190105D01*
X28561104Y-129698666D02*
X29712899Y-128927016D01*
X27664392Y-130750457D02*
X28561104Y-129698666D01*
X27082533Y-132022817D02*
X27664392Y-130750457D01*
X26875298Y-133456174D02*
X27082533Y-132022817D01*
X26958767Y-134372422D02*
X26875298Y-133456174D01*
X27199237Y-135234243D02*
X26958767Y-134372422D01*
X27581802Y-136026681D02*
X27199237Y-135234243D01*
X28091557Y-136734781D02*
X27581802Y-136026681D01*
X28713597Y-137343590D02*
X28091557Y-136734781D01*
X29433016Y-137838151D02*
X28713597Y-137343590D01*
X30234909Y-138203509D02*
X29433016Y-137838151D01*
X31104370Y-138424710D02*
X30234909Y-138203509D01*
X31841187Y-141004274D02*
X31104370Y-138424710D01*
X32796987Y-143643609D02*
X31841187Y-141004274D01*
X32083640Y-144261580D02*
X32796987Y-143643609D01*
X31510719Y-144985339D02*
X32083640Y-144261580D01*
X31084366Y-145791777D02*
X31510719Y-144985339D01*
X30810719Y-146657788D02*
X31084366Y-145791777D01*
X30695921Y-147560263D02*
X30810719Y-146657788D01*
X30746111Y-148476094D02*
X30695921Y-147560263D01*
X30967431Y-149382172D02*
X30746111Y-148476094D01*
X31366020Y-150255390D02*
X30967431Y-149382172D01*
X31914215Y-151027560D02*
X31366020Y-150255390D01*
X32577062Y-151666241D02*
X31914215Y-151027560D01*
X33332317Y-152165455D02*
X32577062Y-151666241D01*
X34157735Y-152519222D02*
X33332317Y-152165455D01*
X35031073Y-152721563D02*
X34157735Y-152519222D01*
X35930084Y-152766497D02*
X35031073Y-152721563D01*
X36832526Y-152648046D02*
X35930084Y-152766497D01*
X37716153Y-152360230D02*
X36832526Y-152648046D01*
X39503009Y-154497379D02*
X37716153Y-152360230D01*
X41499855Y-156485630D02*
X39503009Y-154497379D01*
X41264292Y-157345315D02*
X41499855Y-156485630D01*
X41185322Y-158217625D02*
X41264292Y-157345315D01*
X41475700Y-159920098D02*
X41185322Y-158217625D01*
X41834322Y-160710252D02*
X41475700Y-159920098D01*
X42328080Y-161433011D02*
X41834322Y-160710252D01*
X42951611Y-162068371D02*
X42328080Y-161433011D01*
X43699551Y-162596327D02*
X42951611Y-162068371D01*
X44495827Y-162968166D02*
X43699551Y-162596327D01*
X45321245Y-163191322D02*
X44495827Y-162968166D01*
X46988957Y-163210430D02*
X45321245Y-163191322D01*
X48561591Y-162691338D02*
X46988957Y-163210430D01*
X49898053Y-161671734D02*
X48561591Y-162691338D01*
X52116790Y-162404585D02*
X49898053Y-161671734D01*
X54468821Y-162952834D02*
X52116790Y-162404585D01*
D11*
X80478300Y-83809447D02*
G75*
G03*
X80478300Y-83809447I-1000000J0D01*
G01*
X59408300Y-83809447D02*
G75*
G03*
X59408300Y-83809447I-1000000J0D01*
G01*
X59408300Y-61809447D02*
G75*
G03*
X59408300Y-61809447I-1000000J0D01*
G01*
X80478300Y-61809447D02*
G75*
G03*
X80478300Y-61809447I-1000000J0D01*
G01*
M02*
