M48
; DRILL file {KiCad 7.0.8} date 2024 August 01, Thursday 15:22:35
; FORMAT={-:-/ absolute / metric / decimal}
; #@! TF.CreationDate,2024-08-01T15:22:35+02:00
; #@! TF.GenerationSoftware,Kicad,Pcbnew,7.0.8
; #@! TF.FileFunction,MixedPlating,1,2
FMAT,2
METRIC
; #@! TA.AperFunction,Plated,PTH,ViaDrill
T1C0.300
; #@! TA.AperFunction,Plated,PTH,ComponentDrill
T2C0.600
; #@! TA.AperFunction,Plated,PTH,ComponentDrill
T3C0.800
; #@! TA.AperFunction,Plated,PTH,ComponentDrill
T4C0.900
; #@! TA.AperFunction,Plated,PTH,ComponentDrill
T5C1.000
%
G90
G05
T1
X40.694Y-98.726
X41.819Y-140.376
X45.757Y-93.746
X45.769Y-138.776
X45.949Y-74.676
X46.069Y-126.651
X46.069Y-134.801
X47.569Y-72.636
X48.594Y-93.801
X49.329Y-70.446
X51.269Y-63.051
X61.119Y-35.826
T3
X39.169Y-106.026
X39.169Y-108.566
X39.169Y-111.106
X39.169Y-113.646
X39.169Y-116.186
X39.169Y-118.726
X39.169Y-121.266
X39.169Y-123.806
X46.789Y-106.026
X46.789Y-108.566
X46.789Y-111.106
X46.789Y-113.646
X46.789Y-116.186
X46.789Y-118.726
X46.789Y-121.266
X46.789Y-123.806
X66.695Y-52.675
X69.235Y-52.675
X69.744Y-26.126
X71.775Y-52.675
X73.144Y-26.126
X74.315Y-52.675
X82.519Y-128.176
X82.519Y-131.676
T4
X52.629Y-42.026
X52.629Y-48.076
X52.629Y-54.326
X55.169Y-42.026
X55.169Y-48.076
X55.169Y-54.326
T5
X34.369Y-115.776
X34.369Y-118.316
X34.369Y-120.856
X35.012Y-130.498
X35.453Y-132.999
X35.894Y-135.501
X36.844Y-88.201
X36.844Y-90.741
X36.844Y-93.281
X38.029Y-143.426
X38.769Y-77.526
X38.769Y-80.066
X38.769Y-82.606
X39.299Y-145.626
X40.569Y-147.826
X41.644Y-66.836
X41.644Y-69.376
X41.644Y-71.916
X45.769Y-153.659
X47.969Y-154.929
X50.168Y-156.199
X52.613Y-102.251
X52.613Y-104.791
X52.613Y-107.331
X52.613Y-109.871
X52.613Y-112.411
X52.613Y-114.951
X52.613Y-117.491
X52.613Y-120.031
X52.613Y-122.571
X52.613Y-125.111
X52.613Y-127.651
X52.613Y-130.191
X52.613Y-132.731
X52.613Y-135.271
X52.613Y-137.811
X57.839Y-157.501
X60.379Y-157.501
X62.919Y-157.501
X65.117Y-61.161
X67.657Y-61.161
X70.197Y-61.161
X70.894Y-156.214
X72.737Y-61.161
X73.094Y-154.944
X75.244Y-102.251
X75.244Y-104.791
X75.244Y-107.331
X75.244Y-109.871
X75.244Y-112.411
X75.244Y-114.951
X75.244Y-117.491
X75.244Y-120.031
X75.244Y-122.571
X75.244Y-125.111
X75.244Y-127.651
X75.244Y-130.191
X75.244Y-132.731
X75.244Y-135.271
X75.244Y-137.811
X75.293Y-153.674
X80.366Y-147.944
X81.636Y-145.744
X82.906Y-143.544
X90.879Y-135.814
X91.729Y-132.614
T2
G00X85.36Y-113.9
M15
G01X85.96Y-113.9
M16
G05
G00X85.36Y-122.54
M15
G01X85.96Y-122.54
M16
G05
G00X89.16Y-113.9
M15
G01X89.76Y-113.9
M16
G05
G00X89.16Y-122.54
M15
G01X89.76Y-122.54
M16
G05
T0
M30
