%TF.GenerationSoftware,KiCad,Pcbnew,7.0.8*%
%TF.CreationDate,2024-08-01T15:22:41+02:00*%
%TF.ProjectId,Pflanzensensor,32303234-3036-4303-965f-50666c616e7a,rev?*%
%TF.SameCoordinates,Original*%
%TF.FileFunction,Soldermask,Bot*%
%TF.FilePolarity,Negative*%
%FSLAX46Y46*%
G04 Gerber Fmt 4.6, Leading zero omitted, Abs format (unit mm)*
G04 Created by KiCad (PCBNEW 7.0.8) date 2024-08-01 15:22:41*
%MOMM*%
%LPD*%
G01*
G04 APERTURE LIST*
G04 Aperture macros list*
%AMRoundRect*
0 Rectangle with rounded corners*
0 $1 Rounding radius*
0 $2 $3 $4 $5 $6 $7 $8 $9 X,Y pos of 4 corners*
0 Add a 4 corners polygon primitive as box body*
4,1,4,$2,$3,$4,$5,$6,$7,$8,$9,$2,$3,0*
0 Add four circle primitives for the rounded corners*
1,1,$1+$1,$2,$3*
1,1,$1+$1,$4,$5*
1,1,$1+$1,$6,$7*
1,1,$1+$1,$8,$9*
0 Add four rect primitives between the rounded corners*
20,1,$1+$1,$2,$3,$4,$5,0*
20,1,$1+$1,$4,$5,$6,$7,0*
20,1,$1+$1,$6,$7,$8,$9,0*
20,1,$1+$1,$8,$9,$2,$3,0*%
%AMHorizOval*
0 Thick line with rounded ends*
0 $1 width*
0 $2 $3 position (X,Y) of the first rounded end (center of the circle)*
0 $4 $5 position (X,Y) of the second rounded end (center of the circle)*
0 Add line between two ends*
20,1,$1,$2,$3,$4,$5,0*
0 Add two circle primitives to create the rounded ends*
1,1,$1,$2,$3*
1,1,$1,$4,$5*%
%AMRotRect*
0 Rectangle, with rotation*
0 The origin of the aperture is its center*
0 $1 length*
0 $2 width*
0 $3 Rotation angle, in degrees counterclockwise*
0 Add horizontal line*
21,1,$1,$2,0,0,$3*%
G04 Aperture macros list end*
%ADD10C,0.010000*%
%ADD11HorizOval,2.000000X-0.984808X0.173648X0.984808X-0.173648X0*%
%ADD12RotRect,1.700000X1.700000X330.000000*%
%ADD13HorizOval,1.700000X0.000000X0.000000X0.000000X0.000000X0*%
%ADD14R,1.800000X1.800000*%
%ADD15C,1.800000*%
%ADD16R,1.600000X1.600000*%
%ADD17O,1.600000X1.600000*%
%ADD18RotRect,1.700000X1.700000X240.000000*%
%ADD19HorizOval,1.700000X0.000000X0.000000X0.000000X0.000000X0*%
%ADD20RotRect,1.700000X1.700000X210.000000*%
%ADD21HorizOval,1.700000X0.000000X0.000000X0.000000X0.000000X0*%
%ADD22R,1.500000X1.500000*%
%ADD23C,1.500000*%
%ADD24R,1.700000X1.700000*%
%ADD25O,1.700000X1.700000*%
%ADD26RotRect,1.700000X1.700000X190.000000*%
%ADD27HorizOval,1.700000X0.000000X0.000000X0.000000X0.000000X0*%
%ADD28RotRect,1.700000X1.700000X300.000000*%
%ADD29HorizOval,1.700000X0.000000X0.000000X0.000000X0.000000X0*%
%ADD30RoundRect,0.750000X0.000000X0.000000X0.000000X0.000000X0.000000X0.000000X0.000000X0.000000X0*%
%ADD31C,1.600000*%
G04 APERTURE END LIST*
%TO.C,Vin*%
D10*
X85994000Y-121891000D02*
X86028000Y-121894000D01*
X86062000Y-121898000D01*
X86095000Y-121904000D01*
X86128000Y-121912000D01*
X86161000Y-121922000D01*
X86193000Y-121933000D01*
X86224000Y-121946000D01*
X86255000Y-121961000D01*
X86285000Y-121977000D01*
X86314000Y-121995000D01*
X86342000Y-122014000D01*
X86369000Y-122035000D01*
X86395000Y-122057000D01*
X86420000Y-122080000D01*
X86443000Y-122105000D01*
X86465000Y-122131000D01*
X86486000Y-122158000D01*
X86505000Y-122186000D01*
X86523000Y-122215000D01*
X86539000Y-122245000D01*
X86554000Y-122276000D01*
X86567000Y-122307000D01*
X86578000Y-122339000D01*
X86588000Y-122372000D01*
X86596000Y-122405000D01*
X86602000Y-122438000D01*
X86606000Y-122472000D01*
X86609000Y-122506000D01*
X86610000Y-122540000D01*
X86609000Y-122574000D01*
X86606000Y-122608000D01*
X86602000Y-122642000D01*
X86596000Y-122675000D01*
X86588000Y-122708000D01*
X86578000Y-122741000D01*
X86567000Y-122773000D01*
X86554000Y-122804000D01*
X86539000Y-122835000D01*
X86523000Y-122865000D01*
X86505000Y-122894000D01*
X86486000Y-122922000D01*
X86465000Y-122949000D01*
X86443000Y-122975000D01*
X86420000Y-123000000D01*
X86395000Y-123023000D01*
X86369000Y-123045000D01*
X86342000Y-123066000D01*
X86314000Y-123085000D01*
X86285000Y-123103000D01*
X86255000Y-123119000D01*
X86224000Y-123134000D01*
X86193000Y-123147000D01*
X86161000Y-123158000D01*
X86128000Y-123168000D01*
X86095000Y-123176000D01*
X86062000Y-123182000D01*
X86028000Y-123186000D01*
X85994000Y-123189000D01*
X85960000Y-123190000D01*
X85360000Y-123190000D01*
X85326000Y-123189000D01*
X85292000Y-123186000D01*
X85258000Y-123182000D01*
X85225000Y-123176000D01*
X85192000Y-123168000D01*
X85159000Y-123158000D01*
X85127000Y-123147000D01*
X85096000Y-123134000D01*
X85065000Y-123119000D01*
X85035000Y-123103000D01*
X85006000Y-123085000D01*
X84978000Y-123066000D01*
X84951000Y-123045000D01*
X84925000Y-123023000D01*
X84900000Y-123000000D01*
X84877000Y-122975000D01*
X84855000Y-122949000D01*
X84834000Y-122922000D01*
X84815000Y-122894000D01*
X84797000Y-122865000D01*
X84781000Y-122835000D01*
X84766000Y-122804000D01*
X84753000Y-122773000D01*
X84742000Y-122741000D01*
X84732000Y-122708000D01*
X84724000Y-122675000D01*
X84718000Y-122642000D01*
X84714000Y-122608000D01*
X84711000Y-122574000D01*
X84710000Y-122540000D01*
X84711000Y-122506000D01*
X84714000Y-122472000D01*
X84718000Y-122438000D01*
X84724000Y-122405000D01*
X84732000Y-122372000D01*
X84742000Y-122339000D01*
X84753000Y-122307000D01*
X84766000Y-122276000D01*
X84781000Y-122245000D01*
X84797000Y-122215000D01*
X84815000Y-122186000D01*
X84834000Y-122158000D01*
X84855000Y-122131000D01*
X84877000Y-122105000D01*
X84900000Y-122080000D01*
X84925000Y-122057000D01*
X84951000Y-122035000D01*
X84978000Y-122014000D01*
X85006000Y-121995000D01*
X85035000Y-121977000D01*
X85065000Y-121961000D01*
X85096000Y-121946000D01*
X85127000Y-121933000D01*
X85159000Y-121922000D01*
X85192000Y-121912000D01*
X85225000Y-121904000D01*
X85258000Y-121898000D01*
X85292000Y-121894000D01*
X85326000Y-121891000D01*
X85360000Y-121890000D01*
X85960000Y-121890000D01*
X85994000Y-121891000D01*
G36*
X85994000Y-121891000D02*
G01*
X86028000Y-121894000D01*
X86062000Y-121898000D01*
X86095000Y-121904000D01*
X86128000Y-121912000D01*
X86161000Y-121922000D01*
X86193000Y-121933000D01*
X86224000Y-121946000D01*
X86255000Y-121961000D01*
X86285000Y-121977000D01*
X86314000Y-121995000D01*
X86342000Y-122014000D01*
X86369000Y-122035000D01*
X86395000Y-122057000D01*
X86420000Y-122080000D01*
X86443000Y-122105000D01*
X86465000Y-122131000D01*
X86486000Y-122158000D01*
X86505000Y-122186000D01*
X86523000Y-122215000D01*
X86539000Y-122245000D01*
X86554000Y-122276000D01*
X86567000Y-122307000D01*
X86578000Y-122339000D01*
X86588000Y-122372000D01*
X86596000Y-122405000D01*
X86602000Y-122438000D01*
X86606000Y-122472000D01*
X86609000Y-122506000D01*
X86610000Y-122540000D01*
X86609000Y-122574000D01*
X86606000Y-122608000D01*
X86602000Y-122642000D01*
X86596000Y-122675000D01*
X86588000Y-122708000D01*
X86578000Y-122741000D01*
X86567000Y-122773000D01*
X86554000Y-122804000D01*
X86539000Y-122835000D01*
X86523000Y-122865000D01*
X86505000Y-122894000D01*
X86486000Y-122922000D01*
X86465000Y-122949000D01*
X86443000Y-122975000D01*
X86420000Y-123000000D01*
X86395000Y-123023000D01*
X86369000Y-123045000D01*
X86342000Y-123066000D01*
X86314000Y-123085000D01*
X86285000Y-123103000D01*
X86255000Y-123119000D01*
X86224000Y-123134000D01*
X86193000Y-123147000D01*
X86161000Y-123158000D01*
X86128000Y-123168000D01*
X86095000Y-123176000D01*
X86062000Y-123182000D01*
X86028000Y-123186000D01*
X85994000Y-123189000D01*
X85960000Y-123190000D01*
X85360000Y-123190000D01*
X85326000Y-123189000D01*
X85292000Y-123186000D01*
X85258000Y-123182000D01*
X85225000Y-123176000D01*
X85192000Y-123168000D01*
X85159000Y-123158000D01*
X85127000Y-123147000D01*
X85096000Y-123134000D01*
X85065000Y-123119000D01*
X85035000Y-123103000D01*
X85006000Y-123085000D01*
X84978000Y-123066000D01*
X84951000Y-123045000D01*
X84925000Y-123023000D01*
X84900000Y-123000000D01*
X84877000Y-122975000D01*
X84855000Y-122949000D01*
X84834000Y-122922000D01*
X84815000Y-122894000D01*
X84797000Y-122865000D01*
X84781000Y-122835000D01*
X84766000Y-122804000D01*
X84753000Y-122773000D01*
X84742000Y-122741000D01*
X84732000Y-122708000D01*
X84724000Y-122675000D01*
X84718000Y-122642000D01*
X84714000Y-122608000D01*
X84711000Y-122574000D01*
X84710000Y-122540000D01*
X84711000Y-122506000D01*
X84714000Y-122472000D01*
X84718000Y-122438000D01*
X84724000Y-122405000D01*
X84732000Y-122372000D01*
X84742000Y-122339000D01*
X84753000Y-122307000D01*
X84766000Y-122276000D01*
X84781000Y-122245000D01*
X84797000Y-122215000D01*
X84815000Y-122186000D01*
X84834000Y-122158000D01*
X84855000Y-122131000D01*
X84877000Y-122105000D01*
X84900000Y-122080000D01*
X84925000Y-122057000D01*
X84951000Y-122035000D01*
X84978000Y-122014000D01*
X85006000Y-121995000D01*
X85035000Y-121977000D01*
X85065000Y-121961000D01*
X85096000Y-121946000D01*
X85127000Y-121933000D01*
X85159000Y-121922000D01*
X85192000Y-121912000D01*
X85225000Y-121904000D01*
X85258000Y-121898000D01*
X85292000Y-121894000D01*
X85326000Y-121891000D01*
X85360000Y-121890000D01*
X85960000Y-121890000D01*
X85994000Y-121891000D01*
G37*
X89794000Y-121891000D02*
X89828000Y-121894000D01*
X89862000Y-121898000D01*
X89895000Y-121904000D01*
X89928000Y-121912000D01*
X89961000Y-121922000D01*
X89993000Y-121933000D01*
X90024000Y-121946000D01*
X90055000Y-121961000D01*
X90085000Y-121977000D01*
X90114000Y-121995000D01*
X90142000Y-122014000D01*
X90169000Y-122035000D01*
X90195000Y-122057000D01*
X90220000Y-122080000D01*
X90243000Y-122105000D01*
X90265000Y-122131000D01*
X90286000Y-122158000D01*
X90305000Y-122186000D01*
X90323000Y-122215000D01*
X90339000Y-122245000D01*
X90354000Y-122276000D01*
X90367000Y-122307000D01*
X90378000Y-122339000D01*
X90388000Y-122372000D01*
X90396000Y-122405000D01*
X90402000Y-122438000D01*
X90406000Y-122472000D01*
X90409000Y-122506000D01*
X90410000Y-122540000D01*
X90409000Y-122574000D01*
X90406000Y-122608000D01*
X90402000Y-122642000D01*
X90396000Y-122675000D01*
X90388000Y-122708000D01*
X90378000Y-122741000D01*
X90367000Y-122773000D01*
X90354000Y-122804000D01*
X90339000Y-122835000D01*
X90323000Y-122865000D01*
X90305000Y-122894000D01*
X90286000Y-122922000D01*
X90265000Y-122949000D01*
X90243000Y-122975000D01*
X90220000Y-123000000D01*
X90195000Y-123023000D01*
X90169000Y-123045000D01*
X90142000Y-123066000D01*
X90114000Y-123085000D01*
X90085000Y-123103000D01*
X90055000Y-123119000D01*
X90024000Y-123134000D01*
X89993000Y-123147000D01*
X89961000Y-123158000D01*
X89928000Y-123168000D01*
X89895000Y-123176000D01*
X89862000Y-123182000D01*
X89828000Y-123186000D01*
X89794000Y-123189000D01*
X89760000Y-123190000D01*
X89160000Y-123190000D01*
X89126000Y-123189000D01*
X89092000Y-123186000D01*
X89058000Y-123182000D01*
X89025000Y-123176000D01*
X88992000Y-123168000D01*
X88959000Y-123158000D01*
X88927000Y-123147000D01*
X88896000Y-123134000D01*
X88865000Y-123119000D01*
X88835000Y-123103000D01*
X88806000Y-123085000D01*
X88778000Y-123066000D01*
X88751000Y-123045000D01*
X88725000Y-123023000D01*
X88700000Y-123000000D01*
X88677000Y-122975000D01*
X88655000Y-122949000D01*
X88634000Y-122922000D01*
X88615000Y-122894000D01*
X88597000Y-122865000D01*
X88581000Y-122835000D01*
X88566000Y-122804000D01*
X88553000Y-122773000D01*
X88542000Y-122741000D01*
X88532000Y-122708000D01*
X88524000Y-122675000D01*
X88518000Y-122642000D01*
X88514000Y-122608000D01*
X88511000Y-122574000D01*
X88510000Y-122540000D01*
X88511000Y-122506000D01*
X88514000Y-122472000D01*
X88518000Y-122438000D01*
X88524000Y-122405000D01*
X88532000Y-122372000D01*
X88542000Y-122339000D01*
X88553000Y-122307000D01*
X88566000Y-122276000D01*
X88581000Y-122245000D01*
X88597000Y-122215000D01*
X88615000Y-122186000D01*
X88634000Y-122158000D01*
X88655000Y-122131000D01*
X88677000Y-122105000D01*
X88700000Y-122080000D01*
X88725000Y-122057000D01*
X88751000Y-122035000D01*
X88778000Y-122014000D01*
X88806000Y-121995000D01*
X88835000Y-121977000D01*
X88865000Y-121961000D01*
X88896000Y-121946000D01*
X88927000Y-121933000D01*
X88959000Y-121922000D01*
X88992000Y-121912000D01*
X89025000Y-121904000D01*
X89058000Y-121898000D01*
X89092000Y-121894000D01*
X89126000Y-121891000D01*
X89160000Y-121890000D01*
X89760000Y-121890000D01*
X89794000Y-121891000D01*
G36*
X89794000Y-121891000D02*
G01*
X89828000Y-121894000D01*
X89862000Y-121898000D01*
X89895000Y-121904000D01*
X89928000Y-121912000D01*
X89961000Y-121922000D01*
X89993000Y-121933000D01*
X90024000Y-121946000D01*
X90055000Y-121961000D01*
X90085000Y-121977000D01*
X90114000Y-121995000D01*
X90142000Y-122014000D01*
X90169000Y-122035000D01*
X90195000Y-122057000D01*
X90220000Y-122080000D01*
X90243000Y-122105000D01*
X90265000Y-122131000D01*
X90286000Y-122158000D01*
X90305000Y-122186000D01*
X90323000Y-122215000D01*
X90339000Y-122245000D01*
X90354000Y-122276000D01*
X90367000Y-122307000D01*
X90378000Y-122339000D01*
X90388000Y-122372000D01*
X90396000Y-122405000D01*
X90402000Y-122438000D01*
X90406000Y-122472000D01*
X90409000Y-122506000D01*
X90410000Y-122540000D01*
X90409000Y-122574000D01*
X90406000Y-122608000D01*
X90402000Y-122642000D01*
X90396000Y-122675000D01*
X90388000Y-122708000D01*
X90378000Y-122741000D01*
X90367000Y-122773000D01*
X90354000Y-122804000D01*
X90339000Y-122835000D01*
X90323000Y-122865000D01*
X90305000Y-122894000D01*
X90286000Y-122922000D01*
X90265000Y-122949000D01*
X90243000Y-122975000D01*
X90220000Y-123000000D01*
X90195000Y-123023000D01*
X90169000Y-123045000D01*
X90142000Y-123066000D01*
X90114000Y-123085000D01*
X90085000Y-123103000D01*
X90055000Y-123119000D01*
X90024000Y-123134000D01*
X89993000Y-123147000D01*
X89961000Y-123158000D01*
X89928000Y-123168000D01*
X89895000Y-123176000D01*
X89862000Y-123182000D01*
X89828000Y-123186000D01*
X89794000Y-123189000D01*
X89760000Y-123190000D01*
X89160000Y-123190000D01*
X89126000Y-123189000D01*
X89092000Y-123186000D01*
X89058000Y-123182000D01*
X89025000Y-123176000D01*
X88992000Y-123168000D01*
X88959000Y-123158000D01*
X88927000Y-123147000D01*
X88896000Y-123134000D01*
X88865000Y-123119000D01*
X88835000Y-123103000D01*
X88806000Y-123085000D01*
X88778000Y-123066000D01*
X88751000Y-123045000D01*
X88725000Y-123023000D01*
X88700000Y-123000000D01*
X88677000Y-122975000D01*
X88655000Y-122949000D01*
X88634000Y-122922000D01*
X88615000Y-122894000D01*
X88597000Y-122865000D01*
X88581000Y-122835000D01*
X88566000Y-122804000D01*
X88553000Y-122773000D01*
X88542000Y-122741000D01*
X88532000Y-122708000D01*
X88524000Y-122675000D01*
X88518000Y-122642000D01*
X88514000Y-122608000D01*
X88511000Y-122574000D01*
X88510000Y-122540000D01*
X88511000Y-122506000D01*
X88514000Y-122472000D01*
X88518000Y-122438000D01*
X88524000Y-122405000D01*
X88532000Y-122372000D01*
X88542000Y-122339000D01*
X88553000Y-122307000D01*
X88566000Y-122276000D01*
X88581000Y-122245000D01*
X88597000Y-122215000D01*
X88615000Y-122186000D01*
X88634000Y-122158000D01*
X88655000Y-122131000D01*
X88677000Y-122105000D01*
X88700000Y-122080000D01*
X88725000Y-122057000D01*
X88751000Y-122035000D01*
X88778000Y-122014000D01*
X88806000Y-121995000D01*
X88835000Y-121977000D01*
X88865000Y-121961000D01*
X88896000Y-121946000D01*
X88927000Y-121933000D01*
X88959000Y-121922000D01*
X88992000Y-121912000D01*
X89025000Y-121904000D01*
X89058000Y-121898000D01*
X89092000Y-121894000D01*
X89126000Y-121891000D01*
X89160000Y-121890000D01*
X89760000Y-121890000D01*
X89794000Y-121891000D01*
G37*
X85994000Y-113251000D02*
X86028000Y-113254000D01*
X86062000Y-113258000D01*
X86095000Y-113264000D01*
X86128000Y-113272000D01*
X86161000Y-113282000D01*
X86193000Y-113293000D01*
X86224000Y-113306000D01*
X86255000Y-113321000D01*
X86285000Y-113337000D01*
X86314000Y-113355000D01*
X86342000Y-113374000D01*
X86369000Y-113395000D01*
X86395000Y-113417000D01*
X86420000Y-113440000D01*
X86443000Y-113465000D01*
X86465000Y-113491000D01*
X86486000Y-113518000D01*
X86505000Y-113546000D01*
X86523000Y-113575000D01*
X86539000Y-113605000D01*
X86554000Y-113636000D01*
X86567000Y-113667000D01*
X86578000Y-113699000D01*
X86588000Y-113732000D01*
X86596000Y-113765000D01*
X86602000Y-113798000D01*
X86606000Y-113832000D01*
X86609000Y-113866000D01*
X86610000Y-113900000D01*
X86609000Y-113934000D01*
X86606000Y-113968000D01*
X86602000Y-114002000D01*
X86596000Y-114035000D01*
X86588000Y-114068000D01*
X86578000Y-114101000D01*
X86567000Y-114133000D01*
X86554000Y-114164000D01*
X86539000Y-114195000D01*
X86523000Y-114225000D01*
X86505000Y-114254000D01*
X86486000Y-114282000D01*
X86465000Y-114309000D01*
X86443000Y-114335000D01*
X86420000Y-114360000D01*
X86395000Y-114383000D01*
X86369000Y-114405000D01*
X86342000Y-114426000D01*
X86314000Y-114445000D01*
X86285000Y-114463000D01*
X86255000Y-114479000D01*
X86224000Y-114494000D01*
X86193000Y-114507000D01*
X86161000Y-114518000D01*
X86128000Y-114528000D01*
X86095000Y-114536000D01*
X86062000Y-114542000D01*
X86028000Y-114546000D01*
X85994000Y-114549000D01*
X85960000Y-114550000D01*
X85360000Y-114550000D01*
X85326000Y-114549000D01*
X85292000Y-114546000D01*
X85258000Y-114542000D01*
X85225000Y-114536000D01*
X85192000Y-114528000D01*
X85159000Y-114518000D01*
X85127000Y-114507000D01*
X85096000Y-114494000D01*
X85065000Y-114479000D01*
X85035000Y-114463000D01*
X85006000Y-114445000D01*
X84978000Y-114426000D01*
X84951000Y-114405000D01*
X84925000Y-114383000D01*
X84900000Y-114360000D01*
X84877000Y-114335000D01*
X84855000Y-114309000D01*
X84834000Y-114282000D01*
X84815000Y-114254000D01*
X84797000Y-114225000D01*
X84781000Y-114195000D01*
X84766000Y-114164000D01*
X84753000Y-114133000D01*
X84742000Y-114101000D01*
X84732000Y-114068000D01*
X84724000Y-114035000D01*
X84718000Y-114002000D01*
X84714000Y-113968000D01*
X84711000Y-113934000D01*
X84710000Y-113900000D01*
X84711000Y-113866000D01*
X84714000Y-113832000D01*
X84718000Y-113798000D01*
X84724000Y-113765000D01*
X84732000Y-113732000D01*
X84742000Y-113699000D01*
X84753000Y-113667000D01*
X84766000Y-113636000D01*
X84781000Y-113605000D01*
X84797000Y-113575000D01*
X84815000Y-113546000D01*
X84834000Y-113518000D01*
X84855000Y-113491000D01*
X84877000Y-113465000D01*
X84900000Y-113440000D01*
X84925000Y-113417000D01*
X84951000Y-113395000D01*
X84978000Y-113374000D01*
X85006000Y-113355000D01*
X85035000Y-113337000D01*
X85065000Y-113321000D01*
X85096000Y-113306000D01*
X85127000Y-113293000D01*
X85159000Y-113282000D01*
X85192000Y-113272000D01*
X85225000Y-113264000D01*
X85258000Y-113258000D01*
X85292000Y-113254000D01*
X85326000Y-113251000D01*
X85360000Y-113250000D01*
X85960000Y-113250000D01*
X85994000Y-113251000D01*
G36*
X85994000Y-113251000D02*
G01*
X86028000Y-113254000D01*
X86062000Y-113258000D01*
X86095000Y-113264000D01*
X86128000Y-113272000D01*
X86161000Y-113282000D01*
X86193000Y-113293000D01*
X86224000Y-113306000D01*
X86255000Y-113321000D01*
X86285000Y-113337000D01*
X86314000Y-113355000D01*
X86342000Y-113374000D01*
X86369000Y-113395000D01*
X86395000Y-113417000D01*
X86420000Y-113440000D01*
X86443000Y-113465000D01*
X86465000Y-113491000D01*
X86486000Y-113518000D01*
X86505000Y-113546000D01*
X86523000Y-113575000D01*
X86539000Y-113605000D01*
X86554000Y-113636000D01*
X86567000Y-113667000D01*
X86578000Y-113699000D01*
X86588000Y-113732000D01*
X86596000Y-113765000D01*
X86602000Y-113798000D01*
X86606000Y-113832000D01*
X86609000Y-113866000D01*
X86610000Y-113900000D01*
X86609000Y-113934000D01*
X86606000Y-113968000D01*
X86602000Y-114002000D01*
X86596000Y-114035000D01*
X86588000Y-114068000D01*
X86578000Y-114101000D01*
X86567000Y-114133000D01*
X86554000Y-114164000D01*
X86539000Y-114195000D01*
X86523000Y-114225000D01*
X86505000Y-114254000D01*
X86486000Y-114282000D01*
X86465000Y-114309000D01*
X86443000Y-114335000D01*
X86420000Y-114360000D01*
X86395000Y-114383000D01*
X86369000Y-114405000D01*
X86342000Y-114426000D01*
X86314000Y-114445000D01*
X86285000Y-114463000D01*
X86255000Y-114479000D01*
X86224000Y-114494000D01*
X86193000Y-114507000D01*
X86161000Y-114518000D01*
X86128000Y-114528000D01*
X86095000Y-114536000D01*
X86062000Y-114542000D01*
X86028000Y-114546000D01*
X85994000Y-114549000D01*
X85960000Y-114550000D01*
X85360000Y-114550000D01*
X85326000Y-114549000D01*
X85292000Y-114546000D01*
X85258000Y-114542000D01*
X85225000Y-114536000D01*
X85192000Y-114528000D01*
X85159000Y-114518000D01*
X85127000Y-114507000D01*
X85096000Y-114494000D01*
X85065000Y-114479000D01*
X85035000Y-114463000D01*
X85006000Y-114445000D01*
X84978000Y-114426000D01*
X84951000Y-114405000D01*
X84925000Y-114383000D01*
X84900000Y-114360000D01*
X84877000Y-114335000D01*
X84855000Y-114309000D01*
X84834000Y-114282000D01*
X84815000Y-114254000D01*
X84797000Y-114225000D01*
X84781000Y-114195000D01*
X84766000Y-114164000D01*
X84753000Y-114133000D01*
X84742000Y-114101000D01*
X84732000Y-114068000D01*
X84724000Y-114035000D01*
X84718000Y-114002000D01*
X84714000Y-113968000D01*
X84711000Y-113934000D01*
X84710000Y-113900000D01*
X84711000Y-113866000D01*
X84714000Y-113832000D01*
X84718000Y-113798000D01*
X84724000Y-113765000D01*
X84732000Y-113732000D01*
X84742000Y-113699000D01*
X84753000Y-113667000D01*
X84766000Y-113636000D01*
X84781000Y-113605000D01*
X84797000Y-113575000D01*
X84815000Y-113546000D01*
X84834000Y-113518000D01*
X84855000Y-113491000D01*
X84877000Y-113465000D01*
X84900000Y-113440000D01*
X84925000Y-113417000D01*
X84951000Y-113395000D01*
X84978000Y-113374000D01*
X85006000Y-113355000D01*
X85035000Y-113337000D01*
X85065000Y-113321000D01*
X85096000Y-113306000D01*
X85127000Y-113293000D01*
X85159000Y-113282000D01*
X85192000Y-113272000D01*
X85225000Y-113264000D01*
X85258000Y-113258000D01*
X85292000Y-113254000D01*
X85326000Y-113251000D01*
X85360000Y-113250000D01*
X85960000Y-113250000D01*
X85994000Y-113251000D01*
G37*
X89794000Y-113251000D02*
X89828000Y-113254000D01*
X89862000Y-113258000D01*
X89895000Y-113264000D01*
X89928000Y-113272000D01*
X89961000Y-113282000D01*
X89993000Y-113293000D01*
X90024000Y-113306000D01*
X90055000Y-113321000D01*
X90085000Y-113337000D01*
X90114000Y-113355000D01*
X90142000Y-113374000D01*
X90169000Y-113395000D01*
X90195000Y-113417000D01*
X90220000Y-113440000D01*
X90243000Y-113465000D01*
X90265000Y-113491000D01*
X90286000Y-113518000D01*
X90305000Y-113546000D01*
X90323000Y-113575000D01*
X90339000Y-113605000D01*
X90354000Y-113636000D01*
X90367000Y-113667000D01*
X90378000Y-113699000D01*
X90388000Y-113732000D01*
X90396000Y-113765000D01*
X90402000Y-113798000D01*
X90406000Y-113832000D01*
X90409000Y-113866000D01*
X90410000Y-113900000D01*
X90409000Y-113934000D01*
X90406000Y-113968000D01*
X90402000Y-114002000D01*
X90396000Y-114035000D01*
X90388000Y-114068000D01*
X90378000Y-114101000D01*
X90367000Y-114133000D01*
X90354000Y-114164000D01*
X90339000Y-114195000D01*
X90323000Y-114225000D01*
X90305000Y-114254000D01*
X90286000Y-114282000D01*
X90265000Y-114309000D01*
X90243000Y-114335000D01*
X90220000Y-114360000D01*
X90195000Y-114383000D01*
X90169000Y-114405000D01*
X90142000Y-114426000D01*
X90114000Y-114445000D01*
X90085000Y-114463000D01*
X90055000Y-114479000D01*
X90024000Y-114494000D01*
X89993000Y-114507000D01*
X89961000Y-114518000D01*
X89928000Y-114528000D01*
X89895000Y-114536000D01*
X89862000Y-114542000D01*
X89828000Y-114546000D01*
X89794000Y-114549000D01*
X89760000Y-114550000D01*
X89160000Y-114550000D01*
X89126000Y-114549000D01*
X89092000Y-114546000D01*
X89058000Y-114542000D01*
X89025000Y-114536000D01*
X88992000Y-114528000D01*
X88959000Y-114518000D01*
X88927000Y-114507000D01*
X88896000Y-114494000D01*
X88865000Y-114479000D01*
X88835000Y-114463000D01*
X88806000Y-114445000D01*
X88778000Y-114426000D01*
X88751000Y-114405000D01*
X88725000Y-114383000D01*
X88700000Y-114360000D01*
X88677000Y-114335000D01*
X88655000Y-114309000D01*
X88634000Y-114282000D01*
X88615000Y-114254000D01*
X88597000Y-114225000D01*
X88581000Y-114195000D01*
X88566000Y-114164000D01*
X88553000Y-114133000D01*
X88542000Y-114101000D01*
X88532000Y-114068000D01*
X88524000Y-114035000D01*
X88518000Y-114002000D01*
X88514000Y-113968000D01*
X88511000Y-113934000D01*
X88510000Y-113900000D01*
X88511000Y-113866000D01*
X88514000Y-113832000D01*
X88518000Y-113798000D01*
X88524000Y-113765000D01*
X88532000Y-113732000D01*
X88542000Y-113699000D01*
X88553000Y-113667000D01*
X88566000Y-113636000D01*
X88581000Y-113605000D01*
X88597000Y-113575000D01*
X88615000Y-113546000D01*
X88634000Y-113518000D01*
X88655000Y-113491000D01*
X88677000Y-113465000D01*
X88700000Y-113440000D01*
X88725000Y-113417000D01*
X88751000Y-113395000D01*
X88778000Y-113374000D01*
X88806000Y-113355000D01*
X88835000Y-113337000D01*
X88865000Y-113321000D01*
X88896000Y-113306000D01*
X88927000Y-113293000D01*
X88959000Y-113282000D01*
X88992000Y-113272000D01*
X89025000Y-113264000D01*
X89058000Y-113258000D01*
X89092000Y-113254000D01*
X89126000Y-113251000D01*
X89160000Y-113250000D01*
X89760000Y-113250000D01*
X89794000Y-113251000D01*
G36*
X89794000Y-113251000D02*
G01*
X89828000Y-113254000D01*
X89862000Y-113258000D01*
X89895000Y-113264000D01*
X89928000Y-113272000D01*
X89961000Y-113282000D01*
X89993000Y-113293000D01*
X90024000Y-113306000D01*
X90055000Y-113321000D01*
X90085000Y-113337000D01*
X90114000Y-113355000D01*
X90142000Y-113374000D01*
X90169000Y-113395000D01*
X90195000Y-113417000D01*
X90220000Y-113440000D01*
X90243000Y-113465000D01*
X90265000Y-113491000D01*
X90286000Y-113518000D01*
X90305000Y-113546000D01*
X90323000Y-113575000D01*
X90339000Y-113605000D01*
X90354000Y-113636000D01*
X90367000Y-113667000D01*
X90378000Y-113699000D01*
X90388000Y-113732000D01*
X90396000Y-113765000D01*
X90402000Y-113798000D01*
X90406000Y-113832000D01*
X90409000Y-113866000D01*
X90410000Y-113900000D01*
X90409000Y-113934000D01*
X90406000Y-113968000D01*
X90402000Y-114002000D01*
X90396000Y-114035000D01*
X90388000Y-114068000D01*
X90378000Y-114101000D01*
X90367000Y-114133000D01*
X90354000Y-114164000D01*
X90339000Y-114195000D01*
X90323000Y-114225000D01*
X90305000Y-114254000D01*
X90286000Y-114282000D01*
X90265000Y-114309000D01*
X90243000Y-114335000D01*
X90220000Y-114360000D01*
X90195000Y-114383000D01*
X90169000Y-114405000D01*
X90142000Y-114426000D01*
X90114000Y-114445000D01*
X90085000Y-114463000D01*
X90055000Y-114479000D01*
X90024000Y-114494000D01*
X89993000Y-114507000D01*
X89961000Y-114518000D01*
X89928000Y-114528000D01*
X89895000Y-114536000D01*
X89862000Y-114542000D01*
X89828000Y-114546000D01*
X89794000Y-114549000D01*
X89760000Y-114550000D01*
X89160000Y-114550000D01*
X89126000Y-114549000D01*
X89092000Y-114546000D01*
X89058000Y-114542000D01*
X89025000Y-114536000D01*
X88992000Y-114528000D01*
X88959000Y-114518000D01*
X88927000Y-114507000D01*
X88896000Y-114494000D01*
X88865000Y-114479000D01*
X88835000Y-114463000D01*
X88806000Y-114445000D01*
X88778000Y-114426000D01*
X88751000Y-114405000D01*
X88725000Y-114383000D01*
X88700000Y-114360000D01*
X88677000Y-114335000D01*
X88655000Y-114309000D01*
X88634000Y-114282000D01*
X88615000Y-114254000D01*
X88597000Y-114225000D01*
X88581000Y-114195000D01*
X88566000Y-114164000D01*
X88553000Y-114133000D01*
X88542000Y-114101000D01*
X88532000Y-114068000D01*
X88524000Y-114035000D01*
X88518000Y-114002000D01*
X88514000Y-113968000D01*
X88511000Y-113934000D01*
X88510000Y-113900000D01*
X88511000Y-113866000D01*
X88514000Y-113832000D01*
X88518000Y-113798000D01*
X88524000Y-113765000D01*
X88532000Y-113732000D01*
X88542000Y-113699000D01*
X88553000Y-113667000D01*
X88566000Y-113636000D01*
X88581000Y-113605000D01*
X88597000Y-113575000D01*
X88615000Y-113546000D01*
X88634000Y-113518000D01*
X88655000Y-113491000D01*
X88677000Y-113465000D01*
X88700000Y-113440000D01*
X88725000Y-113417000D01*
X88751000Y-113395000D01*
X88778000Y-113374000D01*
X88806000Y-113355000D01*
X88835000Y-113337000D01*
X88865000Y-113321000D01*
X88896000Y-113306000D01*
X88927000Y-113293000D01*
X88959000Y-113282000D01*
X88992000Y-113272000D01*
X89025000Y-113264000D01*
X89058000Y-113258000D01*
X89092000Y-113254000D01*
X89126000Y-113251000D01*
X89160000Y-113250000D01*
X89760000Y-113250000D01*
X89794000Y-113251000D01*
G37*
%TD*%
D11*
%TO.C,-*%
X89894005Y-135640746D03*
%TD*%
D12*
%TO.C,X5*%
X82906338Y-143544456D03*
D13*
X81636338Y-145744161D03*
X80366338Y-147943865D03*
%TD*%
D14*
%TO.C,LEDR1*%
X55169005Y-42025746D03*
D15*
X52629005Y-42025746D03*
%TD*%
D16*
%TO.C,IC1*%
X46789005Y-123805746D03*
D17*
X46789005Y-121265746D03*
X46789005Y-118725746D03*
X46789005Y-116185746D03*
X46789005Y-113645746D03*
X46789005Y-111105746D03*
X46789005Y-108565746D03*
X46789005Y-106025746D03*
X39169005Y-106025746D03*
X39169005Y-108565746D03*
X39169005Y-111105746D03*
X39169005Y-113645746D03*
X39169005Y-116185746D03*
X39169005Y-118725746D03*
X39169005Y-121265746D03*
X39169005Y-123805746D03*
%TD*%
D18*
%TO.C,X0*%
X50168219Y-156199385D03*
D19*
X47968514Y-154929385D03*
X45768810Y-153659385D03*
%TD*%
D20*
%TO.C,X3*%
X40569005Y-147825746D03*
D21*
X39299005Y-145626041D03*
X38029005Y-143426337D03*
%TD*%
D22*
%TO.C,DHT11*%
X66695221Y-52675044D03*
D23*
X69235221Y-52675044D03*
X71775221Y-52675044D03*
X74315221Y-52675044D03*
%TD*%
D24*
%TO.C,X2*%
X62919005Y-157500746D03*
D25*
X60379005Y-157500746D03*
X57839005Y-157500746D03*
%TD*%
D26*
%TO.C,X6*%
X35894005Y-135500746D03*
D27*
X35452939Y-132999334D03*
X35011872Y-130497923D03*
%TD*%
D28*
%TO.C,X4*%
X75293219Y-153674385D03*
D29*
X73093514Y-154944385D03*
X70893810Y-156214385D03*
%TD*%
D30*
%TO.C,gndpad*%
X85610000Y-112115000D03*
%TD*%
D24*
%TO.C,SD3*%
X36844005Y-88200746D03*
D25*
X36844005Y-90740746D03*
X36844005Y-93280746D03*
%TD*%
D14*
%TO.C,LEDG1*%
X55169005Y-54325746D03*
D15*
X52629005Y-54325746D03*
%TD*%
D24*
%TO.C,ESP1*%
X52612605Y-102250746D03*
D25*
X52612605Y-104790746D03*
X52612605Y-107330746D03*
X52612605Y-109870746D03*
X52612605Y-112410746D03*
X52612605Y-114950746D03*
X52612605Y-117490746D03*
X52612605Y-120030746D03*
X52612605Y-122570746D03*
X52612605Y-125110746D03*
X52612605Y-127650746D03*
X52612605Y-130190746D03*
X52612605Y-132730746D03*
X52612605Y-135270746D03*
X52612605Y-137810746D03*
%TD*%
D11*
%TO.C,+*%
X90744005Y-132440746D03*
%TD*%
D24*
%TO.C,X1*%
X34369005Y-120855746D03*
D25*
X34369005Y-118315746D03*
X34369005Y-115775746D03*
%TD*%
D24*
%TO.C,ESP2*%
X75244005Y-102250746D03*
D25*
X75244005Y-104790746D03*
X75244005Y-107330746D03*
X75244005Y-109870746D03*
X75244005Y-112410746D03*
X75244005Y-114950746D03*
X75244005Y-117490746D03*
X75244005Y-120030746D03*
X75244005Y-122570746D03*
X75244005Y-125110746D03*
X75244005Y-127650746D03*
X75244005Y-130190746D03*
X75244005Y-132730746D03*
X75244005Y-135270746D03*
X75244005Y-137810746D03*
%TD*%
D23*
%TO.C,PHR1*%
X73144005Y-26125746D03*
X69744005Y-26125746D03*
%TD*%
D14*
%TO.C,LEDY1*%
X55169005Y-48075746D03*
D15*
X52629005Y-48075746D03*
%TD*%
D24*
%TO.C,SD2*%
X38769005Y-77525746D03*
D25*
X38769005Y-80065746D03*
X38769005Y-82605746D03*
%TD*%
D24*
%TO.C,SD1*%
X41644005Y-66835746D03*
D25*
X41644005Y-69375746D03*
X41644005Y-71915746D03*
%TD*%
D16*
%TO.C,C1*%
X82519005Y-128175746D03*
D31*
X82519005Y-131675746D03*
%TD*%
D24*
%TO.C,DH1*%
X65116580Y-61161484D03*
D25*
X67656580Y-61161484D03*
X70196580Y-61161484D03*
X72736580Y-61161484D03*
%TD*%
M02*
