%TF.GenerationSoftware,KiCad,Pcbnew,7.0.8*%
%TF.CreationDate,2024-08-01T15:22:41+02:00*%
%TF.ProjectId,Pflanzensensor,32303234-3036-4303-965f-50666c616e7a,rev?*%
%TF.SameCoordinates,Original*%
%TF.FileFunction,Copper,L2,Bot*%
%TF.FilePolarity,Positive*%
%FSLAX46Y46*%
G04 Gerber Fmt 4.6, Leading zero omitted, Abs format (unit mm)*
G04 Created by KiCad (PCBNEW 7.0.8) date 2024-08-01 15:22:41*
%MOMM*%
%LPD*%
G01*
G04 APERTURE LIST*
G04 Aperture macros list*
%AMRoundRect*
0 Rectangle with rounded corners*
0 $1 Rounding radius*
0 $2 $3 $4 $5 $6 $7 $8 $9 X,Y pos of 4 corners*
0 Add a 4 corners polygon primitive as box body*
4,1,4,$2,$3,$4,$5,$6,$7,$8,$9,$2,$3,0*
0 Add four circle primitives for the rounded corners*
1,1,$1+$1,$2,$3*
1,1,$1+$1,$4,$5*
1,1,$1+$1,$6,$7*
1,1,$1+$1,$8,$9*
0 Add four rect primitives between the rounded corners*
20,1,$1+$1,$2,$3,$4,$5,0*
20,1,$1+$1,$4,$5,$6,$7,0*
20,1,$1+$1,$6,$7,$8,$9,0*
20,1,$1+$1,$8,$9,$2,$3,0*%
%AMHorizOval*
0 Thick line with rounded ends*
0 $1 width*
0 $2 $3 position (X,Y) of the first rounded end (center of the circle)*
0 $4 $5 position (X,Y) of the second rounded end (center of the circle)*
0 Add line between two ends*
20,1,$1,$2,$3,$4,$5,0*
0 Add two circle primitives to create the rounded ends*
1,1,$1,$2,$3*
1,1,$1,$4,$5*%
%AMRotRect*
0 Rectangle, with rotation*
0 The origin of the aperture is its center*
0 $1 length*
0 $2 width*
0 $3 Rotation angle, in degrees counterclockwise*
0 Add horizontal line*
21,1,$1,$2,0,0,$3*%
G04 Aperture macros list end*
%TA.AperFunction,EtchedComponent*%
%ADD10C,0.010000*%
%TD*%
%TA.AperFunction,ComponentPad*%
%ADD11HorizOval,2.000000X-0.984808X0.173648X0.984808X-0.173648X0*%
%TD*%
%TA.AperFunction,ComponentPad*%
%ADD12RotRect,1.700000X1.700000X330.000000*%
%TD*%
%TA.AperFunction,ComponentPad*%
%ADD13HorizOval,1.700000X0.000000X0.000000X0.000000X0.000000X0*%
%TD*%
%TA.AperFunction,ComponentPad*%
%ADD14R,1.800000X1.800000*%
%TD*%
%TA.AperFunction,ComponentPad*%
%ADD15C,1.800000*%
%TD*%
%TA.AperFunction,ComponentPad*%
%ADD16R,1.600000X1.600000*%
%TD*%
%TA.AperFunction,ComponentPad*%
%ADD17O,1.600000X1.600000*%
%TD*%
%TA.AperFunction,ComponentPad*%
%ADD18RotRect,1.700000X1.700000X240.000000*%
%TD*%
%TA.AperFunction,ComponentPad*%
%ADD19HorizOval,1.700000X0.000000X0.000000X0.000000X0.000000X0*%
%TD*%
%TA.AperFunction,ComponentPad*%
%ADD20RotRect,1.700000X1.700000X210.000000*%
%TD*%
%TA.AperFunction,ComponentPad*%
%ADD21HorizOval,1.700000X0.000000X0.000000X0.000000X0.000000X0*%
%TD*%
%TA.AperFunction,ComponentPad*%
%ADD22O,1.600000X0.800000*%
%TD*%
%TA.AperFunction,ComponentPad*%
%ADD23R,1.500000X1.500000*%
%TD*%
%TA.AperFunction,ComponentPad*%
%ADD24C,1.500000*%
%TD*%
%TA.AperFunction,ComponentPad*%
%ADD25R,1.700000X1.700000*%
%TD*%
%TA.AperFunction,ComponentPad*%
%ADD26O,1.700000X1.700000*%
%TD*%
%TA.AperFunction,ComponentPad*%
%ADD27RotRect,1.700000X1.700000X190.000000*%
%TD*%
%TA.AperFunction,ComponentPad*%
%ADD28HorizOval,1.700000X0.000000X0.000000X0.000000X0.000000X0*%
%TD*%
%TA.AperFunction,ComponentPad*%
%ADD29RotRect,1.700000X1.700000X300.000000*%
%TD*%
%TA.AperFunction,ComponentPad*%
%ADD30HorizOval,1.700000X0.000000X0.000000X0.000000X0.000000X0*%
%TD*%
%TA.AperFunction,SMDPad,CuDef*%
%ADD31RoundRect,0.750000X0.000000X0.000000X0.000000X0.000000X0.000000X0.000000X0.000000X0.000000X0*%
%TD*%
%TA.AperFunction,ComponentPad*%
%ADD32C,1.600000*%
%TD*%
%TA.AperFunction,ViaPad*%
%ADD33C,0.700000*%
%TD*%
%TA.AperFunction,Conductor*%
%ADD34C,0.700000*%
%TD*%
G04 APERTURE END LIST*
%TO.C,Vin*%
D10*
X85989000Y-121991000D02*
X86017000Y-121993000D01*
X86046000Y-121997000D01*
X86074000Y-122002000D01*
X86102000Y-122009000D01*
X86130000Y-122017000D01*
X86157000Y-122027000D01*
X86184000Y-122038000D01*
X86210000Y-122050000D01*
X86235000Y-122064000D01*
X86260000Y-122079000D01*
X86283000Y-122095000D01*
X86306000Y-122113000D01*
X86328000Y-122131000D01*
X86349000Y-122151000D01*
X86369000Y-122172000D01*
X86387000Y-122194000D01*
X86405000Y-122217000D01*
X86421000Y-122240000D01*
X86436000Y-122265000D01*
X86450000Y-122290000D01*
X86462000Y-122316000D01*
X86473000Y-122343000D01*
X86483000Y-122370000D01*
X86491000Y-122398000D01*
X86498000Y-122426000D01*
X86503000Y-122454000D01*
X86507000Y-122483000D01*
X86509000Y-122511000D01*
X86510000Y-122540000D01*
X86509000Y-122569000D01*
X86507000Y-122597000D01*
X86503000Y-122626000D01*
X86498000Y-122654000D01*
X86491000Y-122682000D01*
X86483000Y-122710000D01*
X86473000Y-122737000D01*
X86462000Y-122764000D01*
X86450000Y-122790000D01*
X86436000Y-122815000D01*
X86421000Y-122840000D01*
X86405000Y-122863000D01*
X86387000Y-122886000D01*
X86369000Y-122908000D01*
X86349000Y-122929000D01*
X86328000Y-122949000D01*
X86306000Y-122967000D01*
X86283000Y-122985000D01*
X86260000Y-123001000D01*
X86235000Y-123016000D01*
X86210000Y-123030000D01*
X86184000Y-123042000D01*
X86157000Y-123053000D01*
X86130000Y-123063000D01*
X86102000Y-123071000D01*
X86074000Y-123078000D01*
X86046000Y-123083000D01*
X86017000Y-123087000D01*
X85989000Y-123089000D01*
X85960000Y-123090000D01*
X85360000Y-123090000D01*
X85331000Y-123089000D01*
X85303000Y-123087000D01*
X85274000Y-123083000D01*
X85246000Y-123078000D01*
X85218000Y-123071000D01*
X85190000Y-123063000D01*
X85163000Y-123053000D01*
X85136000Y-123042000D01*
X85110000Y-123030000D01*
X85085000Y-123016000D01*
X85060000Y-123001000D01*
X85037000Y-122985000D01*
X85014000Y-122967000D01*
X84992000Y-122949000D01*
X84971000Y-122929000D01*
X84951000Y-122908000D01*
X84933000Y-122886000D01*
X84915000Y-122863000D01*
X84899000Y-122840000D01*
X84884000Y-122815000D01*
X84870000Y-122790000D01*
X84858000Y-122764000D01*
X84847000Y-122737000D01*
X84837000Y-122710000D01*
X84829000Y-122682000D01*
X84822000Y-122654000D01*
X84817000Y-122626000D01*
X84813000Y-122597000D01*
X84811000Y-122569000D01*
X84810000Y-122540000D01*
X84811000Y-122511000D01*
X84813000Y-122483000D01*
X84817000Y-122454000D01*
X84822000Y-122426000D01*
X84829000Y-122398000D01*
X84837000Y-122370000D01*
X84847000Y-122343000D01*
X84858000Y-122316000D01*
X84870000Y-122290000D01*
X84884000Y-122265000D01*
X84899000Y-122240000D01*
X84915000Y-122217000D01*
X84933000Y-122194000D01*
X84951000Y-122172000D01*
X84971000Y-122151000D01*
X84992000Y-122131000D01*
X85014000Y-122113000D01*
X85037000Y-122095000D01*
X85060000Y-122079000D01*
X85085000Y-122064000D01*
X85110000Y-122050000D01*
X85136000Y-122038000D01*
X85163000Y-122027000D01*
X85190000Y-122017000D01*
X85218000Y-122009000D01*
X85246000Y-122002000D01*
X85274000Y-121997000D01*
X85303000Y-121993000D01*
X85331000Y-121991000D01*
X85360000Y-121990000D01*
X85960000Y-121990000D01*
X85989000Y-121991000D01*
%TA.AperFunction,EtchedComponent*%
G36*
X85989000Y-121991000D02*
G01*
X86017000Y-121993000D01*
X86046000Y-121997000D01*
X86074000Y-122002000D01*
X86102000Y-122009000D01*
X86130000Y-122017000D01*
X86157000Y-122027000D01*
X86184000Y-122038000D01*
X86210000Y-122050000D01*
X86235000Y-122064000D01*
X86260000Y-122079000D01*
X86283000Y-122095000D01*
X86306000Y-122113000D01*
X86328000Y-122131000D01*
X86349000Y-122151000D01*
X86369000Y-122172000D01*
X86387000Y-122194000D01*
X86405000Y-122217000D01*
X86421000Y-122240000D01*
X86436000Y-122265000D01*
X86450000Y-122290000D01*
X86462000Y-122316000D01*
X86473000Y-122343000D01*
X86483000Y-122370000D01*
X86491000Y-122398000D01*
X86498000Y-122426000D01*
X86503000Y-122454000D01*
X86507000Y-122483000D01*
X86509000Y-122511000D01*
X86510000Y-122540000D01*
X86509000Y-122569000D01*
X86507000Y-122597000D01*
X86503000Y-122626000D01*
X86498000Y-122654000D01*
X86491000Y-122682000D01*
X86483000Y-122710000D01*
X86473000Y-122737000D01*
X86462000Y-122764000D01*
X86450000Y-122790000D01*
X86436000Y-122815000D01*
X86421000Y-122840000D01*
X86405000Y-122863000D01*
X86387000Y-122886000D01*
X86369000Y-122908000D01*
X86349000Y-122929000D01*
X86328000Y-122949000D01*
X86306000Y-122967000D01*
X86283000Y-122985000D01*
X86260000Y-123001000D01*
X86235000Y-123016000D01*
X86210000Y-123030000D01*
X86184000Y-123042000D01*
X86157000Y-123053000D01*
X86130000Y-123063000D01*
X86102000Y-123071000D01*
X86074000Y-123078000D01*
X86046000Y-123083000D01*
X86017000Y-123087000D01*
X85989000Y-123089000D01*
X85960000Y-123090000D01*
X85360000Y-123090000D01*
X85331000Y-123089000D01*
X85303000Y-123087000D01*
X85274000Y-123083000D01*
X85246000Y-123078000D01*
X85218000Y-123071000D01*
X85190000Y-123063000D01*
X85163000Y-123053000D01*
X85136000Y-123042000D01*
X85110000Y-123030000D01*
X85085000Y-123016000D01*
X85060000Y-123001000D01*
X85037000Y-122985000D01*
X85014000Y-122967000D01*
X84992000Y-122949000D01*
X84971000Y-122929000D01*
X84951000Y-122908000D01*
X84933000Y-122886000D01*
X84915000Y-122863000D01*
X84899000Y-122840000D01*
X84884000Y-122815000D01*
X84870000Y-122790000D01*
X84858000Y-122764000D01*
X84847000Y-122737000D01*
X84837000Y-122710000D01*
X84829000Y-122682000D01*
X84822000Y-122654000D01*
X84817000Y-122626000D01*
X84813000Y-122597000D01*
X84811000Y-122569000D01*
X84810000Y-122540000D01*
X84811000Y-122511000D01*
X84813000Y-122483000D01*
X84817000Y-122454000D01*
X84822000Y-122426000D01*
X84829000Y-122398000D01*
X84837000Y-122370000D01*
X84847000Y-122343000D01*
X84858000Y-122316000D01*
X84870000Y-122290000D01*
X84884000Y-122265000D01*
X84899000Y-122240000D01*
X84915000Y-122217000D01*
X84933000Y-122194000D01*
X84951000Y-122172000D01*
X84971000Y-122151000D01*
X84992000Y-122131000D01*
X85014000Y-122113000D01*
X85037000Y-122095000D01*
X85060000Y-122079000D01*
X85085000Y-122064000D01*
X85110000Y-122050000D01*
X85136000Y-122038000D01*
X85163000Y-122027000D01*
X85190000Y-122017000D01*
X85218000Y-122009000D01*
X85246000Y-122002000D01*
X85274000Y-121997000D01*
X85303000Y-121993000D01*
X85331000Y-121991000D01*
X85360000Y-121990000D01*
X85960000Y-121990000D01*
X85989000Y-121991000D01*
G37*
%TD.AperFunction*%
X89789000Y-121991000D02*
X89817000Y-121993000D01*
X89846000Y-121997000D01*
X89874000Y-122002000D01*
X89902000Y-122009000D01*
X89930000Y-122017000D01*
X89957000Y-122027000D01*
X89984000Y-122038000D01*
X90010000Y-122050000D01*
X90035000Y-122064000D01*
X90060000Y-122079000D01*
X90083000Y-122095000D01*
X90106000Y-122113000D01*
X90128000Y-122131000D01*
X90149000Y-122151000D01*
X90169000Y-122172000D01*
X90187000Y-122194000D01*
X90205000Y-122217000D01*
X90221000Y-122240000D01*
X90236000Y-122265000D01*
X90250000Y-122290000D01*
X90262000Y-122316000D01*
X90273000Y-122343000D01*
X90283000Y-122370000D01*
X90291000Y-122398000D01*
X90298000Y-122426000D01*
X90303000Y-122454000D01*
X90307000Y-122483000D01*
X90309000Y-122511000D01*
X90310000Y-122540000D01*
X90309000Y-122569000D01*
X90307000Y-122597000D01*
X90303000Y-122626000D01*
X90298000Y-122654000D01*
X90291000Y-122682000D01*
X90283000Y-122710000D01*
X90273000Y-122737000D01*
X90262000Y-122764000D01*
X90250000Y-122790000D01*
X90236000Y-122815000D01*
X90221000Y-122840000D01*
X90205000Y-122863000D01*
X90187000Y-122886000D01*
X90169000Y-122908000D01*
X90149000Y-122929000D01*
X90128000Y-122949000D01*
X90106000Y-122967000D01*
X90083000Y-122985000D01*
X90060000Y-123001000D01*
X90035000Y-123016000D01*
X90010000Y-123030000D01*
X89984000Y-123042000D01*
X89957000Y-123053000D01*
X89930000Y-123063000D01*
X89902000Y-123071000D01*
X89874000Y-123078000D01*
X89846000Y-123083000D01*
X89817000Y-123087000D01*
X89789000Y-123089000D01*
X89760000Y-123090000D01*
X89160000Y-123090000D01*
X89131000Y-123089000D01*
X89103000Y-123087000D01*
X89074000Y-123083000D01*
X89046000Y-123078000D01*
X89018000Y-123071000D01*
X88990000Y-123063000D01*
X88963000Y-123053000D01*
X88936000Y-123042000D01*
X88910000Y-123030000D01*
X88885000Y-123016000D01*
X88860000Y-123001000D01*
X88837000Y-122985000D01*
X88814000Y-122967000D01*
X88792000Y-122949000D01*
X88771000Y-122929000D01*
X88751000Y-122908000D01*
X88733000Y-122886000D01*
X88715000Y-122863000D01*
X88699000Y-122840000D01*
X88684000Y-122815000D01*
X88670000Y-122790000D01*
X88658000Y-122764000D01*
X88647000Y-122737000D01*
X88637000Y-122710000D01*
X88629000Y-122682000D01*
X88622000Y-122654000D01*
X88617000Y-122626000D01*
X88613000Y-122597000D01*
X88611000Y-122569000D01*
X88610000Y-122540000D01*
X88611000Y-122511000D01*
X88613000Y-122483000D01*
X88617000Y-122454000D01*
X88622000Y-122426000D01*
X88629000Y-122398000D01*
X88637000Y-122370000D01*
X88647000Y-122343000D01*
X88658000Y-122316000D01*
X88670000Y-122290000D01*
X88684000Y-122265000D01*
X88699000Y-122240000D01*
X88715000Y-122217000D01*
X88733000Y-122194000D01*
X88751000Y-122172000D01*
X88771000Y-122151000D01*
X88792000Y-122131000D01*
X88814000Y-122113000D01*
X88837000Y-122095000D01*
X88860000Y-122079000D01*
X88885000Y-122064000D01*
X88910000Y-122050000D01*
X88936000Y-122038000D01*
X88963000Y-122027000D01*
X88990000Y-122017000D01*
X89018000Y-122009000D01*
X89046000Y-122002000D01*
X89074000Y-121997000D01*
X89103000Y-121993000D01*
X89131000Y-121991000D01*
X89160000Y-121990000D01*
X89760000Y-121990000D01*
X89789000Y-121991000D01*
%TA.AperFunction,EtchedComponent*%
G36*
X89789000Y-121991000D02*
G01*
X89817000Y-121993000D01*
X89846000Y-121997000D01*
X89874000Y-122002000D01*
X89902000Y-122009000D01*
X89930000Y-122017000D01*
X89957000Y-122027000D01*
X89984000Y-122038000D01*
X90010000Y-122050000D01*
X90035000Y-122064000D01*
X90060000Y-122079000D01*
X90083000Y-122095000D01*
X90106000Y-122113000D01*
X90128000Y-122131000D01*
X90149000Y-122151000D01*
X90169000Y-122172000D01*
X90187000Y-122194000D01*
X90205000Y-122217000D01*
X90221000Y-122240000D01*
X90236000Y-122265000D01*
X90250000Y-122290000D01*
X90262000Y-122316000D01*
X90273000Y-122343000D01*
X90283000Y-122370000D01*
X90291000Y-122398000D01*
X90298000Y-122426000D01*
X90303000Y-122454000D01*
X90307000Y-122483000D01*
X90309000Y-122511000D01*
X90310000Y-122540000D01*
X90309000Y-122569000D01*
X90307000Y-122597000D01*
X90303000Y-122626000D01*
X90298000Y-122654000D01*
X90291000Y-122682000D01*
X90283000Y-122710000D01*
X90273000Y-122737000D01*
X90262000Y-122764000D01*
X90250000Y-122790000D01*
X90236000Y-122815000D01*
X90221000Y-122840000D01*
X90205000Y-122863000D01*
X90187000Y-122886000D01*
X90169000Y-122908000D01*
X90149000Y-122929000D01*
X90128000Y-122949000D01*
X90106000Y-122967000D01*
X90083000Y-122985000D01*
X90060000Y-123001000D01*
X90035000Y-123016000D01*
X90010000Y-123030000D01*
X89984000Y-123042000D01*
X89957000Y-123053000D01*
X89930000Y-123063000D01*
X89902000Y-123071000D01*
X89874000Y-123078000D01*
X89846000Y-123083000D01*
X89817000Y-123087000D01*
X89789000Y-123089000D01*
X89760000Y-123090000D01*
X89160000Y-123090000D01*
X89131000Y-123089000D01*
X89103000Y-123087000D01*
X89074000Y-123083000D01*
X89046000Y-123078000D01*
X89018000Y-123071000D01*
X88990000Y-123063000D01*
X88963000Y-123053000D01*
X88936000Y-123042000D01*
X88910000Y-123030000D01*
X88885000Y-123016000D01*
X88860000Y-123001000D01*
X88837000Y-122985000D01*
X88814000Y-122967000D01*
X88792000Y-122949000D01*
X88771000Y-122929000D01*
X88751000Y-122908000D01*
X88733000Y-122886000D01*
X88715000Y-122863000D01*
X88699000Y-122840000D01*
X88684000Y-122815000D01*
X88670000Y-122790000D01*
X88658000Y-122764000D01*
X88647000Y-122737000D01*
X88637000Y-122710000D01*
X88629000Y-122682000D01*
X88622000Y-122654000D01*
X88617000Y-122626000D01*
X88613000Y-122597000D01*
X88611000Y-122569000D01*
X88610000Y-122540000D01*
X88611000Y-122511000D01*
X88613000Y-122483000D01*
X88617000Y-122454000D01*
X88622000Y-122426000D01*
X88629000Y-122398000D01*
X88637000Y-122370000D01*
X88647000Y-122343000D01*
X88658000Y-122316000D01*
X88670000Y-122290000D01*
X88684000Y-122265000D01*
X88699000Y-122240000D01*
X88715000Y-122217000D01*
X88733000Y-122194000D01*
X88751000Y-122172000D01*
X88771000Y-122151000D01*
X88792000Y-122131000D01*
X88814000Y-122113000D01*
X88837000Y-122095000D01*
X88860000Y-122079000D01*
X88885000Y-122064000D01*
X88910000Y-122050000D01*
X88936000Y-122038000D01*
X88963000Y-122027000D01*
X88990000Y-122017000D01*
X89018000Y-122009000D01*
X89046000Y-122002000D01*
X89074000Y-121997000D01*
X89103000Y-121993000D01*
X89131000Y-121991000D01*
X89160000Y-121990000D01*
X89760000Y-121990000D01*
X89789000Y-121991000D01*
G37*
%TD.AperFunction*%
X85989000Y-113351000D02*
X86017000Y-113353000D01*
X86046000Y-113357000D01*
X86074000Y-113362000D01*
X86102000Y-113369000D01*
X86130000Y-113377000D01*
X86157000Y-113387000D01*
X86184000Y-113398000D01*
X86210000Y-113410000D01*
X86235000Y-113424000D01*
X86260000Y-113439000D01*
X86283000Y-113455000D01*
X86306000Y-113473000D01*
X86328000Y-113491000D01*
X86349000Y-113511000D01*
X86369000Y-113532000D01*
X86387000Y-113554000D01*
X86405000Y-113577000D01*
X86421000Y-113600000D01*
X86436000Y-113625000D01*
X86450000Y-113650000D01*
X86462000Y-113676000D01*
X86473000Y-113703000D01*
X86483000Y-113730000D01*
X86491000Y-113758000D01*
X86498000Y-113786000D01*
X86503000Y-113814000D01*
X86507000Y-113843000D01*
X86509000Y-113871000D01*
X86510000Y-113900000D01*
X86509000Y-113929000D01*
X86507000Y-113957000D01*
X86503000Y-113986000D01*
X86498000Y-114014000D01*
X86491000Y-114042000D01*
X86483000Y-114070000D01*
X86473000Y-114097000D01*
X86462000Y-114124000D01*
X86450000Y-114150000D01*
X86436000Y-114175000D01*
X86421000Y-114200000D01*
X86405000Y-114223000D01*
X86387000Y-114246000D01*
X86369000Y-114268000D01*
X86349000Y-114289000D01*
X86328000Y-114309000D01*
X86306000Y-114327000D01*
X86283000Y-114345000D01*
X86260000Y-114361000D01*
X86235000Y-114376000D01*
X86210000Y-114390000D01*
X86184000Y-114402000D01*
X86157000Y-114413000D01*
X86130000Y-114423000D01*
X86102000Y-114431000D01*
X86074000Y-114438000D01*
X86046000Y-114443000D01*
X86017000Y-114447000D01*
X85989000Y-114449000D01*
X85960000Y-114450000D01*
X85360000Y-114450000D01*
X85331000Y-114449000D01*
X85303000Y-114447000D01*
X85274000Y-114443000D01*
X85246000Y-114438000D01*
X85218000Y-114431000D01*
X85190000Y-114423000D01*
X85163000Y-114413000D01*
X85136000Y-114402000D01*
X85110000Y-114390000D01*
X85085000Y-114376000D01*
X85060000Y-114361000D01*
X85037000Y-114345000D01*
X85014000Y-114327000D01*
X84992000Y-114309000D01*
X84971000Y-114289000D01*
X84951000Y-114268000D01*
X84933000Y-114246000D01*
X84915000Y-114223000D01*
X84899000Y-114200000D01*
X84884000Y-114175000D01*
X84870000Y-114150000D01*
X84858000Y-114124000D01*
X84847000Y-114097000D01*
X84837000Y-114070000D01*
X84829000Y-114042000D01*
X84822000Y-114014000D01*
X84817000Y-113986000D01*
X84813000Y-113957000D01*
X84811000Y-113929000D01*
X84810000Y-113900000D01*
X84811000Y-113871000D01*
X84813000Y-113843000D01*
X84817000Y-113814000D01*
X84822000Y-113786000D01*
X84829000Y-113758000D01*
X84837000Y-113730000D01*
X84847000Y-113703000D01*
X84858000Y-113676000D01*
X84870000Y-113650000D01*
X84884000Y-113625000D01*
X84899000Y-113600000D01*
X84915000Y-113577000D01*
X84933000Y-113554000D01*
X84951000Y-113532000D01*
X84971000Y-113511000D01*
X84992000Y-113491000D01*
X85014000Y-113473000D01*
X85037000Y-113455000D01*
X85060000Y-113439000D01*
X85085000Y-113424000D01*
X85110000Y-113410000D01*
X85136000Y-113398000D01*
X85163000Y-113387000D01*
X85190000Y-113377000D01*
X85218000Y-113369000D01*
X85246000Y-113362000D01*
X85274000Y-113357000D01*
X85303000Y-113353000D01*
X85331000Y-113351000D01*
X85360000Y-113350000D01*
X85960000Y-113350000D01*
X85989000Y-113351000D01*
%TA.AperFunction,EtchedComponent*%
G36*
X85989000Y-113351000D02*
G01*
X86017000Y-113353000D01*
X86046000Y-113357000D01*
X86074000Y-113362000D01*
X86102000Y-113369000D01*
X86130000Y-113377000D01*
X86157000Y-113387000D01*
X86184000Y-113398000D01*
X86210000Y-113410000D01*
X86235000Y-113424000D01*
X86260000Y-113439000D01*
X86283000Y-113455000D01*
X86306000Y-113473000D01*
X86328000Y-113491000D01*
X86349000Y-113511000D01*
X86369000Y-113532000D01*
X86387000Y-113554000D01*
X86405000Y-113577000D01*
X86421000Y-113600000D01*
X86436000Y-113625000D01*
X86450000Y-113650000D01*
X86462000Y-113676000D01*
X86473000Y-113703000D01*
X86483000Y-113730000D01*
X86491000Y-113758000D01*
X86498000Y-113786000D01*
X86503000Y-113814000D01*
X86507000Y-113843000D01*
X86509000Y-113871000D01*
X86510000Y-113900000D01*
X86509000Y-113929000D01*
X86507000Y-113957000D01*
X86503000Y-113986000D01*
X86498000Y-114014000D01*
X86491000Y-114042000D01*
X86483000Y-114070000D01*
X86473000Y-114097000D01*
X86462000Y-114124000D01*
X86450000Y-114150000D01*
X86436000Y-114175000D01*
X86421000Y-114200000D01*
X86405000Y-114223000D01*
X86387000Y-114246000D01*
X86369000Y-114268000D01*
X86349000Y-114289000D01*
X86328000Y-114309000D01*
X86306000Y-114327000D01*
X86283000Y-114345000D01*
X86260000Y-114361000D01*
X86235000Y-114376000D01*
X86210000Y-114390000D01*
X86184000Y-114402000D01*
X86157000Y-114413000D01*
X86130000Y-114423000D01*
X86102000Y-114431000D01*
X86074000Y-114438000D01*
X86046000Y-114443000D01*
X86017000Y-114447000D01*
X85989000Y-114449000D01*
X85960000Y-114450000D01*
X85360000Y-114450000D01*
X85331000Y-114449000D01*
X85303000Y-114447000D01*
X85274000Y-114443000D01*
X85246000Y-114438000D01*
X85218000Y-114431000D01*
X85190000Y-114423000D01*
X85163000Y-114413000D01*
X85136000Y-114402000D01*
X85110000Y-114390000D01*
X85085000Y-114376000D01*
X85060000Y-114361000D01*
X85037000Y-114345000D01*
X85014000Y-114327000D01*
X84992000Y-114309000D01*
X84971000Y-114289000D01*
X84951000Y-114268000D01*
X84933000Y-114246000D01*
X84915000Y-114223000D01*
X84899000Y-114200000D01*
X84884000Y-114175000D01*
X84870000Y-114150000D01*
X84858000Y-114124000D01*
X84847000Y-114097000D01*
X84837000Y-114070000D01*
X84829000Y-114042000D01*
X84822000Y-114014000D01*
X84817000Y-113986000D01*
X84813000Y-113957000D01*
X84811000Y-113929000D01*
X84810000Y-113900000D01*
X84811000Y-113871000D01*
X84813000Y-113843000D01*
X84817000Y-113814000D01*
X84822000Y-113786000D01*
X84829000Y-113758000D01*
X84837000Y-113730000D01*
X84847000Y-113703000D01*
X84858000Y-113676000D01*
X84870000Y-113650000D01*
X84884000Y-113625000D01*
X84899000Y-113600000D01*
X84915000Y-113577000D01*
X84933000Y-113554000D01*
X84951000Y-113532000D01*
X84971000Y-113511000D01*
X84992000Y-113491000D01*
X85014000Y-113473000D01*
X85037000Y-113455000D01*
X85060000Y-113439000D01*
X85085000Y-113424000D01*
X85110000Y-113410000D01*
X85136000Y-113398000D01*
X85163000Y-113387000D01*
X85190000Y-113377000D01*
X85218000Y-113369000D01*
X85246000Y-113362000D01*
X85274000Y-113357000D01*
X85303000Y-113353000D01*
X85331000Y-113351000D01*
X85360000Y-113350000D01*
X85960000Y-113350000D01*
X85989000Y-113351000D01*
G37*
%TD.AperFunction*%
X89789000Y-113351000D02*
X89817000Y-113353000D01*
X89846000Y-113357000D01*
X89874000Y-113362000D01*
X89902000Y-113369000D01*
X89930000Y-113377000D01*
X89957000Y-113387000D01*
X89984000Y-113398000D01*
X90010000Y-113410000D01*
X90035000Y-113424000D01*
X90060000Y-113439000D01*
X90083000Y-113455000D01*
X90106000Y-113473000D01*
X90128000Y-113491000D01*
X90149000Y-113511000D01*
X90169000Y-113532000D01*
X90187000Y-113554000D01*
X90205000Y-113577000D01*
X90221000Y-113600000D01*
X90236000Y-113625000D01*
X90250000Y-113650000D01*
X90262000Y-113676000D01*
X90273000Y-113703000D01*
X90283000Y-113730000D01*
X90291000Y-113758000D01*
X90298000Y-113786000D01*
X90303000Y-113814000D01*
X90307000Y-113843000D01*
X90309000Y-113871000D01*
X90310000Y-113900000D01*
X90309000Y-113929000D01*
X90307000Y-113957000D01*
X90303000Y-113986000D01*
X90298000Y-114014000D01*
X90291000Y-114042000D01*
X90283000Y-114070000D01*
X90273000Y-114097000D01*
X90262000Y-114124000D01*
X90250000Y-114150000D01*
X90236000Y-114175000D01*
X90221000Y-114200000D01*
X90205000Y-114223000D01*
X90187000Y-114246000D01*
X90169000Y-114268000D01*
X90149000Y-114289000D01*
X90128000Y-114309000D01*
X90106000Y-114327000D01*
X90083000Y-114345000D01*
X90060000Y-114361000D01*
X90035000Y-114376000D01*
X90010000Y-114390000D01*
X89984000Y-114402000D01*
X89957000Y-114413000D01*
X89930000Y-114423000D01*
X89902000Y-114431000D01*
X89874000Y-114438000D01*
X89846000Y-114443000D01*
X89817000Y-114447000D01*
X89789000Y-114449000D01*
X89760000Y-114450000D01*
X89160000Y-114450000D01*
X89131000Y-114449000D01*
X89103000Y-114447000D01*
X89074000Y-114443000D01*
X89046000Y-114438000D01*
X89018000Y-114431000D01*
X88990000Y-114423000D01*
X88963000Y-114413000D01*
X88936000Y-114402000D01*
X88910000Y-114390000D01*
X88885000Y-114376000D01*
X88860000Y-114361000D01*
X88837000Y-114345000D01*
X88814000Y-114327000D01*
X88792000Y-114309000D01*
X88771000Y-114289000D01*
X88751000Y-114268000D01*
X88733000Y-114246000D01*
X88715000Y-114223000D01*
X88699000Y-114200000D01*
X88684000Y-114175000D01*
X88670000Y-114150000D01*
X88658000Y-114124000D01*
X88647000Y-114097000D01*
X88637000Y-114070000D01*
X88629000Y-114042000D01*
X88622000Y-114014000D01*
X88617000Y-113986000D01*
X88613000Y-113957000D01*
X88611000Y-113929000D01*
X88610000Y-113900000D01*
X88611000Y-113871000D01*
X88613000Y-113843000D01*
X88617000Y-113814000D01*
X88622000Y-113786000D01*
X88629000Y-113758000D01*
X88637000Y-113730000D01*
X88647000Y-113703000D01*
X88658000Y-113676000D01*
X88670000Y-113650000D01*
X88684000Y-113625000D01*
X88699000Y-113600000D01*
X88715000Y-113577000D01*
X88733000Y-113554000D01*
X88751000Y-113532000D01*
X88771000Y-113511000D01*
X88792000Y-113491000D01*
X88814000Y-113473000D01*
X88837000Y-113455000D01*
X88860000Y-113439000D01*
X88885000Y-113424000D01*
X88910000Y-113410000D01*
X88936000Y-113398000D01*
X88963000Y-113387000D01*
X88990000Y-113377000D01*
X89018000Y-113369000D01*
X89046000Y-113362000D01*
X89074000Y-113357000D01*
X89103000Y-113353000D01*
X89131000Y-113351000D01*
X89160000Y-113350000D01*
X89760000Y-113350000D01*
X89789000Y-113351000D01*
%TA.AperFunction,EtchedComponent*%
G36*
X89789000Y-113351000D02*
G01*
X89817000Y-113353000D01*
X89846000Y-113357000D01*
X89874000Y-113362000D01*
X89902000Y-113369000D01*
X89930000Y-113377000D01*
X89957000Y-113387000D01*
X89984000Y-113398000D01*
X90010000Y-113410000D01*
X90035000Y-113424000D01*
X90060000Y-113439000D01*
X90083000Y-113455000D01*
X90106000Y-113473000D01*
X90128000Y-113491000D01*
X90149000Y-113511000D01*
X90169000Y-113532000D01*
X90187000Y-113554000D01*
X90205000Y-113577000D01*
X90221000Y-113600000D01*
X90236000Y-113625000D01*
X90250000Y-113650000D01*
X90262000Y-113676000D01*
X90273000Y-113703000D01*
X90283000Y-113730000D01*
X90291000Y-113758000D01*
X90298000Y-113786000D01*
X90303000Y-113814000D01*
X90307000Y-113843000D01*
X90309000Y-113871000D01*
X90310000Y-113900000D01*
X90309000Y-113929000D01*
X90307000Y-113957000D01*
X90303000Y-113986000D01*
X90298000Y-114014000D01*
X90291000Y-114042000D01*
X90283000Y-114070000D01*
X90273000Y-114097000D01*
X90262000Y-114124000D01*
X90250000Y-114150000D01*
X90236000Y-114175000D01*
X90221000Y-114200000D01*
X90205000Y-114223000D01*
X90187000Y-114246000D01*
X90169000Y-114268000D01*
X90149000Y-114289000D01*
X90128000Y-114309000D01*
X90106000Y-114327000D01*
X90083000Y-114345000D01*
X90060000Y-114361000D01*
X90035000Y-114376000D01*
X90010000Y-114390000D01*
X89984000Y-114402000D01*
X89957000Y-114413000D01*
X89930000Y-114423000D01*
X89902000Y-114431000D01*
X89874000Y-114438000D01*
X89846000Y-114443000D01*
X89817000Y-114447000D01*
X89789000Y-114449000D01*
X89760000Y-114450000D01*
X89160000Y-114450000D01*
X89131000Y-114449000D01*
X89103000Y-114447000D01*
X89074000Y-114443000D01*
X89046000Y-114438000D01*
X89018000Y-114431000D01*
X88990000Y-114423000D01*
X88963000Y-114413000D01*
X88936000Y-114402000D01*
X88910000Y-114390000D01*
X88885000Y-114376000D01*
X88860000Y-114361000D01*
X88837000Y-114345000D01*
X88814000Y-114327000D01*
X88792000Y-114309000D01*
X88771000Y-114289000D01*
X88751000Y-114268000D01*
X88733000Y-114246000D01*
X88715000Y-114223000D01*
X88699000Y-114200000D01*
X88684000Y-114175000D01*
X88670000Y-114150000D01*
X88658000Y-114124000D01*
X88647000Y-114097000D01*
X88637000Y-114070000D01*
X88629000Y-114042000D01*
X88622000Y-114014000D01*
X88617000Y-113986000D01*
X88613000Y-113957000D01*
X88611000Y-113929000D01*
X88610000Y-113900000D01*
X88611000Y-113871000D01*
X88613000Y-113843000D01*
X88617000Y-113814000D01*
X88622000Y-113786000D01*
X88629000Y-113758000D01*
X88637000Y-113730000D01*
X88647000Y-113703000D01*
X88658000Y-113676000D01*
X88670000Y-113650000D01*
X88684000Y-113625000D01*
X88699000Y-113600000D01*
X88715000Y-113577000D01*
X88733000Y-113554000D01*
X88751000Y-113532000D01*
X88771000Y-113511000D01*
X88792000Y-113491000D01*
X88814000Y-113473000D01*
X88837000Y-113455000D01*
X88860000Y-113439000D01*
X88885000Y-113424000D01*
X88910000Y-113410000D01*
X88936000Y-113398000D01*
X88963000Y-113387000D01*
X88990000Y-113377000D01*
X89018000Y-113369000D01*
X89046000Y-113362000D01*
X89074000Y-113357000D01*
X89103000Y-113353000D01*
X89131000Y-113351000D01*
X89160000Y-113350000D01*
X89760000Y-113350000D01*
X89789000Y-113351000D01*
G37*
%TD.AperFunction*%
%TD*%
D11*
%TO.P,-,1,Pin_1*%
%TO.N,Net-(-1-Pin_1)*%
X89894005Y-135640746D03*
%TD*%
D12*
%TO.P,X5,1,Pin_1*%
%TO.N,Net-(IC1-X5)*%
X82906338Y-143544456D03*
D13*
%TO.P,X5,2,Pin_2*%
%TO.N,Net-(JX3-Pin_2)*%
X81636338Y-145744161D03*
%TO.P,X5,3,Pin_3*%
%TO.N,Net-(-1-Pin_1)*%
X80366338Y-147943865D03*
%TD*%
D14*
%TO.P,LEDR1,1,K*%
%TO.N,Net-(LEDR1-K)*%
X55169005Y-42025746D03*
D15*
%TO.P,LEDR1,2,A*%
%TO.N,Net-(ESP2-D7)*%
X52629005Y-42025746D03*
%TD*%
D16*
%TO.P,IC1,1,X4*%
%TO.N,Net-(IC1-X4)*%
X46789005Y-123805746D03*
D17*
%TO.P,IC1,2,X6*%
%TO.N,Net-(IC1-X6)*%
X46789005Y-121265746D03*
%TO.P,IC1,3,X*%
%TO.N,Net-(ESP1-A0)*%
X46789005Y-118725746D03*
%TO.P,IC1,4,X7*%
%TO.N,Net-(IC1-X7)*%
X46789005Y-116185746D03*
%TO.P,IC1,5,X5*%
%TO.N,Net-(IC1-X5)*%
X46789005Y-113645746D03*
%TO.P,IC1,6,INH*%
%TO.N,Net-(DH1-GND)*%
X46789005Y-111105746D03*
%TO.P,IC1,7,VEE*%
X46789005Y-108565746D03*
%TO.P,IC1,8,VSS*%
X46789005Y-106025746D03*
%TO.P,IC1,9,C*%
%TO.N,Net-(ESP2-D0)*%
X39169005Y-106025746D03*
%TO.P,IC1,10,B*%
%TO.N,Net-(ESP2-D4)*%
X39169005Y-108565746D03*
%TO.P,IC1,11,A*%
%TO.N,Net-(ESP2-D8)*%
X39169005Y-111105746D03*
%TO.P,IC1,12,X3*%
%TO.N,Net-(IC1-X3)*%
X39169005Y-113645746D03*
%TO.P,IC1,13,X0*%
%TO.N,Net-(IC1-X0)*%
X39169005Y-116185746D03*
%TO.P,IC1,14,X1*%
%TO.N,Net-(IC1-X1)*%
X39169005Y-118725746D03*
%TO.P,IC1,15,X2*%
%TO.N,Net-(IC1-X2)*%
X39169005Y-121265746D03*
%TO.P,IC1,16,VDD*%
%TO.N,Net-(DH1-VCC)*%
X39169005Y-123805746D03*
%TD*%
D18*
%TO.P,X0,1,Pin_1*%
%TO.N,Net-(IC1-X0)*%
X50168219Y-156199385D03*
D19*
%TO.P,X0,2,Pin_2*%
%TO.N,Net-(DH1-VCC)*%
X47968514Y-154929385D03*
%TO.P,X0,3,Pin_3*%
%TO.N,Net-(-1-Pin_1)*%
X45768810Y-153659385D03*
%TD*%
D20*
%TO.P,X3,1,Pin_1*%
%TO.N,Net-(IC1-X3)*%
X40569005Y-147825746D03*
D21*
%TO.P,X3,2,Pin_2*%
%TO.N,Net-(JX3-Pin_2)*%
X39299005Y-145626041D03*
%TO.P,X3,3,Pin_3*%
%TO.N,Net-(-1-Pin_1)*%
X38029005Y-143426337D03*
%TD*%
D22*
%TO.P,Vin,S1*%
%TO.N,N/C*%
X85660000Y-122540000D03*
%TO.P,Vin,S2*%
X85660000Y-113900000D03*
%TO.P,Vin,S3*%
X89460000Y-122540000D03*
%TO.P,Vin,S4*%
X89460000Y-113900000D03*
%TD*%
D23*
%TO.P,DHT11,1,VCC*%
%TO.N,Net-(DH1-VCC)*%
X66695221Y-52675044D03*
D24*
%TO.P,DHT11,2,IO*%
%TO.N,Net-(DHT11-IO)*%
X69235221Y-52675044D03*
%TO.P,DHT11,3,NC*%
%TO.N,unconnected-(DHT11-NC-Pad3)*%
X71775221Y-52675044D03*
%TO.P,DHT11,4,GND*%
%TO.N,Net-(DHT11-GND)*%
X74315221Y-52675044D03*
%TD*%
D25*
%TO.P,X2,1,Pin_1*%
%TO.N,Net-(IC1-X2)*%
X62919005Y-157500746D03*
D26*
%TO.P,X2,2,Pin_2*%
%TO.N,Net-(JX3-Pin_2)*%
X60379005Y-157500746D03*
%TO.P,X2,3,Pin_3*%
%TO.N,Net-(-1-Pin_1)*%
X57839005Y-157500746D03*
%TD*%
D27*
%TO.P,X6,1,Pin_1*%
%TO.N,Net-(IC1-X6)*%
X35894005Y-135500746D03*
D28*
%TO.P,X6,2,Pin_2*%
%TO.N,Net-(DH1-VCC)*%
X35452939Y-132999334D03*
%TO.P,X6,3,Pin_3*%
%TO.N,Net-(-1-Pin_1)*%
X35011872Y-130497923D03*
%TD*%
D29*
%TO.P,X4,1,Pin_1*%
%TO.N,Net-(IC1-X4)*%
X75293219Y-153674385D03*
D30*
%TO.P,X4,2,Pin_2*%
%TO.N,Net-(JX3-Pin_2)*%
X73093514Y-154944385D03*
%TO.P,X4,3,Pin_3*%
%TO.N,Net-(-1-Pin_1)*%
X70893810Y-156214385D03*
%TD*%
D31*
%TO.P,gndpad,1*%
%TO.N,Net-(DHT11-GND)*%
X85610000Y-112115000D03*
%TD*%
D25*
%TO.P,SD3,1,Pin_1*%
%TO.N,Net-(ESP1-SD3)*%
X36844005Y-88200746D03*
D26*
%TO.P,SD3,2,Pin_2*%
%TO.N,Net-(DH1-GND)*%
X36844005Y-90740746D03*
%TO.P,SD3,3,Pin_3*%
%TO.N,Net-(DH1-VCC)*%
X36844005Y-93280746D03*
%TD*%
D14*
%TO.P,LEDG1,1,K*%
%TO.N,Net-(LEDG1-K)*%
X55169005Y-54325746D03*
D15*
%TO.P,LEDG1,2,A*%
%TO.N,Net-(ESP2-D5)*%
X52629005Y-54325746D03*
%TD*%
D25*
%TO.P,ESP1,1,A0*%
%TO.N,Net-(ESP1-A0)*%
X52612605Y-102250746D03*
D26*
%TO.P,ESP1,2,RSV*%
%TO.N,unconnected-(ESP1-RSV-Pad2)*%
X52612605Y-104790746D03*
%TO.P,ESP1,3,RSV*%
%TO.N,unconnected-(ESP1-RSV-Pad3)*%
X52612605Y-107330746D03*
%TO.P,ESP1,4,SD3*%
%TO.N,Net-(ESP1-SD3)*%
X52612605Y-109870746D03*
%TO.P,ESP1,5,SD2*%
%TO.N,Net-(ESP1-SD2)*%
X52612605Y-112410746D03*
%TO.P,ESP1,6,SD1*%
%TO.N,Net-(ESP1-SD1)*%
X52612605Y-114950746D03*
%TO.P,ESP1,7,CMD*%
%TO.N,unconnected-(ESP1-CMD-Pad7)*%
X52612605Y-117490746D03*
%TO.P,ESP1,8,SD0*%
%TO.N,unconnected-(ESP1-SD0-Pad8)*%
X52612605Y-120030746D03*
%TO.P,ESP1,9,CLK*%
%TO.N,unconnected-(ESP1-CLK-Pad9)*%
X52612605Y-122570746D03*
%TO.P,ESP1,10,GND*%
%TO.N,unconnected-(ESP1-GND-Pad10)*%
X52612605Y-125110746D03*
%TO.P,ESP1,11,3V3*%
%TO.N,Net-(DH1-VCC)*%
X52612605Y-127650746D03*
%TO.P,ESP1,12,EN*%
%TO.N,unconnected-(ESP1-EN-Pad12)*%
X52612605Y-130190746D03*
%TO.P,ESP1,13,RST*%
%TO.N,unconnected-(ESP1-RST-Pad13)*%
X52612605Y-132730746D03*
%TO.P,ESP1,14,GND*%
%TO.N,Net-(DH1-GND)*%
X52612605Y-135270746D03*
%TO.P,ESP1,15,Vin*%
%TO.N,Net-(+1-Pin_1)*%
X52612605Y-137810746D03*
%TD*%
D11*
%TO.P,+,1,Pin_1*%
%TO.N,Net-(+1-Pin_1)*%
X90744005Y-132440746D03*
%TD*%
D25*
%TO.P,X1,1,Pin_1*%
%TO.N,Net-(IC1-X1)*%
X34369005Y-120855746D03*
D26*
%TO.P,X1,2,Pin_2*%
%TO.N,Net-(JX3-Pin_2)*%
X34369005Y-118315746D03*
%TO.P,X1,3,Pin_3*%
%TO.N,Net-(-1-Pin_1)*%
X34369005Y-115775746D03*
%TD*%
D25*
%TO.P,ESP2,1,D0*%
%TO.N,Net-(ESP2-D0)*%
X75244005Y-102250746D03*
D26*
%TO.P,ESP2,2,D1*%
%TO.N,Net-(DH1-SCL)*%
X75244005Y-104790746D03*
%TO.P,ESP2,3,D2*%
%TO.N,Net-(DH1-SDA)*%
X75244005Y-107330746D03*
%TO.P,ESP2,4,D3*%
%TO.N,Net-(DHT11-IO)*%
X75244005Y-109870746D03*
%TO.P,ESP2,5,D4*%
%TO.N,Net-(ESP2-D4)*%
X75244005Y-112410746D03*
%TO.P,ESP2,6,GND*%
%TO.N,Net-(DH1-VCC)*%
X75244005Y-114950746D03*
%TO.P,ESP2,7,3V3*%
%TO.N,Net-(DHT11-GND)*%
X75244005Y-117490746D03*
%TO.P,ESP2,8,D5*%
%TO.N,Net-(ESP2-D5)*%
X75244005Y-120030746D03*
%TO.P,ESP2,9,D6*%
%TO.N,Net-(ESP2-D6)*%
X75244005Y-122570746D03*
%TO.P,ESP2,10,D7*%
%TO.N,Net-(ESP2-D7)*%
X75244005Y-125110746D03*
%TO.P,ESP2,11,D8*%
%TO.N,Net-(ESP2-D8)*%
X75244005Y-127650746D03*
%TO.P,ESP2,12,RX*%
%TO.N,unconnected-(ESP2-RX-Pad12)*%
X75244005Y-130190746D03*
%TO.P,ESP2,13,TX*%
%TO.N,unconnected-(ESP2-TX-Pad13)*%
X75244005Y-132730746D03*
%TO.P,ESP2,14,GND*%
%TO.N,Net-(-1-Pin_1)*%
X75244005Y-135270746D03*
%TO.P,ESP2,15,3V3*%
%TO.N,Net-(JX3-Pin_2)*%
X75244005Y-137810746D03*
%TD*%
D24*
%TO.P,PHR1,1*%
%TO.N,Net-(DH1-VCC)*%
X73144005Y-26125746D03*
%TO.P,PHR1,2*%
%TO.N,Net-(IC1-X7)*%
X69744005Y-26125746D03*
%TD*%
D14*
%TO.P,LEDY1,1,K*%
%TO.N,Net-(LEDY1-K)*%
X55169005Y-48075746D03*
D15*
%TO.P,LEDY1,2,A*%
%TO.N,Net-(ESP2-D6)*%
X52629005Y-48075746D03*
%TD*%
D25*
%TO.P,SD2,1,Pin_1*%
%TO.N,Net-(ESP1-SD2)*%
X38769005Y-77525746D03*
D26*
%TO.P,SD2,2,Pin_2*%
%TO.N,Net-(DH1-GND)*%
X38769005Y-80065746D03*
%TO.P,SD2,3,Pin_3*%
%TO.N,Net-(DH1-VCC)*%
X38769005Y-82605746D03*
%TD*%
D25*
%TO.P,SD1,1,Pin_1*%
%TO.N,Net-(ESP1-SD1)*%
X41644005Y-66835746D03*
D26*
%TO.P,SD1,2,Pin_2*%
%TO.N,Net-(DH1-GND)*%
X41644005Y-69375746D03*
%TO.P,SD1,3,Pin_3*%
%TO.N,Net-(DH1-VCC)*%
X41644005Y-71915746D03*
%TD*%
D16*
%TO.P,C1,1*%
%TO.N,Net-(+1-Pin_1)*%
X82519005Y-128175746D03*
D32*
%TO.P,C1,2*%
%TO.N,Net-(-1-Pin_1)*%
X82519005Y-131675746D03*
%TD*%
D25*
%TO.P,DH1,1,GND*%
%TO.N,Net-(DH1-GND)*%
X65116580Y-61161484D03*
D26*
%TO.P,DH1,2,VCC*%
%TO.N,Net-(DH1-VCC)*%
X67656580Y-61161484D03*
%TO.P,DH1,3,SCL*%
%TO.N,Net-(DH1-SCL)*%
X70196580Y-61161484D03*
%TO.P,DH1,4,SDA*%
%TO.N,Net-(DH1-SDA)*%
X72736580Y-61161484D03*
%TD*%
D33*
%TO.N,Net-(DH1-VCC)*%
X40694005Y-98725746D03*
%TO.N,Net-(IC1-X7)*%
X48594005Y-93800746D03*
X61119005Y-35825746D03*
%TO.N,Net-(DH1-GND)*%
X51269005Y-63050746D03*
X46069005Y-134800746D03*
X45756505Y-93745746D03*
X46069005Y-126650746D03*
%TO.N,Net-(ESP2-D8)*%
X45769005Y-138775746D03*
%TO.N,Net-(IC1-X2)*%
X41819005Y-140375746D03*
%TO.N,Net-(ESP2-D5)*%
X49329005Y-70445746D03*
%TO.N,Net-(ESP2-D7)*%
X45949005Y-74675746D03*
%TO.N,Net-(ESP2-D6)*%
X47569005Y-72635746D03*
%TD*%
D34*
%TO.N,Net-(DHT11-GND)*%
X85610000Y-112115000D02*
X85575000Y-112150000D01*
X82084751Y-112150000D02*
X76744005Y-117490746D01*
X85575000Y-112150000D02*
X82084751Y-112150000D01*
X76744005Y-117490746D02*
X75244005Y-117490746D01*
%TO.N,Net-(DH1-VCC)*%
X80624005Y-109570746D02*
X80624005Y-95730746D01*
X37994005Y-124980746D02*
X37994005Y-130458268D01*
X40264005Y-82605746D02*
X38769005Y-82605746D01*
X42894005Y-96525746D02*
X42894005Y-86730746D01*
X47968514Y-154929385D02*
X47968514Y-149500255D01*
X41644005Y-81225746D02*
X40264005Y-82605746D01*
X40694005Y-98725746D02*
X42894005Y-96525746D01*
X67656580Y-82113171D02*
X67656580Y-61161484D01*
X75764005Y-48846260D02*
X73144005Y-46226260D01*
X47968514Y-149500255D02*
X39019005Y-140550746D01*
X37994005Y-130458268D02*
X35452939Y-132999334D01*
X40694005Y-98725746D02*
X42819005Y-98725746D01*
X75764005Y-90870746D02*
X75764005Y-48846260D01*
X39019005Y-140550746D02*
X39019005Y-134475746D01*
X42894005Y-86730746D02*
X38769005Y-82605746D01*
X39019005Y-134475746D02*
X37542593Y-132999334D01*
X73144005Y-46226260D02*
X66695221Y-52675044D01*
X37542593Y-132999334D02*
X35452939Y-132999334D01*
X75244005Y-114950746D02*
X80624005Y-109570746D01*
X73144005Y-26125746D02*
X73144005Y-46226260D01*
X80624005Y-95730746D02*
X75764005Y-90870746D01*
X54219005Y-95550746D02*
X67656580Y-82113171D01*
X39169005Y-123805746D02*
X37994005Y-124980746D01*
X41644005Y-71915746D02*
X41644005Y-81225746D01*
X45994005Y-95550746D02*
X54219005Y-95550746D01*
X42819005Y-98725746D02*
X45994005Y-95550746D01*
%TO.N,Net-(IC1-X7)*%
X48594005Y-93800746D02*
X49969005Y-92425746D01*
X49969005Y-92425746D02*
X49969005Y-85550746D01*
X61119005Y-74400746D02*
X61119005Y-35825746D01*
X49969005Y-85550746D02*
X61119005Y-74400746D01*
%TO.N,Net-(DH1-GND)*%
X46069005Y-134800746D02*
X46069005Y-126650746D01*
X47219005Y-85325746D02*
X51269005Y-81275746D01*
X47219005Y-92283246D02*
X47219005Y-85325746D01*
X51269005Y-81275746D02*
X51269005Y-63050746D01*
X45756505Y-93745746D02*
X47219005Y-92283246D01*
%TO.N,Net-(-1-Pin_1)*%
X36344005Y-117750746D02*
X34369005Y-115775746D01*
X84669005Y-131675746D02*
X82519005Y-131675746D01*
X35011872Y-130497923D02*
X35011872Y-127243613D01*
X88807653Y-135814394D02*
X84669005Y-131675746D01*
X90878813Y-135814394D02*
X88807653Y-135814394D01*
X35011872Y-127243613D02*
X36344005Y-125911480D01*
X36344005Y-125911480D02*
X36344005Y-117750746D01*
%TO.N,Net-(IC1-X4)*%
X58594005Y-151550746D02*
X47544005Y-140500746D01*
X47544005Y-124560746D02*
X46789005Y-123805746D01*
X47544005Y-140500746D02*
X47544005Y-124560746D01*
X75293219Y-153674385D02*
X73169580Y-151550746D01*
X73169580Y-151550746D02*
X58594005Y-151550746D01*
%TO.N,Net-(IC1-X5)*%
X49744005Y-139875746D02*
X49744005Y-115755746D01*
X75969005Y-147650746D02*
X57519005Y-147650746D01*
X57519005Y-147650746D02*
X49744005Y-139875746D01*
X82906338Y-143544456D02*
X80075295Y-143544456D01*
X80075295Y-143544456D02*
X75969005Y-147650746D01*
X47634005Y-113645746D02*
X46789005Y-113645746D01*
X49744005Y-115755746D02*
X47634005Y-113645746D01*
%TO.N,Net-(ESP2-D0)*%
X49094005Y-97875746D02*
X70869005Y-97875746D01*
X39169005Y-106025746D02*
X40944005Y-106025746D01*
X40944005Y-106025746D02*
X49094005Y-97875746D01*
X70869005Y-97875746D02*
X75244005Y-102250746D01*
%TO.N,Net-(ESP2-D4)*%
X68479005Y-112410746D02*
X75244005Y-112410746D01*
X41454005Y-108565746D02*
X50569005Y-99450746D01*
X39169005Y-108565746D02*
X41454005Y-108565746D01*
X50569005Y-99450746D02*
X55519005Y-99450746D01*
X55519005Y-99450746D02*
X68479005Y-112410746D01*
%TO.N,Net-(ESP2-D8)*%
X44644005Y-137650746D02*
X44644005Y-116580746D01*
X45769005Y-138775746D02*
X44644005Y-137650746D01*
X44644005Y-116580746D02*
X39169005Y-111105746D01*
%TO.N,Net-(IC1-X0)*%
X42619005Y-138675746D02*
X50168219Y-146224960D01*
X50168219Y-146224960D02*
X50168219Y-156199385D01*
X42619005Y-119635746D02*
X42619005Y-138675746D01*
X39169005Y-116185746D02*
X42619005Y-119635746D01*
%TO.N,Net-(IC1-X2)*%
X40919005Y-139475746D02*
X40919005Y-122170746D01*
X40919005Y-122170746D02*
X40014005Y-121265746D01*
X40014005Y-121265746D02*
X39169005Y-121265746D01*
X41819005Y-140375746D02*
X40919005Y-139475746D01*
%TO.N,Net-(ESP2-D5)*%
X49369005Y-70405746D02*
X49369005Y-57585746D01*
X49329005Y-70445746D02*
X49369005Y-70405746D01*
X49369005Y-57585746D02*
X52629005Y-54325746D01*
%TO.N,Net-(ESP2-D7)*%
X45949005Y-74675746D02*
X45894005Y-74620746D01*
X45894005Y-74620746D02*
X45894005Y-50525746D01*
X45894005Y-50525746D02*
X52629005Y-43790746D01*
X52629005Y-43790746D02*
X52629005Y-42025746D01*
%TO.N,Net-(ESP2-D6)*%
X47569005Y-72635746D02*
X47619005Y-72585746D01*
X47619005Y-53085746D02*
X52629005Y-48075746D01*
X47619005Y-72585746D02*
X47619005Y-53085746D01*
%TO.N,Net-(+1-Pin_1)*%
X79969005Y-130725746D02*
X82519005Y-128175746D01*
X79969005Y-140100746D02*
X79969005Y-130725746D01*
X52612605Y-137810746D02*
X60202605Y-145400746D01*
X91728813Y-132614394D02*
X87290165Y-128175746D01*
X74669005Y-145400746D02*
X79969005Y-140100746D01*
X60202605Y-145400746D02*
X74669005Y-145400746D01*
X87290165Y-128175746D02*
X82519005Y-128175746D01*
%TO.N,Net-(DH1-SDA)*%
X78819005Y-98300746D02*
X72819005Y-92300746D01*
X72819005Y-92300746D02*
X72819005Y-61243909D01*
X75244005Y-107330746D02*
X77639005Y-107330746D01*
X72819005Y-61243909D02*
X72736580Y-61161484D01*
X77639005Y-107330746D02*
X78819005Y-106150746D01*
X78819005Y-106150746D02*
X78819005Y-98300746D01*
%TO.N,Net-(JX3-Pin_2)*%
X48094005Y-159650746D02*
X59444005Y-159650746D01*
X60379005Y-157500746D02*
X60379005Y-155365746D01*
X32369005Y-119000746D02*
X32369005Y-135575746D01*
X38044005Y-149600746D02*
X48094005Y-159650746D01*
X62119005Y-153625746D02*
X71774875Y-153625746D01*
X37019300Y-145626041D02*
X39299005Y-145626041D01*
X32369005Y-135575746D02*
X35369005Y-138575746D01*
X34369005Y-118315746D02*
X33054005Y-118315746D01*
X71774875Y-153625746D02*
X73093514Y-154944385D01*
X60379005Y-155365746D02*
X62119005Y-153625746D01*
X38044005Y-146881041D02*
X38044005Y-149600746D01*
X39299005Y-145626041D02*
X38044005Y-146881041D01*
X60379005Y-158715746D02*
X60379005Y-157500746D01*
X35369005Y-143975746D02*
X37019300Y-145626041D01*
X59444005Y-159650746D02*
X60379005Y-158715746D01*
X35369005Y-138575746D02*
X35369005Y-143975746D01*
X33054005Y-118315746D02*
X32369005Y-119000746D01*
%TD*%
M02*
