solid exported
	facet normal 1 0 0
		outer loop
			vertex 6.599998950958252 -0.9999999999999999 0.3000000119209292
			vertex 6.599998950958252 1 -2.220446049250313e-16
			vertex 6.599998950958252 1 0.30000001192092873
		endloop
	endfacet
	facet normal 1 0 0
		outer loop
			vertex 6.599998950958252 -0.9999999999999999 0.3000000119209292
			vertex 6.599998950958252 -1 2.220446049250313e-16
			vertex 6.599998950958252 1 -2.220446049250313e-16
		endloop
	endfacet
	facet normal 1 0 0
		outer loop
			vertex 6.599998950958252 1.250000000000001 5
			vertex 6.599998950958252 1 0.30000001192092873
			vertex 6.599998950958252 1.25 0.3000000119209287
		endloop
	endfacet
	facet normal 1 0 0
		outer loop
			vertex 6.599998950958252 -1.249999999999999 5
			vertex 6.599998950958252 -1.25 0.30000001192092923
			vertex 6.599998950958252 -0.9999999999999999 0.3000000119209292
		endloop
	endfacet
	facet normal 1 0 0
		outer loop
			vertex 6.599998950958252 -1.249999999999999 5
			vertex 6.599998950958252 1 0.30000001192092873
			vertex 6.599998950958252 1.250000000000001 5
		endloop
	endfacet
	facet normal 1 0 0
		outer loop
			vertex 6.599998950958252 -1.249999999999999 5
			vertex 6.599998950958252 -0.9999999999999999 0.3000000119209292
			vertex 6.599998950958252 1 0.30000001192092873
		endloop
	endfacet
	facet normal 0 1 0
		outer loop
			vertex 6.079999923706055 1 0.30000001192092873
			vertex 6.599998950958252 1 -2.220446049250313e-16
			vertex 6.079999923706055 1 -2.220446049250313e-16
		endloop
	endfacet
	facet normal 0 1 0
		outer loop
			vertex 6.079999923706055 1 0.30000001192092873
			vertex 6.599998950958252 1 0.30000001192092873
			vertex 6.599998950958252 1 -2.220446049250313e-16
		endloop
	endfacet
	facet normal 0 -2.220446049250313e-16 -1
		outer loop
			vertex 6.599998950958252 1 -2.220446049250313e-16
			vertex 6.599998950958252 -1 2.220446049250313e-16
			vertex 6.079999923706055 -1 2.220446049250313e-16
		endloop
	endfacet
	facet normal 0 -2.220446049250313e-16 -1
		outer loop
			vertex 6.599998950958252 1 -2.220446049250313e-16
			vertex 6.079999923706055 -1 2.220446049250313e-16
			vertex 6.079999923706055 1 -2.220446049250313e-16
		endloop
	endfacet
	facet normal 0 -1 3.7007432683628633e-16
		outer loop
			vertex 6.079999923706055 -1 2.220446049250313e-16
			vertex 6.599998950958252 -0.9999999999999999 0.3000000119209292
			vertex 6.079999923706055 -0.9999999999999999 0.3000000119209292
		endloop
	endfacet
	facet normal 0 -1 3.7007432683628633e-16
		outer loop
			vertex 6.079999923706055 -1 2.220446049250313e-16
			vertex 6.599998950958252 -1 2.220446049250313e-16
			vertex 6.599998950958252 -0.9999999999999999 0.3000000119209292
		endloop
	endfacet
	facet normal 0 -2.220446049250312e-16 -1
		outer loop
			vertex 6.079999923706055 -0.9999999999999999 0.3000000119209292
			vertex 6.599998950958252 -0.9999999999999999 0.3000000119209292
			vertex 6.599998950958252 -1.25 0.30000001192092923
		endloop
	endfacet
	facet normal 0 -2.220446049250312e-16 -1
		outer loop
			vertex 4.079999923706055 -0.9999999999999999 0.3000000119209292
			vertex 6.079999923706055 -0.9999999999999999 0.3000000119209292
			vertex 6.599998950958252 -1.25 0.30000001192092923
		endloop
	endfacet
	facet normal 0 -2.220446049250313e-16 -1
		outer loop
			vertex 6.079999923706055 1 0.30000001192092873
			vertex 6.599998950958252 1.25 0.3000000119209287
			vertex 6.599998950958252 1 0.30000001192092873
		endloop
	endfacet
	facet normal 0 -2.220446049250313e-16 -1
		outer loop
			vertex 4.329999923706055 -0.7499999999999999 0.3000000119209291
			vertex 5.829999923706055 -0.7499999999999999 0.3000000119209291
			vertex 6.079999923706055 -0.9999999999999999 0.3000000119209292
		endloop
	endfacet
	facet normal 0 -2.220446049250313e-16 -1
		outer loop
			vertex 4.329999923706055 -0.7499999999999999 0.3000000119209291
			vertex 6.079999923706055 -0.9999999999999999 0.3000000119209292
			vertex 4.079999923706055 -0.9999999999999999 0.3000000119209292
		endloop
	endfacet
	facet normal 0 -2.220446049250314e-16 -1
		outer loop
			vertex 4.079999923706055 1 0.30000001192092873
			vertex 5.829999923706055 0.7500000000000001 0.3000000119209288
			vertex 4.329999923706055 0.7500000000000001 0.3000000119209288
		endloop
	endfacet
	facet normal 0 -2.220446049250313e-16 -1
		outer loop
			vertex 4.079999923706055 1 0.30000001192092873
			vertex 6.599998950958252 1.25 0.3000000119209287
			vertex 6.079999923706055 1 0.30000001192092873
		endloop
	endfacet
	facet normal 0 -2.220446049250314e-16 -1
		outer loop
			vertex 4.079999923706055 1 0.30000001192092873
			vertex 6.079999923706055 1 0.30000001192092873
			vertex 5.829999923706055 0.7500000000000001 0.3000000119209288
		endloop
	endfacet
	facet normal 0 -2.220446049250313e-16 -1
		outer loop
			vertex 1.5399999618530273 -0.9999999999999999 0.3000000119209292
			vertex 1.7899999618530273 -0.7499999999999999 0.3000000119209291
			vertex 3.2899999618530273 -0.7499999999999999 0.3000000119209291
		endloop
	endfacet
	facet normal 0 -2.220446049250313e-16 -1
		outer loop
			vertex 1.5399999618530273 -0.9999999999999999 0.3000000119209292
			vertex 3.2899999618530273 -0.7499999999999999 0.3000000119209291
			vertex 3.5399999618530273 -0.9999999999999999 0.3000000119209292
		endloop
	endfacet
	facet normal 0 -2.2204460492503146e-16 -1
		outer loop
			vertex 1.7899999618530273 0.7500000000000001 0.3000000119209288
			vertex 3.5399999618530273 1 0.30000001192092873
			vertex 3.2899999618530273 0.7500000000000001 0.3000000119209288
		endloop
	endfacet
	facet normal 0 -2.220446049250314e-16 -1
		outer loop
			vertex 1.5399999618530273 1 0.30000001192092873
			vertex 3.5399999618530273 1 0.30000001192092873
			vertex 1.7899999618530273 0.7500000000000001 0.3000000119209288
		endloop
	endfacet
	facet normal 0 -2.220446049250313e-16 -1
		outer loop
			vertex -0.75 -0.7499999999999999 0.3000000119209291
			vertex 0.75 -0.7499999999999999 0.3000000119209291
			vertex 1 -0.9999999999999999 0.3000000119209292
		endloop
	endfacet
	facet normal 0 -2.220446049250313e-16 -1
		outer loop
			vertex -0.75 -0.7499999999999999 0.3000000119209291
			vertex 1 -0.9999999999999999 0.3000000119209292
			vertex -1 -0.9999999999999999 0.3000000119209292
		endloop
	endfacet
	facet normal 0 -2.220446049250312e-16 -1
		outer loop
			vertex -1.5199999809265137 -1.25 0.30000001192092923
			vertex -1 -0.9999999999999999 0.3000000119209292
			vertex 1 -0.9999999999999999 0.3000000119209292
		endloop
	endfacet
	facet normal 0 -2.220446049250312e-16 -1
		outer loop
			vertex -1.5200003385543823 -0.9999999999999999 0.3000000119209292
			vertex -1 -0.9999999999999999 0.3000000119209292
			vertex -1.5199999809265137 -1.25 0.30000001192092923
		endloop
	endfacet
	facet normal 0 -2.220446049250314e-16 -1
		outer loop
			vertex -1 1 0.30000001192092873
			vertex 0.75 0.7500000000000001 0.3000000119209288
			vertex -0.75 0.7500000000000001 0.3000000119209288
		endloop
	endfacet
	facet normal 0 -2.220446049250314e-16 -1
		outer loop
			vertex -1 1 0.30000001192092873
			vertex 1 1 0.30000001192092873
			vertex 0.75 0.7500000000000001 0.3000000119209288
		endloop
	endfacet
	facet normal 0 -2.220446049250313e-16 -1
		outer loop
			vertex -1.5199999809265137 1.25 0.3000000119209287
			vertex 1 1 0.30000001192092873
			vertex -1 1 0.30000001192092873
		endloop
	endfacet
	facet normal 0 -2.220446049250313e-16 -1
		outer loop
			vertex -1.5199999809265137 1.25 0.3000000119209287
			vertex -1 1 0.30000001192092873
			vertex -1.5200003385543823 1 0.30000001192092873
		endloop
	endfacet
	facet normal 0 -2.220446049250312e-16 -1
		outer loop
			vertex -1.5199999809265137 -1.25 0.30000001192092923
			vertex 4.079999923706055 -0.9999999999999999 0.3000000119209292
			vertex 6.599998950958252 -1.25 0.30000001192092923
		endloop
	endfacet
	facet normal 0 -2.220446049250312e-16 -1
		outer loop
			vertex -1.5199999809265137 -1.25 0.30000001192092923
			vertex 3.5399999618530273 -0.9999999999999999 0.3000000119209292
			vertex 4.079999923706055 -0.9999999999999999 0.3000000119209292
		endloop
	endfacet
	facet normal 0 -2.220446049250312e-16 -1
		outer loop
			vertex -1.5199999809265137 -1.25 0.30000001192092923
			vertex 1.5399999618530273 -0.9999999999999999 0.3000000119209292
			vertex 3.5399999618530273 -0.9999999999999999 0.3000000119209292
		endloop
	endfacet
	facet normal 0 -2.220446049250312e-16 -1
		outer loop
			vertex -1.5199999809265137 -1.25 0.30000001192092923
			vertex 1 -0.9999999999999999 0.3000000119209292
			vertex 1.5399999618530273 -0.9999999999999999 0.3000000119209292
		endloop
	endfacet
	facet normal -9.860761315262648e-32 -2.220446049250313e-16 -1
		outer loop
			vertex 6.079999923706055 -0.9999999999999999 0.3000000119209292
			vertex 5.829999923706055 0.7500000000000001 0.3000000119209288
			vertex 6.079999923706055 1 0.30000001192092873
		endloop
	endfacet
	facet normal 0 -2.220446049250313e-16 -1
		outer loop
			vertex 6.079999923706055 -0.9999999999999999 0.3000000119209292
			vertex 5.829999923706055 -0.7499999999999999 0.3000000119209291
			vertex 5.829999923706055 0.7500000000000001 0.3000000119209288
		endloop
	endfacet
	facet normal 0 -2.220446049250313e-16 -1
		outer loop
			vertex 6.599998950958252 1.25 0.3000000119209287
			vertex 1 1 0.30000001192092873
			vertex -1.5199999809265137 1.25 0.3000000119209287
		endloop
	endfacet
	facet normal 0 -2.220446049250313e-16 -1
		outer loop
			vertex 6.599998950958252 1.25 0.3000000119209287
			vertex 1.5399999618530273 1 0.30000001192092873
			vertex 1 1 0.30000001192092873
		endloop
	endfacet
	facet normal 0 -2.220446049250313e-16 -1
		outer loop
			vertex 6.599998950958252 1.25 0.3000000119209287
			vertex 3.5399999618530273 1 0.30000001192092873
			vertex 1.5399999618530273 1 0.30000001192092873
		endloop
	endfacet
	facet normal 0 -2.220446049250313e-16 -1
		outer loop
			vertex 6.599998950958252 1.25 0.3000000119209287
			vertex 4.079999923706055 1 0.30000001192092873
			vertex 3.5399999618530273 1 0.30000001192092873
		endloop
	endfacet
	facet normal 0 -2.220446049250313e-16 -1
		outer loop
			vertex -1 1 0.30000001192092873
			vertex -0.75 -0.7499999999999999 0.3000000119209291
			vertex -1 -0.9999999999999999 0.3000000119209292
		endloop
	endfacet
	facet normal 9.860761315262648e-32 -2.220446049250313e-16 -1
		outer loop
			vertex -1 1 0.30000001192092873
			vertex -0.75 0.7500000000000001 0.3000000119209288
			vertex -0.75 -0.7499999999999999 0.3000000119209291
		endloop
	endfacet
	facet normal 0 -2.220446049250313e-16 -1
		outer loop
			vertex 4.079999923706055 1 0.30000001192092873
			vertex 4.329999923706055 -0.7499999999999999 0.3000000119209291
			vertex 4.079999923706055 -0.9999999999999999 0.3000000119209292
		endloop
	endfacet
	facet normal 9.860761315262648e-32 -2.220446049250313e-16 -1
		outer loop
			vertex 4.079999923706055 1 0.30000001192092873
			vertex 4.329999923706055 0.7500000000000001 0.3000000119209288
			vertex 4.329999923706055 -0.7499999999999999 0.3000000119209291
		endloop
	endfacet
	facet normal -9.860761315262648e-32 -2.220446049250313e-16 -1
		outer loop
			vertex 3.5399999618530273 -0.9999999999999999 0.3000000119209292
			vertex 3.2899999618530273 0.7500000000000001 0.3000000119209288
			vertex 3.5399999618530273 1 0.30000001192092873
		endloop
	endfacet
	facet normal 0 -2.220446049250313e-16 -1
		outer loop
			vertex 3.5399999618530273 -0.9999999999999999 0.3000000119209292
			vertex 3.2899999618530273 -0.7499999999999999 0.3000000119209291
			vertex 3.2899999618530273 0.7500000000000001 0.3000000119209288
		endloop
	endfacet
	facet normal 0 -2.220446049250313e-16 -1
		outer loop
			vertex 1.5399999618530273 1 0.30000001192092873
			vertex 1.7899999618530273 -0.7499999999999999 0.3000000119209291
			vertex 1.5399999618530273 -0.9999999999999999 0.3000000119209292
		endloop
	endfacet
	facet normal 9.860761315262648e-32 -2.220446049250313e-16 -1
		outer loop
			vertex 1.5399999618530273 1 0.30000001192092873
			vertex 1.7899999618530273 0.7500000000000001 0.3000000119209288
			vertex 1.7899999618530273 -0.7499999999999999 0.3000000119209291
		endloop
	endfacet
	facet normal -9.860761315262648e-32 -2.220446049250313e-16 -1
		outer loop
			vertex 1 -0.9999999999999999 0.3000000119209292
			vertex 0.75 0.7500000000000001 0.3000000119209288
			vertex 1 1 0.30000001192092873
		endloop
	endfacet
	facet normal 0 -2.220446049250313e-16 -1
		outer loop
			vertex 1 -0.9999999999999999 0.3000000119209292
			vertex 0.75 -0.7499999999999999 0.3000000119209291
			vertex 0.75 0.7500000000000001 0.3000000119209288
		endloop
	endfacet
	facet normal 0 1 -2.220446049250313e-16
		outer loop
			vertex 2.140000104904175 0.32499998807907055 -2.25
			vertex 2.940000057220459 0.32499998807907055 -2.25
			vertex 2.740000009536743 0.3249999880790704 -3
		endloop
	endfacet
	facet normal 0 1 -2.220446049250313e-16
		outer loop
			vertex 2.140000104904175 0.32499998807907055 -2.25
			vertex 2.740000009536743 0.3249999880790704 -3
			vertex 2.3399999141693115 0.3249999880790704 -3
		endloop
	endfacet
	facet normal 0 1 -2.1769078812451054e-16
		outer loop
			vertex 2.140000104904175 0.3249999880790711 0.3000000119209289
			vertex 2.940000057220459 0.3249999880790711 0.3000000119209289
			vertex 2.940000057220459 0.32499998807907055 -2.25
		endloop
	endfacet
	facet normal 0 1 -2.1769078812451054e-16
		outer loop
			vertex 2.140000104904175 0.3249999880790711 0.3000000119209289
			vertex 2.940000057220459 0.32499998807907055 -2.25
			vertex 2.140000104904175 0.32499998807907055 -2.25
		endloop
	endfacet
	facet normal 0 1 -2.220446049250313e-16
		outer loop
			vertex 4.679999828338623 0.32499998807907055 -2.25
			vertex 5.480000019073486 0.32499998807907055 -2.25
			vertex 5.28000020980835 0.3249999880790704 -3
		endloop
	endfacet
	facet normal 0 1 -2.220446049250313e-16
		outer loop
			vertex 4.679999828338623 0.32499998807907055 -2.25
			vertex 5.28000020980835 0.3249999880790704 -3
			vertex 4.880000114440918 0.3249999880790704 -3
		endloop
	endfacet
	facet normal 0 1 -2.1769078812451054e-16
		outer loop
			vertex 4.679999828338623 0.3249999880790711 0.3000000119209289
			vertex 5.480000019073486 0.3249999880790711 0.3000000119209289
			vertex 5.480000019073486 0.32499998807907055 -2.25
		endloop
	endfacet
	facet normal 0 1 -2.1769078812451054e-16
		outer loop
			vertex 4.679999828338623 0.3249999880790711 0.3000000119209289
			vertex 5.480000019073486 0.32499998807907055 -2.25
			vertex 4.679999828338623 0.32499998807907055 -2.25
		endloop
	endfacet
	facet normal 0 1 -2.220446049250313e-16
		outer loop
			vertex 0.4000000059604645 0.32499998807907055 -2.25
			vertex 0.20000000298023224 0.3249999880790704 -3
			vertex -0.20000000298023224 0.3249999880790704 -3
		endloop
	endfacet
	facet normal 0 1 -2.220446049250313e-16
		outer loop
			vertex -0.4000000059604645 0.32499998807907055 -2.25
			vertex 0.4000000059604645 0.32499998807907055 -2.25
			vertex -0.20000000298023224 0.3249999880790704 -3
		endloop
	endfacet
	facet normal 0 1 -2.176907881245105e-16
		outer loop
			vertex -0.4000000059604645 0.3249999880790711 0.3000000119209289
			vertex 0.4000000059604645 0.3249999880790711 0.3000000119209289
			vertex 0.4000000059604645 0.32499998807907055 -2.25
		endloop
	endfacet
	facet normal 0 1 -2.176907881245105e-16
		outer loop
			vertex -0.4000000059604645 0.3249999880790711 0.3000000119209289
			vertex 0.4000000059604645 0.32499998807907055 -2.25
			vertex -0.4000000059604645 0.32499998807907055 -2.25
		endloop
	endfacet
	facet normal 0 -1 2.220446049250313e-16
		outer loop
			vertex 2.940000057220459 -0.32499998807907154 -2.25
			vertex 2.140000104904175 -0.32499998807907154 -2.25
			vertex 2.3399999141693115 -0.3249999880790717 -3
		endloop
	endfacet
	facet normal 0 -1 2.220446049250313e-16
		outer loop
			vertex 2.940000057220459 -0.32499998807907154 -2.25
			vertex 2.3399999141693115 -0.3249999880790717 -3
			vertex 2.740000009536743 -0.3249999880790717 -3
		endloop
	endfacet
	facet normal 0 -1 2.1769078812451054e-16
		outer loop
			vertex 2.940000057220459 -0.324999988079071 0.300000011920929
			vertex 2.140000104904175 -0.324999988079071 0.300000011920929
			vertex 2.140000104904175 -0.32499998807907154 -2.25
		endloop
	endfacet
	facet normal 0 -1 2.1769078812451054e-16
		outer loop
			vertex 2.940000057220459 -0.324999988079071 0.300000011920929
			vertex 2.140000104904175 -0.32499998807907154 -2.25
			vertex 2.940000057220459 -0.32499998807907154 -2.25
		endloop
	endfacet
	facet normal 0 -1 2.220446049250313e-16
		outer loop
			vertex 4.679999828338623 -0.32499998807907154 -2.25
			vertex 4.880000114440918 -0.3249999880790717 -3
			vertex 5.28000020980835 -0.3249999880790717 -3
		endloop
	endfacet
	facet normal 0 -1 2.220446049250313e-16
		outer loop
			vertex 5.480000019073486 -0.32499998807907154 -2.25
			vertex 4.679999828338623 -0.32499998807907154 -2.25
			vertex 5.28000020980835 -0.3249999880790717 -3
		endloop
	endfacet
	facet normal 0 -1 2.1769078812451054e-16
		outer loop
			vertex 5.480000019073486 -0.324999988079071 0.300000011920929
			vertex 4.679999828338623 -0.324999988079071 0.300000011920929
			vertex 4.679999828338623 -0.32499998807907154 -2.25
		endloop
	endfacet
	facet normal 0 -1 2.1769078812451054e-16
		outer loop
			vertex 5.480000019073486 -0.324999988079071 0.300000011920929
			vertex 4.679999828338623 -0.32499998807907154 -2.25
			vertex 5.480000019073486 -0.32499998807907154 -2.25
		endloop
	endfacet
	facet normal 0 -1 2.220446049250313e-16
		outer loop
			vertex 0.4000000059604645 -0.32499998807907154 -2.25
			vertex -0.4000000059604645 -0.32499998807907154 -2.25
			vertex -0.20000000298023224 -0.3249999880790717 -3
		endloop
	endfacet
	facet normal 0 -1 2.220446049250313e-16
		outer loop
			vertex 0.4000000059604645 -0.32499998807907154 -2.25
			vertex -0.20000000298023224 -0.3249999880790717 -3
			vertex 0.20000000298023224 -0.3249999880790717 -3
		endloop
	endfacet
	facet normal 0 -1 2.176907881245105e-16
		outer loop
			vertex 0.4000000059604645 -0.324999988079071 0.300000011920929
			vertex -0.4000000059604645 -0.324999988079071 0.300000011920929
			vertex -0.4000000059604645 -0.32499998807907154 -2.25
		endloop
	endfacet
	facet normal 0 -1 2.176907881245105e-16
		outer loop
			vertex 0.4000000059604645 -0.324999988079071 0.300000011920929
			vertex -0.4000000059604645 -0.32499998807907154 -2.25
			vertex 0.4000000059604645 -0.32499998807907154 -2.25
		endloop
	endfacet
	facet normal -1 0 0
		outer loop
			vertex -1.5200003385543823 1 0.30000001192092873
			vertex -1.5200003385543823 -1 2.220446049250313e-16
			vertex -1.5200003385543823 -0.9999999999999999 0.3000000119209292
		endloop
	endfacet
	facet normal -1 0 0
		outer loop
			vertex -1.5200003385543823 1 0.30000001192092873
			vertex -1.5200003385543823 1 -2.220446049250313e-16
			vertex -1.5200003385543823 -1 2.220446049250313e-16
		endloop
	endfacet
	facet normal -0.9999999999989769 -0.000001430511474607911 3.379120808783859e-22
		outer loop
			vertex -1.5199999809265137 -1.249999999999999 5
			vertex -1.5200003385543823 -0.9999999999999999 0.3000000119209292
			vertex -1.5199999809265137 -1.25 0.30000001192092923
		endloop
	endfacet
	facet normal -0.9999999999989769 0.0000014305114746079113 -3.3791208087838597e-22
		outer loop
			vertex -1.5199999809265137 1.250000000000001 5
			vertex -1.5199999809265137 1.25 0.3000000119209287
			vertex -1.5200003385543823 1 0.30000001192092873
		endloop
	endfacet
	facet normal -0.9999999999999972 0 7.609103607647205e-8
		outer loop
			vertex -1.5199999809265137 1.250000000000001 5
			vertex -1.5200003385543823 -0.9999999999999999 0.3000000119209292
			vertex -1.5199999809265137 -1.249999999999999 5
		endloop
	endfacet
	facet normal -0.9999999999999971 1.6895604043936536e-23 7.609103607647203e-8
		outer loop
			vertex -1.5199999809265137 1.250000000000001 5
			vertex -1.5200003385543823 1 0.30000001192092873
			vertex -1.5200003385543823 -0.9999999999999999 0.3000000119209292
		endloop
	endfacet
	facet normal 0 -1 3.7007432683628633e-16
		outer loop
			vertex -1.5200003385543823 -1 2.220446049250313e-16
			vertex -1 -0.9999999999999999 0.3000000119209292
			vertex -1.5200003385543823 -0.9999999999999999 0.3000000119209292
		endloop
	endfacet
	facet normal 0 -1 3.7007432683628633e-16
		outer loop
			vertex -1.5200003385543823 -1 2.220446049250313e-16
			vertex -1 -1 2.220446049250313e-16
			vertex -1 -0.9999999999999999 0.3000000119209292
		endloop
	endfacet
	facet normal 0 -1 3.7007432683628633e-16
		outer loop
			vertex 1 -1 2.220446049250313e-16
			vertex 1.5399999618530273 -0.9999999999999999 0.3000000119209292
			vertex 1 -0.9999999999999999 0.3000000119209292
		endloop
	endfacet
	facet normal 0 -1 3.7007432683628633e-16
		outer loop
			vertex 1 -1 2.220446049250313e-16
			vertex 1.5399999618530273 -1 2.220446049250313e-16
			vertex 1.5399999618530273 -0.9999999999999999 0.3000000119209292
		endloop
	endfacet
	facet normal 0 -1 3.7007432683628633e-16
		outer loop
			vertex 3.5399999618530273 -1 2.220446049250313e-16
			vertex 4.079999923706055 -0.9999999999999999 0.3000000119209292
			vertex 3.5399999618530273 -0.9999999999999999 0.3000000119209292
		endloop
	endfacet
	facet normal 0 -1 3.7007432683628633e-16
		outer loop
			vertex 3.5399999618530273 -1 2.220446049250313e-16
			vertex 4.079999923706055 -1 2.220446049250313e-16
			vertex 4.079999923706055 -0.9999999999999999 0.3000000119209292
		endloop
	endfacet
	facet normal 1 0 0
		outer loop
			vertex -1 -1 2.220446049250313e-16
			vertex -1 1 0.30000001192092873
			vertex -1 -0.9999999999999999 0.3000000119209292
		endloop
	endfacet
	facet normal 1 0 0
		outer loop
			vertex -1 -1 2.220446049250313e-16
			vertex -1 1 -2.220446049250313e-16
			vertex -1 1 0.30000001192092873
		endloop
	endfacet
	facet normal 0 -2.220446049250313e-16 -1
		outer loop
			vertex -1 1 -2.220446049250313e-16
			vertex -1 -1 2.220446049250313e-16
			vertex -1.5200003385543823 -1 2.220446049250313e-16
		endloop
	endfacet
	facet normal 0 -2.220446049250313e-16 -1
		outer loop
			vertex -1 1 -2.220446049250313e-16
			vertex -1.5200003385543823 -1 2.220446049250313e-16
			vertex -1.5200003385543823 1 -2.220446049250313e-16
		endloop
	endfacet
	facet normal 0 -2.220446049250313e-16 -1
		outer loop
			vertex 1.5399999618530273 1 -2.220446049250313e-16
			vertex 1.5399999618530273 -1 2.220446049250313e-16
			vertex 1 -1 2.220446049250313e-16
		endloop
	endfacet
	facet normal 0 -2.220446049250313e-16 -1
		outer loop
			vertex 1.5399999618530273 1 -2.220446049250313e-16
			vertex 1 -1 2.220446049250313e-16
			vertex 1 1 -2.220446049250313e-16
		endloop
	endfacet
	facet normal 0 -2.220446049250313e-16 -1
		outer loop
			vertex 4.079999923706055 1 -2.220446049250313e-16
			vertex 4.079999923706055 -1 2.220446049250313e-16
			vertex 3.5399999618530273 -1 2.220446049250313e-16
		endloop
	endfacet
	facet normal 0 -2.220446049250313e-16 -1
		outer loop
			vertex 4.079999923706055 1 -2.220446049250313e-16
			vertex 3.5399999618530273 -1 2.220446049250313e-16
			vertex 3.5399999618530273 1 -2.220446049250313e-16
		endloop
	endfacet
	facet normal 0 1 0
		outer loop
			vertex -1.5200003385543823 1 0.30000001192092873
			vertex -1 1 -2.220446049250313e-16
			vertex -1.5200003385543823 1 -2.220446049250313e-16
		endloop
	endfacet
	facet normal 0 1 0
		outer loop
			vertex -1.5200003385543823 1 0.30000001192092873
			vertex -1 1 0.30000001192092873
			vertex -1 1 -2.220446049250313e-16
		endloop
	endfacet
	facet normal 0 1 0
		outer loop
			vertex 1 1 0.30000001192092873
			vertex 1.5399999618530273 1 -2.220446049250313e-16
			vertex 1 1 -2.220446049250313e-16
		endloop
	endfacet
	facet normal 0 1 0
		outer loop
			vertex 1 1 0.30000001192092873
			vertex 1.5399999618530273 1 0.30000001192092873
			vertex 1.5399999618530273 1 -2.220446049250313e-16
		endloop
	endfacet
	facet normal 0 1 0
		outer loop
			vertex 3.5399999618530273 1 0.30000001192092873
			vertex 4.079999923706055 1 -2.220446049250313e-16
			vertex 3.5399999618530273 1 -2.220446049250313e-16
		endloop
	endfacet
	facet normal 0 1 0
		outer loop
			vertex 3.5399999618530273 1 0.30000001192092873
			vertex 4.079999923706055 1 0.30000001192092873
			vertex 4.079999923706055 1 -2.220446049250313e-16
		endloop
	endfacet
	facet normal 1 0 0
		outer loop
			vertex 1.5399999618530273 -1 2.220446049250313e-16
			vertex 1.5399999618530273 1 0.30000001192092873
			vertex 1.5399999618530273 -0.9999999999999999 0.3000000119209292
		endloop
	endfacet
	facet normal 1 0 0
		outer loop
			vertex 1.5399999618530273 -1 2.220446049250313e-16
			vertex 1.5399999618530273 1 -2.220446049250313e-16
			vertex 1.5399999618530273 1 0.30000001192092873
		endloop
	endfacet
	facet normal -1 0 0
		outer loop
			vertex 1 -0.9999999999999999 0.3000000119209292
			vertex 1 1 0.30000001192092873
			vertex 1 1 -2.220446049250313e-16
		endloop
	endfacet
	facet normal -1 0 0
		outer loop
			vertex 1 -0.9999999999999999 0.3000000119209292
			vertex 1 1 -2.220446049250313e-16
			vertex 1 -1 2.220446049250313e-16
		endloop
	endfacet
	facet normal 1 0 0
		outer loop
			vertex 4.079999923706055 -1 2.220446049250313e-16
			vertex 4.079999923706055 1 0.30000001192092873
			vertex 4.079999923706055 -0.9999999999999999 0.3000000119209292
		endloop
	endfacet
	facet normal 1 0 0
		outer loop
			vertex 4.079999923706055 -1 2.220446049250313e-16
			vertex 4.079999923706055 1 -2.220446049250313e-16
			vertex 4.079999923706055 1 0.30000001192092873
		endloop
	endfacet
	facet normal -1 0 0
		outer loop
			vertex 3.5399999618530273 -0.9999999999999999 0.3000000119209292
			vertex 3.5399999618530273 1 0.30000001192092873
			vertex 3.5399999618530273 1 -2.220446049250313e-16
		endloop
	endfacet
	facet normal -1 0 0
		outer loop
			vertex 3.5399999618530273 -0.9999999999999999 0.3000000119209292
			vertex 3.5399999618530273 1 -2.220446049250313e-16
			vertex 3.5399999618530273 -1 2.220446049250313e-16
		endloop
	endfacet
	facet normal -1 0 0
		outer loop
			vertex 6.079999923706055 -0.9999999999999999 0.3000000119209292
			vertex 6.079999923706055 1 0.30000001192092873
			vertex 6.079999923706055 1 -2.220446049250313e-16
		endloop
	endfacet
	facet normal -1 0 0
		outer loop
			vertex 6.079999923706055 -0.9999999999999999 0.3000000119209292
			vertex 6.079999923706055 1 -2.220446049250313e-16
			vertex 6.079999923706055 -1 2.220446049250313e-16
		endloop
	endfacet
	facet normal 0 -1 2.3621766541299797e-16
		outer loop
			vertex 6.599998950958252 -1.25 0.30000001192092923
			vertex 6.599998950958252 -1.249999999999999 5
			vertex -1.5199999809265137 -1.249999999999999 5
		endloop
	endfacet
	facet normal 0 -1 2.3621766541299797e-16
		outer loop
			vertex 6.599998950958252 -1.25 0.30000001192092923
			vertex -1.5199999809265137 -1.249999999999999 5
			vertex -1.5199999809265137 -1.25 0.30000001192092923
		endloop
	endfacet
	facet normal 0 0 1
		outer loop
			vertex -0.800000011920929 -0.8000000119209278 5
			vertex -1.5199999809265137 1.250000000000001 5
			vertex -1.5199999809265137 -1.249999999999999 5
		endloop
	endfacet
	facet normal 0 0 1
		outer loop
			vertex -0.800000011920929 -0.8000000119209278 5
			vertex -0.800000011920929 0.8000000119209301 5
			vertex -1.5199999809265137 1.250000000000001 5
		endloop
	endfacet
	facet normal 0 0 1
		outer loop
			vertex 0.800000011920929 0.8000000119209301 5
			vertex -1.5199999809265137 1.250000000000001 5
			vertex -0.800000011920929 0.8000000119209301 5
		endloop
	endfacet
	facet normal 0 0 1
		outer loop
			vertex 0.800000011920929 -0.8000000119209278 5
			vertex -0.800000011920929 -0.8000000119209278 5
			vertex -1.5199999809265137 -1.249999999999999 5
		endloop
	endfacet
	facet normal 0 0 1
		outer loop
			vertex 1.7400000095367432 -0.8000000119209278 5
			vertex 0.800000011920929 0.8000000119209301 5
			vertex 0.800000011920929 -0.8000000119209278 5
		endloop
	endfacet
	facet normal 0 0 1
		outer loop
			vertex 1.7400000095367432 -0.8000000119209278 5
			vertex 1.7400000095367432 0.8000000119209301 5
			vertex 0.800000011920929 0.8000000119209301 5
		endloop
	endfacet
	facet normal 0 0 1
		outer loop
			vertex 4.28000020980835 -0.8000000119209278 5
			vertex 3.3399999141693115 0.8000000119209301 5
			vertex 3.3399999141693115 -0.8000000119209278 5
		endloop
	endfacet
	facet normal 0 0 1
		outer loop
			vertex 4.28000020980835 -0.8000000119209278 5
			vertex 4.28000020980835 0.8000000119209301 5
			vertex 3.3399999141693115 0.8000000119209301 5
		endloop
	endfacet
	facet normal 0 0 1
		outer loop
			vertex 6.599998950958252 1.250000000000001 5
			vertex 4.28000020980835 0.8000000119209301 5
			vertex 5.880000114440918 0.8000000119209301 5
		endloop
	endfacet
	facet normal 0 0 1
		outer loop
			vertex 6.599998950958252 -1.249999999999999 5
			vertex 5.880000114440918 0.8000000119209301 5
			vertex 5.880000114440918 -0.8000000119209278 5
		endloop
	endfacet
	facet normal 0 0 1
		outer loop
			vertex 6.599998950958252 -1.249999999999999 5
			vertex 5.880000114440918 -0.8000000119209278 5
			vertex 4.28000020980835 -0.8000000119209278 5
		endloop
	endfacet
	facet normal 0 0 1
		outer loop
			vertex 6.599998950958252 -1.249999999999999 5
			vertex 6.599998950958252 1.250000000000001 5
			vertex 5.880000114440918 0.8000000119209301 5
		endloop
	endfacet
	facet normal 0 0 1
		outer loop
			vertex 6.599998950958252 1.250000000000001 5
			vertex -1.5199999809265137 1.250000000000001 5
			vertex 0.800000011920929 0.8000000119209301 5
		endloop
	endfacet
	facet normal 0 0 1
		outer loop
			vertex 6.599998950958252 1.250000000000001 5
			vertex 0.800000011920929 0.8000000119209301 5
			vertex 1.7400000095367432 0.8000000119209301 5
		endloop
	endfacet
	facet normal 0 0 1
		outer loop
			vertex 6.599998950958252 1.250000000000001 5
			vertex 1.7400000095367432 0.8000000119209301 5
			vertex 3.3399999141693115 0.8000000119209301 5
		endloop
	endfacet
	facet normal 0 0 1
		outer loop
			vertex 6.599998950958252 1.250000000000001 5
			vertex 3.3399999141693115 0.8000000119209301 5
			vertex 4.28000020980835 0.8000000119209301 5
		endloop
	endfacet
	facet normal 0 0 1
		outer loop
			vertex -1.5199999809265137 -1.249999999999999 5
			vertex 6.599998950958252 -1.249999999999999 5
			vertex 4.28000020980835 -0.8000000119209278 5
		endloop
	endfacet
	facet normal 0 0 1
		outer loop
			vertex -1.5199999809265137 -1.249999999999999 5
			vertex 4.28000020980835 -0.8000000119209278 5
			vertex 3.3399999141693115 -0.8000000119209278 5
		endloop
	endfacet
	facet normal 0 0 1
		outer loop
			vertex -1.5199999809265137 -1.249999999999999 5
			vertex 3.3399999141693115 -0.8000000119209278 5
			vertex 1.7400000095367432 -0.8000000119209278 5
		endloop
	endfacet
	facet normal 0 0 1
		outer loop
			vertex -1.5199999809265137 -1.249999999999999 5
			vertex 1.7400000095367432 -0.8000000119209278 5
			vertex 0.800000011920929 -0.8000000119209278 5
		endloop
	endfacet
	facet normal 0 1 -2.3621766541299797e-16
		outer loop
			vertex 6.599998950958252 1.250000000000001 5
			vertex 6.599998950958252 1.25 0.3000000119209287
			vertex -1.5199999809265137 1.25 0.3000000119209287
		endloop
	endfacet
	facet normal 0 1 -2.3621766541299797e-16
		outer loop
			vertex 6.599998950958252 1.250000000000001 5
			vertex -1.5199999809265137 1.25 0.3000000119209287
			vertex -1.5199999809265137 1.250000000000001 5
		endloop
	endfacet
	facet normal -0.7071069919206876 0 0.7071065704523448
		outer loop
			vertex 0.5 0.500000000000001 4.699999809265137
			vertex 0.5 -0.49999999999999895 4.699999809265137
			vertex 0.800000011920929 -0.8000000119209278 5
		endloop
	endfacet
	facet normal -0.7071069919206875 0 0.7071065704523448
		outer loop
			vertex 0.5 0.500000000000001 4.699999809265137
			vertex 0.800000011920929 -0.8000000119209278 5
			vertex 0.800000011920929 0.8000000119209301 5
		endloop
	endfacet
	facet normal -1 0 0
		outer loop
			vertex 0.5 0.500000000000001 4.699999809265137
			vertex 0.5 -0.4999999999999991 4
			vertex 0.5 -0.49999999999999895 4.699999809265137
		endloop
	endfacet
	facet normal -1 0 0
		outer loop
			vertex 0.5 0.500000000000001 4.699999809265137
			vertex 0.5 0.5000000000000009 4
			vertex 0.5 -0.4999999999999991 4
		endloop
	endfacet
	facet normal 0 0 1
		outer loop
			vertex 0.4749999940395355 0.4749999940395364 4
			vertex -0.5 0.5000000000000009 4
			vertex -0.4749999940395355 0.4749999940395364 4
		endloop
	endfacet
	facet normal 0 0 1
		outer loop
			vertex 0.5 0.5000000000000009 4
			vertex -0.5 0.5000000000000009 4
			vertex 0.4749999940395355 0.4749999940395364 4
		endloop
	endfacet
	facet normal 0 0 1
		outer loop
			vertex -0.5 -0.4999999999999991 4
			vertex -0.4749999940395355 -0.47499999403953463 4
			vertex -0.4749999940395355 0.4749999940395364 4
		endloop
	endfacet
	facet normal 0 0 1
		outer loop
			vertex -0.5 -0.4999999999999991 4
			vertex -0.4749999940395355 0.4749999940395364 4
			vertex -0.5 0.5000000000000009 4
		endloop
	endfacet
	facet normal 0 0 1
		outer loop
			vertex 0.4749999940395355 -0.47499999403953463 4
			vertex -0.4749999940395355 -0.47499999403953463 4
			vertex -0.5 -0.4999999999999991 4
		endloop
	endfacet
	facet normal 0 0 1
		outer loop
			vertex 0.5 -0.4999999999999991 4
			vertex 0.4749999940395355 -0.47499999403953463 4
			vertex -0.5 -0.4999999999999991 4
		endloop
	endfacet
	facet normal 0 0 1
		outer loop
			vertex 0.5 -0.4999999999999991 4
			vertex 0.5 0.5000000000000009 4
			vertex 0.4749999940395355 0.4749999940395364 4
		endloop
	endfacet
	facet normal 0 0 1
		outer loop
			vertex 0.5 -0.4999999999999991 4
			vertex 0.4749999940395355 0.4749999940395364 4
			vertex 0.4749999940395355 -0.47499999403953463 4
		endloop
	endfacet
	facet normal 1 0 0
		outer loop
			vertex -0.5 0.500000000000001 4.699999809265137
			vertex -0.5 -0.4999999999999991 4
			vertex -0.5 0.5000000000000009 4
		endloop
	endfacet
	facet normal 1 0 0
		outer loop
			vertex -0.5 0.500000000000001 4.699999809265137
			vertex -0.5 -0.49999999999999895 4.699999809265137
			vertex -0.5 -0.4999999999999991 4
		endloop
	endfacet
	facet normal 0 1 -2.3790499867221557e-16
		outer loop
			vertex 0.5 -0.4999999999999991 4
			vertex -0.5 -0.49999999999999895 4.699999809265137
			vertex 0.5 -0.49999999999999895 4.699999809265137
		endloop
	endfacet
	facet normal 0 1 -2.3790499867221557e-16
		outer loop
			vertex 0.5 -0.4999999999999991 4
			vertex -0.5 -0.4999999999999991 4
			vertex -0.5 -0.49999999999999895 4.699999809265137
		endloop
	endfacet
	facet normal 0 0.7071069919206876 0.7071065704523447
		outer loop
			vertex -0.800000011920929 -0.8000000119209278 5
			vertex 0.800000011920929 -0.8000000119209278 5
			vertex 0.5 -0.49999999999999895 4.699999809265137
		endloop
	endfacet
	facet normal 0 0.7071069919206876 0.7071065704523447
		outer loop
			vertex -0.800000011920929 -0.8000000119209278 5
			vertex 0.5 -0.49999999999999895 4.699999809265137
			vertex -0.5 -0.49999999999999895 4.699999809265137
		endloop
	endfacet
	facet normal 0.7071069919206876 0 0.7071065704523448
		outer loop
			vertex -0.800000011920929 0.8000000119209301 5
			vertex -0.5 -0.49999999999999895 4.699999809265137
			vertex -0.5 0.500000000000001 4.699999809265137
		endloop
	endfacet
	facet normal 0.7071069919206875 0 0.7071065704523448
		outer loop
			vertex -0.800000011920929 0.8000000119209301 5
			vertex -0.800000011920929 -0.8000000119209278 5
			vertex -0.5 -0.49999999999999895 4.699999809265137
		endloop
	endfacet
	facet normal 0 -0.7071069919206874 0.7071065704523449
		outer loop
			vertex -0.5 0.500000000000001 4.699999809265137
			vertex 0.5 0.500000000000001 4.699999809265137
			vertex 0.800000011920929 0.8000000119209301 5
		endloop
	endfacet
	facet normal 0 -0.7071069919206874 0.7071065704523449
		outer loop
			vertex -0.5 0.500000000000001 4.699999809265137
			vertex 0.800000011920929 0.8000000119209301 5
			vertex -0.800000011920929 0.8000000119209301 5
		endloop
	endfacet
	facet normal 0 -1 1.586033324481437e-16
		outer loop
			vertex 0.5 0.500000000000001 4.699999809265137
			vertex -0.5 0.500000000000001 4.699999809265137
			vertex -0.5 0.5000000000000009 4
		endloop
	endfacet
	facet normal 0 -1 1.586033324481437e-16
		outer loop
			vertex 0.5 0.500000000000001 4.699999809265137
			vertex -0.5 0.5000000000000009 4
			vertex 0.5 0.5000000000000009 4
		endloop
	endfacet
	facet normal 1 0 0
		outer loop
			vertex -0.4749999940395355 0.4749999940395364 4
			vertex -0.4749999940395355 -0.47499999403953463 4
			vertex -0.4749999940395355 -0.4749999940395354 0.5500000119209291
		endloop
	endfacet
	facet normal 1 0 0
		outer loop
			vertex -0.4749999940395355 0.4749999940395364 4
			vertex -0.4749999940395355 -0.4749999940395354 0.5500000119209291
			vertex -0.4749999940395355 0.47499999403953563 0.5500000119209288
		endloop
	endfacet
	facet normal 0 -1 2.252626434559274e-16
		outer loop
			vertex 0.4749999940395355 0.4749999940395364 4
			vertex -0.4749999940395355 0.47499999403953563 0.5500000119209288
			vertex 0.4749999940395355 0.47499999403953563 0.5500000119209288
		endloop
	endfacet
	facet normal 0 -1 2.252626434559274e-16
		outer loop
			vertex 0.4749999940395355 0.4749999940395364 4
			vertex -0.4749999940395355 0.4749999940395364 4
			vertex -0.4749999940395355 0.47499999403953563 0.5500000119209288
		endloop
	endfacet
	facet normal -1 0 0
		outer loop
			vertex 0.4749999940395355 0.4749999940395364 4
			vertex 0.4749999940395355 -0.4749999940395354 0.5500000119209291
			vertex 0.4749999940395355 -0.47499999403953463 4
		endloop
	endfacet
	facet normal -1 0 0
		outer loop
			vertex 0.4749999940395355 0.4749999940395364 4
			vertex 0.4749999940395355 0.47499999403953563 0.5500000119209288
			vertex 0.4749999940395355 -0.4749999940395354 0.5500000119209291
		endloop
	endfacet
	facet normal 0 1 -2.252626434559274e-16
		outer loop
			vertex 0.4749999940395355 -0.4749999940395354 0.5500000119209291
			vertex -0.4749999940395355 -0.4749999940395354 0.5500000119209291
			vertex -0.4749999940395355 -0.47499999403953463 4
		endloop
	endfacet
	facet normal 0 1 -2.252626434559274e-16
		outer loop
			vertex 0.4749999940395355 -0.4749999940395354 0.5500000119209291
			vertex -0.4749999940395355 -0.47499999403953463 4
			vertex 0.4749999940395355 -0.47499999403953463 4
		endloop
	endfacet
	facet normal 0 2.3373116601191995e-16 1
		outer loop
			vertex 0.4749999940395355 0.47499999403953563 0.5500000119209288
			vertex -0.4749999940395355 -0.4749999940395354 0.5500000119209291
			vertex 0.4749999940395355 -0.4749999940395354 0.5500000119209291
		endloop
	endfacet
	facet normal 0 2.3373116601191995e-16 1
		outer loop
			vertex 0.4749999940395355 0.47499999403953563 0.5500000119209288
			vertex -0.4749999940395355 0.47499999403953563 0.5500000119209288
			vertex -0.4749999940395355 -0.4749999940395354 0.5500000119209291
		endloop
	endfacet
	facet normal -0.7071070621654149 0 0.7071065002075687
		outer loop
			vertex 3.0399999618530273 0.500000000000001 4.699999809265137
			vertex 3.0399999618530273 -0.49999999999999895 4.699999809265137
			vertex 3.3399999141693115 -0.8000000119209278 5
		endloop
	endfacet
	facet normal -0.7071070621654147 0 0.7071065002075686
		outer loop
			vertex 3.0399999618530273 0.500000000000001 4.699999809265137
			vertex 3.3399999141693115 -0.8000000119209278 5
			vertex 3.3399999141693115 0.8000000119209301 5
		endloop
	endfacet
	facet normal -1 0 0
		outer loop
			vertex 3.0399999618530273 0.500000000000001 4.699999809265137
			vertex 3.0399999618530273 -0.4999999999999991 4
			vertex 3.0399999618530273 -0.49999999999999895 4.699999809265137
		endloop
	endfacet
	facet normal -1 0 0
		outer loop
			vertex 3.0399999618530273 0.500000000000001 4.699999809265137
			vertex 3.0399999618530273 0.5000000000000009 4
			vertex 3.0399999618530273 -0.4999999999999991 4
		endloop
	endfacet
	facet normal 0 0 1
		outer loop
			vertex 2.0399999618530273 -0.4999999999999991 4
			vertex 2.065000057220459 -0.47499999403953463 4
			vertex 2.065000057220459 0.4749999940395364 4
		endloop
	endfacet
	facet normal 0 0 1
		outer loop
			vertex 2.0399999618530273 -0.4999999999999991 4
			vertex 2.065000057220459 0.4749999940395364 4
			vertex 2.0399999618530273 0.5000000000000009 4
		endloop
	endfacet
	facet normal 0 0 1
		outer loop
			vertex 3.015000104904175 0.4749999940395364 4
			vertex 3.0399999618530273 0.5000000000000009 4
			vertex 2.0399999618530273 0.5000000000000009 4
		endloop
	endfacet
	facet normal 0 0 1
		outer loop
			vertex 3.015000104904175 0.4749999940395364 4
			vertex 2.0399999618530273 0.5000000000000009 4
			vertex 2.065000057220459 0.4749999940395364 4
		endloop
	endfacet
	facet normal 0 0 1
		outer loop
			vertex 3.0399999618530273 -0.4999999999999991 4
			vertex 3.015000104904175 -0.47499999403953463 4
			vertex 2.065000057220459 -0.47499999403953463 4
		endloop
	endfacet
	facet normal 0 0 1
		outer loop
			vertex 3.0399999618530273 -0.4999999999999991 4
			vertex 2.065000057220459 -0.47499999403953463 4
			vertex 2.0399999618530273 -0.4999999999999991 4
		endloop
	endfacet
	facet normal 0 0 1
		outer loop
			vertex 3.0399999618530273 -0.4999999999999991 4
			vertex 3.0399999618530273 0.5000000000000009 4
			vertex 3.015000104904175 0.4749999940395364 4
		endloop
	endfacet
	facet normal 0 0 1
		outer loop
			vertex 3.0399999618530273 -0.4999999999999991 4
			vertex 3.015000104904175 0.4749999940395364 4
			vertex 3.015000104904175 -0.47499999403953463 4
		endloop
	endfacet
	facet normal 1 0 0
		outer loop
			vertex 2.0399999618530273 0.500000000000001 4.699999809265137
			vertex 2.0399999618530273 -0.4999999999999991 4
			vertex 2.0399999618530273 0.5000000000000009 4
		endloop
	endfacet
	facet normal 1 0 0
		outer loop
			vertex 2.0399999618530273 0.500000000000001 4.699999809265137
			vertex 2.0399999618530273 -0.49999999999999895 4.699999809265137
			vertex 2.0399999618530273 -0.4999999999999991 4
		endloop
	endfacet
	facet normal 0 1 -2.3790499867221557e-16
		outer loop
			vertex 3.0399999618530273 -0.4999999999999991 4
			vertex 2.0399999618530273 -0.49999999999999895 4.699999809265137
			vertex 3.0399999618530273 -0.49999999999999895 4.699999809265137
		endloop
	endfacet
	facet normal 0 1 -2.3790499867221557e-16
		outer loop
			vertex 3.0399999618530273 -0.4999999999999991 4
			vertex 2.0399999618530273 -0.4999999999999991 4
			vertex 2.0399999618530273 -0.49999999999999895 4.699999809265137
		endloop
	endfacet
	facet normal 0 0.7071069919206876 0.7071065704523447
		outer loop
			vertex 1.7400000095367432 -0.8000000119209278 5
			vertex 3.3399999141693115 -0.8000000119209278 5
			vertex 3.0399999618530273 -0.49999999999999895 4.699999809265137
		endloop
	endfacet
	facet normal 0 0.7071069919206876 0.7071065704523447
		outer loop
			vertex 1.7400000095367432 -0.8000000119209278 5
			vertex 3.0399999618530273 -0.49999999999999895 4.699999809265137
			vertex 2.0399999618530273 -0.49999999999999895 4.699999809265137
		endloop
	endfacet
	facet normal 0.7071070621654149 0 0.7071065002075687
		outer loop
			vertex 1.7400000095367432 0.8000000119209301 5
			vertex 2.0399999618530273 -0.49999999999999895 4.699999809265137
			vertex 2.0399999618530273 0.500000000000001 4.699999809265137
		endloop
	endfacet
	facet normal 0.7071070621654147 0 0.7071065002075686
		outer loop
			vertex 1.7400000095367432 0.8000000119209301 5
			vertex 1.7400000095367432 -0.8000000119209278 5
			vertex 2.0399999618530273 -0.49999999999999895 4.699999809265137
		endloop
	endfacet
	facet normal 0 -0.7071069919206874 0.7071065704523449
		outer loop
			vertex 2.0399999618530273 0.500000000000001 4.699999809265137
			vertex 3.0399999618530273 0.500000000000001 4.699999809265137
			vertex 3.3399999141693115 0.8000000119209301 5
		endloop
	endfacet
	facet normal 0 -0.7071069919206874 0.7071065704523449
		outer loop
			vertex 2.0399999618530273 0.500000000000001 4.699999809265137
			vertex 3.3399999141693115 0.8000000119209301 5
			vertex 1.7400000095367432 0.8000000119209301 5
		endloop
	endfacet
	facet normal 0 -1 1.586033324481437e-16
		outer loop
			vertex 3.0399999618530273 0.500000000000001 4.699999809265137
			vertex 2.0399999618530273 0.500000000000001 4.699999809265137
			vertex 2.0399999618530273 0.5000000000000009 4
		endloop
	endfacet
	facet normal 0 -1 1.586033324481437e-16
		outer loop
			vertex 3.0399999618530273 0.500000000000001 4.699999809265137
			vertex 2.0399999618530273 0.5000000000000009 4
			vertex 3.0399999618530273 0.5000000000000009 4
		endloop
	endfacet
	facet normal 1 0 0
		outer loop
			vertex 2.065000057220459 0.4749999940395364 4
			vertex 2.065000057220459 -0.47499999403953463 4
			vertex 2.065000057220459 -0.4749999940395354 0.5500000119209291
		endloop
	endfacet
	facet normal 1 0 0
		outer loop
			vertex 2.065000057220459 0.4749999940395364 4
			vertex 2.065000057220459 -0.4749999940395354 0.5500000119209291
			vertex 2.065000057220459 0.47499999403953563 0.5500000119209288
		endloop
	endfacet
	facet normal 0 -1 2.252626434559274e-16
		outer loop
			vertex 3.015000104904175 0.4749999940395364 4
			vertex 2.065000057220459 0.47499999403953563 0.5500000119209288
			vertex 3.015000104904175 0.47499999403953563 0.5500000119209288
		endloop
	endfacet
	facet normal 0 -1 2.252626434559274e-16
		outer loop
			vertex 3.015000104904175 0.4749999940395364 4
			vertex 2.065000057220459 0.4749999940395364 4
			vertex 2.065000057220459 0.47499999403953563 0.5500000119209288
		endloop
	endfacet
	facet normal -1 0 0
		outer loop
			vertex 3.015000104904175 0.4749999940395364 4
			vertex 3.015000104904175 -0.4749999940395354 0.5500000119209291
			vertex 3.015000104904175 -0.47499999403953463 4
		endloop
	endfacet
	facet normal -1 0 0
		outer loop
			vertex 3.015000104904175 0.4749999940395364 4
			vertex 3.015000104904175 0.47499999403953563 0.5500000119209288
			vertex 3.015000104904175 -0.4749999940395354 0.5500000119209291
		endloop
	endfacet
	facet normal 0 1 -2.252626434559274e-16
		outer loop
			vertex 3.015000104904175 -0.4749999940395354 0.5500000119209291
			vertex 2.065000057220459 -0.4749999940395354 0.5500000119209291
			vertex 2.065000057220459 -0.47499999403953463 4
		endloop
	endfacet
	facet normal 0 1 -2.252626434559274e-16
		outer loop
			vertex 3.015000104904175 -0.4749999940395354 0.5500000119209291
			vertex 2.065000057220459 -0.47499999403953463 4
			vertex 3.015000104904175 -0.47499999403953463 4
		endloop
	endfacet
	facet normal 0 2.3373116601191995e-16 1
		outer loop
			vertex 3.015000104904175 0.47499999403953563 0.5500000119209288
			vertex 2.065000057220459 -0.4749999940395354 0.5500000119209291
			vertex 3.015000104904175 -0.4749999940395354 0.5500000119209291
		endloop
	endfacet
	facet normal 0 2.3373116601191995e-16 1
		outer loop
			vertex 3.015000104904175 0.47499999403953563 0.5500000119209288
			vertex 2.065000057220459 0.47499999403953563 0.5500000119209288
			vertex 2.065000057220459 -0.4749999940395354 0.5500000119209291
		endloop
	endfacet
	facet normal -0.7071067811865476 0 0.7071067811865476
		outer loop
			vertex 5.579999923706055 0.500000000000001 4.699999809265137
			vertex 5.579999923706055 -0.49999999999999895 4.699999809265137
			vertex 5.880000114440918 -0.8000000119209278 5
		endloop
	endfacet
	facet normal -0.7071067811865476 0 0.7071067811865476
		outer loop
			vertex 5.579999923706055 0.500000000000001 4.699999809265137
			vertex 5.880000114440918 -0.8000000119209278 5
			vertex 5.880000114440918 0.8000000119209301 5
		endloop
	endfacet
	facet normal -1 0 0
		outer loop
			vertex 5.579999923706055 0.500000000000001 4.699999809265137
			vertex 5.579999923706055 -0.4999999999999991 4
			vertex 5.579999923706055 -0.49999999999999895 4.699999809265137
		endloop
	endfacet
	facet normal -1 0 0
		outer loop
			vertex 5.579999923706055 0.500000000000001 4.699999809265137
			vertex 5.579999923706055 0.5000000000000009 4
			vertex 5.579999923706055 -0.4999999999999991 4
		endloop
	endfacet
	facet normal 0 0 1
		outer loop
			vertex 5.579999923706055 0.5000000000000009 4
			vertex 4.579999923706055 0.5000000000000009 4
			vertex 4.605000019073486 0.4749999940395364 4
		endloop
	endfacet
	facet normal 0 0 1
		outer loop
			vertex 5.554999828338623 0.4749999940395364 4
			vertex 5.579999923706055 0.5000000000000009 4
			vertex 4.605000019073486 0.4749999940395364 4
		endloop
	endfacet
	facet normal 0 0 1
		outer loop
			vertex 4.605000019073486 -0.47499999403953463 4
			vertex 4.579999923706055 0.5000000000000009 4
			vertex 4.579999923706055 -0.4999999999999991 4
		endloop
	endfacet
	facet normal 0 0 1
		outer loop
			vertex 4.605000019073486 -0.47499999403953463 4
			vertex 4.605000019073486 0.4749999940395364 4
			vertex 4.579999923706055 0.5000000000000009 4
		endloop
	endfacet
	facet normal 0 0 1
		outer loop
			vertex 5.579999923706055 -0.4999999999999991 4
			vertex 5.554999828338623 -0.47499999403953463 4
			vertex 4.605000019073486 -0.47499999403953463 4
		endloop
	endfacet
	facet normal 0 0 1
		outer loop
			vertex 5.579999923706055 -0.4999999999999991 4
			vertex 4.605000019073486 -0.47499999403953463 4
			vertex 4.579999923706055 -0.4999999999999991 4
		endloop
	endfacet
	facet normal 0 0 1
		outer loop
			vertex 5.579999923706055 -0.4999999999999991 4
			vertex 5.579999923706055 0.5000000000000009 4
			vertex 5.554999828338623 0.4749999940395364 4
		endloop
	endfacet
	facet normal 0 0 1
		outer loop
			vertex 5.579999923706055 -0.4999999999999991 4
			vertex 5.554999828338623 0.4749999940395364 4
			vertex 5.554999828338623 -0.47499999403953463 4
		endloop
	endfacet
	facet normal 1 0 0
		outer loop
			vertex 4.579999923706055 0.500000000000001 4.699999809265137
			vertex 4.579999923706055 -0.4999999999999991 4
			vertex 4.579999923706055 0.5000000000000009 4
		endloop
	endfacet
	facet normal 1 0 0
		outer loop
			vertex 4.579999923706055 0.500000000000001 4.699999809265137
			vertex 4.579999923706055 -0.49999999999999895 4.699999809265137
			vertex 4.579999923706055 -0.4999999999999991 4
		endloop
	endfacet
	facet normal 0 1 -2.3790499867221557e-16
		outer loop
			vertex 5.579999923706055 -0.4999999999999991 4
			vertex 4.579999923706055 -0.49999999999999895 4.699999809265137
			vertex 5.579999923706055 -0.49999999999999895 4.699999809265137
		endloop
	endfacet
	facet normal 0 1 -2.3790499867221557e-16
		outer loop
			vertex 5.579999923706055 -0.4999999999999991 4
			vertex 4.579999923706055 -0.4999999999999991 4
			vertex 4.579999923706055 -0.49999999999999895 4.699999809265137
		endloop
	endfacet
	facet normal 0 0.7071069919206876 0.7071065704523447
		outer loop
			vertex 4.28000020980835 -0.8000000119209278 5
			vertex 5.880000114440918 -0.8000000119209278 5
			vertex 5.579999923706055 -0.49999999999999895 4.699999809265137
		endloop
	endfacet
	facet normal 0 0.7071069919206876 0.7071065704523447
		outer loop
			vertex 4.28000020980835 -0.8000000119209278 5
			vertex 5.579999923706055 -0.49999999999999895 4.699999809265137
			vertex 4.579999923706055 -0.49999999999999895 4.699999809265137
		endloop
	endfacet
	facet normal 0.7071073431443937 0 0.7071062192282548
		outer loop
			vertex 4.28000020980835 0.8000000119209301 5
			vertex 4.579999923706055 -0.49999999999999895 4.699999809265137
			vertex 4.579999923706055 0.500000000000001 4.699999809265137
		endloop
	endfacet
	facet normal 0.7071073431443937 0 0.7071062192282548
		outer loop
			vertex 4.28000020980835 0.8000000119209301 5
			vertex 4.28000020980835 -0.8000000119209278 5
			vertex 4.579999923706055 -0.49999999999999895 4.699999809265137
		endloop
	endfacet
	facet normal 0 -0.7071069919206874 0.7071065704523449
		outer loop
			vertex 4.579999923706055 0.500000000000001 4.699999809265137
			vertex 5.579999923706055 0.500000000000001 4.699999809265137
			vertex 5.880000114440918 0.8000000119209301 5
		endloop
	endfacet
	facet normal 0 -0.7071069919206874 0.7071065704523449
		outer loop
			vertex 4.579999923706055 0.500000000000001 4.699999809265137
			vertex 5.880000114440918 0.8000000119209301 5
			vertex 4.28000020980835 0.8000000119209301 5
		endloop
	endfacet
	facet normal 0 -1 1.586033324481437e-16
		outer loop
			vertex 5.579999923706055 0.500000000000001 4.699999809265137
			vertex 4.579999923706055 0.500000000000001 4.699999809265137
			vertex 4.579999923706055 0.5000000000000009 4
		endloop
	endfacet
	facet normal 0 -1 1.586033324481437e-16
		outer loop
			vertex 5.579999923706055 0.500000000000001 4.699999809265137
			vertex 4.579999923706055 0.5000000000000009 4
			vertex 5.579999923706055 0.5000000000000009 4
		endloop
	endfacet
	facet normal 1 0 0
		outer loop
			vertex 4.605000019073486 0.4749999940395364 4
			vertex 4.605000019073486 -0.47499999403953463 4
			vertex 4.605000019073486 -0.4749999940395354 0.5500000119209291
		endloop
	endfacet
	facet normal 1 0 0
		outer loop
			vertex 4.605000019073486 0.4749999940395364 4
			vertex 4.605000019073486 -0.4749999940395354 0.5500000119209291
			vertex 4.605000019073486 0.47499999403953563 0.5500000119209288
		endloop
	endfacet
	facet normal 0 -1 2.2526264345592745e-16
		outer loop
			vertex 5.554999828338623 0.4749999940395364 4
			vertex 4.605000019073486 0.47499999403953563 0.5500000119209288
			vertex 5.554999828338623 0.47499999403953563 0.5500000119209288
		endloop
	endfacet
	facet normal 0 -1 2.2526264345592745e-16
		outer loop
			vertex 5.554999828338623 0.4749999940395364 4
			vertex 4.605000019073486 0.4749999940395364 4
			vertex 4.605000019073486 0.47499999403953563 0.5500000119209288
		endloop
	endfacet
	facet normal -1 0 0
		outer loop
			vertex 5.554999828338623 0.4749999940395364 4
			vertex 5.554999828338623 -0.4749999940395354 0.5500000119209291
			vertex 5.554999828338623 -0.47499999403953463 4
		endloop
	endfacet
	facet normal -1 0 0
		outer loop
			vertex 5.554999828338623 0.4749999940395364 4
			vertex 5.554999828338623 0.47499999403953563 0.5500000119209288
			vertex 5.554999828338623 -0.4749999940395354 0.5500000119209291
		endloop
	endfacet
	facet normal 0 1 -2.2526264345592745e-16
		outer loop
			vertex 5.554999828338623 -0.4749999940395354 0.5500000119209291
			vertex 4.605000019073486 -0.4749999940395354 0.5500000119209291
			vertex 4.605000019073486 -0.47499999403953463 4
		endloop
	endfacet
	facet normal 0 1 -2.2526264345592745e-16
		outer loop
			vertex 5.554999828338623 -0.4749999940395354 0.5500000119209291
			vertex 4.605000019073486 -0.47499999403953463 4
			vertex 5.554999828338623 -0.47499999403953463 4
		endloop
	endfacet
	facet normal 0 2.3373116601191995e-16 1
		outer loop
			vertex 5.554999828338623 0.47499999403953563 0.5500000119209288
			vertex 4.605000019073486 -0.4749999940395354 0.5500000119209291
			vertex 5.554999828338623 -0.4749999940395354 0.5500000119209291
		endloop
	endfacet
	facet normal 0 2.3373116601191995e-16 1
		outer loop
			vertex 5.554999828338623 0.47499999403953563 0.5500000119209288
			vertex 4.605000019073486 0.47499999403953563 0.5500000119209288
			vertex 4.605000019073486 -0.4749999940395354 0.5500000119209291
		endloop
	endfacet
	facet normal 1 0 0
		outer loop
			vertex -0.75 0.7500000000000009 4
			vertex -0.75 -0.7499999999999999 0.3000000119209291
			vertex -0.75 0.7500000000000001 0.3000000119209288
		endloop
	endfacet
	facet normal 1 0 0
		outer loop
			vertex -0.75 0.7500000000000009 4
			vertex -0.75 -0.7499999999999991 4
			vertex -0.75 -0.7499999999999999 0.3000000119209291
		endloop
	endfacet
	facet normal 0 1 -2.100421945247318e-16
		outer loop
			vertex 0.75 -0.7499999999999999 0.3000000119209291
			vertex -0.75 -0.7499999999999991 4
			vertex 0.75 -0.7499999999999991 4
		endloop
	endfacet
	facet normal 0 1 -2.100421945247318e-16
		outer loop
			vertex 0.75 -0.7499999999999999 0.3000000119209291
			vertex -0.75 -0.7499999999999999 0.3000000119209291
			vertex -0.75 -0.7499999999999991 4
		endloop
	endfacet
	facet normal -1 0 0
		outer loop
			vertex 0.75 0.7500000000000009 4
			vertex 0.75 -0.7499999999999999 0.3000000119209291
			vertex 0.75 -0.7499999999999991 4
		endloop
	endfacet
	facet normal -1 0 0
		outer loop
			vertex 0.75 0.7500000000000009 4
			vertex 0.75 0.7500000000000001 0.3000000119209288
			vertex 0.75 -0.7499999999999999 0.3000000119209291
		endloop
	endfacet
	facet normal 0 -1 2.100421945247318e-16
		outer loop
			vertex 0.75 0.7500000000000009 4
			vertex -0.75 0.7500000000000001 0.3000000119209288
			vertex 0.75 0.7500000000000001 0.3000000119209288
		endloop
	endfacet
	facet normal 0 -1 2.100421945247318e-16
		outer loop
			vertex 0.75 0.7500000000000009 4
			vertex -0.75 0.7500000000000009 4
			vertex -0.75 0.7500000000000001 0.3000000119209288
		endloop
	endfacet
	facet normal 0 0 -1
		outer loop
			vertex 0.7250000238418579 0.7250000238418588 4
			vertex -0.7250000238418579 0.7250000238418588 4
			vertex -0.75 0.7500000000000009 4
		endloop
	endfacet
	facet normal 0 0 -1
		outer loop
			vertex -0.75 -0.7499999999999991 4
			vertex -0.7250000238418579 0.7250000238418588 4
			vertex -0.7250000238418579 -0.725000023841857 4
		endloop
	endfacet
	facet normal 0 0 -1
		outer loop
			vertex -0.75 -0.7499999999999991 4
			vertex -0.75 0.7500000000000009 4
			vertex -0.7250000238418579 0.7250000238418588 4
		endloop
	endfacet
	facet normal 0 0 -1
		outer loop
			vertex 0.75 0.7500000000000009 4
			vertex 0.7250000238418579 0.7250000238418588 4
			vertex -0.75 0.7500000000000009 4
		endloop
	endfacet
	facet normal 0 0 -1
		outer loop
			vertex 0.7250000238418579 -0.725000023841857 4
			vertex -0.75 -0.7499999999999991 4
			vertex -0.7250000238418579 -0.725000023841857 4
		endloop
	endfacet
	facet normal 0 0 -1
		outer loop
			vertex 0.75 -0.7499999999999991 4
			vertex -0.75 -0.7499999999999991 4
			vertex 0.7250000238418579 -0.725000023841857 4
		endloop
	endfacet
	facet normal 0 0 -1
		outer loop
			vertex 0.75 -0.7499999999999991 4
			vertex 0.7250000238418579 0.7250000238418588 4
			vertex 0.75 0.7500000000000009 4
		endloop
	endfacet
	facet normal 0 0 -1
		outer loop
			vertex 0.75 -0.7499999999999991 4
			vertex 0.7250000238418579 -0.725000023841857 4
			vertex 0.7250000238418579 0.7250000238418588 4
		endloop
	endfacet
	facet normal -1 0 0
		outer loop
			vertex -0.7250000238418579 0.7250000238418588 4
			vertex -0.7250000238418579 -0.7250000238418578 0.3000000119209291
			vertex -0.7250000238418579 -0.725000023841857 4
		endloop
	endfacet
	facet normal -1 0 0
		outer loop
			vertex -0.7250000238418579 0.7250000238418588 4
			vertex -0.7250000238418579 0.725000023841858 0.3000000119209288
			vertex -0.7250000238418579 -0.7250000238418578 0.3000000119209291
		endloop
	endfacet
	facet normal 0 -1 2.1004219452473182e-16
		outer loop
			vertex 0.7250000238418579 -0.7250000238418578 0.3000000119209291
			vertex 0.7250000238418579 -0.725000023841857 4
			vertex -0.7250000238418579 -0.725000023841857 4
		endloop
	endfacet
	facet normal 0 -1 2.1004219452473182e-16
		outer loop
			vertex 0.7250000238418579 -0.7250000238418578 0.3000000119209291
			vertex -0.7250000238418579 -0.725000023841857 4
			vertex -0.7250000238418579 -0.7250000238418578 0.3000000119209291
		endloop
	endfacet
	facet normal 1 0 0
		outer loop
			vertex 0.7250000238418579 0.7250000238418588 4
			vertex 0.7250000238418579 -0.725000023841857 4
			vertex 0.7250000238418579 -0.7250000238418578 0.3000000119209291
		endloop
	endfacet
	facet normal 1 0 0
		outer loop
			vertex 0.7250000238418579 0.7250000238418588 4
			vertex 0.7250000238418579 -0.7250000238418578 0.3000000119209291
			vertex 0.7250000238418579 0.725000023841858 0.3000000119209288
		endloop
	endfacet
	facet normal 0 1 -2.1004219452473182e-16
		outer loop
			vertex 0.7250000238418579 0.7250000238418588 4
			vertex 0.7250000238418579 0.725000023841858 0.3000000119209288
			vertex -0.7250000238418579 0.725000023841858 0.3000000119209288
		endloop
	endfacet
	facet normal 0 1 -2.1004219452473182e-16
		outer loop
			vertex 0.7250000238418579 0.7250000238418588 4
			vertex -0.7250000238418579 0.725000023841858 0.3000000119209288
			vertex -0.7250000238418579 0.7250000238418588 4
		endloop
	endfacet
	facet normal 1.3138730645751466e-16 -1.7080354851506091e-16 -1
		outer loop
			vertex -0.7250000238418579 0.725000023841858 0.3000000119209288
			vertex -0.4000000059604645 0.3249999880790711 0.3000000119209289
			vertex -0.4000000059604645 -0.324999988079071 0.300000011920929
		endloop
	endfacet
	facet normal -5.889775396993334e-17 -2.297013078858863e-16 -1
		outer loop
			vertex -0.7250000238418579 0.725000023841858 0.3000000119209288
			vertex -0.4000000059604645 -0.324999988079071 0.300000011920929
			vertex -0.7250000238418579 -0.7250000238418578 0.3000000119209291
		endloop
	endfacet
	facet normal 0 -2.7755573134087303e-16 -1
		outer loop
			vertex 0.4000000059604645 -0.324999988079071 0.300000011920929
			vertex 0.7250000238418579 -0.7250000238418578 0.3000000119209291
			vertex -0.7250000238418579 -0.7250000238418578 0.3000000119209291
		endloop
	endfacet
	facet normal 0 -2.77555731340873e-16 -1
		outer loop
			vertex 0.4000000059604645 -0.324999988079071 0.300000011920929
			vertex -0.7250000238418579 -0.7250000238418578 0.3000000119209291
			vertex -0.4000000059604645 -0.324999988079071 0.300000011920929
		endloop
	endfacet
	facet normal -1.3138730645751469e-16 -1.7080354851506091e-16 -1
		outer loop
			vertex 0.7250000238418579 0.725000023841858 0.3000000119209288
			vertex 0.4000000059604645 -0.324999988079071 0.300000011920929
			vertex 0.4000000059604645 0.3249999880790711 0.3000000119209289
		endloop
	endfacet
	facet normal 0 -2.7755573134087293e-16 -1
		outer loop
			vertex 0.7250000238418579 0.725000023841858 0.3000000119209288
			vertex 0.4000000059604645 0.3249999880790711 0.3000000119209289
			vertex -0.4000000059604645 0.3249999880790711 0.3000000119209289
		endloop
	endfacet
	facet normal 5.889775396993336e-17 -2.297013078858863e-16 -1
		outer loop
			vertex 0.7250000238418579 0.725000023841858 0.3000000119209288
			vertex 0.7250000238418579 -0.7250000238418578 0.3000000119209291
			vertex 0.4000000059604645 -0.324999988079071 0.300000011920929
		endloop
	endfacet
	facet normal 0 -2.7755573134087293e-16 -1
		outer loop
			vertex 0.7250000238418579 0.725000023841858 0.3000000119209288
			vertex -0.4000000059604645 0.3249999880790711 0.3000000119209289
			vertex -0.7250000238418579 0.725000023841858 0.3000000119209288
		endloop
	endfacet
	facet normal -1 0 0
		outer loop
			vertex -0.4000000059604645 0.3249999880790711 0.3000000119209289
			vertex -0.4000000059604645 -0.32499998807907154 -2.25
			vertex -0.4000000059604645 -0.324999988079071 0.300000011920929
		endloop
	endfacet
	facet normal -1 0 0
		outer loop
			vertex -0.4000000059604645 0.3249999880790711 0.3000000119209289
			vertex -0.4000000059604645 0.32499998807907055 -2.25
			vertex -0.4000000059604645 -0.32499998807907154 -2.25
		endloop
	endfacet
	facet normal -0.966234938645361 0 -0.2576626541449023
		outer loop
			vertex -0.20000000298023224 -0.3249999880790717 -3
			vertex -0.4000000059604645 -0.32499998807907154 -2.25
			vertex -0.4000000059604645 0.32499998807907055 -2.25
		endloop
	endfacet
	facet normal -0.966234938645361 0 -0.2576626541449023
		outer loop
			vertex -0.20000000298023224 0.3249999880790704 -3
			vertex -0.20000000298023224 -0.3249999880790717 -3
			vertex -0.4000000059604645 0.32499998807907055 -2.25
		endloop
	endfacet
	facet normal 1 0 0
		outer loop
			vertex 0.4000000059604645 0.3249999880790711 0.3000000119209289
			vertex 0.4000000059604645 -0.32499998807907154 -2.25
			vertex 0.4000000059604645 0.32499998807907055 -2.25
		endloop
	endfacet
	facet normal 1 0 0
		outer loop
			vertex 0.4000000059604645 0.3249999880790711 0.3000000119209289
			vertex 0.4000000059604645 -0.324999988079071 0.300000011920929
			vertex 0.4000000059604645 -0.32499998807907154 -2.25
		endloop
	endfacet
	facet normal 0.966234938645361 0 -0.2576626541449023
		outer loop
			vertex 0.4000000059604645 -0.32499998807907154 -2.25
			vertex 0.20000000298023224 -0.3249999880790717 -3
			vertex 0.20000000298023224 0.3249999880790704 -3
		endloop
	endfacet
	facet normal 0.966234938645361 0 -0.2576626541449023
		outer loop
			vertex 0.4000000059604645 0.32499998807907055 -2.25
			vertex 0.4000000059604645 -0.32499998807907154 -2.25
			vertex 0.20000000298023224 0.3249999880790704 -3
		endloop
	endfacet
	facet normal 0 0 -1
		outer loop
			vertex 0.20000000298023224 0.3249999880790704 -3
			vertex -0.20000000298023224 -0.3249999880790717 -3
			vertex -0.20000000298023224 0.3249999880790704 -3
		endloop
	endfacet
	facet normal 0 0 -1
		outer loop
			vertex 0.20000000298023224 0.3249999880790704 -3
			vertex 0.20000000298023224 -0.3249999880790717 -3
			vertex -0.20000000298023224 -0.3249999880790717 -3
		endloop
	endfacet
	facet normal 1 0 0
		outer loop
			vertex 1.7899999618530273 0.7500000000000009 4
			vertex 1.7899999618530273 -0.7499999999999999 0.3000000119209291
			vertex 1.7899999618530273 0.7500000000000001 0.3000000119209288
		endloop
	endfacet
	facet normal 1 0 0
		outer loop
			vertex 1.7899999618530273 0.7500000000000009 4
			vertex 1.7899999618530273 -0.7499999999999991 4
			vertex 1.7899999618530273 -0.7499999999999999 0.3000000119209291
		endloop
	endfacet
	facet normal 0 1 -2.100421945247318e-16
		outer loop
			vertex 3.2899999618530273 -0.7499999999999999 0.3000000119209291
			vertex 1.7899999618530273 -0.7499999999999991 4
			vertex 3.2899999618530273 -0.7499999999999991 4
		endloop
	endfacet
	facet normal 0 1 -2.100421945247318e-16
		outer loop
			vertex 3.2899999618530273 -0.7499999999999999 0.3000000119209291
			vertex 1.7899999618530273 -0.7499999999999999 0.3000000119209291
			vertex 1.7899999618530273 -0.7499999999999991 4
		endloop
	endfacet
	facet normal -1 0 0
		outer loop
			vertex 3.2899999618530273 0.7500000000000009 4
			vertex 3.2899999618530273 -0.7499999999999999 0.3000000119209291
			vertex 3.2899999618530273 -0.7499999999999991 4
		endloop
	endfacet
	facet normal -1 0 0
		outer loop
			vertex 3.2899999618530273 0.7500000000000009 4
			vertex 3.2899999618530273 0.7500000000000001 0.3000000119209288
			vertex 3.2899999618530273 -0.7499999999999999 0.3000000119209291
		endloop
	endfacet
	facet normal 0 -1 2.100421945247318e-16
		outer loop
			vertex 3.2899999618530273 0.7500000000000009 4
			vertex 1.7899999618530273 0.7500000000000001 0.3000000119209288
			vertex 3.2899999618530273 0.7500000000000001 0.3000000119209288
		endloop
	endfacet
	facet normal 0 -1 2.100421945247318e-16
		outer loop
			vertex 3.2899999618530273 0.7500000000000009 4
			vertex 1.7899999618530273 0.7500000000000009 4
			vertex 1.7899999618530273 0.7500000000000001 0.3000000119209288
		endloop
	endfacet
	facet normal 0 0 -1
		outer loop
			vertex 1.7899999618530273 -0.7499999999999991 4
			vertex 1.815000057220459 0.7250000238418588 4
			vertex 1.815000057220459 -0.725000023841857 4
		endloop
	endfacet
	facet normal 0 0 -1
		outer loop
			vertex 1.7899999618530273 -0.7499999999999991 4
			vertex 1.7899999618530273 0.7500000000000009 4
			vertex 1.815000057220459 0.7250000238418588 4
		endloop
	endfacet
	facet normal 0 0 -1
		outer loop
			vertex 3.265000104904175 0.7250000238418588 4
			vertex 1.7899999618530273 0.7500000000000009 4
			vertex 3.2899999618530273 0.7500000000000009 4
		endloop
	endfacet
	facet normal 0 0 -1
		outer loop
			vertex 3.265000104904175 0.7250000238418588 4
			vertex 1.815000057220459 0.7250000238418588 4
			vertex 1.7899999618530273 0.7500000000000009 4
		endloop
	endfacet
	facet normal 0 0 -1
		outer loop
			vertex 3.2899999618530273 -0.7499999999999991 4
			vertex 1.815000057220459 -0.725000023841857 4
			vertex 3.265000104904175 -0.725000023841857 4
		endloop
	endfacet
	facet normal 0 0 -1
		outer loop
			vertex 3.2899999618530273 -0.7499999999999991 4
			vertex 1.7899999618530273 -0.7499999999999991 4
			vertex 1.815000057220459 -0.725000023841857 4
		endloop
	endfacet
	facet normal 0 0 -1
		outer loop
			vertex 3.2899999618530273 -0.7499999999999991 4
			vertex 3.265000104904175 0.7250000238418588 4
			vertex 3.2899999618530273 0.7500000000000009 4
		endloop
	endfacet
	facet normal 0 0 -1
		outer loop
			vertex 3.2899999618530273 -0.7499999999999991 4
			vertex 3.265000104904175 -0.725000023841857 4
			vertex 3.265000104904175 0.7250000238418588 4
		endloop
	endfacet
	facet normal -1 0 0
		outer loop
			vertex 1.815000057220459 0.7250000238418588 4
			vertex 1.815000057220459 -0.7250000238418578 0.3000000119209291
			vertex 1.815000057220459 -0.725000023841857 4
		endloop
	endfacet
	facet normal -1 0 0
		outer loop
			vertex 1.815000057220459 0.7250000238418588 4
			vertex 1.815000057220459 0.725000023841858 0.3000000119209288
			vertex 1.815000057220459 -0.7250000238418578 0.3000000119209291
		endloop
	endfacet
	facet normal 0 -1 2.1004219452473182e-16
		outer loop
			vertex 3.265000104904175 -0.7250000238418578 0.3000000119209291
			vertex 3.265000104904175 -0.725000023841857 4
			vertex 1.815000057220459 -0.725000023841857 4
		endloop
	endfacet
	facet normal 0 -1 2.1004219452473182e-16
		outer loop
			vertex 3.265000104904175 -0.7250000238418578 0.3000000119209291
			vertex 1.815000057220459 -0.725000023841857 4
			vertex 1.815000057220459 -0.7250000238418578 0.3000000119209291
		endloop
	endfacet
	facet normal 1 0 0
		outer loop
			vertex 3.265000104904175 0.7250000238418588 4
			vertex 3.265000104904175 -0.725000023841857 4
			vertex 3.265000104904175 -0.7250000238418578 0.3000000119209291
		endloop
	endfacet
	facet normal 1 0 0
		outer loop
			vertex 3.265000104904175 0.7250000238418588 4
			vertex 3.265000104904175 -0.7250000238418578 0.3000000119209291
			vertex 3.265000104904175 0.725000023841858 0.3000000119209288
		endloop
	endfacet
	facet normal 0 1 -2.1004219452473182e-16
		outer loop
			vertex 3.265000104904175 0.7250000238418588 4
			vertex 3.265000104904175 0.725000023841858 0.3000000119209288
			vertex 1.815000057220459 0.725000023841858 0.3000000119209288
		endloop
	endfacet
	facet normal 0 1 -2.1004219452473182e-16
		outer loop
			vertex 3.265000104904175 0.7250000238418588 4
			vertex 1.815000057220459 0.725000023841858 0.3000000119209288
			vertex 1.815000057220459 0.7250000238418588 4
		endloop
	endfacet
	facet normal 1.3138729440937222e-16 -1.7080354851506091e-16 -1
		outer loop
			vertex 1.815000057220459 0.725000023841858 0.3000000119209288
			vertex 2.140000104904175 0.3249999880790711 0.3000000119209289
			vertex 2.140000104904175 -0.324999988079071 0.300000011920929
		endloop
	endfacet
	facet normal -5.889774856904228e-17 -2.297013078858863e-16 -1
		outer loop
			vertex 1.815000057220459 0.725000023841858 0.3000000119209288
			vertex 2.140000104904175 -0.324999988079071 0.300000011920929
			vertex 1.815000057220459 -0.7250000238418578 0.3000000119209291
		endloop
	endfacet
	facet normal 0 -2.7755573134087303e-16 -1
		outer loop
			vertex 2.940000057220459 -0.324999988079071 0.300000011920929
			vertex 3.265000104904175 -0.7250000238418578 0.3000000119209291
			vertex 1.815000057220459 -0.7250000238418578 0.3000000119209291
		endloop
	endfacet
	facet normal 0 -2.77555731340873e-16 -1
		outer loop
			vertex 2.940000057220459 -0.324999988079071 0.300000011920929
			vertex 1.815000057220459 -0.7250000238418578 0.3000000119209291
			vertex 2.140000104904175 -0.324999988079071 0.300000011920929
		endloop
	endfacet
	facet normal -1.3138729440937224e-16 -1.7080354851506091e-16 -1
		outer loop
			vertex 3.265000104904175 0.725000023841858 0.3000000119209288
			vertex 2.940000057220459 -0.324999988079071 0.300000011920929
			vertex 2.940000057220459 0.3249999880790711 0.3000000119209289
		endloop
	endfacet
	facet normal 0 -2.7755573134087293e-16 -1
		outer loop
			vertex 3.265000104904175 0.725000023841858 0.3000000119209288
			vertex 2.940000057220459 0.3249999880790711 0.3000000119209289
			vertex 2.140000104904175 0.3249999880790711 0.3000000119209289
		endloop
	endfacet
	facet normal 5.88977485690423e-17 -2.297013078858863e-16 -1
		outer loop
			vertex 3.265000104904175 0.725000023841858 0.3000000119209288
			vertex 3.265000104904175 -0.7250000238418578 0.3000000119209291
			vertex 2.940000057220459 -0.324999988079071 0.300000011920929
		endloop
	endfacet
	facet normal 0 -2.7755573134087293e-16 -1
		outer loop
			vertex 3.265000104904175 0.725000023841858 0.3000000119209288
			vertex 2.140000104904175 0.3249999880790711 0.3000000119209289
			vertex 1.815000057220459 0.725000023841858 0.3000000119209288
		endloop
	endfacet
	facet normal -1 0 0
		outer loop
			vertex 2.140000104904175 0.3249999880790711 0.3000000119209289
			vertex 2.140000104904175 -0.32499998807907154 -2.25
			vertex 2.140000104904175 -0.324999988079071 0.300000011920929
		endloop
	endfacet
	facet normal -1 0 0
		outer loop
			vertex 2.140000104904175 0.3249999880790711 0.3000000119209289
			vertex 2.140000104904175 0.32499998807907055 -2.25
			vertex 2.140000104904175 -0.32499998807907154 -2.25
		endloop
	endfacet
	facet normal -0.9662350007778833 0 -0.2576624211478345
		outer loop
			vertex 2.3399999141693115 -0.3249999880790717 -3
			vertex 2.140000104904175 -0.32499998807907154 -2.25
			vertex 2.140000104904175 0.32499998807907055 -2.25
		endloop
	endfacet
	facet normal -0.9662350007778833 0 -0.2576624211478345
		outer loop
			vertex 2.3399999141693115 0.3249999880790704 -3
			vertex 2.3399999141693115 -0.3249999880790717 -3
			vertex 2.140000104904175 0.32499998807907055 -2.25
		endloop
	endfacet
	facet normal 1 0 0
		outer loop
			vertex 2.940000057220459 0.3249999880790711 0.3000000119209289
			vertex 2.940000057220459 -0.32499998807907154 -2.25
			vertex 2.940000057220459 0.32499998807907055 -2.25
		endloop
	endfacet
	facet normal 1 0 0
		outer loop
			vertex 2.940000057220459 0.3249999880790711 0.3000000119209289
			vertex 2.940000057220459 -0.324999988079071 0.300000011920929
			vertex 2.940000057220459 -0.32499998807907154 -2.25
		endloop
	endfacet
	facet normal 0.9662349243070799 0 -0.25766270791345003
		outer loop
			vertex 2.940000057220459 -0.32499998807907154 -2.25
			vertex 2.740000009536743 -0.3249999880790717 -3
			vertex 2.740000009536743 0.3249999880790704 -3
		endloop
	endfacet
	facet normal 0.9662349243070799 0 -0.25766270791345003
		outer loop
			vertex 2.940000057220459 0.32499998807907055 -2.25
			vertex 2.940000057220459 -0.32499998807907154 -2.25
			vertex 2.740000009536743 0.3249999880790704 -3
		endloop
	endfacet
	facet normal 0 0 -1
		outer loop
			vertex 2.740000009536743 0.3249999880790704 -3
			vertex 2.3399999141693115 -0.3249999880790717 -3
			vertex 2.3399999141693115 0.3249999880790704 -3
		endloop
	endfacet
	facet normal 0 0 -1
		outer loop
			vertex 2.740000009536743 0.3249999880790704 -3
			vertex 2.740000009536743 -0.3249999880790717 -3
			vertex 2.3399999141693115 -0.3249999880790717 -3
		endloop
	endfacet
	facet normal 1 0 0
		outer loop
			vertex 4.329999923706055 0.7500000000000009 4
			vertex 4.329999923706055 -0.7499999999999999 0.3000000119209291
			vertex 4.329999923706055 0.7500000000000001 0.3000000119209288
		endloop
	endfacet
	facet normal 1 0 0
		outer loop
			vertex 4.329999923706055 0.7500000000000009 4
			vertex 4.329999923706055 -0.7499999999999991 4
			vertex 4.329999923706055 -0.7499999999999999 0.3000000119209291
		endloop
	endfacet
	facet normal 0 1 -2.100421945247318e-16
		outer loop
			vertex 5.829999923706055 -0.7499999999999999 0.3000000119209291
			vertex 4.329999923706055 -0.7499999999999991 4
			vertex 5.829999923706055 -0.7499999999999991 4
		endloop
	endfacet
	facet normal 0 1 -2.100421945247318e-16
		outer loop
			vertex 5.829999923706055 -0.7499999999999999 0.3000000119209291
			vertex 4.329999923706055 -0.7499999999999999 0.3000000119209291
			vertex 4.329999923706055 -0.7499999999999991 4
		endloop
	endfacet
	facet normal -1 0 0
		outer loop
			vertex 5.829999923706055 0.7500000000000009 4
			vertex 5.829999923706055 -0.7499999999999999 0.3000000119209291
			vertex 5.829999923706055 -0.7499999999999991 4
		endloop
	endfacet
	facet normal -1 0 0
		outer loop
			vertex 5.829999923706055 0.7500000000000009 4
			vertex 5.829999923706055 0.7500000000000001 0.3000000119209288
			vertex 5.829999923706055 -0.7499999999999999 0.3000000119209291
		endloop
	endfacet
	facet normal 0 -1 2.100421945247318e-16
		outer loop
			vertex 5.829999923706055 0.7500000000000009 4
			vertex 4.329999923706055 0.7500000000000009 4
			vertex 4.329999923706055 0.7500000000000001 0.3000000119209288
		endloop
	endfacet
	facet normal 0 -1 2.100421945247318e-16
		outer loop
			vertex 5.829999923706055 0.7500000000000009 4
			vertex 4.329999923706055 0.7500000000000001 0.3000000119209288
			vertex 5.829999923706055 0.7500000000000001 0.3000000119209288
		endloop
	endfacet
	facet normal 0 0 -1
		outer loop
			vertex 5.829999923706055 0.7500000000000009 4
			vertex 4.355000019073486 0.7250000238418588 4
			vertex 4.329999923706055 0.7500000000000009 4
		endloop
	endfacet
	facet normal 0 0 -1
		outer loop
			vertex 4.355000019073486 -0.725000023841857 4
			vertex 4.329999923706055 -0.7499999999999991 4
			vertex 4.329999923706055 0.7500000000000009 4
		endloop
	endfacet
	facet normal 0 0 -1
		outer loop
			vertex 4.355000019073486 -0.725000023841857 4
			vertex 4.329999923706055 0.7500000000000009 4
			vertex 4.355000019073486 0.7250000238418588 4
		endloop
	endfacet
	facet normal 0 0 -1
		outer loop
			vertex 5.804999828338623 0.7250000238418588 4
			vertex 4.355000019073486 0.7250000238418588 4
			vertex 5.829999923706055 0.7500000000000009 4
		endloop
	endfacet
	facet normal 0 0 -1
		outer loop
			vertex 5.829999923706055 -0.7499999999999991 4
			vertex 4.355000019073486 -0.725000023841857 4
			vertex 5.804999828338623 -0.725000023841857 4
		endloop
	endfacet
	facet normal 0 0 -1
		outer loop
			vertex 5.829999923706055 -0.7499999999999991 4
			vertex 4.329999923706055 -0.7499999999999991 4
			vertex 4.355000019073486 -0.725000023841857 4
		endloop
	endfacet
	facet normal 0 0 -1
		outer loop
			vertex 5.829999923706055 -0.7499999999999991 4
			vertex 5.804999828338623 0.7250000238418588 4
			vertex 5.829999923706055 0.7500000000000009 4
		endloop
	endfacet
	facet normal 0 0 -1
		outer loop
			vertex 5.829999923706055 -0.7499999999999991 4
			vertex 5.804999828338623 -0.725000023841857 4
			vertex 5.804999828338623 0.7250000238418588 4
		endloop
	endfacet
	facet normal -1 0 0
		outer loop
			vertex 4.355000019073486 0.7250000238418588 4
			vertex 4.355000019073486 -0.7250000238418578 0.3000000119209291
			vertex 4.355000019073486 -0.725000023841857 4
		endloop
	endfacet
	facet normal -1 0 0
		outer loop
			vertex 4.355000019073486 0.7250000238418588 4
			vertex 4.355000019073486 0.725000023841858 0.3000000119209288
			vertex 4.355000019073486 -0.7250000238418578 0.3000000119209291
		endloop
	endfacet
	facet normal 0 -1 2.1004219452473182e-16
		outer loop
			vertex 5.804999828338623 -0.7250000238418578 0.3000000119209291
			vertex 5.804999828338623 -0.725000023841857 4
			vertex 4.355000019073486 -0.725000023841857 4
		endloop
	endfacet
	facet normal 0 -1 2.1004219452473182e-16
		outer loop
			vertex 5.804999828338623 -0.7250000238418578 0.3000000119209291
			vertex 4.355000019073486 -0.725000023841857 4
			vertex 4.355000019073486 -0.7250000238418578 0.3000000119209291
		endloop
	endfacet
	facet normal 1 0 0
		outer loop
			vertex 5.804999828338623 0.7250000238418588 4
			vertex 5.804999828338623 -0.725000023841857 4
			vertex 5.804999828338623 -0.7250000238418578 0.3000000119209291
		endloop
	endfacet
	facet normal 1 0 0
		outer loop
			vertex 5.804999828338623 0.7250000238418588 4
			vertex 5.804999828338623 -0.7250000238418578 0.3000000119209291
			vertex 5.804999828338623 0.725000023841858 0.3000000119209288
		endloop
	endfacet
	facet normal 0 1 -2.1004219452473182e-16
		outer loop
			vertex 5.804999828338623 0.7250000238418588 4
			vertex 5.804999828338623 0.725000023841858 0.3000000119209288
			vertex 4.355000019073486 0.725000023841858 0.3000000119209288
		endloop
	endfacet
	facet normal 0 1 -2.1004219452473182e-16
		outer loop
			vertex 5.804999828338623 0.7250000238418588 4
			vertex 4.355000019073486 0.725000023841858 0.3000000119209288
			vertex 4.355000019073486 0.7250000238418588 4
		endloop
	endfacet
	facet normal 1.3138739079457354e-16 -1.7080354851506091e-16 -1
		outer loop
			vertex 4.355000019073486 0.725000023841858 0.3000000119209288
			vertex 4.679999828338623 0.3249999880790711 0.3000000119209289
			vertex 4.679999828338623 -0.324999988079071 0.300000011920929
		endloop
	endfacet
	facet normal -5.889779177619847e-17 -2.297013078858863e-16 -1
		outer loop
			vertex 4.355000019073486 0.725000023841858 0.3000000119209288
			vertex 4.679999828338623 -0.324999988079071 0.300000011920929
			vertex 4.355000019073486 -0.7250000238418578 0.3000000119209291
		endloop
	endfacet
	facet normal 0 -2.7755573134087303e-16 -1
		outer loop
			vertex 5.480000019073486 -0.324999988079071 0.300000011920929
			vertex 5.804999828338623 -0.7250000238418578 0.3000000119209291
			vertex 4.355000019073486 -0.7250000238418578 0.3000000119209291
		endloop
	endfacet
	facet normal 0 -2.77555731340873e-16 -1
		outer loop
			vertex 5.480000019073486 -0.324999988079071 0.300000011920929
			vertex 4.355000019073486 -0.7250000238418578 0.3000000119209291
			vertex 4.679999828338623 -0.324999988079071 0.300000011920929
		endloop
	endfacet
	facet normal -1.3138739079457357e-16 -1.7080354851506091e-16 -1
		outer loop
			vertex 5.804999828338623 0.725000023841858 0.3000000119209288
			vertex 5.480000019073486 -0.324999988079071 0.300000011920929
			vertex 5.480000019073486 0.3249999880790711 0.3000000119209289
		endloop
	endfacet
	facet normal 0 -2.7755573134087293e-16 -1
		outer loop
			vertex 5.804999828338623 0.725000023841858 0.3000000119209288
			vertex 5.480000019073486 0.3249999880790711 0.3000000119209289
			vertex 4.679999828338623 0.3249999880790711 0.3000000119209289
		endloop
	endfacet
	facet normal 5.88977917761985e-17 -2.297013078858863e-16 -1
		outer loop
			vertex 5.804999828338623 0.725000023841858 0.3000000119209288
			vertex 5.804999828338623 -0.7250000238418578 0.3000000119209291
			vertex 5.480000019073486 -0.324999988079071 0.300000011920929
		endloop
	endfacet
	facet normal 0 -2.7755573134087293e-16 -1
		outer loop
			vertex 5.804999828338623 0.725000023841858 0.3000000119209288
			vertex 4.679999828338623 0.3249999880790711 0.3000000119209289
			vertex 4.355000019073486 0.725000023841858 0.3000000119209288
		endloop
	endfacet
	facet normal -1 0 0
		outer loop
			vertex 4.679999828338623 0.3249999880790711 0.3000000119209289
			vertex 4.679999828338623 -0.32499998807907154 -2.25
			vertex 4.679999828338623 -0.324999988079071 0.300000011920929
		endloop
	endfacet
	facet normal -1 0 0
		outer loop
			vertex 4.679999828338623 0.3249999880790711 0.3000000119209289
			vertex 4.679999828338623 0.32499998807907055 -2.25
			vertex 4.679999828338623 -0.32499998807907154 -2.25
		endloop
	endfacet
	facet normal -0.9662348478362034 0 -0.25766299467899745
		outer loop
			vertex 4.880000114440918 -0.3249999880790717 -3
			vertex 4.679999828338623 -0.32499998807907154 -2.25
			vertex 4.679999828338623 0.32499998807907055 -2.25
		endloop
	endfacet
	facet normal -0.9662348478362034 0 -0.25766299467899745
		outer loop
			vertex 4.880000114440918 0.3249999880790704 -3
			vertex 4.880000114440918 -0.3249999880790717 -3
			vertex 4.679999828338623 0.32499998807907055 -2.25
		endloop
	endfacet
	facet normal 1 0 0
		outer loop
			vertex 5.480000019073486 0.3249999880790711 0.3000000119209289
			vertex 5.480000019073486 -0.32499998807907154 -2.25
			vertex 5.480000019073486 0.32499998807907055 -2.25
		endloop
	endfacet
	facet normal 1 0 0
		outer loop
			vertex 5.480000019073486 0.3249999880790711 0.3000000119209289
			vertex 5.480000019073486 -0.324999988079071 0.300000011920929
			vertex 5.480000019073486 -0.32499998807907154 -2.25
		endloop
	endfacet
	facet normal 0.9662350007778833 0 -0.2576624211478345
		outer loop
			vertex 5.480000019073486 -0.32499998807907154 -2.25
			vertex 5.28000020980835 -0.3249999880790717 -3
			vertex 5.28000020980835 0.3249999880790704 -3
		endloop
	endfacet
	facet normal 0.9662350007778833 0 -0.2576624211478345
		outer loop
			vertex 5.480000019073486 0.32499998807907055 -2.25
			vertex 5.480000019073486 -0.32499998807907154 -2.25
			vertex 5.28000020980835 0.3249999880790704 -3
		endloop
	endfacet
	facet normal 0 0 -1
		outer loop
			vertex 5.28000020980835 0.3249999880790704 -3
			vertex 4.880000114440918 -0.3249999880790717 -3
			vertex 4.880000114440918 0.3249999880790704 -3
		endloop
	endfacet
	facet normal 0 0 -1
		outer loop
			vertex 5.28000020980835 0.3249999880790704 -3
			vertex 5.28000020980835 -0.3249999880790717 -3
			vertex 4.880000114440918 -0.3249999880790717 -3
		endloop
	endfacet
endsolid exported
